<?xml version="1.0" encoding="utf-8"?>
<!-- Generator: Adobe Illustrator 23.0.0, SVG Export Plug-In . SVG Version: 6.00 Build 0)  -->
<svg version="1.1" id="Layer_1" xmlns="http://www.w3.org/2000/svg" xmlns:xlink="http://www.w3.org/1999/xlink" x="0px" y="0px"
	 viewBox="0 0 70 70" style="enable-background:new 0 0 70 70;" xml:space="preserve">
<style type="text/css">
	.st0{display:none;}
</style>
<g>
	<path d="M70,21v-3.5h-8.5v-5.8c0-1.3-1.1-2.4-2.4-2.4H53V0.5h-3.5v8.8h-4.6V0.5h-3.5v8.8h-4.6V0.5h-3.5v8.8h-4.6V0.5h-3.5v8.8h-4.6
		V0.5H17v8.8h-6.1c-1.3,0-2.4,1.1-2.4,2.4v4.8H0V20h8.5v4.6H0v3.5h8.5v4.6H0v3.5h8.5v4.6H0v3.5h8.5V49H0v3.5h8.5v5.8
		c0,1.3,1.1,2.4,2.4,2.4H16v8.8h3.5v-8.8h4.6v8.8h3.5v-8.8h4.6v8.8h3.5v-8.8h4.6v8.8h3.5v-8.8h4.6v8.8H52v-8.8h7.1
		c1.3,0,2.4-1.1,2.4-2.4v-4.8H70V50h-8.5v-4.6H70v-3.5h-8.5v-4.6H70v-3.5h-8.5v-4.6H70v-3.5h-8.5V21H70z M58.5,57.7h-47V12.3h47
		V57.7z"/>
	<path d="M22.1,28.7h2.5c1.8,0,3.1-0.1,4-0.3c0.7-0.1,1.4-0.5,2-0.9c0.7-0.5,1.2-1.1,1.6-1.9c0.4-0.8,0.6-1.8,0.6-3
		c0-1.5-0.4-2.8-1.1-3.8c-0.7-1-1.7-1.6-2.8-1.9c-0.7-0.2-2.3-0.3-4.6-0.3H18V36h3.9v-7.3H22.1z M22.1,19.9H24c1.4,0,2.3,0,2.8,0.1
		c0.6,0.1,1.2,0.4,1.6,0.9s0.6,1,0.6,1.7c0,0.6-0.1,1.1-0.4,1.5s-0.7,0.7-1.2,0.9s-1.5,0.3-3.1,0.3h-2.1L22.1,19.9L22.1,19.9z"/>
	<path d="M47,35.6c1.2-0.4,2.1-0.9,2.7-1.5c0.9-0.9,1.6-2,2.1-3.4c0.4-1.2,0.6-2.5,0.6-4.1c0-1.8-0.2-3.3-0.6-4.6s-1-2.3-1.8-3.1
		c-0.9-0.9-1.8-1.5-3-1.9c-0.8-0.2-2.1-0.4-3.7-0.4h-7.1V36h7.3C45,36,46.1,35.8,47,35.6z M40.1,32.7V19.9h1.8
		c1.6,0,2.7,0.1,3.2,0.2c0.7,0.2,1.3,0.5,1.8,0.9s0.8,1.1,1.1,1.9s0.4,1.9,0.4,3.4S48.2,29,48,29.9s-0.6,1.5-1,1.9
		c-0.4,0.4-0.9,0.6-1.6,0.8c-0.5,0.1-1.3,0.2-2.4,0.2L40.1,32.7L40.1,32.7z"/>
	<polygon class="st0" points="23.1,45.6 20,45.6 20,42.5 18.4,42.5 18.4,50.4 20,50.4 20,46.9 23.1,46.9 23.1,50.4 24.7,50.4 
		24.7,42.5 23.1,42.5 	"/>
	<polygon class="st0" points="25.8,43.8 28.1,43.8 28.1,50.4 29.7,50.4 29.7,43.8 32,43.8 32,42.5 25.8,42.5 	"/>
	<path class="st0" d="M34.6,47.1H35c0.4,0,0.6,0,0.8,0.1s0.3,0.2,0.5,0.3s0.4,0.5,0.8,1.2l1.1,1.7h1.9l-1-1.5
		c-0.4-0.6-0.7-1-0.9-1.3c-0.2-0.2-0.5-0.5-0.9-0.7c0.7-0.1,1.2-0.3,1.6-0.7s0.5-0.9,0.5-1.5c0-0.5-0.1-0.9-0.3-1.2
		c-0.2-0.4-0.5-0.6-0.9-0.8c-0.4-0.1-1-0.2-1.8-0.2H33v7.9h1.6V47.1z M34.6,43.8h1.2c0.6,0,1,0,1.2,0c0.3,0,0.5,0.1,0.6,0.3
		s0.2,0.4,0.2,0.6c0,0.2-0.1,0.4-0.2,0.6s-0.3,0.3-0.4,0.3s-0.7,0.1-1.4,0.1h-1.2C34.6,45.7,34.6,43.8,34.6,43.8z"/>
	<path class="st0" d="M43.2,42.4c-0.8,0-1.4,0.3-1.8,0.8c-0.5,0.7-0.8,1.7-0.8,3.2s0.2,2.6,0.7,3.2c0.5,0.6,1.1,0.9,1.9,0.9
		c0.8,0,1.4-0.3,1.8-0.8c0.5-0.7,0.8-1.7,0.8-3.2s-0.3-2.6-0.8-3.2C44.6,42.7,44,42.4,43.2,42.4z M44,48.4c-0.1,0.3-0.2,0.5-0.3,0.6
		s-0.3,0.2-0.5,0.2s-0.3-0.1-0.5-0.2c-0.1-0.1-0.3-0.3-0.4-0.7c-0.1-0.3-0.1-1-0.1-1.9s0.1-1.6,0.2-2c0.1-0.3,0.2-0.5,0.3-0.6
		s0.3-0.2,0.5-0.2s0.3,0.1,0.5,0.2c0.1,0.1,0.3,0.3,0.4,0.7c0.1,0.3,0.1,1,0.1,1.9S44.1,48,44,48.4z"/>
	<path class="st0" d="M50.1,47.7c0.5-0.4,0.8-0.8,1-1c0.3-0.4,0.5-0.7,0.6-1s0.2-0.7,0.2-1c0-0.6-0.2-1.1-0.7-1.6
		c-0.4-0.4-1.1-0.6-1.8-0.6s-1.3,0.2-1.8,0.5c-0.5,0.4-0.8,1-0.8,1.8l1.5,0.2c0-0.4,0.1-0.8,0.3-0.9c0.2-0.2,0.4-0.3,0.8-0.3
		c0.3,0,0.6,0.1,0.8,0.3s0.3,0.4,0.3,0.8c0,0.3-0.1,0.6-0.3,0.9c-0.2,0.2-0.6,0.7-1.3,1.3c-0.8,0.8-1.4,1.4-1.7,1.9s-0.5,1-0.5,1.5
		H52v-1.4h-3c0.1-0.1,0.2-0.3,0.3-0.4C49.3,48.4,49.6,48.1,50.1,47.7z"/>
</g>
<g>
	<path d="M25.5,49.9h-1.7l-0.7-1.8H20l-0.6,1.8h-1.7l3.1-7.9h1.7L25.5,49.9z M22.6,46.7l-1.1-2.9l-1.1,2.9H22.6z"/>
	<path d="M35.1,47.3l1.5-0.2c0.1,0.5,0.3,0.9,0.6,1.1c0.3,0.2,0.7,0.4,1.2,0.4s0.9-0.1,1.2-0.3c0.3-0.2,0.4-0.5,0.4-0.8
		c0-0.2-0.1-0.3-0.2-0.5c-0.1-0.1-0.3-0.2-0.6-0.3c-0.2-0.1-0.6-0.2-1.3-0.3c-0.9-0.2-1.5-0.5-1.8-0.8c-0.5-0.4-0.7-1-0.7-1.6
		c0-0.4,0.1-0.8,0.3-1.1s0.6-0.6,1-0.8c0.4-0.2,0.9-0.3,1.5-0.3c1,0,1.7,0.2,2.2,0.6c0.5,0.4,0.8,1,0.8,1.7l-1.6,0.1
		c-0.1-0.4-0.2-0.7-0.4-0.9c-0.2-0.2-0.6-0.3-1-0.3c-0.5,0-0.8,0.1-1.1,0.3c-0.2,0.1-0.3,0.3-0.3,0.5s0.1,0.3,0.2,0.5
		c0.2,0.2,0.7,0.3,1.5,0.5s1.3,0.4,1.7,0.6c0.4,0.2,0.7,0.5,0.9,0.8s0.3,0.8,0.3,1.3s-0.1,0.9-0.4,1.3c-0.3,0.4-0.6,0.7-1.1,0.9
		s-1,0.3-1.7,0.3c-1,0-1.8-0.2-2.3-0.7S35.2,48.2,35.1,47.3z"/>
	<path d="M26.5,49.9V42h2.4l1.4,5.4l1.4-5.4h2.4v7.9h-1.5v-6.2L31,49.9h-1.5l-1.6-6.2v6.2H26.5z"/>
	<path d="M45,41.9c0.8,0,1.4,0.3,1.8,0.8c0.5,0.6,0.8,1.7,0.8,3.2s-0.3,2.6-0.8,3.2c-0.4,0.5-1,0.8-1.8,0.8s-1.4-0.3-1.9-0.9
		c-0.5-0.6-0.7-1.6-0.7-3.2c0-1.5,0.3-2.5,0.8-3.2C43.7,42.2,44.3,41.9,45,41.9z M45,43.2c-0.2,0-0.3,0.1-0.5,0.2
		c-0.1,0.1-0.3,0.3-0.3,0.6c-0.1,0.4-0.2,1-0.2,2s0,1.6,0.1,1.9c0.1,0.3,0.2,0.6,0.4,0.7c0.1,0.1,0.3,0.2,0.5,0.2s0.3-0.1,0.5-0.2
		c0.1-0.1,0.3-0.3,0.3-0.6c0.1-0.4,0.2-1,0.2-2s0-1.6-0.1-1.9c-0.1-0.3-0.2-0.6-0.4-0.7C45.4,43.3,45.2,43.2,45,43.2z"/>
	<path d="M52.5,49.9H51v-5.7c-0.6,0.5-1.2,0.9-2,1.1v-1.4c0.4-0.1,0.8-0.4,1.3-0.7c0.5-0.4,0.8-0.8,0.9-1.3h1.2L52.5,49.9L52.5,49.9
		z"/>
</g>
</svg>
