<?xml version="1.0" encoding="utf-8"?>
<!-- Generator: Adobe Illustrator 23.0.0, SVG Export Plug-In . SVG Version: 6.00 Build 0)  -->
<svg version="1.1" xmlns="http://www.w3.org/2000/svg" xmlns:xlink="http://www.w3.org/1999/xlink" x="0px" y="0px"
	 viewBox="0 0 70 70" style="enable-background:new 0 0 70 70;" xml:space="preserve">
<style type="text/css">
	.st0{display:none;fill:#FFFFFF;}
	.st1{fill:#FFFFFF;}
	.st2{display:none;}
	.st3{display:inline;}
</style>
<g id="Layer_1">
</g>
<g id="Layer_2">
</g>
<g id="Layer_3">
</g>
<g id="Layer_4">
</g>
<g id="Layer_5">
</g>
<g id="Layer_6">
</g>
<g id="Layer_7">
</g>
<g id="Layer_8">
</g>
<g id="Layer_9">
	<g>
		<path d="M66.34,0H3.66C1.64,0,0,1.64,0,3.66v62.67C0,68.36,1.64,70,3.66,70h62.67c2.02,0,3.66-1.64,3.66-3.66V3.66
			C70,1.64,68.36,0,66.34,0z M67,66.34C67,66.7,66.7,67,66.34,67H3.66C3.3,67,3,66.7,3,66.34V3.66C3,3.3,3.3,3,3.66,3h62.67
			C66.7,3,67,3.3,67,3.66V66.34z"/>
		<path d="M57.4,11H14.6c-2.54,0-4.6,2.06-4.6,4.6V28.4c0,2.54,2.06,4.6,4.6,4.6H57.4c2.54,0,4.6-2.06,4.6-4.6V15.6
			C62,13.06,59.94,11,57.4,11z M21,25h-6v-6h6V25z M30,25h-6v-6h6V25z M39,25h-6v-6h6V25z"/>
		<path d="M24.35,50.35h3.25v1.48c-0.64,0.38-1.2,0.65-1.7,0.81s-1.01,0.24-1.56,0.24c-1.15,0-2.04-0.37-2.68-1.1
			c-0.64-0.73-0.96-1.95-0.96-3.65c0-1.6,0.32-2.78,0.95-3.52c0.63-0.74,1.48-1.11,2.55-1.11c0.72,0,1.3,0.16,1.77,0.47
			c0.46,0.32,0.79,0.77,0.98,1.36l4.69-0.84c-0.29-1.02-0.71-1.86-1.28-2.52c-0.57-0.66-1.29-1.15-2.15-1.47
			c-0.86-0.32-2.16-0.47-3.9-0.47c-1.8,0-3.24,0.25-4.31,0.76c-1.37,0.66-2.41,1.62-3.12,2.89c-0.71,1.27-1.06,2.77-1.06,4.49
			c0,1.63,0.32,3.08,0.97,4.34c0.65,1.26,1.56,2.21,2.74,2.85c1.18,0.64,2.7,0.96,4.57,0.96c1.52,0,2.83-0.18,3.94-0.53
			c1.11-0.35,2.38-1.02,3.82-2v-6.71h-7.52V50.35z"/>
		<polygon points="48.91,49.11 46.47,40.3 41.86,40.3 39.43,49.12 37.76,40.3 33.14,40.3 36.65,56.05 41.42,56.05 44.17,46.13 
			46.93,56.05 51.7,56.05 55.17,40.3 50.58,40.3 		"/>
	</g>
</g>
</svg>
