<?xml version="1.0" encoding="utf-8"?>
<!-- Generator: Adobe Illustrator 23.0.0, SVG Export Plug-In . SVG Version: 6.00 Build 0)  -->
<svg version="1.1" xmlns="http://www.w3.org/2000/svg" xmlns:xlink="http://www.w3.org/1999/xlink" x="0px" y="0px"
	 viewBox="0 0 70 70" style="enable-background:new 0 0 70 70;" xml:space="preserve">
<style type="text/css">
	.st0{fill:#FBC198;}
	.st1{fill:#FF671F;}
	.st2{fill:#FFFFFF;}
	.st3{fill:#F9B180;}
	.st4{fill:#CCCCCC;}
	.st5{fill:#808080;}
	.st6{fill:#FC9B65;}
	.st7{fill:#FC8F59;}
	.st8{fill:#F7824D;}
	.st9{fill:#F4713D;}
	.st10{fill:#F4622F;}
	.st11{fill:#F75523;}
	.st12{fill:#FF6B31;}
	.st13{opacity:0.3;fill:#FF671F;}
	.st14{display:none;opacity:0.3;fill:#FF671F;}
	.st15{fill:#F9A46F;}
	.st16{fill:#FF6600;}
	.st17{opacity:0.3;fill:#FF6600;}
	.st18{fill:#FF4800;}
	.st19{fill:#808080;stroke:#808080;stroke-width:2.1738;stroke-linecap:round;stroke-linejoin:round;stroke-miterlimit:10;}
	.st20{fill:#B3B3B3;}
	.st21{fill:#FEDEC7;}
	.st22{fill:#F68A46;}
	.st23{opacity:0.6;fill:#FF671F;}
	.st24{fill:#FF671F;stroke:#FF671F;stroke-width:2.1738;stroke-linecap:round;stroke-linejoin:round;stroke-miterlimit:10;}
	.st25{opacity:0.75;fill:#FF671F;}
	.st26{opacity:0.5;fill:#FF671F;}
	.st27{opacity:0.88;}
	.st28{opacity:0.6;}
	.st29{opacity:0.8;}
	.st30{opacity:0.5;fill:#F68A46;}
	.st31{opacity:0.5;}
	.st32{fill:#FCC198;}
	.st33{fill:#999999;}
	.st34{fill:#E6E6E6;}
	.st35{display:none;}
	.st36{display:inline;fill:#FEDEC7;}
	.st37{display:inline;}
	.st38{display:inline;fill:#FEDEC7;stroke:#FFFFFF;stroke-width:0.5;stroke-miterlimit:10;}
</style>
<g id="load">
</g>
<g id="Layer_3">
	<g>
		<g>
			<g>
				<polygon class="st4" points="22.7,39 28.3,39 29.1,36.3 24.2,36.3 				"/>
				<polygon class="st4" points="29,39 34.7,39 34.7,36.3 29.7,36.3 				"/>
				<polygon class="st4" points="28,43 34.6,43 34.6,39.3 28.9,39.3 				"/>
				<polygon class="st4" points="20.5,43 27.1,43 28.2,39.3 22.5,39.3 				"/>
				<polygon class="st4" points="35.3,39 41,39 40.3,36.3 35.3,36.3 				"/>
				<polygon class="st4" points="40.9,36.3 41.7,39 47.3,39 45.8,36.3 				"/>
				<polygon class="st4" points="42.9,43 49.5,43 47.5,39.3 41.8,39.3 				"/>
				<polygon class="st4" points="35.4,43 42,43 41.1,39.3 35.4,39.3 				"/>
				<polygon class="st4" points="17.3,48.8 25.4,48.8 27,43.5 20.2,43.5 				"/>
				<polygon class="st4" points="26.4,48.8 34.5,48.8 34.6,43.5 27.8,43.5 				"/>
				<polygon class="st4" points="24,57.9 34.4,57.9 34.5,49.6 26.2,49.6 				"/>
				<polygon class="st4" points="12.3,57.9 22.7,57.9 25.2,49.6 16.9,49.6 				"/>
				<polygon class="st4" points="35.5,48.8 43.6,48.8 42.2,43.5 35.4,43.5 				"/>
				<polygon class="st4" points="44.6,48.8 52.7,48.8 49.8,43.5 43,43.5 				"/>
				<polygon class="st4" points="47.3,57.9 57.7,57.9 53.1,49.6 44.8,49.6 				"/>
				<polygon class="st4" points="35.6,57.9 46,57.9 43.8,49.6 35.5,49.6 				"/>
			</g>
			<line class="st19" x1="12.1" y1="60.3" x2="57.9" y2="60.3"/>
			<rect x="32.9" y="60.3" class="st5" width="4.3" height="6.7"/>
			<ellipse class="st5" cx="35" cy="66.7" rx="7" ry="1.8"/>
		</g>
		<g>
			<g id="XMLID_2_">
				<path id="XMLID_11_" class="st20" d="M45.2,15.9l4.5-3.9l-5.9,0.5C44.4,13.6,44.9,14.7,45.2,15.9z"/>
				<path id="XMLID_10_" class="st20" d="M34.8,7.8L31.9,3l-0.5,5.5C32.4,8.1,33.6,7.9,34.8,7.8z"/>
				<path id="XMLID_9_" class="st20" d="M41.5,10.1l0.9-5.8l-4.1,4.1C39.5,8.8,40.5,9.4,41.5,10.1z"/>
				<path id="XMLID_8_" class="st20" d="M45.4,19.3c-0.1,1.2-0.5,2.4-1,3.4l5.8-0.1L45.4,19.3z"/>
				<path id="XMLID_7_" class="st20" d="M39.5,27.7l4.3,3.5l-1.5-5.5C41.5,26.5,40.5,27.2,39.5,27.7z"/>
				<path id="XMLID_6_" class="st20" d="M35,28.7c-0.9,0-1.7-0.1-2.6-0.3l1,5.2l2.3-4.9C35.5,28.7,35.2,28.7,35,28.7z"/>
				<path id="XMLID_5_" class="st20" d="M28,10.5l-5.1-1.8l3,4.3C26.5,12.1,27.2,11.3,28,10.5z"/>
				<path id="XMLID_4_" class="st20" d="M26.5,24.2L24,28.7l4.7-2.2C27.8,25.9,27.1,25.1,26.5,24.2z"/>
				<path id="XMLID_3_" class="st20" d="M24.6,18.3c0-0.4,0-0.8,0.1-1.2l-4.8,1.8l4.9,1.3C24.6,19.6,24.6,18.9,24.6,18.3z"/>
			</g>
			<circle id="XMLID_1_" class="st20" cx="35" cy="18.3" r="7.9"/>
		</g>
	</g>
</g>
<g id="Layer_2">
</g>
</svg>
