<?xml version="1.0" encoding="utf-8"?>
<!-- Generator: Adobe Illustrator 23.0.0, SVG Export Plug-In . SVG Version: 6.00 Build 0)  -->
<svg version="1.1" xmlns="http://www.w3.org/2000/svg" xmlns:xlink="http://www.w3.org/1999/xlink" x="0px" y="0px"
	 viewBox="0 0 70 70" style="enable-background:new 0 0 70 70;" xml:space="preserve">
<style type="text/css">
	.st0{fill:#FBC198;}
	.st1{fill:#FF671F;}
	.st2{fill:#FFFFFF;}
	.st3{fill:#F9B180;}
	.st4{fill:#CCCCCC;}
	.st5{fill:#808080;}
	.st6{fill:#FC9B65;}
	.st7{fill:#FC8F59;}
	.st8{fill:#F7824D;}
	.st9{fill:#F4713D;}
	.st10{fill:#F4622F;}
	.st11{fill:#F75523;}
	.st12{fill:#FF6B31;}
	.st13{opacity:0.3;fill:#FF671F;}
	.st14{display:none;opacity:0.3;fill:#FF671F;}
	.st15{fill:#F9A46F;}
	.st16{fill:#FF6600;}
	.st17{opacity:0.3;fill:#FF6600;}
	.st18{fill:#FF4800;}
	.st19{fill:#808080;stroke:#808080;stroke-width:2.1738;stroke-linecap:round;stroke-linejoin:round;stroke-miterlimit:10;}
	.st20{fill:#B3B3B3;}
	.st21{fill:#FEDEC7;}
	.st22{fill:#F68A46;}
	.st23{opacity:0.6;fill:#FF671F;}
	.st24{fill:#FF671F;stroke:#FF671F;stroke-width:2.1738;stroke-linecap:round;stroke-linejoin:round;stroke-miterlimit:10;}
	.st25{opacity:0.75;fill:#FF671F;}
	.st26{opacity:0.5;fill:#FF671F;}
	.st27{opacity:0.88;}
	.st28{opacity:0.6;}
	.st29{opacity:0.8;}
	.st30{opacity:0.5;fill:#F68A46;}
	.st31{opacity:0.5;}
	.st32{fill:#FCC198;}
	.st33{fill:#999999;}
	.st34{fill:#E6E6E6;}
	.st35{display:none;}
	.st36{display:inline;fill:#FEDEC7;}
	.st37{display:inline;}
	.st38{display:inline;fill:#FEDEC7;stroke:#FFFFFF;stroke-width:0.5;stroke-miterlimit:10;}
</style>
<g id="load">
</g>
<g id="Layer_3">
	<g>
		<g>
			<g>
				<g>
					<path class="st34" d="M62.8,42l-17.2-5.2c-0.1,0.3-0.3,0.5-0.5,0.8l3.7,3.8c1.1,1.2,2.7,1.8,4.4,1.7l9.6-0.5
						c0.2,0,0.2-0.2,0.2-0.2C63,42.2,63,42,62.8,42z"/>
					<path class="st34" d="M26.4,50l13.1-12.3c-0.2-0.2-0.3-0.5-0.4-0.8l-5.1,1.3c-1.6,0.4-2.9,1.5-3.7,2.9l-4.3,8.5
						c-0.1,0.2,0,0.3,0.1,0.3C26.1,50,26.2,50.1,26.4,50z"/>
					<g>
						<path class="st34" d="M42.6,32.3c-0.2,0-0.3,0-0.5,0c-0.1,0-0.2,0-0.3,0l-0.3,0l-4.1-17.8c-0.1-0.3,0.1-0.6,0.4-0.7
							c0.1,0,0.1-0.1,0.3-0.1c0.2,0,0.4,0.1,0.5,0.3l5.2,8c1,1.5,1.2,3.3,0.7,4.9l-1.5,5.4L42.6,32.3z"/>
						<path class="st2" d="M37.9,14.1c0.1,0,0.1,0,0.2,0.1l5.2,8c0.9,1.4,1.1,3.1,0.7,4.6l-1.4,5.1c-0.2,0-0.4,0-0.5,0
							c-0.1,0-0.2,0-0.4,0l-4.1-17.5c0-0.2,0.1-0.3,0.2-0.3C37.8,14.1,37.9,14.1,37.9,14.1 M37.9,13.3c-0.2,0-0.3,0-0.4,0.1
							c-0.5,0.2-0.7,0.7-0.6,1.2L41,32.1l0.1,0.6l0.7-0.1c0.1,0,0.2,0,0.3,0c0.1,0,0.3,0,0.4,0l0.6,0.1l0.2-0.6l1.4-5.1
							c0.5-1.8,0.2-3.7-0.8-5.2l-5.2-8C38.6,13.5,38.3,13.3,37.9,13.3L37.9,13.3z"/>
					</g>
				</g>
				<path class="st33" d="M39.5,35.8c0.3,1.5,1.8,2.4,3.3,2.1c0.1,0,0.1,0,0.2,0c0,0,0,0,0,0c0.4-0.1,0.8-0.4,1.1-0.7c0,0,0,0,0,0
					c0.3-0.3,0.6-0.7,0.7-1.2c0.1-0.5,0.2-0.9,0-1.4c-0.2-1-1-1.8-1.9-2c-0.4-0.1-0.9-0.1-1.4,0C40.1,32.8,39.1,34.3,39.5,35.8z"/>
				<path class="st33" d="M42.2,38.9c-0.2,0-0.4,0-0.5,0l-2.4,26.5h5.9l-2.4-26.5C42.5,38.9,42.3,38.9,42.2,38.9z"/>
				<path class="st33" d="M30.1,33.7c-0.2,0-0.5,0-0.7,0L26,65.2h8.1l-3.3-31.6C30.6,33.7,30.4,33.7,30.1,33.7z"/>
				<path class="st33" d="M28.6,32.1C28.6,32.1,28.6,32.2,28.6,32.1C28.7,32.2,28.7,32.2,28.6,32.1L28.6,32.1
					C28.7,32.2,28.7,32.2,28.6,32.1C28.7,32.2,28.7,32.2,28.6,32.1c0.9,0.6,1.9,0.7,2.8,0.4c0,0,0,0,0,0c0.8-0.2,1.6-0.7,2.1-1.5
					c0.3-0.5,0.5-1.2,0.5-1.8v0c0-0.6-0.1-1.2-0.4-1.7c-0.3-0.5-0.7-1-1.2-1.3c-0.6-0.4-1.2-0.6-1.9-0.6c-1.2,0-2.3,0.6-3,1.6
					C26.5,28.9,27,31.1,28.6,32.1z"/>
				<g>
					<g>
						<path class="st4" d="M28.4,56.6c-0.4,0-0.7-0.2-0.8-0.6l-3.6-11.3c-0.4-1.3-0.5-2.7-0.1-4l0-0.1c0.2-0.7,0.4-1.4,0.8-2
							l3.6-5.9l0.3,0.1c0.4,0.2,0.7,0.3,1.1,0.3l0.3,0.1l-1,22.5c0,0.5-0.4,0.7-0.7,0.8L28.4,56.6z"/>
						<path class="st2" d="M28.6,33.2c0.4,0.2,0.8,0.3,1.2,0.4l-0.2,5.8l0,0c0,0,0,0.1,0,0.1l0,0l-0.2,5.1l0,0l-0.5,11.3
							c0,0.3-0.3,0.4-0.4,0.4c0,0,0,0-0.1,0c-0.1,0-0.3,0-0.4-0.3l-3.6-11.3c-0.4-1.3-0.4-2.6-0.1-3.8c0,0,0,0,0,0
							c0.2-0.7,0.4-1.3,0.8-2l0.4-0.6l0,0L28.6,33.2 M28.3,32.2L28,32.8l-3,5l-0.4,0.7c-0.4,0.7-0.7,1.4-0.9,2.1l0,0l0,0.1
							c-0.3,1.4-0.3,2.9,0.1,4.2l3.6,11.2c0.2,0.5,0.6,0.8,1.1,0.8c0.1,0,0.1,0,0.2,0c0.6-0.1,1-0.5,1-1.1l0.5-11.3l0.2-5.1l0,0l0,0
							l0.2-5.8l0-0.7l-0.7-0.1c-0.4-0.1-0.7-0.2-1-0.3L28.3,32.2L28.3,32.2z"/>
					</g>
					<g>
						<path class="st4" d="M34.7,29.1l0-0.3c0-0.4-0.1-0.8-0.3-1.1l-0.1-0.3l20-10.4c0.1-0.1,0.3-0.1,0.4-0.1c0.2,0,0.5,0.1,0.6,0.3
							c0.2,0.3,0.3,0.7,0,1.1l-8,8.7c-0.9,1-2.1,1.8-3.4,2.1c-0.7,0.2-1.4,0.3-2.1,0.3L34.7,29.1z"/>
						<path class="st2" d="M54.7,17.2c0.2,0,0.3,0.1,0.3,0.2c0.1,0.1,0.2,0.3,0,0.6l-8,8.7c-0.9,1-2,1.7-3.3,2c0,0,0,0,0,0
							c-0.6,0.2-1.3,0.3-1.9,0.3c-0.1,0-0.1,0-0.2,0l-0.7,0l0,0L35,28.8c0-0.4-0.1-0.9-0.3-1.3l5.1-2.7l0,0c0,0,0,0,0.1,0l0,0
							l4.5-2.3l0,0l10-5.2C54.5,17.2,54.6,17.2,54.7,17.2 M54.7,16.4c-0.2,0-0.4,0-0.6,0.1l-10,5.2l-4.5,2.4l0,0l0,0l-5.1,2.7
							l-0.6,0.3l0.2,0.6c0.1,0.3,0.2,0.7,0.2,1l0.1,0.7l0.7,0l5.8,0.2l0.8,0c0.1,0,0.1,0,0.2,0c0.7,0,1.4-0.1,2.1-0.3l0,0l0.1,0
							c1.4-0.4,2.6-1.2,3.6-2.2l8-8.7c0.5-0.5,0.4-1.1,0.1-1.5C55.4,16.6,55,16.4,54.7,16.4L54.7,16.4z"/>
					</g>
					<g>
						<path class="st4" d="M8.1,14.7c-0.3-0.2-0.5-0.6-0.3-1c0.1-0.3,0.3-0.5,0.7-0.5c0.1,0,0.1,0,0.2,0l11.5,2.5
							c1.3,0.3,2.6,1,3.6,1.9l0.1,0.1c0.5,0.5,0.9,1.1,1.3,1.7l3.3,6.1l-0.3,0.2c-0.3,0.2-0.6,0.5-0.9,0.8l-0.2,0.3L8.1,14.7z"/>
						<path class="st2" d="M8.5,13.5c0,0,0.1,0,0.1,0l11.5,2.5c1.3,0.3,2.4,0.9,3.4,1.8c0,0,0,0,0,0c0.5,0.5,0.9,1.1,1.3,1.7
							l0.4,0.7l0,0l2.8,5.1c-0.4,0.2-0.7,0.5-0.9,0.9l-4.9-3.1l0,0c0,0,0,0-0.1,0l0,0l-4.3-2.7l0,0l-9.5-6c-0.3-0.2-0.2-0.5-0.2-0.5
							C8.1,13.7,8.2,13.5,8.5,13.5 M8.5,12.8c-0.5,0-0.9,0.3-1.1,0.7c-0.2,0.6,0,1.1,0.5,1.5l9.5,6l4.3,2.7l0,0l0,0l4.9,3.1l0.6,0.4
							l0.4-0.5c0.2-0.3,0.5-0.5,0.8-0.7l0.6-0.4L28.6,25l-2.8-5.1l-0.4-0.7c-0.4-0.7-0.8-1.3-1.4-1.8l0,0l-0.1,0c-1-1-2.3-1.7-3.7-2
							L8.8,12.8C8.7,12.8,8.6,12.8,8.5,12.8L8.5,12.8z"/>
					</g>
				</g>
			</g>
			<g class="st35">
				<path class="st36" d="M59.4,48.5L45,37.7c-0.2,0.2-0.4,0.4-0.7,0.6l2.1,4.8c0.7,1.5,1.9,2.6,3.5,3.1l9.2,2.8
					c0.2,0.1,0.3-0.1,0.3-0.1C59.5,48.8,59.5,48.6,59.4,48.5z"/>
				<path class="st36" d="M22.4,43.6l16.5-7c-0.1-0.3-0.1-0.6-0.1-0.9l-5.2-0.5c-1.6-0.2-3.2,0.4-4.4,1.5l-7,6.5
					c-0.1,0.1-0.1,0.3,0,0.3C22.1,43.5,22.2,43.6,22.4,43.6z"/>
				<g class="st37">
					<path class="st21" d="M43.7,32.5c-0.2-0.1-0.5-0.2-0.8-0.3l-0.3-0.1L44.8,14c0-0.3,0.3-0.5,0.6-0.6c0,0,0,0,0,0
						c0.3,0,0.6,0.2,0.7,0.5l2.2,9.3c0.4,1.7,0,3.5-1,4.9L44,32.6L43.7,32.5z"/>
					<path class="st2" d="M45.4,13.8c0.1,0,0.2,0,0.3,0.2l2.2,9.3c0.4,1.6,0,3.3-0.9,4.6l-3.1,4.3c-0.3-0.1-0.5-0.3-0.8-0.3L45.2,14
						C45.2,13.8,45.3,13.8,45.4,13.8C45.4,13.8,45.4,13.8,45.4,13.8 M45.4,13L45.4,13L45.4,13c-0.6,0-1,0.4-1,0.9l-2.2,17.8
						l-0.1,0.7l0.6,0.2c0.2,0.1,0.5,0.1,0.7,0.3l0.6,0.3l0.4-0.5l3.1-4.3c1.1-1.5,1.5-3.4,1-5.2l-2.2-9.3C46.3,13.3,45.9,13,45.4,13
						L45.4,13z"/>
				</g>
			</g>
			<g class="st35">
				<path class="st36" d="M53.9,53.5l-9.8-15c-0.3,0.1-0.6,0.2-0.9,0.3l0.4,5.3c0.1,1.6,0.9,3.1,2.2,4.1l7.7,5.8
					c0.2,0.1,0.3,0,0.3,0C53.9,53.8,54,53.7,53.9,53.5z"/>
				<path class="st36" d="M20.8,36.2l17.9-1c0-0.3,0.1-0.6,0.2-0.9L34.2,32c-1.5-0.7-3.2-0.8-4.7-0.1l-8.8,3.8
					c-0.2,0.1-0.2,0.2-0.2,0.3C20.6,36.1,20.6,36.2,20.8,36.2z"/>
				<g class="st37">
					<path class="st21" d="M44.6,33.1c-0.2-0.2-0.4-0.4-0.6-0.5l-0.3-0.2L52,16c0.1-0.2,0.3-0.4,0.6-0.4h0.1l0.1,0
						c0.3,0.1,0.5,0.3,0.4,0.7l-1.1,9.5c-0.2,1.7-1.2,3.3-2.6,4.3l-4.6,3.1L44.6,33.1z"/>
					<path class="st2" d="M52.6,16.1C52.6,16.1,52.6,16.1,52.6,16.1c0.2,0,0.3,0.1,0.3,0.3l-1.1,9.5c-0.2,1.6-1.1,3.1-2.4,4
						l-4.4,2.9c-0.2-0.2-0.4-0.4-0.7-0.6l8.1-16C52.4,16.1,52.5,16.1,52.6,16.1 M52.6,15.3c-0.4,0-0.7,0.2-0.9,0.6l-8.1,16l-0.3,0.6
						l0.5,0.4c0.2,0.1,0.4,0.3,0.5,0.5l0.4,0.5l0.5-0.4l4.4-2.9c1.5-1,2.5-2.7,2.8-4.5l1.1-9.5c0.1-0.5-0.2-1-0.7-1.1
						C52.8,15.3,52.7,15.3,52.6,15.3L52.6,15.3z"/>
				</g>
			</g>
			<g class="st35">
				<path class="st36" d="M47.1,56.3L43,38.8c-0.3,0-0.6,0-0.9,0l-1.4,5.1c-0.4,1.6-0.2,3.3,0.7,4.6l5.2,8c0.1,0.2,0.3,0.1,0.3,0.1
					C47,56.6,47.1,56.5,47.1,56.3z"/>
				<path class="st36" d="M21.9,28.8L39.1,34c0.1-0.3,0.3-0.5,0.5-0.8l-3.7-3.8c-1.1-1.2-2.7-1.8-4.4-1.7L22,28.2
					c-0.2,0-0.2,0.2-0.2,0.2C21.7,28.6,21.7,28.7,21.9,28.8z"/>
				<g class="st37">
					<path class="st21" d="M45.3,33.9c-0.1-0.3-0.2-0.5-0.4-0.7L44.7,33l13.4-12.5c0.2-0.1,0.3-0.2,0.4-0.2c0.1,0,0.3,0,0.4,0.1
						c0.2,0.2,0.4,0.5,0.2,0.8l-4.3,8.5c-0.8,1.6-2.2,2.7-3.9,3.1l-5.4,1.4L45.3,33.9z"/>
					<path class="st2" d="M58.5,20.7c0.1,0,0.1,0,0.2,0.1c0.1,0,0.2,0.2,0.1,0.3l-4.3,8.5c-0.7,1.5-2.1,2.5-3.7,2.9l-5.1,1.3
						c-0.1-0.3-0.3-0.5-0.4-0.8l13.1-12.3C58.4,20.7,58.5,20.7,58.5,20.7 M58.5,19.9c-0.3,0-0.5,0.1-0.7,0.3L44.7,32.5l-0.5,0.4
						l0.4,0.5c0.1,0.2,0.3,0.4,0.3,0.6l0.2,0.6l0.6-0.2l5.1-1.3c1.8-0.4,3.3-1.7,4.1-3.3l4.3-8.5c0.2-0.5,0.1-1-0.3-1.3
						C59,20,58.7,19.9,58.5,19.9L58.5,19.9z"/>
				</g>
			</g>
			<g class="st35">
				<path class="st36" d="M39.7,56.6l2.2-17.8c-0.3-0.1-0.6-0.2-0.8-0.3l-3.1,4.3c-1,1.3-1.3,3-0.9,4.6l2.2,9.3
					c0,0.2,0.2,0.2,0.3,0.2C39.5,56.9,39.6,56.8,39.7,56.6z"/>
				<path class="st36" d="M25.5,22.1l14.4,10.8c0.2-0.2,0.4-0.4,0.7-0.6l-2.1-4.8c-0.7-1.5-1.9-2.6-3.5-3.1l-9.2-2.8
					c-0.2-0.1-0.3,0.1-0.3,0.1C25.3,21.9,25.3,22,25.5,22.1z"/>
				<g class="st37">
					<path class="st21" d="M51.9,35.9c-0.2,0-0.4,0-0.6,0l-5.6-0.6l0-0.3c0-0.3,0-0.5-0.1-0.8l-0.1-0.3l16.8-7.2
						c0.1,0,0.2-0.1,0.3-0.1c0.2,0,0.4,0.1,0.5,0.3c0.1,0.2,0.2,0.6-0.1,0.8l-7,6.6C54.9,35.4,53.4,35.9,51.9,35.9
						C51.9,35.9,51.9,35.9,51.9,35.9z"/>
					<path class="st2" d="M62.6,27c0.1,0,0.2,0.1,0.2,0.1c0,0.1,0.1,0.2,0,0.3l-7,6.5c-1.1,1-2.4,1.5-3.9,1.5c-0.2,0-0.4,0-0.6,0
						L46.1,35c0-0.3-0.1-0.6-0.1-0.9l16.5-7C62.5,27,62.5,27,62.6,27 M62.6,26.3c-0.1,0-0.3,0-0.4,0.1l-16.5,7L45,33.7l0.2,0.6
						c0.1,0.2,0.1,0.5,0.1,0.7l0,0.7l0.7,0.1l5.2,0.5c0.2,0,0.4,0,0.7,0c1.6,0,3.2-0.6,4.4-1.7l7-6.6c0.4-0.4,0.4-0.9,0.1-1.3
						C63.2,26.4,62.9,26.3,62.6,26.3L62.6,26.3z"/>
				</g>
			</g>
			<g class="st35">
				<path class="st36" d="M32.6,54.4l8.1-16c-0.2-0.2-0.5-0.4-0.7-0.6l-4.4,2.9c-1.4,0.9-2.2,2.4-2.4,4l-1.1,9.5
					c0,0.2,0.1,0.3,0.2,0.3C32.4,54.5,32.5,54.6,32.6,54.4z"/>
				<path class="st36" d="M31.1,17.1l9.8,15c0.3-0.1,0.6-0.2,0.9-0.3l-0.4-5.3c-0.1-1.6-0.9-3.1-2.2-4.1l-7.7-5.8
					c-0.2-0.1-0.3,0-0.3,0C31,16.8,31,16.9,31.1,17.1z"/>
				<g class="st37">
					<path class="st21" d="M53.2,39.5c-0.9,0-1.8-0.2-2.6-0.6l-5-2.4l0.1-0.3c0.1-0.3,0.1-0.5,0.2-0.8l0-0.3c0,0,18.3-1,18.3-1
						c0.3,0,0.6,0.2,0.7,0.5c0.1,0.3,0,0.6-0.4,0.7L55.6,39C54.8,39.3,54,39.5,53.2,39.5L53.2,39.5z"/>
					<path class="st2" d="M64.1,34.4c0.2,0,0.2,0.1,0.3,0.2c0,0.1,0,0.2-0.2,0.3l-8.8,3.8c-0.7,0.3-1.5,0.5-2.2,0.5
						c-0.8,0-1.7-0.2-2.5-0.6L46,36.2c0.1-0.3,0.2-0.6,0.2-0.9L64.1,34.4C64.1,34.4,64.1,34.4,64.1,34.4 M64.1,33.6L64.1,33.6
						L64.1,33.6l-18,1l-0.7,0l-0.1,0.7c0,0.2-0.1,0.5-0.1,0.7l-0.2,0.6l0.6,0.3l4.7,2.3c0.9,0.4,1.8,0.6,2.8,0.6
						c0.9,0,1.7-0.2,2.5-0.5l8.8-3.8c0.5-0.2,0.7-0.7,0.6-1.2C65,34,64.6,33.6,64.1,33.6L64.1,33.6z"/>
				</g>
			</g>
			<g class="st35">
				<g class="st37">
					<path class="st32" d="M19.6,54.3c-0.1,0-0.1,0-0.2,0c-0.3-0.1-0.7-0.3-0.6-0.8l0.5-11.8c0.1-1.4,0.5-2.7,1.3-3.8l0.1-0.1
						c0.4-0.6,0.9-1.1,1.5-1.6l5.4-4.3l0.2,0.2c0.3,0.3,0.6,0.5,0.9,0.7l0.3,0.2l-8.6,20.8C20.2,54.1,19.9,54.3,19.6,54.3L19.6,54.3
						z"/>
					<path class="st2" d="M27.4,32.3c0.3,0.3,0.7,0.6,1,0.8l-2.2,5.3l0,0c0,0,0,0,0,0.1l0,0l-1.9,4.7l0,0L20,53.6
						c-0.1,0.2-0.3,0.3-0.4,0.3c0,0-0.1,0-0.1,0c-0.1,0-0.4-0.1-0.4-0.5l0.5-11.8c0.1-1.3,0.5-2.6,1.2-3.6c0,0,0,0,0,0
						c0.4-0.6,0.9-1.1,1.4-1.6l0.6-0.5l0,0L27.4,32.3 M27.5,31.3L27,31.7l-4.5,3.6l-0.6,0.5c-0.6,0.5-1.1,1-1.6,1.7l0,0l0,0.1
						c-0.8,1.2-1.3,2.6-1.3,4l-0.5,11.8c0,0.7,0.5,1.1,0.9,1.2c0.1,0,0.2,0,0.3,0c0.5,0,0.9-0.3,1.1-0.7L25,43.5l1.9-4.7l0,0l0,0
						l2.2-5.3l0.3-0.6l-0.6-0.3c-0.3-0.2-0.6-0.4-0.9-0.6L27.5,31.3L27.5,31.3z"/>
				</g>
				<g class="st37">
					<path class="st32" d="M43.8,33.6c-0.2,0-0.3,0-0.5,0l-0.1,0c-0.7,0-1.4-0.2-2.1-0.5l-6.4-2.5l0.1-0.3c0.1-0.4,0.2-0.8,0.1-1.2
						l0-0.3l22.4-3l0.1,0c0.4,0,0.7,0.3,0.8,0.6c0.1,0.3,0,0.7-0.4,1l-10.5,5.5C46.1,33.4,44.9,33.6,43.8,33.6z"/>
					<path class="st2" d="M57.3,26.2c0.3,0,0.4,0.2,0.4,0.3c0,0.1,0.1,0.4-0.2,0.5L47,32.5c-1,0.5-2.1,0.8-3.3,0.8
						c-0.2,0-0.3,0-0.5,0c0,0,0,0,0,0c0,0,0,0,0,0c-0.7-0.1-1.4-0.2-2.1-0.5l-0.7-0.3l0,0L35,30.4c0.1-0.4,0.2-0.8,0.2-1.3l5.7-0.8
						l0,0c0,0,0.1,0,0.1,0l0,0l5-0.7l0,0L57.3,26.2C57.2,26.2,57.3,26.2,57.3,26.2 M57.3,25.4c-0.1,0-0.1,0-0.2,0l-11.2,1.5l-5,0.7
						l0,0l0,0l-5.7,0.8l-0.7,0.1l0,0.7c0,0.4,0,0.7-0.1,1.1l-0.2,0.6l0.6,0.2l5.4,2.1l0.7,0.3c0.7,0.3,1.5,0.5,2.2,0.5l0,0l0.1,0
						c0.1,0,0.3,0,0.5,0c1.3,0,2.5-0.3,3.6-0.9l10.5-5.5c0.6-0.3,0.7-0.9,0.6-1.4C58.2,25.7,57.8,25.4,57.3,25.4L57.3,25.4z"/>
				</g>
				<g class="st37">
					<path class="st32" d="M24.5,20.9L24.5,20.9l-10-13c-0.3-0.4-0.2-0.8,0-1.1c0.1-0.1,0.3-0.3,0.6-0.3c0.2,0,0.3,0,0.4,0.1l10,6.3
						c1.2,0.7,2.1,1.8,2.7,3c0.3,0.7,0.6,1.4,0.7,2.2l1,6.9l-0.3,0.1c-0.4,0.1-0.7,0.3-1.1,0.5l-0.3,0.2L24.5,20.9z"/>
					<path class="st2" d="M15.2,6.9c0.1,0,0.2,0,0.2,0.1l10,6.3c1.1,0.7,2,1.7,2.6,2.9c0,0,0,0,0,0c0.3,0.6,0.5,1.3,0.6,2l0.1,0.7
						l0,0l0.9,5.7c-0.4,0.1-0.8,0.3-1.2,0.5l-3.5-4.6l0,0c0,0,0,0-0.1-0.1l0,0l-3.1-4l0,0l-6.9-8.9c-0.2-0.3,0-0.5,0-0.6
						C14.9,7,15,6.9,15.2,6.9 M15.2,6.2c-0.3,0-0.7,0.1-0.9,0.4c-0.4,0.4-0.4,1.1-0.1,1.5l6.9,8.9l3.1,4l0,0l0,0l3.5,4.6l0.4,0.5
						l0.6-0.3c0.3-0.2,0.6-0.3,1-0.4l0.7-0.2l-0.1-0.7l-0.9-5.7l-0.1-0.8c-0.1-0.8-0.3-1.5-0.7-2.2l0,0l0-0.1
						c-0.6-1.3-1.6-2.4-2.8-3.2l-10-6.3C15.6,6.3,15.4,6.2,15.2,6.2L15.2,6.2z"/>
				</g>
			</g>
			<g class="st35">
				<g class="st37">
					<path class="st32" d="M12.1,49.1c-0.2,0-0.4-0.1-0.5-0.1c-0.3-0.2-0.5-0.6-0.3-1l4.5-10.9c0.5-1.3,1.4-2.4,2.5-3.2l0.1-0.1
						c0.6-0.4,1.2-0.8,1.9-1l6.6-2.2L27,31c0.2,0.4,0.4,0.7,0.6,1l0.2,0.3l-4.1,4.5l0,0l-0.1,0.1l-11,12
						C12.4,49.1,12.2,49.1,12.1,49.1L12.1,49.1z"/>
					<path class="st2" d="M26.7,31.1c0.2,0.4,0.4,0.8,0.7,1.1l-3.9,4.3l0,0c0,0,0,0-0.1,0.1l0,0L20,40.3l0,0l-7.6,8.3
						c-0.1,0.1-0.2,0.2-0.3,0.2c-0.1,0-0.2-0.1-0.3-0.1c-0.1,0-0.3-0.2-0.2-0.5l4.5-10.9c0.5-1.2,1.3-2.3,2.4-3c0,0,0,0,0,0
						c0.6-0.4,1.2-0.7,1.9-1l0.7-0.2l0,0L26.7,31.1 M27.1,30.2l-0.6,0.2l-5.5,1.8l-0.7,0.3c-0.7,0.2-1.4,0.6-2,1l0,0l-0.1,0
						c-1.2,0.8-2.1,2-2.6,3.3l-4.5,10.9c-0.3,0.6,0,1.2,0.5,1.5c0.1,0.1,0.3,0.2,0.7,0.2c0.3,0,0.6-0.1,0.9-0.4l7.6-8.3L24,37l0,0
						l0,0l3.9-4.3l0.5-0.5l-0.4-0.5c-0.2-0.3-0.4-0.6-0.6-0.9L27.1,30.2L27.1,30.2z"/>
				</g>
				<g class="st37">
					<path class="st32" d="M44.1,38.4c-1,0-2.1-0.2-3-0.6l-0.1,0c-0.6-0.3-1.3-0.7-1.8-1.2L34,31.9l0.2-0.3c0.2-0.3,0.4-0.7,0.5-1.1
						l0.1-0.3l22,4.9c0.5,0.1,0.7,0.5,0.6,0.8c0,0.3-0.2,0.7-0.7,0.8l-11.7,1.6C44.7,38.4,44.4,38.4,44.1,38.4L44.1,38.4z"/>
					<path class="st2" d="M35,30.7l5.6,1.2l0,0c0,0,0.1,0,0.1,0l0,0l5,1.1l0,0l11,2.4c0.3,0.1,0.4,0.4,0.4,0.5c0,0.1,0,0.4-0.4,0.4
						L45,37.9c-0.3,0-0.6,0.1-0.9,0.1c-1,0-2-0.2-2.8-0.6c0,0,0,0,0,0c-0.6-0.3-1.2-0.7-1.8-1.1l-0.6-0.5l0,0l-4.4-3.8
						C34.7,31.5,34.9,31.1,35,30.7 M34.5,29.8l-0.2,0.6c-0.1,0.3-0.3,0.7-0.5,1L33.5,32l0.5,0.4l4.4,3.8l0.6,0.5
						c0.6,0.5,1.2,0.9,1.9,1.2l0,0l0.1,0c1,0.4,2.1,0.7,3.2,0.7c0.3,0,0.7,0,1-0.1l11.7-1.6c0.7-0.1,1-0.6,1-1.1
						c0-0.6-0.4-1.1-0.9-1.2l-11-2.4l-5-1.1l0,0l0,0L35.2,30L34.5,29.8L34.5,29.8z"/>
				</g>
				<g class="st37">
					<path class="st32" d="M22.9,3.7c-0.1-0.4,0-0.8,0.4-1c0.1,0,0.2-0.1,0.4-0.1c0.2,0,0.5,0.1,0.6,0.3l7.2,9.4
						c0.8,1.1,1.4,2.4,1.5,3.7c0.1,0.8,0,1.5-0.1,2.3l-1.4,6.8l-0.3,0c-0.1,0-0.3,0-0.4,0c-0.3,0-0.5,0-0.8,0.1l-0.3,0.1L22.9,3.7z"
						/>
					<path class="st2" d="M23.7,3c0.1,0,0.2,0,0.3,0.2l7.2,9.4c0.8,1,1.3,2.3,1.4,3.6c0,0,0,0,0,0c0.1,0.7,0,1.4-0.1,2.1L32.4,19
						l0,0l-1.2,5.7c-0.1,0-0.3,0-0.4,0c-0.3,0-0.6,0-0.9,0.1l-1.7-5.5l0,0c0,0,0-0.1,0-0.1l0,0l-1.5-4.8l0,0L23.2,3.6
						c-0.1-0.3,0.1-0.5,0.2-0.5C23.5,3.1,23.6,3,23.7,3 M23.7,2.3c-0.3,0-0.5,0.1-0.6,0.1c-0.5,0.3-0.8,0.9-0.6,1.4l3.4,10.7
						l1.5,4.9l0,0l0,0l1.7,5.5l0.2,0.6l0.7-0.1c0.2,0,0.5-0.1,0.7-0.1c0.1,0,0.2,0,0.3,0l0.7,0.1l0.1-0.7l1.2-5.7l0.2-0.8
						c0.2-0.8,0.2-1.5,0.1-2.3l0,0l0-0.1c-0.2-1.4-0.7-2.8-1.6-3.9l-7.2-9.4C24.4,2.4,24,2.3,23.7,2.3L23.7,2.3z"/>
				</g>
			</g>
			<g class="st35">
				<g class="st37">
					<path class="st32" d="M6.7,41.7c-0.3,0-0.6-0.2-0.6-0.3c-0.2-0.3-0.3-0.7,0-1.1l8-8.7c0.9-1,2.1-1.8,3.4-2.1l0.1,0
						c0.6-0.2,1.3-0.3,2-0.3l7.1,0.2l0,0.3c0,0.4,0.1,0.8,0.3,1.2l0.1,0.3l-20,10.4C7,41.6,6.8,41.7,6.7,41.7L6.7,41.7z"/>
					<path class="st2" d="M19.6,29.5c0.1,0,0.1,0,0.2,0l0.7,0l0,0l5.8,0.2c0,0.4,0.1,0.9,0.3,1.3l-5.1,2.7l0,0c0,0,0,0-0.1,0l0,0
						L16.9,36l0,0l-10,5.2c-0.1,0-0.2,0.1-0.2,0.1c-0.2,0-0.3-0.1-0.3-0.2c-0.1-0.1-0.2-0.3,0-0.6l8-8.7c0.9-1,2-1.7,3.3-2
						c0,0,0,0,0,0C18.3,29.6,18.9,29.5,19.6,29.5 M19.6,28.8c-0.7,0-1.4,0.1-2.1,0.3l0,0l-0.1,0c-1.4,0.4-2.6,1.2-3.6,2.2l-8,8.7
						c-0.5,0.5-0.4,1.1-0.1,1.5C6,41.9,6.4,42,6.7,42c0.2,0,0.4,0,0.6-0.1l10-5.2l4.5-2.4l0,0l0,0l5.1-2.7l0.6-0.3l-0.2-0.6
						c-0.1-0.3-0.2-0.7-0.2-1L27,29l-0.7,0l-5.8-0.2l-0.8,0C19.7,28.8,19.6,28.8,19.6,28.8L19.6,28.8z"/>
				</g>
				<g class="st37">
					<path class="st32" d="M52.9,45.3c-0.1,0-0.1,0-0.2,0l-11.5-2.5c-1.3-0.3-2.6-1-3.6-1.9l0,0l0-0.1c-0.5-0.5-0.9-1.1-1.3-1.7
						L32.9,33l0.3-0.2c0.3-0.2,0.6-0.5,0.9-0.8l0.2-0.3l5.2,3.3l0,0l0.1,0.1l13.8,8.7c0.3,0.2,0.5,0.6,0.3,1
						C53.5,45,53.3,45.3,52.9,45.3L52.9,45.3z"/>
					<path class="st2" d="M34.4,32.2l4.9,3.1l0,0c0,0,0,0,0.1,0l0,0l4.3,2.7l0,0l9.5,6c0.3,0.2,0.2,0.5,0.2,0.5
						c0,0.1-0.1,0.3-0.4,0.3c0,0-0.1,0-0.1,0l-11.5-2.5c-1.3-0.3-2.4-0.9-3.4-1.8c0,0,0,0,0,0c-0.5-0.5-0.9-1.1-1.3-1.7l-0.4-0.7
						l0,0l-2.8-5.1C33.8,32.8,34.1,32.5,34.4,32.2 M34.2,31.2l-0.4,0.5c-0.2,0.3-0.5,0.5-0.8,0.7l-0.6,0.4l0.3,0.6l2.8,5.1l0.4,0.7
						c0.4,0.7,0.8,1.3,1.4,1.8l0,0l0.1,0c1,1,2.3,1.7,3.7,2l11.5,2.5c0.1,0,0.2,0,0.3,0c0.5,0,0.9-0.3,1.1-0.7
						c0.2-0.6,0-1.1-0.5-1.5l-9.5-6l-4.3-2.7l0,0l0,0l-4.9-3.1L34.2,31.2L34.2,31.2z"/>
				</g>
				<g class="st37">
					<path class="st32" d="M32.6,25.6c-0.4-0.2-0.7-0.3-1.1-0.3l-0.3-0.1l1-22.5c0-0.5,0.4-0.7,0.7-0.8l0.1,0c0.4,0,0.7,0.2,0.8,0.6
						l3.6,11.3c0.4,1.3,0.5,2.7,0.1,4l0,0.1c-0.2,0.7-0.5,1.4-0.8,2l-3.6,5.9L32.6,25.6z"/>
					<path class="st2" d="M33,2.3c0.1,0,0.3,0,0.4,0.3l3.6,11.3c0.4,1.3,0.4,2.6,0.1,3.8c0,0,0,0,0,0c-0.2,0.7-0.4,1.3-0.8,2
						l-0.4,0.6l0,0l-3,5c-0.4-0.2-0.8-0.3-1.2-0.4l0.2-5.8l0,0c0,0,0-0.1,0-0.1l0,0L32,14l0,0l0.5-11.3C32.5,2.3,32.8,2.3,33,2.3
						C32.9,2.3,32.9,2.3,33,2.3 M33,1.5c-0.1,0-0.1,0-0.2,0c-0.6,0.1-1,0.5-1,1.1l-0.5,11.3L31.1,19l0,0l0,0l-0.2,5.8l0,0.7l0.7,0.1
						c0.4,0.1,0.7,0.2,1,0.3l0.6,0.3l0.4-0.6l3-5l0.4-0.7c0.4-0.7,0.7-1.4,0.9-2.1l0,0l0-0.1c0.3-1.4,0.3-2.9-0.1-4.2L34.1,2.3
						C33.9,1.8,33.5,1.5,33,1.5L33,1.5z"/>
				</g>
			</g>
			<g class="st35">
				<g class="st37">
					<path class="st32" d="M4.3,32.8c-0.4,0-0.7-0.3-0.8-0.6c-0.1-0.3,0-0.8,0.4-1l10.5-5.5c1.1-0.6,2.2-0.8,3.4-0.8
						c0.2,0,0.3,0,0.5,0c0.8,0.1,1.5,0.2,2.2,0.5L27,28l-0.1,0.3c-0.1,0.4-0.2,0.8-0.1,1.2l0,0.3l-22.4,3L4.3,32.8z"/>
					<path class="st2" d="M17.8,25.4c0.2,0,0.3,0,0.5,0c0,0,0,0,0,0c0,0,0,0,0,0c0.7,0.1,1.4,0.2,2.1,0.5l0.7,0.3l0,0l5.4,2.1
						c-0.1,0.4-0.2,0.8-0.2,1.3l-5.7,0.8l0,0c0,0-0.1,0-0.1,0l0,0l-5,0.7l0,0L4.3,32.5c0,0-0.1,0-0.1,0c-0.3,0-0.4-0.2-0.4-0.3
						c0-0.1-0.1-0.4,0.2-0.5l10.5-5.5C15.6,25.6,16.7,25.4,17.8,25.4 M17.8,24.6L17.8,24.6c-1.3,0-2.5,0.3-3.6,0.9L3.7,31
						c-0.6,0.3-0.7,0.9-0.6,1.4c0.2,0.5,0.6,0.8,1.1,0.8c0.1,0,0.1,0,0.2,0l11.2-1.5l5-0.7l0,0l0,0l5.7-0.8l0.7-0.1l0-0.7
						c0-0.4,0-0.7,0.1-1.1l0.2-0.6l-0.6-0.2l-5.4-2.1l-0.7-0.3c-0.7-0.3-1.5-0.5-2.2-0.5l0,0l-0.1,0C18.2,24.6,18,24.6,17.8,24.6
						L17.8,24.6L17.8,24.6z"/>
				</g>
				<g class="st37">
					<path class="st32" d="M46.4,52.1c-0.2,0-0.3,0-0.4-0.1l-10-6.3c-1.2-0.7-2.1-1.8-2.7-3l0-0.1c-0.3-0.6-0.5-1.3-0.6-2.1l-1-6.9
						l0.3-0.1c0.4-0.1,0.7-0.3,1.1-0.5l0.3-0.2L47,50.7c0.3,0.4,0.2,0.8,0,1.1C46.9,51.9,46.7,52.1,46.4,52.1L46.4,52.1z"/>
					<path class="st2" d="M33.2,33.3l3.5,4.6l0,0c0,0,0,0,0.1,0.1l0,0l3.1,4l0,0l6.9,8.9c0.2,0.3,0,0.5,0,0.6c0,0-0.2,0.2-0.3,0.2
						c-0.1,0-0.2,0-0.2-0.1l-10-6.3c-1.1-0.7-2-1.7-2.6-2.9c0,0,0,0,0,0c-0.3-0.6-0.5-1.3-0.6-2l-0.1-0.7l0,0L32,33.9
						C32.4,33.7,32.8,33.6,33.2,33.3 M33.4,32.4l-0.6,0.3c-0.3,0.2-0.6,0.3-1,0.4l-0.7,0.2l0.1,0.7l0.9,5.7l0.1,0.8
						c0.1,0.8,0.3,1.5,0.7,2.2l0,0l0,0.1c0.6,1.3,1.6,2.4,2.8,3.1l10,6.3c0.2,0.1,0.4,0.2,0.6,0.2c0.3,0,0.7-0.1,0.9-0.4
						c0.4-0.4,0.4-1.1,0.1-1.5l-6.9-8.9l-3.1-4l0,0l0,0l-3.5-4.6L33.4,32.4L33.4,32.4z"/>
				</g>
				<g class="st37">
					<path class="st32" d="M33.8,26.6c-0.3-0.3-0.6-0.5-0.9-0.7l-0.3-0.2l2.3-5.6l0,0l0-0.1l6.2-15.1c0.1-0.3,0.4-0.5,0.7-0.5
						c0.1,0,0.1,0,0.2,0c0.3,0.1,0.7,0.4,0.6,0.8L42.3,17c-0.1,1.4-0.5,2.7-1.3,3.8L41,20.9c-0.4,0.6-0.9,1.1-1.5,1.6l-5.4,4.3
						L33.8,26.6z"/>
					<path class="st2" d="M42,4.7c0,0,0.1,0,0.1,0c0.1,0,0.4,0.1,0.4,0.5L41.9,17c-0.1,1.3-0.5,2.6-1.2,3.6c0,0,0,0,0,0
						c-0.4,0.6-0.9,1.1-1.4,1.6l-0.6,0.5l0,0l-4.5,3.6c-0.3-0.3-0.7-0.6-1-0.8l2.2-5.3l0,0c0,0,0,0,0-0.1l0,0l1.9-4.7l0,0L41.6,5
						C41.7,4.8,41.8,4.7,42,4.7 M42,4c-0.5,0-0.9,0.3-1.1,0.7l-4.3,10.4l-1.9,4.7l0,0l0,0l-2.2,5.3l-0.3,0.6l0.6,0.3
						c0.3,0.2,0.6,0.4,0.9,0.6l0.5,0.5l0.5-0.4l4.5-3.6l0.6-0.5c0.6-0.5,1.1-1,1.6-1.7l0,0l0-0.1c0.8-1.2,1.3-2.6,1.3-4l0.5-11.8
						c0-0.7-0.5-1.1-0.9-1.2C42.1,4,42,4,42,4L42,4z"/>
				</g>
			</g>
			<g class="st35">
				<g class="st37">
					<path class="st32" d="M4.8,23.7c-0.5-0.1-0.7-0.5-0.6-0.8c0-0.3,0.2-0.7,0.7-0.8l11.7-1.6c0.3,0,0.7-0.1,1-0.1
						c1,0,2.1,0.2,3,0.6c0.7,0.3,1.4,0.7,1.9,1.2l5.2,4.6l-0.2,0.3c-0.2,0.3-0.4,0.7-0.5,1.1l-0.1,0.3L4.8,23.7z"/>
					<path class="st2" d="M17.6,20.8c1,0,2,0.2,2.8,0.6c0,0,0,0,0,0c0.6,0.3,1.2,0.7,1.8,1.1l0.6,0.5l0,0l4.4,3.8
						c-0.2,0.4-0.4,0.7-0.6,1.1L21,26.9l0,0c0,0-0.1,0-0.1,0l0,0l-5-1.1l0,0l-11-2.4c-0.3-0.1-0.4-0.4-0.4-0.5c0-0.1,0-0.4,0.4-0.4
						l11.7-1.6C17,20.9,17.3,20.8,17.6,20.8 M17.6,20.1c-0.3,0-0.7,0-1,0.1L4.8,21.7c-0.7,0.1-1,0.6-1,1.1c0,0.6,0.4,1.1,0.9,1.2
						l11,2.4l5,1.1l0,0l0,0l5.7,1.2l0.7,0.1l0.2-0.6c0.1-0.3,0.3-0.7,0.5-1l0.4-0.5l-0.5-0.4l-4.4-3.8L22.7,22
						c-0.6-0.5-1.2-0.9-1.9-1.2l0,0l-0.1,0C19.7,20.3,18.7,20.1,17.6,20.1L17.6,20.1z"/>
				</g>
				<g class="st37">
					<path class="st32" d="M38,56.2c-0.2,0-0.5-0.1-0.6-0.3l-7.2-9.4c-0.8-1.1-1.4-2.4-1.5-3.7l0-0.1c-0.1-0.7,0-1.4,0.1-2.2
						l1.4-6.8l0.3,0c0.1,0,0.3,0,0.4,0c0.3,0,0.5,0,0.8-0.1l0.3-0.1l1.8,5.8l0,0l0,0.1l4.9,15.6c0.2,0.5-0.1,0.8-0.4,1
						C38.3,56.1,38.2,56.2,38,56.2L38,56.2z"/>
					<path class="st2" d="M31.7,34l1.7,5.5l0,0c0,0,0,0.1,0,0.1l0,0l1.5,4.8l0,0l3.4,10.7c0.1,0.3-0.1,0.5-0.2,0.5
						c0,0-0.1,0.1-0.2,0.1c-0.1,0-0.2,0-0.3-0.2l-7.2-9.4c-0.8-1-1.3-2.3-1.4-3.6c0,0,0,0,0,0c-0.1-0.7,0-1.4,0.1-2.1l0.1-0.7l0,0
						l1.2-5.7c0.1,0,0.3,0,0.4,0C31.1,34.1,31.4,34.1,31.7,34 M32.2,33.2l-0.7,0.1c-0.2,0-0.5,0.1-0.7,0.1c-0.1,0-0.2,0-0.3,0
						l-0.7-0.1L29.7,34l-1.2,5.7l-0.2,0.8c-0.2,0.8-0.2,1.5-0.1,2.3l0,0l0,0.1c0.2,1.4,0.7,2.8,1.6,3.9l7.2,9.4
						c0.2,0.3,0.6,0.5,0.9,0.5c0.3,0,0.5-0.1,0.6-0.1c0.5-0.3,0.8-0.9,0.6-1.4l-3.4-10.7l-1.5-4.9l0,0l0,0l-1.7-5.5L32.2,33.2
						L32.2,33.2z"/>
				</g>
				<g class="st37">
					<path class="st32" d="M34.6,27.9c-0.2-0.4-0.4-0.7-0.6-1l-0.2-0.3L49,10c0.2-0.2,0.4-0.3,0.6-0.3c0.2,0,0.4,0.1,0.5,0.1
						c0.3,0.2,0.5,0.5,0.3,1l-4.5,10.9c-0.5,1.3-1.4,2.4-2.5,3.2L43.3,25c-0.5,0.4-1.2,0.7-1.9,1l-6.6,2.2L34.6,27.9z"/>
					<path class="st2" d="M49.6,10.1c0.1,0,0.2,0.1,0.3,0.1c0.1,0,0.3,0.2,0.2,0.5l-4.5,10.9c-0.5,1.2-1.3,2.3-2.4,3c0,0,0,0,0,0
						c-0.6,0.4-1.2,0.7-1.9,1l-0.7,0.2l0,0L35,27.7c-0.2-0.4-0.4-0.8-0.7-1.1l3.9-4.3l0,0c0,0,0,0,0.1-0.1l0,0l3.4-3.7l0,0l7.6-8.3
						C49.4,10.1,49.5,10.1,49.6,10.1 M49.6,9.3c-0.3,0-0.6,0.1-0.9,0.4l-7.6,8.3l-3.4,3.8l0,0l0,0l-3.9,4.3l-0.5,0.5l0.4,0.5
						c0.2,0.3,0.4,0.6,0.6,0.9l0.3,0.6l0.6-0.2l5.5-1.8l0.7-0.3c0.7-0.2,1.4-0.6,2-1l0,0l0.1,0c1.2-0.8,2.1-2,2.6-3.3L50.7,11
						c0.3-0.6,0-1.2-0.5-1.5C50.1,9.5,49.9,9.3,49.6,9.3L49.6,9.3z"/>
				</g>
			</g>
		</g>
	</g>
</g>
<g id="Layer_2">
</g>
</svg>
