<?xml version="1.0" encoding="utf-8"?>
<!-- Generator: Adobe Illustrator 23.0.0, SVG Export Plug-In . SVG Version: 6.00 Build 0)  -->
<svg version="1.1" xmlns="http://www.w3.org/2000/svg" xmlns:xlink="http://www.w3.org/1999/xlink" x="0px" y="0px"
	 viewBox="0 0 70 70" style="enable-background:new 0 0 70 70;" xml:space="preserve">
<style type="text/css">
	.st0{fill:#FBC198;}
	.st1{fill:#FF671F;}
	.st2{fill:#FFFFFF;}
	.st3{fill:#F9B180;}
	.st4{fill:#CCCCCC;}
	.st5{fill:#808080;}
	.st6{fill:#FC9B65;}
	.st7{fill:#FC8F59;}
	.st8{fill:#F7824D;}
	.st9{fill:#F4713D;}
	.st10{fill:#F4622F;}
	.st11{fill:#F75523;}
	.st12{fill:#FF6B31;}
	.st13{opacity:0.3;fill:#FF671F;}
	.st14{display:none;opacity:0.3;fill:#FF671F;}
	.st15{fill:#F9A46F;}
	.st16{fill:#FF6600;}
	.st17{opacity:0.3;fill:#FF6600;}
	.st18{fill:#FF4800;}
	.st19{fill:#808080;stroke:#808080;stroke-width:2.1738;stroke-linecap:round;stroke-linejoin:round;stroke-miterlimit:10;}
	.st20{fill:#B3B3B3;}
	.st21{fill:#FEDEC7;}
	.st22{fill:#F68A46;}
	.st23{opacity:0.6;fill:#FF671F;}
	.st24{fill:#FF671F;stroke:#FF671F;stroke-width:2.1738;stroke-linecap:round;stroke-linejoin:round;stroke-miterlimit:10;}
	.st25{opacity:0.75;fill:#FF671F;}
	.st26{opacity:0.5;fill:#FF671F;}
	.st27{opacity:0.88;}
	.st28{opacity:0.6;}
	.st29{opacity:0.8;}
	.st30{opacity:0.5;fill:#F68A46;}
	.st31{opacity:0.5;}
	.st32{fill:#FCC198;}
	.st33{fill:#999999;}
	.st34{fill:#E6E6E6;}
	.st35{display:none;}
	.st36{display:inline;fill:#FEDEC7;}
	.st37{display:inline;}
	.st38{display:inline;fill:#FEDEC7;stroke:#FFFFFF;stroke-width:0.5;stroke-miterlimit:10;}
</style>
<g id="load">
	<g>
		<path class="st4" d="M53.8,18.1c-1-2.4-2.4-4.5-4.2-6.3c-1.8-1.8-3.9-3.3-6.3-4.2c-2.4-1-5-1.6-7.7-1.6s-5.3,0.5-7.7,1.6
			c-2.4,1-4.5,2.4-6.3,4.2c-1.8,1.8-3.3,3.9-4.2,6.3c-1,2.4-1.6,5-1.6,7.7c0,3.5,0.9,7,2.7,10c1.6,2.7,3.7,4.9,6.3,6.6v4.5
			c0,2.6,2.1,4.7,4.7,4.7h12.3c2.6,0,4.7-2.1,4.7-4.7v-4.5c2.6-1.7,4.7-3.9,6.3-6.6c1.8-3,2.7-6.5,2.7-10
			C55.3,23.2,54.8,20.6,53.8,18.1z"/>
		<g>
			<path class="st5" d="M42.3,56.4H28.7c-0.9,0-1.7-0.8-1.7-1.7c0-0.9,0.8-1.7,1.7-1.7h13.6c0.9,0,1.7,0.8,1.7,1.7
				C44,55.6,43.2,56.4,42.3,56.4z"/>
		</g>
		<path class="st5" d="M42.3,57.8H28.7c-0.9,0-1.7,0.8-1.7,1.7c0,0.9,0.8,1.7,1.7,1.7h1.5c0.7,2.2,2.8,3.9,5.3,3.9
			c2.5,0,4.6-1.6,5.3-3.9h1.5c0.9,0,1.7-0.8,1.7-1.7C44,58.5,43.2,57.8,42.3,57.8z M35.5,61.6c-0.5,0-1-0.2-1.4-0.5h2.8
			C36.5,61.5,36,61.6,35.5,61.6z"/>
		<g>
			<path class="st2" d="M24.4,24.3c-0.1,0-0.3,0-0.4-0.1c-0.9-0.2-1.4-1.2-1.2-2.1c0.6-2.2,1.7-4.1,3.3-5.7c1.6-1.6,3.5-2.8,5.7-3.4
				c0.9-0.3,1.8,0.2,2.1,1.1c0.3,0.9-0.2,1.8-1.1,2.1c-3.2,1-5.8,3.6-6.7,6.8C25.8,23.8,25.2,24.3,24.4,24.3z"/>
		</g>
	</g>
</g>
<g id="Layer_3">
</g>
<g id="Layer_2">
</g>
</svg>
