<?xml version="1.0" encoding="utf-8"?>
<!-- Generator: Adobe Illustrator 23.0.0, SVG Export Plug-In . SVG Version: 6.00 Build 0)  -->
<svg version="1.1" xmlns="http://www.w3.org/2000/svg" xmlns:xlink="http://www.w3.org/1999/xlink" x="0px" y="0px"
	 viewBox="0 0 70 70" style="enable-background:new 0 0 70 70;" xml:space="preserve">
<style type="text/css">
	.st0{fill:#FBC198;}
	.st1{fill:#FF671F;}
	.st2{fill:#FFFFFF;}
	.st3{fill:#F9B180;}
	.st4{fill:#F8A46F;}
	.st5{fill:#FC9B65;}
	.st6{fill:#FC8F59;}
	.st7{fill:#F7824D;}
	.st8{fill:#F4713D;}
	.st9{fill:#F4622F;}
	.st10{fill:#F75523;}
	.st11{fill:#FF6B31;}
	.st12{opacity:0.3;fill:#FF671F;}
	.st13{display:none;opacity:0.3;fill:#FF671F;}
	.st14{fill:#F9A46F;}
	.st15{fill:#FF6600;}
	.st16{opacity:0.3;fill:#FF6600;}
	.st17{fill:#FF4800;}
	.st18{fill:#FEDEC7;}
	.st19{fill:#F68A46;}
	.st20{fill:#FF671F;stroke:#FF671F;stroke-width:2.1738;stroke-linecap:round;stroke-linejoin:round;stroke-miterlimit:10;}
	.st21{opacity:0.6;fill:#FF671F;}
	.st22{opacity:0.75;fill:#FF671F;}
	.st23{opacity:0.5;fill:#FF671F;}
	.st24{opacity:0.88;}
	.st25{opacity:0.6;}
	.st26{opacity:0.8;}
	.st27{opacity:0.5;fill:#F68A46;}
	.st28{opacity:0.5;}
	.st29{fill:#FCC198;}
	.st30{display:none;}
	.st31{display:inline;fill:#FEDEC7;}
	.st32{display:inline;}
	.st33{display:inline;fill:#FEDEC7;stroke:#FFFFFF;stroke-width:0.5;stroke-miterlimit:10;}
</style>
<g id="load">
</g>
<g id="Layer_3">
	<g class="st24">
		<g>
			<path class="st1" d="M29.1,53.5h-7.9v8.7h27.4v-8.7H29.9c-0.4,0.6-0.9,1.2-1.3,1.8C28.7,54.7,28.9,54.1,29.1,53.5z"/>
			<path class="st18" d="M39.7,20.4h8.9v-8.7H21.2v8.7h15.5c1.6-2.2,3.3-4.5,4.9-6.7C41,16,40.4,18.2,39.7,20.4z"/>
			<path class="st29" d="M48.6,30.6v-8.7h-9.3c-0.8,2.9-1.6,5.8-2.4,8.7H48.6z"/>
			<path class="st29" d="M21.2,21.9v8.7h8.1c2.1-2.9,4.2-5.8,6.3-8.7H21.2z"/>
			<path class="st14" d="M24.4,37.4c1.2-1.7,2.4-3.3,3.6-5h-6.8v8.7h11.4c0.4-1.2,0.7-2.5,1.1-3.7C30.6,37.4,27.5,37.4,24.4,37.4z"
				/>
			<path class="st14" d="M48.6,41.1v-8.7H45c-2.1,2.9-4.2,5.8-6.3,8.7H48.6z"/>
			<path class="st19" d="M21.2,43v8.7h8.4c0.8-2.9,1.7-5.8,2.5-8.7H21.2z"/>
			<path class="st19" d="M48.6,51.6V43H37.4c-2.1,2.9-4.2,5.8-6.3,8.7H48.6z"/>
		</g>
		<g>
			<path class="st1" d="M47.8,7.3c-1.5,0-3.1,0-4.6,0c-1,0-1.9,0-2.9,0c-1,0-0.3,0.9-0.1-0.4c0.8-3.8-3.7-4-6.1-3.9
				c-1.3,0.1-2.6-0.1-3.6,0.9c-1.4,1.3-0.5,2.6-1.1,3.9c0.4-0.9,0.8-0.4-0.6-0.5c-1-0.1-2.1,0-3.1,0c-1.5,0-3.2-0.2-4.7,0.1
				c-4.9,1.2-3.5,8.4-3.5,12.1c0,8.6,0,17.2,0,25.8c0,5.3-0.6,10.9,0,16.1C18.3,68,27.5,66,32,66c4.2,0,8.5,0,12.7,0
				c2.1,0,4.6,0.4,6.3-1.3c2.8-2.8,1.3-10.6,1.3-14c0-9.7,0-19.4,0-29.2C52.3,17,54.2,8.2,47.8,7.3c-1-0.1-1,1.5,0,1.6
				c4.2,0.6,2.8,7.8,2.8,10.6c0,6.3,0,12.5,0,18.8c0,5.7,0,11.5,0,17.2c0,3.2,1.1,8-3,8.8c-4.7,0.9-10.5,0-15.3,0
				c-3.4,0-12,1.9-13.2-3c-0.8-3.2,0-7.7,0-11c0-6.5,0-13.1,0-19.6c0-5.6,0-11.2,0-16.8c0-2.3-0.1-4.3,2.9-5c2.5-0.6,5.7,0,8.2,0
				c0.4,0,0.8-0.4,0.8-0.8c0-4.9,7.5-4.8,7.5,0c0,0.4,0.4,0.8,0.8,0.8c2.8,0,5.6,0,8.3,0C48.9,9,48.9,7.3,47.8,7.3z"/>
		</g>
	</g>
</g>
<g id="Layer_2">
</g>
</svg>
