<?xml version="1.0" encoding="utf-8"?>
<!-- Generator: Adobe Illustrator 23.0.0, SVG Export Plug-In . SVG Version: 6.00 Build 0)  -->
<svg version="1.1" xmlns="http://www.w3.org/2000/svg" xmlns:xlink="http://www.w3.org/1999/xlink" x="0px" y="0px"
	 viewBox="0 0 70 70" style="enable-background:new 0 0 70 70;" xml:space="preserve">
<style type="text/css">
	.st0{fill:#FBC198;}
	.st1{fill:#FF671F;}
	.st2{fill:#FFFFFF;}
	.st3{fill:#F9B180;}
	.st4{fill:#F8A46F;}
	.st5{fill:#FC9B65;}
	.st6{fill:#FC8F59;}
	.st7{fill:#F7824D;}
	.st8{fill:#F4713D;}
	.st9{fill:#F4622F;}
	.st10{fill:#F75523;}
	.st11{fill:#FF6B31;}
	.st12{opacity:0.3;fill:#FF671F;}
	.st13{display:none;opacity:0.3;fill:#FF671F;}
	.st14{fill:#F9A46F;}
	.st15{fill:#FF6600;}
	.st16{opacity:0.3;fill:#FF6600;}
	.st17{fill:#FF4800;}
	.st18{fill:#FEDEC7;}
	.st19{fill:#F68A46;}
	.st20{fill:#FF671F;stroke:#FF671F;stroke-width:2.1738;stroke-linecap:round;stroke-linejoin:round;stroke-miterlimit:10;}
	.st21{opacity:0.6;fill:#FF671F;}
	.st22{opacity:0.75;fill:#FF671F;}
	.st23{opacity:0.5;fill:#FF671F;}
	.st24{opacity:0.88;}
	.st25{opacity:0.6;}
	.st26{opacity:0.8;}
	.st27{opacity:0.5;fill:#F68A46;}
	.st28{opacity:0.5;}
	.st29{fill:#FCC198;}
	.st30{display:none;}
	.st31{display:inline;fill:#FEDEC7;}
	.st32{display:inline;}
	.st33{display:inline;fill:#FEDEC7;stroke:#FFFFFF;stroke-width:0.5;stroke-miterlimit:10;}
</style>
<g id="load">
</g>
<g id="Layer_3">
	<g>
		<path class="st14" d="M16.1,21.6c0.7,0,1.4,0,2.1,0c1.3,0,1.3,0,1.3,1.3c0,0.3-0.1,0.4-0.4,0.4c0,0-0.1,0-0.1,0
			c-0.8,0-1.2,0.3-1.2,0.9c0,0.6,0.4,0.9,1.2,0.9c0.4,0,0.5,0.1,0.6,0.5c0,0.5-0.2,0.5-0.6,0.5c-0.7,0-1.2,0.3-1.2,0.9
			c0,0.6,0.4,0.9,1.2,0.9c1,0,2,0,3.1,0c0.6,0,1-0.4,1-0.9c0-0.5-0.4-0.9-1-0.9c-0.2,0-0.3,0-0.5,0c-0.1,0-0.2,0-0.2-0.1
			c-0.2-0.5,0.1-0.9,0.6-0.9c0.2,0,0.3,0,0.5,0c0.5-0.1,0.7-0.4,0.7-0.9c0-0.5-0.3-0.7-0.8-0.8c-0.3,0-0.7,0.2-0.9-0.1
			c-0.1-0.2,0-0.6,0-0.9c0-0.1,0-0.2,0-0.3c0-0.3,0.1-0.4,0.4-0.4c0.8,0,1.6,0,2.4,0c0.5,0,0.5,0.2,0.5,0.6c0,2.6,0,5.1,0,7.7
			c0,0.4-0.2,0.6-0.5,0.8c-2.8,1.4-5.7,2.8-8.5,4.2c-0.7,0.4-1.1,1-0.9,1.7c0.2,0.7,0.7,1.1,1.6,1.2c0.8,0,1.7,0,2.5,0
			c0.6,0,0.8,0.1,0.7,0.7c-0.1,0.9,0,0.9-0.9,1c-0.5,0.1-0.9,0.5-0.9,0.9c0,0.5,0.4,0.8,0.9,0.8c0,0,0.1,0,0.1,0
			c0.3,0,0.7-0.2,0.7,0.5c0,0.7-0.4,0.6-0.8,0.6c0,0-0.1,0-0.1,0c-0.5,0-0.9,0.4-0.9,0.9c0,0.5,0.3,0.9,0.8,0.9c1.2,0,2.4,0,3.6,0
			c0.5,0,0.8-0.4,0.8-0.9c0-0.5-0.3-0.8-0.9-0.9c-0.1,0-0.2,0-0.4,0c-0.4,0.1-0.5-0.1-0.5-0.5c0-0.4,0.1-0.6,0.5-0.6
			c0.1,0,0.2,0,0.3,0c0.5,0,0.9-0.4,0.9-0.9c0-0.5-0.4-0.8-0.9-0.9c-0.9-0.1-0.9-0.1-0.9-1c0-0.1,0-0.2,0-0.3c0-0.3,0.1-0.4,0.4-0.4
			c0.8,0,1.7,0,2.5,0c0.4,0,0.5,0.1,0.5,0.5c0,1.3,0,2.6,0,4c0,0.4-0.1,0.8-0.2,1.2c-0.7,2.1-1.4,4.1-2.1,6.2
			c-0.1,0.4-0.1,0.8,0.3,1.1c0.3,0.3,0.7,0.2,1,0c0.2-0.2,0.3-0.4,0.4-0.6c0.7-2,1.4-4,2.1-6c0.2-0.6,0.3-1.3,0.3-2
			c0-9.2,0-18.4,0-27.6c0-0.6,0.2-1,0.6-1.4c2.1-1.8,4.2-3.7,6.4-5.6c1.2-1.1,2.3-1,3.5,0c0.6,0.5,1.2,1.1,1.8,1.6
			c0.4,0.3,0.9,0.3,1.2-0.1c0.3-0.4,0.3-0.9,0-1.2c-1.3-1.1-2.4-2.5-4.2-2.9c-0.4,0-0.8,0-1.2,0c-0.9,0.2-1.6,0.6-2.3,1.2
			c-2.2,1.9-4.4,3.9-6.6,5.8c-0.6,0.6-1,1.3-1,2.1c0,0.4-0.2,0.6-0.5,0.8c-2.9,1.4-5.7,2.8-8.6,4.2c-0.7,0.3-1,1-0.9,1.6
			C14.7,21.1,15.3,21.5,16.1,21.6z M24.5,32.8c0,0.8,0,1.7,0,2.5c0,0.2,0,0.4-0.3,0.4c-2.2,0-4.4,0-6.6,0c0,0,0-0.1,0-0.1
			c0.5-0.2,1-0.5,1.4-0.7c1.7-0.8,3.3-1.6,5-2.4C24.4,32.3,24.6,32.3,24.5,32.8z M24.5,16.3c0,1.1,0,2.2,0,3.3
			c0,0.2-0.1,0.2-0.3,0.2c-2.2,0-4.4,0-6.5,0c0,0,0,0,0-0.1C19.9,18.6,22.2,17.5,24.5,16.3z"/>
		<path class="st1" d="M57.3,59.9c-1.7,0-3.5,0-5.2,0c-0.5,0-0.7-0.1-0.9-0.6c-1.8-5.4-3.7-10.8-5.5-16.2c-0.1-0.3-0.2-0.6-0.2-0.9
			c0-1.5,0-2.9,0-4.4c0-0.3,0.1-0.4,0.4-0.4c0.6,0,1.3,0,1.9,0c1.1,0,1,0,1.1,1.1c0,0.5,0,0.7-0.6,0.6c-0.7-0.1-1.2,0.3-1.2,0.9
			c0,0.6,0.4,0.9,1.1,0.9c0.4,0,0.6,0.1,0.6,0.6c0,0.7-0.4,0.5-0.8,0.5c-0.6,0-1,0.4-1,0.9c0,0.5,0.4,0.9,1,0.9c1.1,0,2.2,0,3.3,0
			c0.3,0,0.6-0.1,0.8-0.4c0.4-0.6,0-1.3-0.7-1.4c-0.4,0-0.9,0.3-0.9-0.6c0-0.8,0.5-0.4,0.9-0.5c0.5-0.1,0.9-0.4,0.9-0.8
			c0-0.5-0.3-0.8-0.8-0.9c-0.3-0.1-0.7,0.2-0.9-0.1c-0.1-0.3,0-0.7,0-1c0,0,0-0.1,0-0.1c-0.1-0.4,0.1-0.5,0.5-0.5c1,0,1.9,0,2.9,0
			c0.7,0,1.3-0.5,1.5-1.2c0.1-0.6-0.2-1.3-0.8-1.6c-0.2-0.1-0.4-0.2-0.6-0.3c-2.7-1.3-5.4-2.6-8.1-4c-0.2-0.1-0.5-0.2-0.5-0.5
			c0-2.7,0-5.4,0-8.1c0-0.3,0.1-0.4,0.4-0.4c0.6,0,1.3,0,1.9,0c1,0,1,0,1,1c0,0.5-0.1,0.7-0.7,0.7c-0.7-0.1-1.1,0.3-1.1,0.9
			c0,0.5,0.4,0.9,1.1,0.9c0.1,0,0.3,0,0.4,0c0.1,0,0.2,0,0.2,0.1c0.2,0.5-0.1,0.9-0.6,0.9c-0.1,0-0.2,0-0.4,0
			c-0.5,0.1-0.7,0.4-0.8,0.8c0,0.5,0.2,0.8,0.7,0.9c1.3,0.1,2.5,0.1,3.8,0c0.4,0,0.7-0.3,0.7-0.7c0.1-0.4-0.1-0.7-0.5-0.9
			c-0.2-0.1-0.5-0.1-0.7-0.1c-0.4,0-0.5-0.1-0.5-0.5c0-0.4,0.1-0.6,0.5-0.5c0.1,0,0.2,0,0.4,0c0.5,0,0.9-0.4,0.9-0.9
			c0-0.5-0.4-0.8-0.9-0.9c-0.8,0-0.8,0-0.8-0.8c0-0.1,0-0.2,0-0.4c-0.1-0.4,0.1-0.6,0.5-0.6c1,0,2,0,3,0c0.7,0,1.2-0.5,1.3-1.1
			c0.2-0.6-0.1-1.2-0.6-1.6c-0.2-0.1-0.4-0.2-0.6-0.3c-2.7-1.3-5.5-2.7-8.2-4c-0.3-0.2-0.5-0.3-0.5-0.7c0-0.8-0.3-1.5-0.8-2
			c-0.6-0.6-1.3-1.2-2-1.7c-0.5-0.4-1-0.4-1.3,0c-0.3,0.4-0.3,0.9,0.2,1.3c0.5,0.5,1,0.9,1.5,1.3c0.5,0.4,0.7,0.9,0.7,1.5
			c0,9.2,0,18.4,0,27.6c0,0.6,0.1,1.2,0.3,1.8c1.2,3.6,2.5,7.2,3.7,10.8c0.6,1.8,1.2,3.6,1.8,5.4c-0.7,0-1.2,0-1.8,0
			c-0.4,0-0.6-0.1-0.7-0.5c-1.8-5.2-3.5-10.3-5.3-15.5c-0.2-0.5-0.2-0.9-0.2-1.4c0-8.9,0-17.8,0-26.6c0-1-0.4-1.9-1.1-2.5
			c-1.1-1-2.3-2-3.4-3c-1.3-1.1-2.6-1.1-3.9,0c-1.1,1-2.2,2-3.3,2.9c-0.9,0.7-1.2,1.6-1.2,2.7c0,8.9,0,17.7,0,26.6
			c0,0.4-0.1,0.9-0.2,1.3c-0.7,2-1.4,4-2.1,6c-1.1,3.2-2.2,6.4-3.3,9.6c-0.1,0.2-0.1,0.5-0.4,0.5c-0.7,0-1.4,0-2.1,0
			c0.2-0.7,0.4-1.3,0.6-1.9c0.5-1.4,1-2.8,1.4-4.2c0.1-0.4,0.1-0.8-0.2-1.1c-0.3-0.2-0.6-0.3-0.9-0.2c-0.4,0.1-0.5,0.4-0.6,0.8
			c-0.7,2-1.4,4.1-2.1,6.1c-0.1,0.3-0.3,0.4-0.6,0.4c-1.8,0-3.6,0-5.4,0c-1.9,0-3.4,1.2-3.8,3c-0.4,1.5,0.4,2.3,1.8,2.3
			c11.9,0,23.8,0,35.7,0c0.2,0,0.3,0,0.5,0c0.5,0,0.9-0.4,0.9-0.9c0-0.5-0.3-0.8-0.9-0.9c-0.2,0-0.4,0-0.5,0c-11.7,0-23.3,0-35,0
			c-0.2,0-0.5,0-0.7,0c0.2-1.2,1-1.8,2.3-1.8c14.7,0,29.3,0,44,0c0.1,0,0.2,0,0.2,0c1.1,0,1.8,0.6,2.1,1.8c-0.2,0-0.4,0-0.5,0
			c-2.6,0-5.3,0-7.9,0c-0.6,0-1,0.4-1,0.9c0,0.5,0.4,0.9,1,0.9c2.9,0,5.9,0,8.8,0c0.9,0,1.5-0.6,1.5-1.5
			C61.1,61.7,59.4,60,57.3,59.9z M45.5,16.3c2.4,1.2,4.6,2.3,6.9,3.4c0,0,0,0.1,0,0.1c-0.4,0-0.8,0-1.3,0c-1.7,0-3.4,0-5.1,0
			c-0.4,0-0.5-0.1-0.5-0.5C45.5,18.4,45.5,17.4,45.5,16.3z M45.5,32.7c0-0.4,0.1-0.4,0.4-0.2c2.1,1.1,4.3,2.1,6.4,3.1
			c0.1,0,0.1,0,0.2,0.1c0,0-0.1,0.1-0.1,0.1c-2.1,0-4.3,0-6.4,0c-0.4,0-0.5-0.1-0.5-0.5C45.5,34.5,45.5,33.6,45.5,32.7z M38.8,34.8
			c-1.2,0.6-2.2,1.4-3.3,2.1c-0.3,0.2-0.6,0.2-0.9,0c-1.2-0.8-2.4-1.6-3.6-2.3c-0.5-0.3-0.8-0.6-0.6-1.2c-0.2-0.6,0.1-0.9,0.6-1.2
			c1.2-0.8,2.5-1.6,3.7-2.3c0.3-0.2,0.5-0.2,0.8,0c1.3,0.9,2.6,1.7,4,2.5c0.3,0.2,0.3,0.4,0.4,0.7C39.8,33.9,39.5,34.4,38.8,34.8z
			 M39.7,36.3c0,1.3,0,2.6,0,3.9c-1-0.7-2-1.3-3-1.9C37.7,37.6,38.6,36.9,39.7,36.3z M33.4,38.2c-1,0.7-2,1.3-3,1.9
			c0-1.3,0-2.6,0-3.9C31.3,36.9,32.3,37.5,33.4,38.2z M30.3,30.4c0-1.3,0-2.6,0-3.9c1,0.6,1.9,1.2,2.8,1.8c0.2,0.1,0.2,0.2,0,0.3
			C32.2,29.2,31.3,29.8,30.3,30.4z M36.9,28.3c0.9-0.6,1.8-1.1,2.8-1.8c0,1.3,0,2.6,0,3.9c-1-0.6-1.9-1.2-2.8-1.8
			C36.6,28.4,36.8,28.4,36.9,28.3z M30.9,14.7c1.1-1,2.3-2,3.4-3c0.4-0.3,0.8-0.4,1.2-0.1c1.2,1,2.4,2.1,3.6,3.1
			c0.1,0.1,0.1,0.1,0.1,0.1c0,0.2-0.1,0.3-0.2,0.3c-1.3,0.8-2.5,1.6-3.8,2.4c-0.2,0.1-0.4,0.1-0.6,0c-1.2-0.8-2.5-1.6-3.7-2.4
			C30.7,15,30.7,14.9,30.9,14.7z M39.7,16.8c0,1.3,0,2.6,0,3.9c-1-0.7-2-1.3-3-1.9C37.7,18.1,38.6,17.5,39.7,16.8z M30.3,16.8
			c1,0.7,2,1.3,3,1.9c-1,0.7-2,1.3-3,2C30.3,19.4,30.3,18.2,30.3,16.8z M31.2,22.2c1.2-0.7,2.3-1.4,3.4-2.2c0.3-0.2,0.5-0.2,0.7,0
			c1.2,0.8,2.4,1.6,3.7,2.4c0.5,0.3,0.9,0.6,0.6,1.3c0.2,0.6-0.1,0.9-0.6,1.2c-1.2,0.8-2.5,1.5-3.7,2.4c-0.3,0.2-0.5,0.2-0.8,0
			c-1.3-0.9-2.6-1.7-4-2.5c-0.3-0.2-0.3-0.4-0.4-0.7C30.1,23.2,30.5,22.6,31.2,22.2z M29.9,44.6c0.3-0.6,0.4-1.3,0.4-2
			c0-0.3,0.1-0.4,0.3-0.6c1.3-0.9,2.7-1.7,4-2.6c0.3-0.2,0.5-0.2,0.7,0c1.3,0.9,2.6,1.7,4,2.5c0.3,0.2,0.4,0.4,0.4,0.7
			c-0.1,0.6,0.1,1.2,0.3,1.7c0,0.1,0.1,0.2,0.1,0.3c0,0.2-0.1,0.3-0.2,0.4c-1.5,1.4-3.1,2.7-4.6,4.1c-0.2,0.2-0.4,0.2-0.6,0
			c-1.5-1.3-3-2.7-4.6-4C29.9,45.1,29.8,44.9,29.9,44.6z M25.4,57.7c1.2-3.5,2.4-7,3.6-10.6c0.1-0.3,0.2-0.4,0.4-0.1
			c1.3,1.1,2.6,2.3,3.9,3.4c0.1,0.1,0.3,0.2,0,0.4C30.8,53.2,28.1,55.5,25.4,57.7C25.5,57.8,25.5,57.8,25.4,57.7z M26,59.9
			c-0.1-0.2,0.1-0.2,0.2-0.3c2.8-2.5,5.6-5,8.5-7.5c0.2-0.2,0.3-0.4,0.6-0.1c2.9,2.6,5.9,5.2,9,7.9C38,59.9,32,59.9,26,59.9z
			 M36.3,50.7c1.5-1.3,3-2.6,4.5-3.9c1.3,3.7,2.5,7.4,3.8,11.2C41.8,55.4,39,53.1,36.3,50.7z"/>
	</g>
</g>
<g id="Layer_2">
</g>
</svg>
