<?xml version="1.0" encoding="utf-8"?>
<!-- Generator: Adobe Illustrator 22.0.0, SVG Export Plug-In . SVG Version: 6.00 Build 0)  -->
<svg version="1.1" xmlns="http://www.w3.org/2000/svg" xmlns:xlink="http://www.w3.org/1999/xlink" x="0px" y="0px"
	 viewBox="0 0 97 97" style="enable-background:new 0 0 97 97;" xml:space="preserve">
<style type="text/css">
	.st0{fill:#0A1A5C;}
	.st1{fill:#C1C1C1;}
	.st2{fill:#FF671F;}
	.st3{fill:#FFFFFF;}
	.st4{fill-rule:evenodd;clip-rule:evenodd;fill:#FFFFFF;}
	.st5{fill:#FFFFFF;stroke:#FFFFFF;stroke-width:1.849;stroke-miterlimit:10;}
	.st6{fill:#FFFFFF;stroke:#FFFFFF;stroke-width:0.6031;stroke-miterlimit:10;}
	.st7{fill:none;}
	.st8{fill:#FFFFFE;}
	.st9{fill:#CCCCCC;}
	.st10{fill:none;stroke:#B3B3B3;stroke-width:1.003;stroke-miterlimit:10;}
	.st11{fill:#FFFFFF;stroke:#CCCCCC;stroke-width:1.7931;stroke-miterlimit:10;}
	.st12{fill:none;stroke:#CCCCCC;stroke-width:0.8471;stroke-miterlimit:10;}
	.st13{fill:#999999;}
	.st14{fill:#CCCCCC;stroke:#CCCCCC;stroke-width:1.8957;stroke-miterlimit:10;}
	.st15{fill:none;stroke:#CCCCCC;stroke-miterlimit:10;}
	.st16{fill:#1B3281;}
	.st17{fill:#B5B6D1;}
	.st18{fill:#F9A46F;stroke:#FFFFFF;stroke-width:0.3025;stroke-miterlimit:10;}
	.st19{fill:#F68A46;stroke:#FFFFFF;stroke-width:0.3025;stroke-miterlimit:10;}
	.st20{fill:#FF671F;stroke:#FFFFFF;stroke-width:0.3025;stroke-miterlimit:10;}
	.st21{fill:#FEDEC7;stroke:#FFFFFF;stroke-width:0.3025;stroke-miterlimit:10;}
	.st22{fill:#FEDEC7;}
	.st23{fill:#F68A46;}
	.st24{fill:#F9A46F;}
	.st25{fill:#FF671F;stroke:#FF671F;stroke-width:0.7171;stroke-linecap:round;stroke-linejoin:round;stroke-miterlimit:10;}
	.st26{fill:#F9A46F;stroke:#F9A46F;stroke-width:0.1649;stroke-miterlimit:10;}
	.st27{fill:#FF671F;stroke:#FF671F;stroke-width:0.1649;stroke-miterlimit:10;}
	.st28{opacity:0.88;}
	.st29{fill:#FCC198;}
	.st30{fill:none;stroke:#0A1A5C;stroke-width:2;stroke-miterlimit:10;}
	.st31{opacity:0.2;}
	.st32{fill:#FFFFFF;stroke:#FFFFFF;stroke-width:0.8783;stroke-miterlimit:10;}
	.st33{fill:#FFFFFF;stroke:#FFFFFF;stroke-width:0.8713;stroke-miterlimit:10;}
	.st34{fill:none;stroke:#B3B3B3;stroke-width:1.1187;stroke-miterlimit:10;}
	.st35{fill:#FFFFFF;stroke:#CCCCCC;stroke-width:0.5946;stroke-miterlimit:10;}
	.st36{fill:#0A1A5C;stroke:#CCCCCC;stroke-width:0.5377;stroke-miterlimit:10;}
	.st37{fill:#FFFFFF;stroke:#CCCCCC;stroke-width:0.8286;stroke-miterlimit:10;}
	.st38{fill:#FFFFFF;stroke:#CCCCCC;stroke-width:0.9104;stroke-miterlimit:10;}
	.st39{fill:#FFFFFF;stroke:#CCCCCC;stroke-width:0.7829;stroke-miterlimit:10;}
	.st40{fill:#0A1A5C;stroke:#CCCCCC;stroke-width:0.8233;stroke-miterlimit:10;}
	.st41{fill:#0A1A5C;stroke:#CCCCCC;stroke-width:0.7117;stroke-miterlimit:10;}
	.st42{fill:#0A1A5C;stroke:#CCCCCC;stroke-width:0.7493;stroke-miterlimit:10;}
	.st43{fill:#FFFFFF;stroke:#0A1A5C;stroke-miterlimit:10;}
	.st44{fill:#0A1A5C;stroke:#0A1A5C;stroke-width:0.7524;stroke-miterlimit:10;}
	.st45{fill:#FFFFFF;stroke:#0A1A5C;stroke-width:0.7524;stroke-miterlimit:10;}
	.st46{fill:#F37021;}
	.st47{fill:none;stroke:#0A1A5C;stroke-miterlimit:10;}
	.st48{fill:#F26F21;}
	.st49{fill:#FFFFFF;stroke:#F37021;stroke-width:6.9715;stroke-miterlimit:10;}
	.st50{fill:none;stroke:#0A1A5C;stroke-width:2.5392;stroke-miterlimit:10;}
	.st51{fill:none;stroke:#000000;stroke-width:2.0231;stroke-miterlimit:10;}
	.st52{fill:none;stroke:#FF671F;stroke-width:2;stroke-miterlimit:10;}
	.st53{fill:#E6E6E6;}
	.st54{fill:#D8D8D8;}
	.st55{fill:#FFFFFF;stroke:#CCCCCC;stroke-width:0.6849;stroke-miterlimit:10;}
	.st56{fill:#0A1A5C;stroke:#CCCCCC;stroke-width:0.6194;stroke-miterlimit:10;}
	.st57{fill:#FFFFFF;stroke:#CCCCCC;stroke-width:0.9544;stroke-miterlimit:10;}
	.st58{fill:#FFFFFF;stroke:#CCCCCC;stroke-width:1.0486;stroke-miterlimit:10;}
	.st59{fill:#0A1A5C;stroke:#CCCCCC;stroke-width:0.9483;stroke-miterlimit:10;}
	.st60{fill:#0A1A5C;stroke:#CCCCCC;stroke-width:0.8631;stroke-miterlimit:10;}
	.st61{fill:#FFFFFF;stroke:#999999;stroke-width:1.273;stroke-miterlimit:10;}
	.st62{fill:#B5B6D1;stroke:#0A1A5C;stroke-width:2.6384;stroke-miterlimit:10;}
	.st63{fill:#FFFFFF;stroke:#0A1A5C;stroke-width:3.4555;stroke-miterlimit:10;}
	.st64{fill:#9DA3BE;stroke:#000000;stroke-width:0.369;stroke-miterlimit:10;}
	.st65{fill:#9DA3BE;}
	.st66{fill:#FFFFFF;stroke:#000000;stroke-width:0.369;stroke-miterlimit:10;}
	.st67{fill:none;stroke:#000000;stroke-width:0.7381;stroke-miterlimit:10;}
	.st68{fill:#9DA3BE;stroke:#000000;stroke-width:0.4867;stroke-miterlimit:10;}
	.st69{fill:#999999;stroke:#000000;stroke-width:0.1845;stroke-miterlimit:10;}
	.st70{fill:#00FF00;}
	.st71{fill:#FFFFFF;stroke:#000000;stroke-width:1.7278;stroke-miterlimit:10;}
	.st72{fill:#9DA3BE;stroke:#000000;stroke-width:0.9851;stroke-miterlimit:10;}
	.st73{fill:none;stroke:#FFFFFF;stroke-width:2.0234;stroke-miterlimit:10;}
	.st74{fill:#9DA3BE;stroke:#000000;stroke-width:0.4824;stroke-miterlimit:10;}
	.st75{fill:#9DA3BE;stroke:#000000;stroke-width:0.5436;stroke-miterlimit:10;}
	.st76{fill:none;stroke:#000000;stroke-width:0.7739;stroke-miterlimit:10;}
	.st77{fill:#0A1A5C;stroke:#000000;stroke-width:0.7739;stroke-miterlimit:10;}
	.st78{fill:#0A1A5C;stroke:#000000;stroke-width:1.0553;stroke-miterlimit:10;}
	.st79{fill:#9DA3BE;stroke:#000000;stroke-width:0.7739;stroke-miterlimit:10;}
	.st80{fill:#0A1A5C;stroke:#000000;stroke-width:1.0167;stroke-miterlimit:10;}
	.st81{fill:#9DA3BE;stroke:#000000;stroke-width:0.8897;stroke-miterlimit:10;}
	.st82{fill:none;stroke:#000000;stroke-width:5.9724;stroke-linecap:round;stroke-miterlimit:10;}
	.st83{stroke:#000000;stroke-width:4.7578;stroke-linecap:round;stroke-miterlimit:10;}
	.st84{fill:none;stroke:#000000;stroke-width:6.3438;stroke-linecap:round;stroke-miterlimit:10;}
	.st85{fill:none;stroke:#000000;stroke-width:4.7578;stroke-linecap:round;stroke-miterlimit:10;}
	.st86{fill:none;stroke:#FFFFFF;stroke-width:1.5859;stroke-linecap:round;stroke-miterlimit:10;}
	.st87{fill:none;stroke:#FFFFFF;stroke-width:0.7652;stroke-linecap:round;stroke-miterlimit:10;}
	.st88{fill:none;stroke:#0A1A5C;stroke-width:3.1035;stroke-miterlimit:10;}
	.st89{opacity:0.6;fill:#0A1A5C;}
	.st90{fill:#9DA3BE;stroke:#000000;stroke-width:0.7896;stroke-miterlimit:10;}
	.st91{fill:none;stroke:#000000;stroke-width:1.5793;stroke-miterlimit:10;}
	.st92{fill:#0A1A5C;stroke:#000000;stroke-width:0.501;stroke-miterlimit:10;}
	.st93{opacity:0.8;fill:#0A1A5C;stroke:#000000;stroke-width:0.37;stroke-miterlimit:10;}
	.st94{opacity:0.8;fill:#0A1A5C;stroke:#000000;stroke-width:0.4273;stroke-miterlimit:10;}
	.st95{fill:#0A1A5C;stroke:#000000;stroke-width:0.37;stroke-miterlimit:10;}
	.st96{fill:#9DA3BE;stroke:#000000;stroke-width:0.1658;stroke-miterlimit:10;}
	.st97{fill:#9DA3BE;stroke:#000000;stroke-width:0.166;stroke-miterlimit:10;}
	.st98{fill:#9DA3BE;stroke:#000000;stroke-width:0.2147;stroke-miterlimit:10;}
	.st99{fill:#9DA3BE;stroke:#000000;stroke-width:0.1723;stroke-miterlimit:10;}
	.st100{fill:#0A1A5C;stroke:#000000;stroke-width:0.3577;stroke-miterlimit:10;}
	.st101{fill:none;stroke:#231F20;stroke-width:0.2424;stroke-miterlimit:10;}
	.st102{fill:#FFFFFF;stroke:#231F20;stroke-width:0.2424;stroke-miterlimit:10;}
	.st103{fill:#AAAAAA;stroke:#231F20;stroke-width:0.2424;stroke-miterlimit:10;}
	.st104{fill:#0A1A5C;stroke:#000000;stroke-width:0.3627;stroke-miterlimit:10;}
	.st105{fill:none;stroke:#FFFFFF;stroke-width:2.1764;stroke-miterlimit:10;}
	.st106{fill:#9DA3BE;stroke:#000000;stroke-width:0.3627;stroke-miterlimit:10;}
	.st107{fill:none;stroke:#FFFFFF;stroke-width:3.6274;stroke-linecap:round;stroke-miterlimit:10;}
	
		.st108{fill:none;stroke:#FFFFFF;stroke-width:3.6274;stroke-linecap:round;stroke-miterlimit:10;stroke-dasharray:10.6247,10.6247;}
	.st109{fill:#0A1A5C;stroke:#000000;stroke-width:0.7649;stroke-miterlimit:10;}
	.st110{fill:#CCCCCC;stroke:#000000;stroke-width:0.3928;stroke-miterlimit:10;}
	.st111{fill:#F9A46F;stroke:#F9A46F;stroke-width:0.5;stroke-miterlimit:10;}
	.st112{fill:#FF671F;stroke:#FF671F;stroke-width:0.5;stroke-miterlimit:10;}
	.st113{fill:#FF671F;stroke:#FF671F;stroke-width:2.1738;stroke-linecap:round;stroke-linejoin:round;stroke-miterlimit:10;}
	.st114{fill:none;stroke:#0A1A5C;stroke-width:1.5323;stroke-miterlimit:10;}
	.st115{fill:#0A1A5C;stroke:#0A1A5C;stroke-width:0.8756;stroke-miterlimit:10;}
	.st116{fill:none;stroke:#0A1A5C;stroke-width:0.8756;stroke-miterlimit:10;}
	.st117{fill:none;stroke:#0A1A5C;stroke-width:5.6757;stroke-miterlimit:10;}
	.st118{fill:#B3B3B3;}
	.st119{fill:none;stroke:#000000;stroke-width:1.127;stroke-miterlimit:10;}
	.st120{stroke:#000000;stroke-width:1.7436;stroke-miterlimit:10;}
	.st121{stroke:#000000;stroke-width:0.5687;stroke-miterlimit:10;}
	.st122{fill-rule:evenodd;clip-rule:evenodd;}
	.st123{fill:#F9A46F;stroke:#F9A46F;stroke-width:0.5785;stroke-miterlimit:10;}
	.st124{fill:#FF671F;stroke:#FF671F;stroke-width:0.5785;stroke-miterlimit:10;}
	.st125{fill:#FF671F;stroke:#FF671F;stroke-width:2.5149;stroke-linecap:round;stroke-linejoin:round;stroke-miterlimit:10;}
	.st126{fill:none;stroke:#000000;stroke-width:2.254;stroke-linejoin:round;}
	.st127{fill:none;stroke:#00FFFF;stroke-width:1.1261;stroke-miterlimit:10;}
	.st128{fill:#00FFFF;}
	.st129{fill:none;stroke:#00FFFF;stroke-width:1.127;stroke-miterlimit:10;}
	.st130{fill:none;stroke:#FF0000;stroke-width:1.1261;stroke-miterlimit:10;}
	.st131{fill:#FF0000;}
	.st132{fill:none;stroke:#FF0000;stroke-width:1.127;stroke-miterlimit:10;}
	.st133{fill:none;stroke:#0000FF;stroke-width:1.1261;stroke-miterlimit:10;}
	.st134{fill:#0000FF;}
	.st135{fill:none;stroke:#0000FF;stroke-width:1.127;stroke-miterlimit:10;}
	.st136{fill:none;stroke:#00FF00;stroke-width:1.1261;stroke-miterlimit:10;}
	.st137{fill:none;stroke:#00FF00;stroke-width:1.127;stroke-miterlimit:10;}
	.st138{fill:none;stroke:#FFFF00;stroke-width:1.1261;stroke-miterlimit:10;}
	.st139{fill:#FFFF00;}
	.st140{fill:none;stroke:#FFFF00;stroke-width:1.127;stroke-miterlimit:10;}
	.st141{fill:none;stroke:#B3B3B3;stroke-width:1.1261;stroke-miterlimit:10;}
	.st142{fill:none;stroke:#B3B3B3;stroke-width:1.127;stroke-miterlimit:10;}
	.st143{fill:#00FF00;stroke:#00FF00;stroke-width:0.4103;stroke-miterlimit:10;}
	.st144{fill:#00FF00;stroke:#00FF00;stroke-width:0.5806;stroke-miterlimit:10;}
	.st145{fill:#FF0000;stroke:#FF0000;stroke-width:0.4103;stroke-miterlimit:10;}
	.st146{fill:#FF0000;stroke:#FF0000;stroke-width:0.5806;stroke-miterlimit:10;}
	.st147{fill:none;stroke:#00FFFF;stroke-width:0.4103;stroke-miterlimit:10;}
	.st148{fill:#00FFFF;stroke:#00FFFF;stroke-width:0.5806;stroke-miterlimit:10;}
	.st149{fill:#0000FF;stroke:#0000FF;stroke-width:0.4103;stroke-miterlimit:10;}
	.st150{fill:#0000FF;stroke:#0000FF;stroke-width:0.5806;stroke-miterlimit:10;}
	.st151{fill:#FFFF00;stroke:#FFFF00;stroke-width:0.4103;stroke-miterlimit:10;}
	.st152{fill:#FFFF00;stroke:#FFFF00;stroke-width:0.5806;stroke-miterlimit:10;}
	.st153{fill:#B3B3B3;stroke:#B3B3B3;stroke-width:0.4103;stroke-miterlimit:10;}
	.st154{fill:#B3B3B3;stroke:#B3B3B3;stroke-width:0.5806;stroke-miterlimit:10;}
	.st155{fill:none;stroke:#0A1A5C;stroke-width:2.5385;stroke-miterlimit:10;}
	.st156{fill:#8183AC;}
	.st157{fill:none;stroke:#B3B3B3;stroke-width:0.5294;stroke-miterlimit:10;}
	.st158{fill:none;stroke:#0A1A5C;stroke-width:0.7432;stroke-miterlimit:10;}
	.st159{fill:#0A1A5C;stroke:#0A1A5C;stroke-width:0.4247;stroke-miterlimit:10;}
	.st160{fill:none;stroke:#0A1A5C;stroke-width:0.4247;stroke-miterlimit:10;}
	.st161{fill:none;stroke:#0A1A5C;stroke-width:2.7527;stroke-miterlimit:10;}
	.st162{fill:none;stroke:#000000;stroke-width:0.5624;stroke-miterlimit:10;}
	.st163{fill:none;stroke:#0A1A5C;stroke-width:0.5624;stroke-miterlimit:10;}
	.st164{fill:none;stroke:#00FF00;stroke-width:0.5624;stroke-miterlimit:10;}
	.st165{fill:none;stroke:#FF0000;stroke-width:0.5624;stroke-miterlimit:10;}
	.st166{fill:none;stroke:#0A1A5C;stroke-width:0.3977;stroke-miterlimit:10;}
	.st167{fill:none;stroke:#FF0000;stroke-width:0.3977;stroke-miterlimit:10;}
	.st168{fill:#00FF00;stroke:#00FF00;stroke-width:0.3977;stroke-miterlimit:10;}
	.st169{fill:none;stroke:#0A1A5C;stroke-width:2.6081;stroke-miterlimit:10;}
	.st170{fill:none;stroke:#B3B3B3;stroke-width:0.5439;stroke-miterlimit:10;}
	.st171{fill:#1B3281;stroke:#B5B6D1;stroke-width:0.3145;stroke-miterlimit:10;}
	.st172{fill:none;stroke:#0A1A5C;stroke-width:2.7546;stroke-miterlimit:10;}
	.st173{fill:none;stroke:#B5B6D1;stroke-width:0.3145;stroke-miterlimit:10;}
	.st174{fill:none;stroke:#B3B3B3;stroke-width:1.6703;stroke-miterlimit:10;}
	.st175{fill:#FFFFFF;stroke:#CCCCCC;stroke-width:2.3871;stroke-miterlimit:10;}
	.st176{fill:none;stroke:#CCCCCC;stroke-width:1.5141;stroke-miterlimit:10;}
	.st177{fill:#CCCCCC;stroke:#CCCCCC;stroke-width:1.8909;stroke-miterlimit:10;}
	.st178{fill:none;stroke:#CCCCCC;stroke-width:1.3313;stroke-miterlimit:10;}
	.st179{fill:#7AC943;}
	.st180{fill:#FF4713;}
	.st181{fill:#BA2F0F;}
	.st182{fill:#00A0DF;}
	.st183{fill:#04799E;}
	.st184{fill:#F2F2F2;}
	.st185{fill:#FFFFFF;stroke:#F37021;stroke-width:5.4423;stroke-miterlimit:10;}
	.st186{fill:none;stroke:#000000;stroke-width:2.1606;stroke-linejoin:round;}
	.st187{fill:none;stroke:#0A1A5C;stroke-width:4.8324;stroke-miterlimit:10;}
	.st188{fill:none;stroke:#B3B3B3;stroke-width:1.0078;stroke-miterlimit:10;}
	.st189{fill:none;stroke:#0A1A5C;stroke-width:5.6868;stroke-miterlimit:10;}
	.st190{fill:none;stroke:#000000;stroke-width:1.1619;stroke-miterlimit:10;}
	.st191{fill:none;stroke:#0A1A5C;stroke-width:1.1619;stroke-miterlimit:10;}
	.st192{fill:none;stroke:#00FF00;stroke-width:1.1619;stroke-miterlimit:10;}
	.st193{fill:none;stroke:#FF0000;stroke-width:1.1619;stroke-miterlimit:10;}
	.st194{fill:none;stroke:#0A1A5C;stroke-width:0.8216;stroke-miterlimit:10;}
	.st195{fill:none;stroke:#FF0000;stroke-width:0.8216;stroke-miterlimit:10;}
	.st196{fill:#00FF00;stroke:#00FF00;stroke-width:0.8216;stroke-miterlimit:10;}
	.st197{fill:none;stroke:#0A1A5C;stroke-width:5.4922;stroke-miterlimit:10;}
	.st198{fill:none;stroke:#B3B3B3;stroke-width:1.1455;stroke-miterlimit:10;}
	.st199{fill:none;stroke:#0A1A5C;stroke-width:5.3229;stroke-miterlimit:10;}
	.st200{fill:#0A1A5C;stroke:#B5B6D1;stroke-width:1.0577;stroke-miterlimit:10;}
	.st201{fill:#00FF00;stroke:#B5B6D1;stroke-width:1.0577;stroke-miterlimit:10;}
	.st202{fill:none;stroke:#B5B6D1;stroke-width:1.0577;stroke-miterlimit:10;}
	.st203{fill:#B5B6D1;stroke:#B5B6D1;stroke-width:1.0577;stroke-miterlimit:10;}
	.st204{fill:#F68A46;stroke:#B5B6D1;stroke-width:1.0577;stroke-miterlimit:10;}
	.st205{fill:#C1C1C1;stroke:#B5B6D1;stroke-width:1.0577;stroke-miterlimit:10;}
	.st206{fill:#00FFFF;stroke:#B5B6D1;stroke-width:1.0577;stroke-miterlimit:10;}
	.st207{fill:#1B3281;stroke:#B5B6D1;stroke-width:0.6481;stroke-miterlimit:10;}
	.st208{fill:none;stroke:#B5B6D1;stroke-width:0.6481;stroke-miterlimit:10;}
	.st209{fill:#0A1A5C;stroke:#0A1A5C;stroke-miterlimit:10;}
	.st210{fill:none;stroke:#000000;stroke-width:2.516;stroke-miterlimit:10;}
	.st211{fill:none;stroke:#FF0000;stroke-width:0.7978;stroke-miterlimit:10;}
	.st212{fill:#FF0000;stroke:#FF0000;stroke-width:0.6482;stroke-miterlimit:10;}
	.st213{fill:#0000FF;stroke:#0000FF;stroke-width:0.7978;stroke-miterlimit:10;}
	.st214{fill:#0000FF;stroke:#0000FF;stroke-width:0.6482;stroke-miterlimit:10;}
	.st215{fill:#FFFF00;stroke:#FFFF00;stroke-width:0.7978;stroke-miterlimit:10;}
	.st216{fill:#FFFF00;stroke:#FFFF00;stroke-width:0.6482;stroke-miterlimit:10;}
	.st217{fill:#00FF00;stroke:#00FF00;stroke-width:0.7978;stroke-miterlimit:10;}
	.st218{fill:#00FF00;stroke:#00FF00;stroke-width:0.6482;stroke-miterlimit:10;}
	.st219{fill:#00FFFF;stroke:#00FFFF;stroke-width:0.7978;stroke-miterlimit:10;}
	.st220{fill:#00FFFF;stroke:#00FFFF;stroke-width:0.6482;stroke-miterlimit:10;}
	.st221{fill:none;stroke:#FF671F;stroke-width:1.3558;stroke-miterlimit:10;}
	.st222{fill:none;stroke:#0000FF;stroke-miterlimit:10;}
	.st223{fill:none;stroke:#FF0000;stroke-miterlimit:10;}
	.st224{fill:none;stroke:#00FF00;stroke-miterlimit:10;}
	.st225{fill:none;stroke:#FFFF00;stroke-miterlimit:10;}
	.st226{fill:none;stroke:#00FFFF;stroke-miterlimit:10;}
	.st227{fill:#00FFFF;stroke:#00FFFF;stroke-width:3;stroke-miterlimit:10;}
	.st228{fill:none;stroke:#0000FF;stroke-width:3;stroke-miterlimit:10;}
	.st229{fill:none;stroke:#FF0000;stroke-width:3.1578;stroke-miterlimit:10;}
	.st230{fill:none;stroke:#00FF00;stroke-width:3.1578;stroke-miterlimit:10;}
	.st231{fill:#00FFFF;stroke:#00FFFF;stroke-width:1.1753;stroke-miterlimit:10;}
	.st232{fill:#0000FF;stroke:#0000FF;stroke-width:1.1753;stroke-miterlimit:10;}
	.st233{fill:#FF0000;stroke:#FF0000;stroke-width:1.1753;stroke-miterlimit:10;}
	.st234{fill:#00FF00;stroke:#00FF00;stroke-width:1.1753;stroke-miterlimit:10;}
	.st235{fill:none;stroke:#0A1A5C;stroke-width:3;stroke-miterlimit:10;}
	.st236{fill:#E6E6E6;stroke:#0A1A5C;stroke-width:3.3678;stroke-miterlimit:10;}
	.st237{fill:none;stroke:#CCCCCC;stroke-width:1.3939;stroke-miterlimit:10;}
	.st238{fill:none;stroke:#0A1A5C;stroke-width:3.1578;stroke-miterlimit:10;}
	.st239{fill:none;stroke:#0A1A5C;stroke-width:0.9851;stroke-miterlimit:10;}
	.st240{fill:none;stroke:#000000;stroke-width:1.0444;stroke-miterlimit:10;}
</style>
<g id="cảnh_báo">
</g>
<g id="biểu_đồ">
</g>
<g id="Layer_9">
</g>
<g id="Layer_7">
</g>
<g id="Layer_8">
</g>
<g id="ảnh_gì_đó">
</g>
<g id="thiết_bị">
</g>
<g id="icon_v2.0">
	<g>
		<g>
			<path class="st3" d="M8.6,94.5c-3.4,0-6.1-2.8-6.1-6.1V8.6c0-3.4,2.8-6.1,6.1-6.1h79.7c3.4,0,6.1,2.8,6.1,6.1v79.7
				c0,3.4-2.8,6.1-6.1,6.1H8.6z"/>
			<path class="st0" d="M88.4,5c2,0,3.6,1.6,3.6,3.6v79.7c0,2-1.6,3.6-3.6,3.6H8.6c-2,0-3.6-1.6-3.6-3.6V8.6C5,6.6,6.6,5,8.6,5H88.4
				 M88.4,0H8.6C3.9,0,0,3.9,0,8.6v79.7C0,93.1,3.9,97,8.6,97h79.7c4.8,0,8.6-3.9,8.6-8.6V8.6C97,3.9,93.1,0,88.4,0L88.4,0z"/>
		</g>
		<g>
			<path class="st22" d="M78.8,51.2l-19-5.8c-0.1,0.3-0.3,0.6-0.5,0.9l4.1,4.2c1.3,1.3,3,2,4.8,1.9l10.6-0.6c0.2,0,0.3-0.2,0.3-0.3
				C79,51.4,79,51.3,78.8,51.2z"/>
			<path class="st23" d="M52.9,44.4c0.4,1.7,2,2.7,3.7,2.3c0.1,0,0.1,0,0.2,0c0,0,0,0,0,0c0.5-0.1,0.9-0.4,1.2-0.7c0,0,0,0,0,0
				c0.4-0.4,0.6-0.8,0.8-1.3c0.2-0.5,0.2-1,0.1-1.6c-0.3-1.1-1.1-2-2.1-2.3c-0.5-0.1-1-0.2-1.5,0C53.6,41.1,52.5,42.7,52.9,44.4z"/>
			<path class="st2" d="M55.9,47.9c-0.2,0-0.4,0-0.6,0l-2.7,29.4h6.5l-2.7-29.4C56.3,47.9,56.1,47.9,55.9,47.9z"/>
			<path class="st22" d="M53.5,30.9l3.9-2c0,0,0-0.1-0.1-0.1l-5.8-8.9c-0.1-0.2-0.3-0.1-0.4-0.1c-0.1,0-0.2,0.1-0.2,0.3L53.5,30.9z"
				/>
			<path class="st22" d="M56.5,39.5l0.5-1.7c-0.5,0.1-1,0.1-1.5,0.1c-0.1,0-0.2,0-0.2,0l-0.1,0l0.4,1.6
				C55.8,39.5,56.2,39.5,56.5,39.5z"/>
			<path class="st29" d="M40.2,66.7c0.1,0.4,0.4,0.4,0.5,0.3c0.1,0,0.4-0.1,0.4-0.5l1-24.6c-0.5-0.1-0.9-0.2-1.4-0.4L37,47.8
				c-1.2,1.9-1.5,4.3-0.8,6.5l1.4,4.4l0,0l0,0.1l0,0l2,6.2L40.2,66.7z"/>
			<path class="st23" d="M40.9,40.3C40.9,40.4,40.9,40.4,40.9,40.3C40.9,40.4,40.9,40.4,40.9,40.3L40.9,40.3
				C40.9,40.4,40.9,40.4,40.9,40.3C40.9,40.4,40.9,40.4,40.9,40.3c1,0.6,2.1,0.7,3.1,0.5c0,0,0,0,0.1,0c0.9-0.2,1.7-0.8,2.3-1.7
				c0.4-0.6,0.6-1.3,0.6-2v-0.1c0-0.7-0.1-1.3-0.4-1.9c-0.3-0.6-0.8-1.1-1.4-1.5c-0.7-0.4-1.4-0.6-2.1-0.6c-1.3,0-2.6,0.6-3.3,1.8
				C38.5,36.8,39.1,39.2,40.9,40.3z"/>
			<path class="st29" d="M54.4,36.8L54.4,36.8l0.9,0c0.8,0,1.6-0.1,2.3-0.3c0,0,0,0,0,0c1.4-0.4,2.6-1.2,3.6-2.2l8.8-9.7
				c0.3-0.3,0.1-0.6,0-0.6c-0.1-0.1-0.3-0.3-0.6-0.1l-11.1,5.8l0,0l-5,2.6l0,0c0,0-0.1,0-0.1,0l0,0l-5.7,3c0.2,0.4,0.3,0.9,0.3,1.4
				L54.4,36.8z"/>
			<path class="st29" d="M40.1,32.9l-3.5-6.4c-1.1-2-3-3.4-5.2-3.9l-12.8-2.8c-0.4-0.1-0.5,0.2-0.6,0.3c0,0.1-0.1,0.4,0.2,0.6
				L39,33.9C39.4,33.5,39.7,33.2,40.1,32.9z"/>
			<path class="st2" d="M44,46.8L44,46.8L44,46.8L43.6,42c-0.1,0-0.2,0-0.3,0l-1,24.6c0,0.8-0.6,1.4-1.4,1.5c-0.1,0-0.1,0-0.2,0
				c-0.5,0-1-0.2-1.2-0.6l-0.9,9.6h8.3l-2.1-23.5L44,46.8z"/>
			<path class="st22" d="M46.3,46.7c-0.4,0.1-0.8,0.2-1.1,0.4v0l0.5,5.4l6.8-6.4c-0.2-0.3-0.4-0.6-0.5-0.9L46.3,46.7z"/>
		</g>
	</g>
</g>
<g id="tổng_quan">
</g>
</svg>
