<?xml version="1.0" encoding="utf-8"?>
<!-- Generator: Adobe Illustrator 22.0.0, SVG Export Plug-In . SVG Version: 6.00 Build 0)  -->
<svg version="1.1" xmlns="http://www.w3.org/2000/svg" xmlns:xlink="http://www.w3.org/1999/xlink" x="0px" y="0px"
	 viewBox="0 0 213.7 272.7" style="enable-background:new 0 0 213.7 272.7;" xml:space="preserve">
<style type="text/css">
	.st0{fill:#0A195C;}
	.st1{fill:#FFFFFF;}
	.st2{fill:none;stroke:#FFFFFF;stroke-width:1.0163;stroke-linecap:round;stroke-linejoin:round;stroke-miterlimit:10;}
	.st3{fill:#F26F21;}
	.st4{display:none;}
	.st5{display:inline;fill:#012169;}
	.st6{display:inline;}
	.st7{fill:#C8102E;}
	.st8{display:inline;fill-rule:evenodd;clip-rule:evenodd;fill:#E21936;}
	.st9{display:inline;fill-rule:evenodd;clip-rule:evenodd;fill:#FFD200;}
	.st10{display:inline;fill:#0A1A5C;}
	.st11{display:inline;fill:#0A1A5C;stroke:#000000;stroke-width:2.020941e-02;stroke-miterlimit:10;}
	
		.st12{display:inline;fill:none;stroke:#0A1A5C;stroke-width:1.1266;stroke-linecap:round;stroke-linejoin:round;stroke-miterlimit:10;}
	.st13{fill:none;stroke:#F37021;stroke-width:4;stroke-miterlimit:10;}
	.st14{fill:none;stroke:#CCCCCC;stroke-miterlimit:10;}
	.st15{fill:#0A1A5C;}
	.st16{fill:#9DA3BE;}
	.st17{fill:none;stroke:#CCCCCC;stroke-width:0.9689;stroke-miterlimit:10;}
	.st18{fill:#FFFFFF;stroke:#CCCCCC;stroke-width:0.9555;stroke-miterlimit:10;}
	.st19{fill:#CCCCCC;}
	.st20{fill:none;stroke:#CCCCCC;stroke-width:0.95;stroke-miterlimit:10;}
	.st21{fill:#999999;stroke:#CCCCCC;stroke-width:0.5866;stroke-miterlimit:10;}
	.st22{fill:#CCCCCC;stroke:#CCCCCC;stroke-width:0.9555;stroke-miterlimit:10;}
	.st23{fill:#F37021;}
	.st24{fill-rule:evenodd;clip-rule:evenodd;fill:#FFFFFF;}
	.st25{fill:#FFFFFF;stroke:#FFFFFF;stroke-miterlimit:10;}
	.st26{fill:#FFFFFF;stroke:#FFFFFF;stroke-width:0.3262;stroke-miterlimit:10;}
	.st27{fill-rule:evenodd;clip-rule:evenodd;fill:#0A1A5C;}
	.st28{fill:#FFFFFE;}
	.st29{fill:#AAAAAA;}
	.st30{fill:#E2E2E2;}
	.st31{fill:#565656;}
	.st32{fill:none;stroke:#0A1A5C;stroke-width:7;stroke-linecap:round;stroke-linejoin:round;stroke-miterlimit:10;}
	.st33{fill:#FFFFFF;stroke:#CCCCCC;stroke-width:1.0208;stroke-miterlimit:10;}
	.st34{fill:#FFFFFF;stroke:#0A1A5C;stroke-width:2;stroke-miterlimit:10;}
	.st35{fill:#0A1A5C;stroke:#000000;stroke-width:0.1154;stroke-miterlimit:10;}
	.st36{fill:none;stroke:#231F20;stroke-width:7.817870e-02;stroke-miterlimit:10;}
	.st37{fill:#FFFFFF;stroke:#231F20;stroke-width:7.817870e-02;stroke-miterlimit:10;}
	.st38{fill:#AAAAAA;stroke:#231F20;stroke-width:7.817870e-02;stroke-miterlimit:10;}
	.st39{fill:#00FF00;}
	.st40{fill:none;stroke:#CCCCCC;stroke-width:0.6948;stroke-miterlimit:10;}
	.st41{fill:#999999;}
	.st42{opacity:0.8;fill:#0A1A5C;}
	.st43{fill:#FFFFFF;stroke:#0A1A5C;stroke-width:1.7731;stroke-miterlimit:10;}
	.st44{fill:#9DA3BE;stroke:#000000;stroke-width:0.1894;stroke-miterlimit:10;}
	.st45{fill:#FFFFFF;stroke:#000000;stroke-width:0.1894;stroke-miterlimit:10;}
	.st46{fill:none;stroke:#000000;stroke-width:0.3787;stroke-miterlimit:10;}
	.st47{fill:#9DA3BE;stroke:#000000;stroke-width:0.2497;stroke-miterlimit:10;}
	.st48{fill:#999999;stroke:#000000;stroke-width:9.467980e-02;stroke-miterlimit:10;}
	.st49{fill:#FFFFFF;stroke:#000000;stroke-width:0.8866;stroke-miterlimit:10;}
	.st50{fill:#9DA3BE;stroke:#000000;stroke-width:0.5055;stroke-miterlimit:10;}
	.st51{fill:none;stroke:#FFFFFF;stroke-width:1.0383;stroke-miterlimit:10;}
	.st52{fill:#9DA3BE;stroke:#000000;stroke-width:0.2475;stroke-miterlimit:10;}
	.st53{fill:#9DA3BE;stroke:#000000;stroke-width:0.2789;stroke-miterlimit:10;}
	.st54{fill:#CCCCCC;stroke:#0A1A5C;stroke-width:1.7731;stroke-miterlimit:10;}
	.st55{fill:none;stroke:#000000;stroke-width:0.3971;stroke-miterlimit:10;}
	.st56{fill:#0A1A5C;stroke:#000000;stroke-width:0.3971;stroke-miterlimit:10;}
	.st57{fill:#0A1A5C;stroke:#000000;stroke-width:0.5415;stroke-miterlimit:10;}
	.st58{fill:#9DA3BE;stroke:#000000;stroke-width:0.3971;stroke-miterlimit:10;}
	.st59{fill:#0A1A5C;stroke:#000000;stroke-width:0.5217;stroke-miterlimit:10;}
	.st60{fill:#9DA3BE;stroke:#000000;stroke-width:0.4566;stroke-miterlimit:10;}
	.st61{fill:none;stroke:#000000;stroke-width:3.0646;stroke-linecap:round;stroke-miterlimit:10;}
	.st62{stroke:#000000;stroke-width:2.4414;stroke-linecap:round;stroke-miterlimit:10;}
	.st63{fill:none;stroke:#000000;stroke-width:3.2552;stroke-linecap:round;stroke-miterlimit:10;}
	.st64{fill:none;stroke:#000000;stroke-width:2.4414;stroke-linecap:round;stroke-miterlimit:10;}
	.st65{fill:none;}
	.st66{fill:none;stroke:#FFFFFF;stroke-width:0.8138;stroke-linecap:round;stroke-miterlimit:10;}
	.st67{fill:none;stroke:#FFFFFF;stroke-width:0.3926;stroke-linecap:round;stroke-miterlimit:10;}
	.st68{fill:none;stroke:#0A1A5C;stroke-width:1.5925;stroke-miterlimit:10;}
	.st69{opacity:0.6;fill:#0A1A5C;}
	.st70{fill:#9DA3BE;stroke:#000000;stroke-width:0.4052;stroke-miterlimit:10;}
	.st71{fill:none;stroke:#000000;stroke-width:0.8104;stroke-miterlimit:10;}
	.st72{fill:#0A1A5C;stroke:#000000;stroke-width:0.2571;stroke-miterlimit:10;}
	.st73{opacity:0.8;fill:#0A1A5C;stroke:#000000;stroke-width:0.1899;stroke-miterlimit:10;}
	.st74{opacity:0.8;fill:#0A1A5C;stroke:#000000;stroke-width:0.2192;stroke-miterlimit:10;}
	.st75{fill:#0A1A5C;stroke:#000000;stroke-width:0.1899;stroke-miterlimit:10;}
	.st76{fill:#9DA3BE;stroke:#000000;stroke-width:8.506256e-02;stroke-miterlimit:10;}
	.st77{fill:#9DA3BE;stroke:#000000;stroke-width:8.517154e-02;stroke-miterlimit:10;}
	.st78{fill:#9DA3BE;stroke:#000000;stroke-width:0.1102;stroke-miterlimit:10;}
	.st79{fill:#9DA3BE;stroke:#000000;stroke-width:8.838669e-02;stroke-miterlimit:10;}
	.st80{fill:#0A1A5C;stroke:#000000;stroke-width:0.1836;stroke-miterlimit:10;}
	.st81{fill:none;stroke:#231F20;stroke-width:0.1244;stroke-miterlimit:10;}
	.st82{fill:#FFFFFF;stroke:#231F20;stroke-width:0.1244;stroke-miterlimit:10;}
	.st83{fill:#AAAAAA;stroke:#231F20;stroke-width:0.1244;stroke-miterlimit:10;}
	.st84{fill:#0A1A5C;stroke:#000000;stroke-width:0.1861;stroke-miterlimit:10;}
	.st85{fill:none;stroke:#FFFFFF;stroke-width:1.1168;stroke-miterlimit:10;}
	.st86{fill:#9DA3BE;stroke:#000000;stroke-width:0.1861;stroke-miterlimit:10;}
	.st87{fill:none;stroke:#FFFFFF;stroke-width:1.8613;stroke-linecap:round;stroke-miterlimit:10;}
	.st88{fill:none;stroke:#FFFFFF;stroke-width:1.8613;stroke-linecap:round;stroke-miterlimit:10;stroke-dasharray:5.4518,5.4518;}
	.st89{fill:#0A1A5C;stroke:#000000;stroke-width:0.3925;stroke-miterlimit:10;}
	.st90{fill:#CCCCCC;stroke:#000000;stroke-width:0.2015;stroke-miterlimit:10;}
	.st91{fill:#FFFFFF;stroke:#B3B3B3;stroke-width:2;stroke-miterlimit:10;}
	.st92{fill:none;stroke:#FFFFFF;stroke-width:0.7732;stroke-linecap:round;stroke-linejoin:round;stroke-miterlimit:10;}
	.st93{fill:#0A1A5C;stroke:#0A1A5C;stroke-width:0.8422;stroke-miterlimit:10;}
	.st94{fill:none;stroke:#0A1A5C;stroke-width:0.8422;stroke-miterlimit:10;}
	.st95{fill:#FFFFFF;stroke:#0A1A5C;stroke-width:0.8422;stroke-miterlimit:10;}
	.st96{fill:#9DA3BE;stroke:#000000;stroke-width:0.5;stroke-miterlimit:10;}
	.st97{fill:#FFFFFF;stroke:#000000;stroke-width:0.5;stroke-miterlimit:10;}
	.st98{fill:none;stroke:#000000;stroke-miterlimit:10;}
	.st99{fill:#9DA3BE;stroke:#000000;stroke-width:0.6594;stroke-miterlimit:10;}
	.st100{fill:#999999;stroke:#000000;stroke-width:0.25;stroke-miterlimit:10;}
	.st101{fill:#0A1A5C;stroke:#000000;stroke-width:0.5;stroke-miterlimit:10;}
	.st102{fill:none;stroke:#231F20;stroke-width:0.3388;stroke-miterlimit:10;}
	.st103{fill:#FFFFFF;stroke:#231F20;stroke-width:0.3388;stroke-miterlimit:10;}
	.st104{fill:#AAAAAA;stroke:#231F20;stroke-width:0.3388;stroke-miterlimit:10;}
	.st105{fill:none;stroke:#FFFFFF;stroke-width:3;stroke-miterlimit:10;}
	.st106{fill:none;stroke:#FFFFFF;stroke-width:5;stroke-linecap:round;stroke-miterlimit:10;}
	.st107{fill:none;stroke:#FFFFFF;stroke-width:5;stroke-linecap:round;stroke-miterlimit:10;stroke-dasharray:15.6667,15.6667;}
	.st108{fill:#0A1A5C;stroke:#000000;stroke-width:0.6991;stroke-miterlimit:10;}
	.st109{fill:#CCCCCC;stroke:#000000;stroke-width:0.3589;stroke-miterlimit:10;}
	.st110{fill:#0A1A5C;stroke:#000000;stroke-width:0.9737;stroke-miterlimit:10;}
	.st111{fill:#CCCCCC;stroke:#000000;stroke-width:0.5;stroke-miterlimit:10;}
	.st112{fill:#9DA3BE;stroke:#000000;stroke-width:0.9737;stroke-miterlimit:10;}
	.st113{fill:none;stroke:#FFFFFF;stroke-width:2;stroke-miterlimit:10;}
	.st114{fill:#9DA3BE;stroke:#000000;stroke-width:0.4769;stroke-miterlimit:10;}
	.st115{fill:#9DA3BE;stroke:#000000;stroke-width:0.5373;stroke-miterlimit:10;}
	.st116{fill:#0A1A5C;stroke:#000000;stroke-miterlimit:10;}
	.st117{fill:#0A1A5C;stroke:#000000;stroke-width:1.3636;stroke-miterlimit:10;}
	.st118{fill:#9DA3BE;stroke:#000000;stroke-miterlimit:10;}
	.st119{fill:#0A1A5C;stroke:#000000;stroke-width:1.2821;stroke-miterlimit:10;}
	.st120{fill:#9DA3BE;stroke:#000000;stroke-width:1.122;stroke-miterlimit:10;}
	.st121{fill:none;stroke:#000000;stroke-width:7.5318;stroke-linecap:round;stroke-miterlimit:10;}
	.st122{stroke:#000000;stroke-width:6;stroke-linecap:round;stroke-miterlimit:10;}
	.st123{fill:none;stroke:#000000;stroke-width:8;stroke-linecap:round;stroke-miterlimit:10;}
	.st124{fill:none;stroke:#000000;stroke-width:6;stroke-linecap:round;stroke-miterlimit:10;}
	.st125{fill:none;stroke:#FFFFFF;stroke-width:2;stroke-linecap:round;stroke-miterlimit:10;}
	.st126{fill:none;stroke:#FFFFFF;stroke-width:0.965;stroke-linecap:round;stroke-miterlimit:10;}
	.st127{fill:none;stroke:#0A1A5C;stroke-width:3.9302;stroke-miterlimit:10;}
	.st128{fill:none;stroke:#000000;stroke-width:2;stroke-miterlimit:10;}
	.st129{fill:#0A1A5C;stroke:#000000;stroke-width:0.6345;stroke-miterlimit:10;}
	.st130{opacity:0.8;fill:#0A1A5C;stroke:#000000;stroke-width:0.4686;stroke-miterlimit:10;}
	.st131{opacity:0.8;fill:#0A1A5C;stroke:#000000;stroke-width:0.5411;stroke-miterlimit:10;}
	.st132{fill:#0A1A5C;stroke:#000000;stroke-width:0.4686;stroke-miterlimit:10;}
	.st133{fill:#9DA3BE;stroke:#000000;stroke-width:0.2099;stroke-miterlimit:10;}
	.st134{fill:#9DA3BE;stroke:#000000;stroke-width:0.2102;stroke-miterlimit:10;}
	.st135{fill:#9DA3BE;stroke:#000000;stroke-width:0.2719;stroke-miterlimit:10;}
	.st136{fill:#9DA3BE;stroke:#000000;stroke-width:0.2181;stroke-miterlimit:10;}
	.st137{fill:#E6E6E6;stroke:#000000;stroke-width:0.5;stroke-miterlimit:10;}
	.st138{opacity:0.8;fill:#0A1A5C;stroke:#000000;stroke-width:0.6496;stroke-miterlimit:10;}
	.st139{opacity:0.8;fill:#0A1A5C;stroke:#000000;stroke-width:0.6124;stroke-miterlimit:10;}
	.st140{opacity:0.8;fill:#0A1A5C;stroke:#000000;stroke-width:0.7631;stroke-miterlimit:10;}
	.st141{fill:#0A1A5C;stroke:#000000;stroke-width:0.7631;stroke-miterlimit:10;}
	.st142{opacity:0.8;fill:#0A1A5C;stroke:#000000;stroke-width:0.5176;stroke-miterlimit:10;}
	.st143{fill:none;stroke:#000000;stroke-width:0.4544;stroke-miterlimit:10;}
	.st144{fill:none;stroke:#000000;stroke-width:0.4237;stroke-miterlimit:10;}
	.st145{fill:#CCCCCC;stroke:#000000;stroke-width:0.4714;stroke-miterlimit:10;}
	.st146{fill:#CCCCCC;stroke:#000000;stroke-width:0.3708;stroke-miterlimit:10;}
	.st147{fill:#24325E;stroke:#000000;stroke-width:0.3568;stroke-miterlimit:10;}
	.st148{fill:#0A1A5C;stroke:#000000;stroke-width:0.3909;stroke-miterlimit:10;}
	.st149{opacity:0.8;}
	.st150{fill:none;stroke:#000000;stroke-width:0.8333;stroke-miterlimit:10;}
	.st151{fill:#0A1A5C;stroke:#000000;stroke-width:0.4265;stroke-miterlimit:10;}
	.st152{fill:#9DA3BE;stroke:#000000;stroke-width:0.3933;stroke-miterlimit:10;}
	.st153{fill:#F2F2F2;stroke:#000000;stroke-width:0.5427;stroke-miterlimit:10;}
	.st154{fill:#9DA3BE;stroke:#000000;stroke-width:0.2821;stroke-miterlimit:10;}
	.st155{fill:#0A1A5C;stroke:#000000;stroke-width:0.3182;stroke-miterlimit:10;}
	.st156{fill:#9DA3BE;stroke:#000000;stroke-width:0.5477;stroke-miterlimit:10;}
	.st157{fill:#9DA3BE;stroke:#000000;stroke-width:0.4946;stroke-miterlimit:10;}
	.st158{fill:#F2F2F2;stroke:#000000;stroke-width:0.4268;stroke-miterlimit:10;}
	.st159{fill:#F2F2F2;stroke:#000000;stroke-width:0.25;stroke-miterlimit:10;}
	.st160{fill:#F2F2F2;}
	.st161{fill:#0A1A5C;stroke:#0A1A5C;stroke-width:0.25;stroke-miterlimit:10;}
	.st162{fill:#1C1C1C;}
	.st163{fill:none;stroke:#0A1A5C;stroke-width:0.75;stroke-miterlimit:10;}
	.st164{fill:none;stroke:#0A1A5C;stroke-width:0.75;stroke-miterlimit:10;stroke-dasharray:2.6667,2.6667;}
	
		.st165{fill:none;stroke:#0A1A5C;stroke-width:2;stroke-linecap:round;stroke-linejoin:round;stroke-miterlimit:10;stroke-dasharray:5;}
	.st166{fill:#9DA3BE;stroke:#000000;stroke-width:0.3748;stroke-miterlimit:10;}
	.st167{fill:none;stroke:#FFFFFF;stroke-width:0.7699;stroke-miterlimit:10;}
	.st168{fill:#9DA3BE;stroke:#000000;stroke-width:0.1836;stroke-miterlimit:10;}
	.st169{fill:#9DA3BE;stroke:#000000;stroke-width:0.2068;stroke-miterlimit:10;}
	.st170{fill:none;stroke:#FFFFFF;stroke-miterlimit:10;}
	.st171{fill:none;stroke:#FFFFFF;stroke-miterlimit:10;stroke-dasharray:3.5;}
</style>
<g id="Layer_1">
</g>
<g id="icon">
	<path class="st96" d="M196.5,269.2h-179c-4.4,0-8-3.6-8-8v-245c0-4.4,3.6-8,8-8h179c4.4,0,8,3.6,8,8v245
		C204.5,265.6,200.9,269.2,196.5,269.2z"/>
	<circle class="st19" cx="17.5" cy="16.2" r="4"/>
	<circle class="st19" cx="196.5" cy="16.2" r="4"/>
	<rect x="41" y="256.2" class="st137" width="132" height="13"/>
	<g>
		<path class="st138" d="M22.4,36.2h-3.8c-0.5,0-0.9-0.4-0.9-0.9v-6.8c0-0.5,0.4-0.9,0.9-0.9h3.8c0.5,0,0.9,0.4,0.9,0.9v6.8
			C23.2,35.8,22.8,36.2,22.4,36.2z"/>
		<g>
			<path class="st139" d="M57.1,38.6h-32c-1,0-1.8-0.8-1.8-1.8v-9.9c0-1,0.8-1.8,1.8-1.8h32c1,0,1.8,0.8,1.8,1.8v9.9
				C58.9,37.8,58.1,38.6,57.1,38.6z"/>
			<rect x="36.2" y="38.6" class="st140" width="9.8" height="36.1"/>
			<path class="st141" d="M44.6,128.7h-7c-0.8,0-1.4-0.6-1.4-1.4V94c0-0.8,0.6-1.4,1.4-1.4h7c0.8,0,1.4,0.6,1.4,1.4v33.3
				C46,128,45.4,128.7,44.6,128.7z"/>
			<path class="st142" d="M43.6,92.5h-5c-1,0-1.9-0.5-2-1.3l-2.2-15.6c-0.1-0.8,0.8-1.5,2-1.5h9.5c1.2,0,2.1,0.7,2,1.5l-2.2,15.6
				C45.5,92,44.6,92.5,43.6,92.5z"/>
		</g>
	</g>
	<g>
		<path class="st138" d="M88.1,36.2h-3.8c-0.5,0-0.9-0.4-0.9-0.9v-6.8c0-0.5,0.4-0.9,0.9-0.9h3.8c0.5,0,0.9,0.4,0.9,0.9v6.8
			C88.9,35.8,88.5,36.2,88.1,36.2z"/>
		<g>
			<path class="st139" d="M122.8,38.6h-32c-1,0-1.8-0.8-1.8-1.8v-9.9c0-1,0.8-1.8,1.8-1.8h32c1,0,1.8,0.8,1.8,1.8v9.9
				C124.6,37.8,123.8,38.6,122.8,38.6z"/>
			<rect x="101.9" y="38.6" class="st140" width="9.8" height="36.1"/>
			<path class="st141" d="M110.3,128.7h-7c-0.8,0-1.4-0.6-1.4-1.4V94c0-0.8,0.6-1.4,1.4-1.4h7c0.8,0,1.4,0.6,1.4,1.4v33.3
				C111.7,128,111.1,128.7,110.3,128.7z"/>
			<path class="st142" d="M109.3,92.5h-5c-1,0-1.9-0.5-2-1.3l-2.2-15.6c-0.1-0.8,0.8-1.5,2-1.5h9.5c1.2,0,2.1,0.7,2,1.5l-2.2,15.6
				C111.2,92,110.3,92.5,109.3,92.5z"/>
		</g>
	</g>
	<g>
		<path class="st138" d="M154.4,36.2h-3.8c-0.5,0-0.9-0.4-0.9-0.9v-6.8c0-0.5,0.4-0.9,0.9-0.9h3.8c0.5,0,0.9,0.4,0.9,0.9v6.8
			C155.2,35.8,154.8,36.2,154.4,36.2z"/>
		<g>
			<path class="st139" d="M189.1,38.6h-32c-1,0-1.8-0.8-1.8-1.8v-9.9c0-1,0.8-1.8,1.8-1.8h32c1,0,1.8,0.8,1.8,1.8v9.9
				C190.9,37.8,190.1,38.6,189.1,38.6z"/>
			<rect x="168.2" y="38.6" class="st140" width="9.8" height="36.1"/>
			<path class="st141" d="M176.6,128.7h-7c-0.8,0-1.4-0.6-1.4-1.4V94c0-0.8,0.6-1.4,1.4-1.4h7c0.8,0,1.4,0.6,1.4,1.4v33.3
				C178,128,177.4,128.7,176.6,128.7z"/>
			<path class="st142" d="M175.6,92.5h-5c-1,0-1.9-0.5-2-1.3l-2.2-15.6c-0.1-0.8,0.8-1.5,2-1.5h9.5c1.2,0,2.1,0.7,2,1.5l-2.2,15.6
				C177.5,92,176.6,92.5,175.6,92.5z"/>
		</g>
	</g>
	<polygon class="st143" points="44,168.7 44,128.7 38,128.7 38,169.5 38,169.8 38.6,170.8 92.5,214.2 96.5,210 	"/>
	<rect x="103.5" y="128.7" class="st144" width="7" height="75.5"/>
	<polygon class="st143" points="170,168.7 170,128.7 176,128.7 176,169.5 176,169.8 175.4,170.8 121.5,214.2 117.5,210 	"/>
	<rect x="99" y="245.2" class="st145" width="16" height="11"/>
	<rect x="98" y="238.7" class="st146" width="18" height="7"/>
	<path class="st147" d="M106,220.7l4.4,4.4c0.7,0.7,2,0.7,2.7,0l8.6-8.6c0.7-0.7,0.7-2,0-2.7l-4.4-4.4c-0.7-0.7-2-0.7-2.7,0
		l-8.6,8.6C105.2,218.7,105.2,219.9,106,220.7z"/>
	<path class="st147" d="M108,220.7l-4.4,4.4c-0.7,0.7-2,0.7-2.7,0l-8.6-8.6c-0.7-0.7-0.7-2,0-2.7l4.4-4.4c0.7-0.7,2-0.7,2.7,0
		l8.6,8.6C108.8,218.7,108.8,219.9,108,220.7z"/>
	<path class="st147" d="M110.1,219.7h-6.2c-1.1,0-1.9-0.9-1.9-1.9v-12.2c0-1.1,0.9-1.9,1.9-1.9h6.2c1.1,0,1.9,0.9,1.9,1.9v12.2
		C112,218.8,111.1,219.7,110.1,219.7z"/>
	<g>
		<path class="st148" d="M107,218.7c-6.6,0-12,5.4-12,12h24C119,224,113.6,218.7,107,218.7z"/>
		<polygon class="st148" points="95,230.7 97,238.7 98.1,238.7 115.9,238.7 117,238.7 119,230.7 		"/>
	</g>
</g>
</svg>
