<?xml version="1.0" encoding="utf-8"?>
<!-- Generator: Adobe Illustrator 22.0.0, SVG Export Plug-In . SVG Version: 6.00 Build 0)  -->
<svg version="1.1" xmlns="http://www.w3.org/2000/svg" xmlns:xlink="http://www.w3.org/1999/xlink" x="0px" y="0px"
	 viewBox="0 0 97 97" style="enable-background:new 0 0 97 97;" xml:space="preserve">
<style type="text/css">
	.st0{fill:#0A1A5C;}
	.st1{fill:#C1C1C1;}
	.st2{fill:#FF671F;}
	.st3{fill:#FFFFFF;}
	.st4{fill-rule:evenodd;clip-rule:evenodd;fill:#FFFFFF;}
	.st5{fill:#FFFFFF;stroke:#FFFFFF;stroke-width:1.849;stroke-miterlimit:10;}
	.st6{fill:#FFFFFF;stroke:#FFFFFF;stroke-width:0.6031;stroke-miterlimit:10;}
	.st7{fill:none;}
	.st8{fill:#FFFFFE;}
	.st9{fill:#CCCCCC;}
	.st10{fill:none;stroke:#B3B3B3;stroke-width:1.003;stroke-miterlimit:10;}
	.st11{fill:#FFFFFF;stroke:#CCCCCC;stroke-width:1.7931;stroke-miterlimit:10;}
	.st12{fill:none;stroke:#CCCCCC;stroke-width:0.8471;stroke-miterlimit:10;}
	.st13{fill:#999999;}
	.st14{fill:#CCCCCC;stroke:#CCCCCC;stroke-width:1.8957;stroke-miterlimit:10;}
	.st15{fill:none;stroke:#CCCCCC;stroke-miterlimit:10;}
	.st16{fill:#1B3281;}
	.st17{fill:#B5B6D1;}
	.st18{fill:#F9A46F;stroke:#FFFFFF;stroke-width:0.3025;stroke-miterlimit:10;}
	.st19{fill:#F68A46;stroke:#FFFFFF;stroke-width:0.3025;stroke-miterlimit:10;}
	.st20{fill:#FF671F;stroke:#FFFFFF;stroke-width:0.3025;stroke-miterlimit:10;}
	.st21{fill:#FEDEC7;stroke:#FFFFFF;stroke-width:0.3025;stroke-miterlimit:10;}
	.st22{fill:#FEDEC7;}
	.st23{fill:#F68A46;}
	.st24{fill:#F9A46F;}
	.st25{fill:#FF671F;stroke:#FF671F;stroke-width:0.7171;stroke-linecap:round;stroke-linejoin:round;stroke-miterlimit:10;}
	.st26{fill:#F9A46F;stroke:#F9A46F;stroke-width:0.1649;stroke-miterlimit:10;}
	.st27{fill:#FF671F;stroke:#FF671F;stroke-width:0.1649;stroke-miterlimit:10;}
	.st28{opacity:0.88;}
	.st29{fill:#FCC198;}
	.st30{fill:none;stroke:#0A1A5C;stroke-width:2;stroke-miterlimit:10;}
	.st31{opacity:0.2;}
	.st32{fill:#FFFFFF;stroke:#FFFFFF;stroke-width:0.8783;stroke-miterlimit:10;}
	.st33{fill:#FFFFFF;stroke:#FFFFFF;stroke-width:0.8713;stroke-miterlimit:10;}
	.st34{fill:none;stroke:#B3B3B3;stroke-width:1.1187;stroke-miterlimit:10;}
	.st35{fill:#FFFFFF;stroke:#CCCCCC;stroke-width:0.5946;stroke-miterlimit:10;}
	.st36{fill:#0A1A5C;stroke:#CCCCCC;stroke-width:0.5377;stroke-miterlimit:10;}
	.st37{fill:#FFFFFF;stroke:#CCCCCC;stroke-width:0.8286;stroke-miterlimit:10;}
	.st38{fill:#FFFFFF;stroke:#CCCCCC;stroke-width:0.9104;stroke-miterlimit:10;}
	.st39{fill:#FFFFFF;stroke:#CCCCCC;stroke-width:0.7829;stroke-miterlimit:10;}
	.st40{fill:#0A1A5C;stroke:#CCCCCC;stroke-width:0.8233;stroke-miterlimit:10;}
	.st41{fill:#0A1A5C;stroke:#CCCCCC;stroke-width:0.7117;stroke-miterlimit:10;}
	.st42{fill:#0A1A5C;stroke:#CCCCCC;stroke-width:0.7493;stroke-miterlimit:10;}
	.st43{fill:#FFFFFF;stroke:#0A1A5C;stroke-miterlimit:10;}
	.st44{fill:#0A1A5C;stroke:#0A1A5C;stroke-width:0.7524;stroke-miterlimit:10;}
	.st45{fill:#FFFFFF;stroke:#0A1A5C;stroke-width:0.7524;stroke-miterlimit:10;}
	.st46{fill:#F37021;}
	.st47{fill:none;stroke:#0A1A5C;stroke-miterlimit:10;}
	.st48{fill:#F26F21;}
	.st49{fill:#FFFFFF;stroke:#F37021;stroke-width:6.9715;stroke-miterlimit:10;}
	.st50{fill:none;stroke:#0A1A5C;stroke-width:2.5392;stroke-miterlimit:10;}
	.st51{fill:none;stroke:#000000;stroke-width:2.0231;stroke-miterlimit:10;}
	.st52{fill:none;stroke:#FF671F;stroke-width:2;stroke-miterlimit:10;}
	.st53{fill:#E6E6E6;}
	.st54{fill:#FFFFFF;stroke:#0A1A5C;stroke-width:3.4555;stroke-miterlimit:10;}
	.st55{fill:#9DA3BE;stroke:#000000;stroke-width:0.369;stroke-miterlimit:10;}
	.st56{fill:#9DA3BE;}
	.st57{fill:#FFFFFF;stroke:#000000;stroke-width:0.369;stroke-miterlimit:10;}
	.st58{fill:none;stroke:#000000;stroke-width:0.7381;stroke-miterlimit:10;}
	.st59{fill:#9DA3BE;stroke:#000000;stroke-width:0.4867;stroke-miterlimit:10;}
	.st60{fill:#999999;stroke:#000000;stroke-width:0.1845;stroke-miterlimit:10;}
	.st61{fill:#00FF00;}
	.st62{fill:#FFFFFF;stroke:#000000;stroke-width:1.7278;stroke-miterlimit:10;}
	.st63{fill:#9DA3BE;stroke:#000000;stroke-width:0.9851;stroke-miterlimit:10;}
	.st64{fill:none;stroke:#FFFFFF;stroke-width:2.0234;stroke-miterlimit:10;}
	.st65{fill:#9DA3BE;stroke:#000000;stroke-width:0.4824;stroke-miterlimit:10;}
	.st66{fill:#9DA3BE;stroke:#000000;stroke-width:0.5436;stroke-miterlimit:10;}
	.st67{fill:none;stroke:#000000;stroke-width:0.7739;stroke-miterlimit:10;}
	.st68{fill:#0A1A5C;stroke:#000000;stroke-width:0.7739;stroke-miterlimit:10;}
	.st69{fill:#0A1A5C;stroke:#000000;stroke-width:1.0553;stroke-miterlimit:10;}
	.st70{fill:#9DA3BE;stroke:#000000;stroke-width:0.7739;stroke-miterlimit:10;}
	.st71{fill:#0A1A5C;stroke:#000000;stroke-width:1.0167;stroke-miterlimit:10;}
	.st72{fill:#9DA3BE;stroke:#000000;stroke-width:0.8897;stroke-miterlimit:10;}
	.st73{fill:none;stroke:#000000;stroke-width:5.9724;stroke-linecap:round;stroke-miterlimit:10;}
	.st74{stroke:#000000;stroke-width:4.7578;stroke-linecap:round;stroke-miterlimit:10;}
	.st75{fill:none;stroke:#000000;stroke-width:6.3438;stroke-linecap:round;stroke-miterlimit:10;}
	.st76{fill:none;stroke:#000000;stroke-width:4.7578;stroke-linecap:round;stroke-miterlimit:10;}
	.st77{fill:none;stroke:#FFFFFF;stroke-width:1.5859;stroke-linecap:round;stroke-miterlimit:10;}
	.st78{fill:none;stroke:#FFFFFF;stroke-width:0.7652;stroke-linecap:round;stroke-miterlimit:10;}
	.st79{fill:none;stroke:#0A1A5C;stroke-width:3.1035;stroke-miterlimit:10;}
	.st80{opacity:0.6;fill:#0A1A5C;}
	.st81{fill:#9DA3BE;stroke:#000000;stroke-width:0.7896;stroke-miterlimit:10;}
	.st82{fill:none;stroke:#000000;stroke-width:1.5793;stroke-miterlimit:10;}
	.st83{fill:#0A1A5C;stroke:#000000;stroke-width:0.501;stroke-miterlimit:10;}
	.st84{opacity:0.8;fill:#0A1A5C;stroke:#000000;stroke-width:0.37;stroke-miterlimit:10;}
	.st85{opacity:0.8;fill:#0A1A5C;stroke:#000000;stroke-width:0.4273;stroke-miterlimit:10;}
	.st86{fill:#0A1A5C;stroke:#000000;stroke-width:0.37;stroke-miterlimit:10;}
	.st87{fill:#9DA3BE;stroke:#000000;stroke-width:0.1658;stroke-miterlimit:10;}
	.st88{fill:#9DA3BE;stroke:#000000;stroke-width:0.166;stroke-miterlimit:10;}
	.st89{fill:#9DA3BE;stroke:#000000;stroke-width:0.2147;stroke-miterlimit:10;}
	.st90{fill:#9DA3BE;stroke:#000000;stroke-width:0.1723;stroke-miterlimit:10;}
	.st91{fill:#0A1A5C;stroke:#000000;stroke-width:0.3577;stroke-miterlimit:10;}
	.st92{fill:none;stroke:#231F20;stroke-width:0.2424;stroke-miterlimit:10;}
	.st93{fill:#FFFFFF;stroke:#231F20;stroke-width:0.2424;stroke-miterlimit:10;}
	.st94{fill:#AAAAAA;stroke:#231F20;stroke-width:0.2424;stroke-miterlimit:10;}
	.st95{fill:#0A1A5C;stroke:#000000;stroke-width:0.3627;stroke-miterlimit:10;}
	.st96{fill:none;stroke:#FFFFFF;stroke-width:2.1764;stroke-miterlimit:10;}
	.st97{fill:#9DA3BE;stroke:#000000;stroke-width:0.3627;stroke-miterlimit:10;}
	.st98{fill:none;stroke:#FFFFFF;stroke-width:3.6274;stroke-linecap:round;stroke-miterlimit:10;}
	.st99{fill:none;stroke:#FFFFFF;stroke-width:3.6274;stroke-linecap:round;stroke-miterlimit:10;stroke-dasharray:10.6247,10.6247;}
	.st100{fill:#0A1A5C;stroke:#000000;stroke-width:0.7649;stroke-miterlimit:10;}
	.st101{fill:#CCCCCC;stroke:#000000;stroke-width:0.3928;stroke-miterlimit:10;}
	.st102{fill:#F9A46F;stroke:#F9A46F;stroke-width:0.5;stroke-miterlimit:10;}
	.st103{fill:#FF671F;stroke:#FF671F;stroke-width:0.5;stroke-miterlimit:10;}
	.st104{fill:#F9A46F;stroke:#FFFFFF;stroke-width:0.9258;stroke-miterlimit:10;}
	.st105{fill:#F68A46;stroke:#FFFFFF;stroke-width:0.9258;stroke-miterlimit:10;}
	.st106{fill:#FF671F;stroke:#FFFFFF;stroke-width:0.9258;stroke-miterlimit:10;}
	.st107{fill:#FEDEC7;stroke:#FFFFFF;stroke-width:0.9258;stroke-miterlimit:10;}
	.st108{fill:#FF671F;stroke:#FF671F;stroke-width:2.1738;stroke-linecap:round;stroke-linejoin:round;stroke-miterlimit:10;}
	.st109{fill:#0A1A5C;stroke:#FFFFFF;stroke-width:2.1738;stroke-linecap:round;stroke-linejoin:round;stroke-miterlimit:10;}
	.st110{fill:#FFFFFF;stroke:#FFFFFF;stroke-width:0.5;stroke-miterlimit:10;}
	.st111{fill:#FFFFFF;stroke:#FFFFFF;stroke-width:0.9258;stroke-miterlimit:10;}
	.st112{fill:none;stroke:#CCCCCC;stroke-width:1.5967;stroke-miterlimit:10;}
	.st113{fill:#0A1A5C;stroke:#CCCCCC;stroke-width:1.4186;stroke-miterlimit:10;}
	.st114{fill:#9DA3BE;stroke:#CCCCCC;stroke-width:1.4186;stroke-miterlimit:10;}
	.st115{fill:none;stroke:#808080;stroke-width:1.1621;stroke-miterlimit:10;}
	.st116{fill-rule:evenodd;clip-rule:evenodd;}
	.st117{fill:none;stroke:#808080;stroke-miterlimit:10;}
	.st118{fill-rule:evenodd;clip-rule:evenodd;fill:#F37021;}
	.st119{fill-rule:evenodd;clip-rule:evenodd;fill:#0A1A5C;}
	.st120{opacity:0.6;fill-rule:evenodd;clip-rule:evenodd;fill:#F37021;}
	.st121{opacity:0.8;fill-rule:evenodd;clip-rule:evenodd;fill:#F37021;}
	.st122{fill:none;stroke:#B3B3B3;stroke-width:0.9837;stroke-miterlimit:10;}
	.st123{fill:#D3CCB9;}
	.st124{fill:#ADA794;}
	.st125{fill:#C4BFB3;}
	.st126{fill:#E69F87;}
	.st127{fill:#222027;}
	.st128{fill:#FFB296;}
	.st129{fill:#D6957E;}
	.st130{fill:#D47433;}
	.st131{fill:#F18539;}
	.st132{fill:#FFC43D;}
	.st133{fill:#FFCF61;}
	.st134{fill:#FFB614;}
	.st135{fill:#163D54;}
	.st136{fill:#1D5273;}
	.st137{fill:#BC4D39;}
	.st138{fill:#D1917B;}
	.st139{fill:#F2F4F6;}
	.st140{fill:#EBA48A;}
	.st141{fill:#000038;}
	.st142{fill:#ADADAD;}
	.st143{fill:#D6D6D6;}
	.st144{fill:#33313B;}
	.st145{fill:#565951;}
	.st146{fill:#7B6B5C;}
	.st147{fill:#493A27;}
	.st148{fill:#302415;}
	.st149{fill:#41301C;}
	.st150{fill:#8A392B;}
	.st151{fill:#3E403B;}
	.st152{fill:#484A43;}
	.st153{clip-path:url(#SVGID_2_);}
	.st154{fill:#E4DED0;}
	.st155{fill:#65685F;}
	.st156{fill:#7D827C;}
	.st157{fill:#575952;}
	.st158{fill:#393B35;}
	.st159{fill:#2F2D36;}
	.st160{fill:#3B3228;}
	.st161{fill:#42453E;}
	.st162{clip-path:url(#SVGID_4_);}
	.st163{clip-path:url(#SVGID_6_);}
</style>
<g id="cảnh_báo">
</g>
<g id="biểu_đồ">
</g>
<g id="ảnh_gì_đó">
</g>
<g id="thiết_bị">
</g>
<g id="icon_v2.0">
	<g>
		<g>
			<path class="st3" d="M48.5,94.5c-25.4,0-46-20.6-46-46s20.6-46,46-46s46,20.6,46,46S73.9,94.5,48.5,94.5z"/>
			<path class="st0" d="M48.5,5C72.5,5,92,24.5,92,48.5C92,72.5,72.5,92,48.5,92S5,72.5,5,48.5S24.5,5,48.5,5 M48.5,0
				C21.8,0,0,21.8,0,48.5v0C0,75.2,21.8,97,48.5,97S97,75.2,97,48.5v0C97,21.8,75.2,0,48.5,0L48.5,0z"/>
		</g>
		<g>
			<path class="st102" d="M29.6,35.1c0.7,0,1.4,0,2.1,0c1.3,0,1.3,0,1.3,1.3c0,0.3-0.1,0.4-0.4,0.4c0,0-0.1,0-0.1,0
				c-0.8,0-1.2,0.3-1.2,0.9c0,0.6,0.4,0.9,1.2,0.9c0.4,0,0.5,0.1,0.6,0.5c0,0.5-0.2,0.5-0.6,0.5c-0.7,0-1.2,0.3-1.2,0.9
				c0,0.6,0.4,0.9,1.2,0.9c1,0,2,0,3.1,0c0.6,0,1-0.4,1-0.9c0-0.5-0.4-0.9-1-0.9c-0.2,0-0.3,0-0.5,0c-0.1,0-0.2,0-0.2-0.1
				c-0.2-0.5,0.1-0.9,0.6-0.9c0.2,0,0.3,0,0.5,0c0.5-0.1,0.7-0.4,0.7-0.9c0-0.5-0.3-0.7-0.8-0.8c-0.3,0-0.7,0.2-0.9-0.1
				c-0.1-0.2,0-0.6,0-0.9c0-0.1,0-0.2,0-0.3c0-0.3,0.1-0.4,0.4-0.4c0.8,0,1.6,0,2.4,0c0.5,0,0.5,0.2,0.5,0.6c0,2.6,0,5.1,0,7.7
				c0,0.4-0.2,0.6-0.5,0.8c-2.8,1.4-5.7,2.8-8.5,4.2c-0.7,0.4-1.1,1-0.9,1.7c0.2,0.7,0.7,1.1,1.6,1.2c0.8,0,1.7,0,2.5,0
				c0.6,0,0.8,0.1,0.7,0.7c-0.1,0.9,0,0.9-0.9,1c-0.5,0.1-0.9,0.5-0.9,0.9c0,0.5,0.4,0.8,0.9,0.8c0,0,0.1,0,0.1,0
				c0.3,0,0.7-0.2,0.7,0.5c0,0.7-0.4,0.6-0.8,0.6c0,0-0.1,0-0.1,0c-0.5,0-0.9,0.4-0.9,0.9c0,0.5,0.3,0.9,0.8,0.9c1.2,0,2.4,0,3.6,0
				c0.5,0,0.8-0.4,0.8-0.9c0-0.5-0.3-0.8-0.9-0.9c-0.1,0-0.2,0-0.4,0c-0.4,0.1-0.5-0.1-0.5-0.5c0-0.4,0.1-0.6,0.5-0.6
				c0.1,0,0.2,0,0.3,0c0.5,0,0.9-0.4,0.9-0.9c0-0.5-0.4-0.8-0.9-0.9c-0.9-0.1-0.9-0.1-0.9-1c0-0.1,0-0.2,0-0.3
				c0-0.3,0.1-0.4,0.4-0.4c0.8,0,1.7,0,2.5,0c0.4,0,0.5,0.1,0.5,0.5c0,1.3,0,2.6,0,4c0,0.4-0.1,0.8-0.2,1.2
				c-0.7,2.1-1.4,4.1-2.1,6.2c-0.1,0.4-0.1,0.8,0.3,1.1c0.3,0.3,0.7,0.2,1,0c0.2-0.2,0.3-0.4,0.4-0.6c0.7-2,1.4-4,2.1-6
				c0.2-0.6,0.3-1.3,0.3-2c0-9.2,0-18.4,0-27.6c0-0.6,0.2-1,0.6-1.4c2.1-1.8,4.2-3.7,6.4-5.6c1.2-1.1,2.3-1,3.5,0
				c0.6,0.5,1.2,1.1,1.8,1.6c0.4,0.3,0.9,0.3,1.2-0.1c0.3-0.4,0.3-0.9,0-1.2c-1.3-1.1-2.4-2.5-4.2-2.9c-0.4,0-0.8,0-1.2,0
				c-0.9,0.2-1.6,0.6-2.3,1.2c-2.2,1.9-4.4,3.9-6.6,5.8c-0.6,0.6-1,1.3-1,2.1c0,0.4-0.2,0.6-0.5,0.8c-2.9,1.4-5.7,2.8-8.6,4.2
				c-0.7,0.3-1,1-0.9,1.6C28.2,34.6,28.8,35,29.6,35.1z M38,46.3c0,0.8,0,1.7,0,2.5c0,0.2,0,0.4-0.3,0.4c-2.2,0-4.4,0-6.6,0
				c0,0,0-0.1,0-0.1c0.5-0.2,1-0.5,1.4-0.7c1.7-0.8,3.3-1.6,5-2.4C37.9,45.8,38.1,45.8,38,46.3z M38,29.8c0,1.1,0,2.2,0,3.3
				c0,0.2-0.1,0.2-0.3,0.2c-2.2,0-4.4,0-6.5,0c0,0,0,0,0-0.1C33.4,32.1,35.7,31,38,29.8z"/>
			<path class="st103" d="M70.8,73.4c-1.7,0-3.5,0-5.2,0c-0.5,0-0.7-0.1-0.9-0.6c-1.8-5.4-3.7-10.8-5.5-16.2
				c-0.1-0.3-0.2-0.6-0.2-0.9c0-1.5,0-2.9,0-4.4c0-0.3,0.1-0.4,0.4-0.4c0.6,0,1.3,0,1.9,0c1.1,0,1,0,1.1,1.1c0,0.5,0,0.7-0.6,0.6
				c-0.7-0.1-1.2,0.3-1.2,0.9c0,0.6,0.4,0.9,1.1,0.9c0.4,0,0.6,0.1,0.6,0.6c0,0.7-0.4,0.5-0.8,0.5c-0.6,0-1,0.4-1,0.9
				c0,0.5,0.4,0.9,1,0.9c1.1,0,2.2,0,3.3,0c0.3,0,0.6-0.1,0.8-0.4c0.4-0.6,0-1.3-0.7-1.4c-0.4,0-0.9,0.3-0.9-0.6
				c0-0.8,0.5-0.4,0.9-0.5c0.5-0.1,0.9-0.4,0.9-0.8c0-0.5-0.3-0.8-0.8-0.9c-0.3-0.1-0.7,0.2-0.9-0.1c-0.1-0.3,0-0.7,0-1
				c0,0,0-0.1,0-0.1c-0.1-0.4,0.1-0.5,0.5-0.5c1,0,1.9,0,2.9,0c0.7,0,1.3-0.5,1.5-1.2c0.1-0.6-0.2-1.3-0.8-1.6
				c-0.2-0.1-0.4-0.2-0.6-0.3c-2.7-1.3-5.4-2.6-8.1-4c-0.2-0.1-0.5-0.2-0.5-0.5c0-2.7,0-5.4,0-8.1c0-0.3,0.1-0.4,0.4-0.4
				c0.6,0,1.3,0,1.9,0c1,0,1,0,1,1c0,0.5-0.1,0.7-0.7,0.7c-0.7-0.1-1.1,0.3-1.1,0.9c0,0.5,0.4,0.9,1.1,0.9c0.1,0,0.3,0,0.4,0
				c0.1,0,0.2,0,0.2,0.1c0.2,0.5-0.1,0.9-0.6,0.9c-0.1,0-0.2,0-0.4,0c-0.5,0.1-0.7,0.4-0.8,0.8c0,0.5,0.2,0.8,0.7,0.9
				c1.3,0.1,2.5,0.1,3.8,0c0.4,0,0.7-0.3,0.7-0.7c0.1-0.4-0.1-0.7-0.5-0.9c-0.2-0.1-0.5-0.1-0.7-0.1c-0.4,0-0.5-0.1-0.5-0.5
				c0-0.4,0.1-0.6,0.5-0.5c0.1,0,0.2,0,0.4,0c0.5,0,0.9-0.4,0.9-0.9c0-0.5-0.4-0.8-0.9-0.9c-0.8,0-0.8,0-0.8-0.8c0-0.1,0-0.2,0-0.4
				C64,35.2,64.2,35,64.6,35c1,0,2,0,3,0c0.7,0,1.2-0.5,1.3-1.1c0.2-0.6-0.1-1.2-0.6-1.6c-0.2-0.1-0.4-0.2-0.6-0.3
				c-2.7-1.3-5.5-2.7-8.2-4c-0.3-0.2-0.5-0.3-0.5-0.7c0-0.8-0.3-1.5-0.8-2c-0.6-0.6-1.3-1.2-2-1.7c-0.5-0.4-1-0.4-1.3,0
				c-0.3,0.4-0.3,0.9,0.2,1.3c0.5,0.5,1,0.9,1.5,1.3c0.5,0.4,0.7,0.9,0.7,1.5c0,9.2,0,18.4,0,27.6c0,0.6,0.1,1.2,0.3,1.8
				c1.2,3.6,2.5,7.2,3.7,10.8c0.6,1.8,1.2,3.6,1.8,5.4c-0.7,0-1.2,0-1.8,0c-0.4,0-0.6-0.1-0.7-0.5c-1.8-5.2-3.5-10.3-5.3-15.5
				C55.1,57,55,56.6,55,56.1c0-8.9,0-17.8,0-26.6c0-1-0.4-1.9-1.1-2.5c-1.1-1-2.3-2-3.4-3c-1.3-1.1-2.6-1.1-3.9,0
				c-1.1,1-2.2,2-3.3,2.9c-0.9,0.7-1.2,1.6-1.2,2.7c0,8.9,0,17.7,0,26.6c0,0.4-0.1,0.9-0.2,1.3c-0.7,2-1.4,4-2.1,6
				c-1.1,3.2-2.2,6.4-3.3,9.6c-0.1,0.2-0.1,0.5-0.4,0.5c-0.7,0-1.4,0-2.1,0c0.2-0.7,0.4-1.3,0.6-1.9c0.5-1.4,1-2.8,1.4-4.2
				c0.1-0.4,0.1-0.8-0.2-1.1C35.6,66,35.3,66,35,66.1c-0.4,0.1-0.5,0.4-0.6,0.8c-0.7,2-1.4,4.1-2.1,6.1c-0.1,0.3-0.3,0.4-0.6,0.4
				c-1.8,0-3.6,0-5.4,0c-1.9,0-3.4,1.2-3.8,3c-0.4,1.5,0.4,2.3,1.8,2.3c11.9,0,23.8,0,35.7,0c0.2,0,0.3,0,0.5,0
				c0.5,0,0.9-0.4,0.9-0.9c0-0.5-0.3-0.8-0.9-0.9c-0.2,0-0.4,0-0.5,0c-11.7,0-23.3,0-35,0c-0.2,0-0.5,0-0.7,0c0.2-1.2,1-1.8,2.3-1.8
				c14.7,0,29.3,0,44,0c0.1,0,0.2,0,0.2,0c1.1,0,1.8,0.6,2.1,1.8c-0.2,0-0.4,0-0.5,0c-2.6,0-5.3,0-7.9,0c-0.6,0-1,0.4-1,0.9
				c0,0.5,0.4,0.9,1,0.9c2.9,0,5.9,0,8.8,0c0.9,0,1.5-0.6,1.5-1.5C74.6,75.2,72.9,73.5,70.8,73.4z M59,29.8c2.4,1.2,4.6,2.3,6.9,3.4
				c0,0,0,0.1,0,0.1c-0.4,0-0.8,0-1.3,0c-1.7,0-3.4,0-5.1,0c-0.4,0-0.5-0.1-0.5-0.5C59,31.9,59,30.9,59,29.8z M59,46.2
				c0-0.4,0.1-0.4,0.4-0.2c2.1,1.1,4.3,2.1,6.4,3.1c0.1,0,0.1,0,0.2,0.1c0,0-0.1,0.1-0.1,0.1c-2.1,0-4.3,0-6.4,0
				c-0.4,0-0.5-0.1-0.5-0.5C59,48,59,47.1,59,46.2z M52.3,48.3c-1.2,0.6-2.2,1.4-3.3,2.1c-0.3,0.2-0.6,0.2-0.9,0
				c-1.2-0.8-2.4-1.6-3.6-2.3c-0.5-0.3-0.8-0.6-0.6-1.2c-0.2-0.6,0.1-0.9,0.6-1.2c1.2-0.8,2.5-1.6,3.7-2.3c0.3-0.2,0.5-0.2,0.8,0
				c1.3,0.9,2.6,1.7,4,2.5c0.3,0.2,0.3,0.4,0.4,0.7C53.3,47.4,53,47.9,52.3,48.3z M53.2,49.8c0,1.3,0,2.6,0,3.9c-1-0.7-2-1.3-3-1.9
				C51.2,51.1,52.1,50.4,53.2,49.8z M46.9,51.7c-1,0.7-2,1.3-3,1.9c0-1.3,0-2.6,0-3.9C44.8,50.4,45.8,51,46.9,51.7z M43.8,43.9
				c0-1.3,0-2.6,0-3.9c1,0.6,1.9,1.2,2.8,1.8c0.2,0.1,0.2,0.2,0,0.3C45.7,42.7,44.8,43.3,43.8,43.9z M50.4,41.8
				c0.9-0.6,1.8-1.1,2.8-1.8c0,1.3,0,2.6,0,3.9c-1-0.6-1.9-1.2-2.8-1.8C50.1,41.9,50.3,41.9,50.4,41.8z M44.4,28.2
				c1.1-1,2.3-2,3.4-3c0.4-0.3,0.8-0.4,1.2-0.1c1.2,1,2.4,2.1,3.6,3.1c0.1,0.1,0.1,0.1,0.1,0.1c0,0.2-0.1,0.3-0.2,0.3
				c-1.3,0.8-2.5,1.6-3.8,2.4c-0.2,0.1-0.4,0.1-0.6,0c-1.2-0.8-2.5-1.6-3.7-2.4C44.2,28.5,44.2,28.4,44.4,28.2z M53.2,30.3
				c0,1.3,0,2.6,0,3.9c-1-0.7-2-1.3-3-1.9C51.2,31.6,52.1,31,53.2,30.3z M43.8,30.3c1,0.7,2,1.3,3,1.9c-1,0.7-2,1.3-3,2
				C43.8,32.9,43.8,31.7,43.8,30.3z M44.7,35.7c1.2-0.7,2.3-1.4,3.4-2.2c0.3-0.2,0.5-0.2,0.7,0c1.2,0.8,2.4,1.6,3.7,2.4
				c0.5,0.3,0.9,0.6,0.6,1.3c0.2,0.6-0.1,0.9-0.6,1.2c-1.2,0.8-2.5,1.5-3.7,2.4c-0.3,0.2-0.5,0.2-0.8,0c-1.3-0.9-2.6-1.7-4-2.5
				c-0.3-0.2-0.3-0.4-0.4-0.7C43.6,36.7,44,36.1,44.7,35.7z M43.4,58.1c0.3-0.6,0.4-1.3,0.4-2c0-0.3,0.1-0.4,0.3-0.6
				c1.3-0.9,2.7-1.7,4-2.6c0.3-0.2,0.5-0.2,0.7,0c1.3,0.9,2.6,1.7,4,2.5c0.3,0.2,0.4,0.4,0.4,0.7c-0.1,0.6,0.1,1.2,0.3,1.7
				c0,0.1,0.1,0.2,0.1,0.3c0,0.2-0.1,0.3-0.2,0.4c-1.5,1.4-3.1,2.7-4.6,4.1c-0.2,0.2-0.4,0.2-0.6,0c-1.5-1.3-3-2.7-4.6-4
				C43.4,58.6,43.3,58.4,43.4,58.1z M38.9,71.2c1.2-3.5,2.4-7,3.6-10.6c0.1-0.3,0.2-0.4,0.4-0.1c1.3,1.1,2.6,2.3,3.9,3.4
				c0.1,0.1,0.3,0.2,0,0.4C44.3,66.7,41.6,69,38.9,71.2C39,71.3,39,71.3,38.9,71.2z M39.5,73.4c-0.1-0.2,0.1-0.2,0.2-0.3
				c2.8-2.5,5.6-5,8.5-7.5c0.2-0.2,0.3-0.4,0.6-0.1c2.9,2.6,5.9,5.2,9,7.9C51.5,73.4,45.5,73.4,39.5,73.4z M49.8,64.2
				c1.5-1.3,3-2.6,4.5-3.9c1.3,3.7,2.5,7.4,3.8,11.2C55.3,68.9,52.5,66.6,49.8,64.2z"/>
		</g>
	</g>
</g>
<g id="tổng_quan">
</g>
</svg>
