<?xml version="1.0" encoding="utf-8"?>
<!-- Generator: Adobe Illustrator 22.0.0, SVG Export Plug-In . SVG Version: 6.00 Build 0)  -->
<svg version="1.1" id="Layer_1" xmlns="http://www.w3.org/2000/svg" xmlns:xlink="http://www.w3.org/1999/xlink" x="0px" y="0px"
	 viewBox="0 0 213.7 272.7" style="enable-background:new 0 0 213.7 272.7;" xml:space="preserve">
<style type="text/css">
	.st0{fill:#9DA3BE;stroke:#000000;stroke-width:0.5;stroke-miterlimit:10;}
	.st1{fill:#0A1A5C;}
	.st2{fill:#9DA3BE;}
	.st3{fill:#FFFFFF;stroke:#000000;stroke-width:0.5;stroke-miterlimit:10;}
	.st4{fill:none;stroke:#000000;stroke-miterlimit:10;}
	.st5{fill:#9DA3BE;stroke:#000000;stroke-width:0.6594;stroke-miterlimit:10;}
	.st6{fill:#999999;stroke:#000000;stroke-width:0.25;stroke-miterlimit:10;}
	.st7{fill:#0A1A5C;stroke:#000000;stroke-width:0.5;stroke-miterlimit:10;}
	.st8{fill:none;stroke:#231F20;stroke-width:0.3388;stroke-miterlimit:10;}
	.st9{fill:#FFFFFF;stroke:#231F20;stroke-width:0.3388;stroke-miterlimit:10;}
	.st10{fill:#FFFFFF;}
	.st11{font-family:'Arial-BoldMT';}
	.st12{font-size:6.7753px;}
	.st13{fill:#CCCCCC;}
	.st14{fill:#AAAAAA;stroke:#231F20;stroke-width:0.3388;stroke-miterlimit:10;}
	.st15{fill:none;stroke:#FFFFFF;stroke-width:3;stroke-miterlimit:10;}
	.st16{fill:none;}
	.st17{fill:none;stroke:#FFFFFF;stroke-width:5;stroke-linecap:round;stroke-miterlimit:10;}
	.st18{fill:none;stroke:#FFFFFF;stroke-width:5;stroke-linecap:round;stroke-miterlimit:10;stroke-dasharray:15.6667,15.6667;}
	.st19{fill:#0A1A5C;stroke:#000000;stroke-width:0.9737;stroke-miterlimit:10;}
	.st20{fill:#CCCCCC;stroke:#000000;stroke-width:0.5;stroke-miterlimit:10;}
	.st21{fill:#F37021;}
	.st22{fill:#9DA3BE;stroke:#000000;stroke-width:0.9737;stroke-miterlimit:10;}
	.st23{fill:none;stroke:#FFFFFF;stroke-width:2;stroke-miterlimit:10;}
	.st24{fill:#9DA3BE;stroke:#000000;stroke-width:0.4769;stroke-miterlimit:10;}
	.st25{fill:#9DA3BE;stroke:#000000;stroke-width:0.5373;stroke-miterlimit:10;}
	.st26{fill:#0A1A5C;stroke:#000000;stroke-miterlimit:10;}
	.st27{fill:#0A1A5C;stroke:#000000;stroke-width:1.3636;stroke-miterlimit:10;}
	.st28{fill:#9DA3BE;stroke:#000000;stroke-miterlimit:10;}
	.st29{fill:#0A1A5C;stroke:#000000;stroke-width:1.2821;stroke-miterlimit:10;}
	.st30{fill:#9DA3BE;stroke:#000000;stroke-width:1.122;stroke-miterlimit:10;}
	.st31{fill:none;stroke:#000000;stroke-width:7.5318;stroke-linecap:round;stroke-miterlimit:10;}
	.st32{stroke:#000000;stroke-width:6;stroke-linecap:round;stroke-miterlimit:10;}
	.st33{fill:none;stroke:#000000;stroke-width:8;stroke-linecap:round;stroke-miterlimit:10;}
	.st34{fill:none;stroke:#000000;stroke-width:6;stroke-linecap:round;stroke-miterlimit:10;}
	.st35{fill:none;stroke:#FFFFFF;stroke-width:2;stroke-linecap:round;stroke-miterlimit:10;}
	.st36{fill:none;stroke:#FFFFFF;stroke-width:0.965;stroke-linecap:round;stroke-miterlimit:10;}
	.st37{fill:none;stroke:#0A1A5C;stroke-width:3.9302;stroke-miterlimit:10;}
	.st38{opacity:0.6;fill:#0A1A5C;}
	.st39{fill:none;stroke:#000000;stroke-width:2;stroke-miterlimit:10;}
	.st40{fill:#0A1A5C;stroke:#000000;stroke-width:0.6345;stroke-miterlimit:10;}
	.st41{opacity:0.8;fill:#0A1A5C;stroke:#000000;stroke-width:0.4686;stroke-miterlimit:10;}
	.st42{opacity:0.8;fill:#0A1A5C;stroke:#000000;stroke-width:0.5411;stroke-miterlimit:10;}
	.st43{fill:#0A1A5C;stroke:#000000;stroke-width:0.4686;stroke-miterlimit:10;}
	.st44{fill:#9DA3BE;stroke:#000000;stroke-width:0.2099;stroke-miterlimit:10;}
	.st45{fill:#9DA3BE;stroke:#000000;stroke-width:0.2102;stroke-miterlimit:10;}
	.st46{fill:#9DA3BE;stroke:#000000;stroke-width:0.2719;stroke-miterlimit:10;}
	.st47{fill:#9DA3BE;stroke:#000000;stroke-width:0.2181;stroke-miterlimit:10;}
	.st48{fill:#0A195C;}
	.st49{fill:none;stroke:#FFFFFF;stroke-width:1.0163;stroke-linecap:round;stroke-linejoin:round;stroke-miterlimit:10;}
	.st50{fill:#F26F21;}
	.st51{display:none;}
	.st52{display:inline;fill:#012169;}
	.st53{display:inline;}
	.st54{fill:#C8102E;}
	.st55{display:inline;fill-rule:evenodd;clip-rule:evenodd;fill:#E21936;}
	.st56{display:inline;fill-rule:evenodd;clip-rule:evenodd;fill:#FFD200;}
	.st57{display:inline;fill:#0A1A5C;}
	.st58{display:inline;fill:#0A1A5C;stroke:#000000;stroke-width:2.020941e-02;stroke-miterlimit:10;}
	
		.st59{display:inline;fill:none;stroke:#0A1A5C;stroke-width:1.1266;stroke-linecap:round;stroke-linejoin:round;stroke-miterlimit:10;}
	.st60{fill:none;stroke:#F37021;stroke-width:4;stroke-miterlimit:10;}
	.st61{fill:none;stroke:#CCCCCC;stroke-miterlimit:10;}
	.st62{fill:none;stroke:#CCCCCC;stroke-width:0.9689;stroke-miterlimit:10;}
	.st63{fill:#FFFFFF;stroke:#CCCCCC;stroke-width:0.9555;stroke-miterlimit:10;}
	.st64{fill:none;stroke:#CCCCCC;stroke-width:0.95;stroke-miterlimit:10;}
	.st65{fill:#999999;stroke:#CCCCCC;stroke-width:0.5866;stroke-miterlimit:10;}
	.st66{fill:#CCCCCC;stroke:#CCCCCC;stroke-width:0.9555;stroke-miterlimit:10;}
	.st67{fill-rule:evenodd;clip-rule:evenodd;fill:#FFFFFF;}
	.st68{fill:#FFFFFF;stroke:#FFFFFF;stroke-miterlimit:10;}
	.st69{fill:#FFFFFF;stroke:#FFFFFF;stroke-width:0.3262;stroke-miterlimit:10;}
	.st70{fill-rule:evenodd;clip-rule:evenodd;fill:#0A1A5C;}
	.st71{fill:#FFFFFE;}
	.st72{fill:#AAAAAA;}
	.st73{fill:#E2E2E2;}
	.st74{fill:#565656;}
	.st75{opacity:0.8;fill:#0A1A5C;}
	.st76{fill:#FFFFFF;stroke:#0A1A5C;stroke-width:1.7731;stroke-miterlimit:10;}
	.st77{fill:#9DA3BE;stroke:#000000;stroke-width:0.1894;stroke-miterlimit:10;}
	.st78{fill:#FFFFFF;stroke:#000000;stroke-width:0.1894;stroke-miterlimit:10;}
	.st79{fill:none;stroke:#000000;stroke-width:0.3787;stroke-miterlimit:10;}
	.st80{fill:#9DA3BE;stroke:#000000;stroke-width:0.2497;stroke-miterlimit:10;}
	.st81{fill:#999999;stroke:#000000;stroke-width:9.467980e-02;stroke-miterlimit:10;}
	.st82{fill:#00FF00;}
	.st83{fill:#FFFFFF;stroke:#000000;stroke-width:0.8866;stroke-miterlimit:10;}
	.st84{fill:#9DA3BE;stroke:#000000;stroke-width:0.5055;stroke-miterlimit:10;}
	.st85{fill:none;stroke:#FFFFFF;stroke-width:1.0383;stroke-miterlimit:10;}
	.st86{fill:#9DA3BE;stroke:#000000;stroke-width:0.2475;stroke-miterlimit:10;}
	.st87{fill:#9DA3BE;stroke:#000000;stroke-width:0.2789;stroke-miterlimit:10;}
	.st88{fill:#CCCCCC;stroke:#0A1A5C;stroke-width:1.7731;stroke-miterlimit:10;}
	.st89{fill:none;stroke:#000000;stroke-width:0.3971;stroke-miterlimit:10;}
	.st90{fill:#0A1A5C;stroke:#000000;stroke-width:0.3971;stroke-miterlimit:10;}
	.st91{fill:#0A1A5C;stroke:#000000;stroke-width:0.5415;stroke-miterlimit:10;}
	.st92{fill:#9DA3BE;stroke:#000000;stroke-width:0.3971;stroke-miterlimit:10;}
	.st93{fill:#0A1A5C;stroke:#000000;stroke-width:0.5217;stroke-miterlimit:10;}
	.st94{fill:#9DA3BE;stroke:#000000;stroke-width:0.4566;stroke-miterlimit:10;}
	.st95{fill:none;stroke:#000000;stroke-width:3.0646;stroke-linecap:round;stroke-miterlimit:10;}
	.st96{stroke:#000000;stroke-width:2.4414;stroke-linecap:round;stroke-miterlimit:10;}
	.st97{fill:none;stroke:#000000;stroke-width:3.2552;stroke-linecap:round;stroke-miterlimit:10;}
	.st98{fill:none;stroke:#000000;stroke-width:2.4414;stroke-linecap:round;stroke-miterlimit:10;}
	.st99{fill:none;stroke:#FFFFFF;stroke-width:0.8138;stroke-linecap:round;stroke-miterlimit:10;}
	.st100{fill:none;stroke:#FFFFFF;stroke-width:0.3926;stroke-linecap:round;stroke-miterlimit:10;}
	.st101{fill:none;stroke:#0A1A5C;stroke-width:1.5925;stroke-miterlimit:10;}
	.st102{fill:#9DA3BE;stroke:#000000;stroke-width:0.4052;stroke-miterlimit:10;}
	.st103{fill:none;stroke:#000000;stroke-width:0.8104;stroke-miterlimit:10;}
	.st104{fill:#0A1A5C;stroke:#000000;stroke-width:0.2571;stroke-miterlimit:10;}
	.st105{opacity:0.8;fill:#0A1A5C;stroke:#000000;stroke-width:0.1899;stroke-miterlimit:10;}
	.st106{opacity:0.8;fill:#0A1A5C;stroke:#000000;stroke-width:0.2192;stroke-miterlimit:10;}
	.st107{fill:#0A1A5C;stroke:#000000;stroke-width:0.1899;stroke-miterlimit:10;}
	.st108{fill:#9DA3BE;stroke:#000000;stroke-width:8.506256e-02;stroke-miterlimit:10;}
	.st109{fill:#9DA3BE;stroke:#000000;stroke-width:8.517154e-02;stroke-miterlimit:10;}
	.st110{fill:#9DA3BE;stroke:#000000;stroke-width:0.1102;stroke-miterlimit:10;}
	.st111{fill:#9DA3BE;stroke:#000000;stroke-width:8.838669e-02;stroke-miterlimit:10;}
	.st112{fill:#0A1A5C;stroke:#000000;stroke-width:0.1836;stroke-miterlimit:10;}
	.st113{fill:none;stroke:#231F20;stroke-width:0.1244;stroke-miterlimit:10;}
	.st114{fill:#FFFFFF;stroke:#231F20;stroke-width:0.1244;stroke-miterlimit:10;}
	.st115{fill:#AAAAAA;stroke:#231F20;stroke-width:0.1244;stroke-miterlimit:10;}
	.st116{fill:#0A1A5C;stroke:#000000;stroke-width:0.1861;stroke-miterlimit:10;}
	.st117{fill:none;stroke:#FFFFFF;stroke-width:1.1168;stroke-miterlimit:10;}
	.st118{fill:#9DA3BE;stroke:#000000;stroke-width:0.1861;stroke-miterlimit:10;}
	.st119{fill:none;stroke:#FFFFFF;stroke-width:1.8613;stroke-linecap:round;stroke-miterlimit:10;}
	.st120{fill:none;stroke:#FFFFFF;stroke-width:1.8613;stroke-linecap:round;stroke-miterlimit:10;stroke-dasharray:5.4518,5.4518;}
	.st121{fill:#0A1A5C;stroke:#000000;stroke-width:0.3925;stroke-miterlimit:10;}
	.st122{fill:#CCCCCC;stroke:#000000;stroke-width:0.2015;stroke-miterlimit:10;}
	.st123{fill:none;stroke:#0A1A5C;stroke-width:7;stroke-linecap:round;stroke-linejoin:round;stroke-miterlimit:10;}
	.st124{fill:#FFFFFF;stroke:#CCCCCC;stroke-width:1.0208;stroke-miterlimit:10;}
	.st125{fill:#FFFFFF;stroke:#0A1A5C;stroke-width:2;stroke-miterlimit:10;}
	.st126{fill:#0A1A5C;stroke:#000000;stroke-width:0.1154;stroke-miterlimit:10;}
	.st127{fill:none;stroke:#231F20;stroke-width:7.817870e-02;stroke-miterlimit:10;}
	.st128{fill:#FFFFFF;stroke:#231F20;stroke-width:7.817870e-02;stroke-miterlimit:10;}
	.st129{fill:#AAAAAA;stroke:#231F20;stroke-width:7.817870e-02;stroke-miterlimit:10;}
	.st130{fill:none;stroke:#CCCCCC;stroke-width:0.6948;stroke-miterlimit:10;}
	.st131{fill:#999999;}
	.st132{fill:#FFFFFF;stroke:#B3B3B3;stroke-width:2;stroke-miterlimit:10;}
	.st133{fill:none;stroke:#FFFFFF;stroke-width:0.7732;stroke-linecap:round;stroke-linejoin:round;stroke-miterlimit:10;}
	.st134{fill:#0A1A5C;stroke:#0A1A5C;stroke-width:0.8422;stroke-miterlimit:10;}
	.st135{fill:none;stroke:#0A1A5C;stroke-width:0.8422;stroke-miterlimit:10;}
	.st136{fill:#FFFFFF;stroke:#0A1A5C;stroke-width:0.8422;stroke-miterlimit:10;}
</style>
<g>
	<g>
		<g>
			<rect x="31.4" y="14.6" class="st2" width="153.8" height="245.3"/>
			<path class="st2" d="M186.2,260.9H30.4V13.6h155.8V260.9z M32.4,258.8h151.8V15.6H32.4V258.8z"/>
		</g>
		<path class="st7" d="M25.1,5.8v262.9h166.4V5.8H25.1z M32.7,258.9V15.5h151.1v243.4H32.7z"/>
	</g>
	<g>
		<g>
			<path class="st8" d="M121.7,48c-1,0-1.9,0.8-1.9,1.9c0,1,0.8,1.9,1.9,1.9c1,0,1.9-0.8,1.9-1.9C123.5,48.9,122.7,48,121.7,48z"/>
			<path class="st8" d="M94.9,48c-1,0-1.9,0.8-1.9,1.9c0,1,0.8,1.9,1.9,1.9c1,0,1.9-0.8,1.9-1.9C96.8,48.9,96,48,94.9,48z"/>
			<path class="st8" d="M123,27.5H93.6c-0.6,0-1.1,0.5-1.1,1.1v16.5c0,0.6,0.5,1.1,1.1,1.1H123c0.6,0,1.1-0.5,1.1-1.1V28.7
				C124.1,28,123.6,27.5,123,27.5z"/>
			<path class="st9" d="M125.3,25.1h-34c-0.6,0-1.1,0.5-1.1,1.1v34.4c0,0.6,0.5,1.1,1.1,1.1h34c0.6,0,1.1-0.5,1.1-1.1V26.2
				C126.4,25.6,125.9,25.1,125.3,25.1z M94.9,51.8c-1,0-1.9-0.8-1.9-1.9c0-1,0.8-1.9,1.9-1.9c1,0,1.9,0.8,1.9,1.9
				C96.8,50.9,96,51.8,94.9,51.8z M115.3,51.8h-14.1v-4.2h14.1V51.8z M121.7,51.8c-1,0-1.9-0.8-1.9-1.9c0-1,0.8-1.9,1.9-1.9
				c1,0,1.9,0.8,1.9,1.9C123.5,50.9,122.7,51.8,121.7,51.8z M124.1,45.1c0,0.6-0.5,1.1-1.1,1.1H93.6c-0.6,0-1.1-0.5-1.1-1.1V28.7
				c0-0.6,0.5-1.1,1.1-1.1H123c0.6,0,1.1,0.5,1.1,1.1V45.1z"/>
		</g>
	</g>
	<text transform="matrix(1 0 0 1 96.4375 35.4274)" class="st10 st11 st12">METER</text>
	<g>
		<rect x="182.3" y="64.7" class="st13" width="3.4" height="30.5"/>
		<rect x="182.3" y="179.2" class="st13" width="3.4" height="30.5"/>
	</g>
	<path class="st13" d="M43.7,164.7h-2.5c-1,0-1.8-0.8-1.8-1.8v-50.6c0-1,0.8-1.8,1.8-1.8h2.5c1,0,1.8,0.8,1.8,1.8v50.6
		C45.5,163.9,44.7,164.7,43.7,164.7z"/>
	<g>
		<rect x="60.5" y="201.6" class="st9" width="35.2" height="4.1"/>
		<rect x="60.5" y="217.9" class="st9" width="35.2" height="4.1"/>
		<path class="st9" d="M93.9,230H62.3c-1,0-1.8-0.8-1.8-1.8V226h35.2v2.3C95.8,229.2,94.9,230,93.9,230z"/>
		<rect x="60.5" y="209.7" class="st9" width="35.2" height="4.1"/>
		<rect x="60.5" y="205.7" class="st14" width="35.2" height="4.1"/>
		<path class="st14" d="M95.8,201.6H60.5v-2.9c0-0.6,0.5-1.2,1.2-1.2h32.9c0.6,0,1.2,0.5,1.2,1.2V201.6z"/>
		<rect x="60.5" y="213.8" class="st14" width="35.2" height="4.1"/>
		<rect x="60.5" y="221.9" class="st14" width="35.2" height="4.1"/>
	</g>
	<g>
		<rect x="120.8" y="201.6" class="st9" width="35.2" height="4.1"/>
		<rect x="120.8" y="217.9" class="st9" width="35.2" height="4.1"/>
		<path class="st9" d="M154.2,230h-31.6c-1,0-1.8-0.8-1.8-1.8V226h35.2v2.3C156.1,229.2,155.2,230,154.2,230z"/>
		<rect x="120.8" y="209.7" class="st9" width="35.2" height="4.1"/>
		<rect x="120.8" y="205.7" class="st14" width="35.2" height="4.1"/>
		<path class="st14" d="M156.1,201.6h-35.2v-2.9c0-0.6,0.5-1.2,1.2-1.2h32.9c0.6,0,1.2,0.5,1.2,1.2V201.6z"/>
		<rect x="120.8" y="213.8" class="st14" width="35.2" height="4.1"/>
		<rect x="120.8" y="221.9" class="st14" width="35.2" height="4.1"/>
	</g>
</g>
</svg>
