<?xml version="1.0" encoding="utf-8"?>
<!-- Generator: Adobe Illustrator 22.0.0, SVG Export Plug-In . SVG Version: 6.00 Build 0)  -->
<svg version="1.1" xmlns="http://www.w3.org/2000/svg" xmlns:xlink="http://www.w3.org/1999/xlink" x="0px" y="0px"
	 viewBox="0 0 97 97" style="enable-background:new 0 0 97 97;" xml:space="preserve">
<style type="text/css">
	.st0{fill:#0A1A5C;}
	.st1{fill:#F37021;}
	.st2{fill:#CCCCCC;}
	.st3{fill:#FFD4A6;}
	.st4{fill:#9DA3BE;}
	.st5{fill:#4C3963;}
	.st6{fill:#933100;}
	.st7{fill:#050063;}
	.st8{fill:#033003;}
	.st9{fill:#627717;}
	.st10{fill:#FBB03B;}
	.st11{fill:#FC4C4C;}
	.st12{fill:#6EBF49;}
	.st13{fill:none;stroke:#B3B3B3;stroke-width:4;stroke-miterlimit:10;}
	.st14{fill:#FFFFFF;stroke:#999999;stroke-miterlimit:10;}
	.st15{fill:#999999;}
	.st16{fill:#FFFFFF;}
	.st17{fill:#FFFFFF;stroke:#999999;stroke-width:0.7824;stroke-miterlimit:10;}
	.st18{fill-rule:evenodd;clip-rule:evenodd;fill:#FFFFFF;}
	.st19{fill:#FFFFFF;stroke:#999999;stroke-width:0.8766;stroke-miterlimit:10;}
	.st20{fill:none;stroke:#FFFFFF;stroke-width:0.7887;stroke-linecap:round;stroke-linejoin:round;stroke-miterlimit:10;}
	.st21{fill:#FFFFFF;stroke:#CCCCCC;stroke-width:1.0208;stroke-miterlimit:10;}
	.st22{fill:#CCCCCC;stroke:#CCCCCC;stroke-width:1.0208;stroke-miterlimit:10;}
	.st23{fill:#FBB03B;stroke:#000000;stroke-width:1.5464;stroke-miterlimit:10;}
	.st24{stroke:#000000;stroke-width:1.5464;stroke-linecap:round;stroke-linejoin:round;stroke-miterlimit:10;}
	.st25{fill-rule:evenodd;clip-rule:evenodd;}
	.st26{fill:#E6E6E6;}
	.st27{fill:#6EBF49;stroke:#000000;stroke-width:1.5464;stroke-miterlimit:10;}
	.st28{fill:#AAAAAA;}
	.st29{fill:#E2E2E2;}
	.st30{fill:#565656;}
	.st31{fill:none;stroke:#E6E6E6;stroke-width:1.2119;stroke-miterlimit:10;}
	.st32{fill:#FFFFFF;stroke:#000000;stroke-width:0.75;stroke-miterlimit:10;}
	.st33{fill:#FFFFFF;stroke:#000000;stroke-miterlimit:10;}
	.st34{fill:#FFFFFF;stroke:#050063;stroke-width:5.4352;stroke-miterlimit:10;}
	.st35{fill:#FFFFFF;stroke:#4C3963;stroke-width:5.3665;stroke-miterlimit:10;}
	.st36{fill:#FFFFFF;stroke:#933100;stroke-width:6.1341;stroke-miterlimit:10;}
	.st37{fill:#FFFFFF;stroke:#033003;stroke-width:5.4352;stroke-miterlimit:10;}
	.st38{fill:none;stroke:#999999;stroke-width:2;stroke-miterlimit:10;}
	.st39{fill:#FFFFFF;stroke:#627717;stroke-width:6.1341;stroke-miterlimit:10;}
	.st40{fill:none;stroke:#FFFFFF;stroke-width:0.9862;stroke-miterlimit:10;}
	.st41{fill:#FFFFFF;stroke:#999999;stroke-width:0.7605;stroke-miterlimit:10;}
	.st42{fill:#B3B3B3;}
	.st43{display:none;fill:#E5E5E5;}
	.st44{fill:#9DA3BE;stroke:#FFFFFF;stroke-miterlimit:10;}
	.st45{fill:#FFFFFF;stroke:#FFFFFF;stroke-miterlimit:10;}
	.st46{fill:#FFFFFF;stroke:#FFFFFF;stroke-width:0.3262;stroke-miterlimit:10;}
	.st47{fill-rule:evenodd;clip-rule:evenodd;fill:#F37021;}
	.st48{fill:#FFFFFE;}
	.st49{fill:none;}
	.st50{fill:#9DA3BE;stroke:#FFFFFF;stroke-width:0.75;stroke-miterlimit:10;}
	.st51{fill:#FFD4A6;stroke:#FFFFFF;stroke-width:0.75;stroke-miterlimit:10;}
	.st52{fill:#FFFFFF;stroke:#FFFFFF;stroke-width:0.75;stroke-miterlimit:10;}
	.st53{fill-rule:evenodd;clip-rule:evenodd;fill:#0A1A5C;}
	.st54{display:none;}
	.st55{display:inline;}
	.st56{fill:#FFFFFF;stroke:#4C3963;stroke-width:4.732;stroke-miterlimit:10;}
	.st57{fill:#FFFFFF;stroke:#933100;stroke-width:4.732;stroke-miterlimit:10;}
	.st58{fill:#FFFFFF;stroke:#033003;stroke-width:4.732;stroke-miterlimit:10;}
	.st59{fill:#FFFFFF;stroke:#050063;stroke-width:4.732;stroke-miterlimit:10;}
	.st60{fill:#FFFFFF;stroke:#627717;stroke-width:4.732;stroke-miterlimit:10;}
	.st61{fill:none;stroke:#CCCCCC;stroke-width:0.8657;stroke-miterlimit:10;}
	.st62{fill:#FFFFFF;stroke:#CCCCCC;stroke-width:0.9555;stroke-miterlimit:10;}
	.st63{fill:none;stroke:#CCCCCC;stroke-width:0.8423;stroke-miterlimit:10;}
	.st64{fill:#999999;stroke:#CCCCCC;stroke-width:0.5866;stroke-miterlimit:10;}
	.st65{fill:#CCCCCC;stroke:#CCCCCC;stroke-width:0.9555;stroke-miterlimit:10;}
	.st66{display:inline;fill:#CCCCCC;stroke:#CCCCCC;stroke-width:1.0208;stroke-miterlimit:10;}
	.st67{fill:none;stroke:#CCCCCC;stroke-miterlimit:10;}
	.st68{fill:#0A195C;}
	.st69{fill:none;stroke:#FFFFFF;stroke-width:1.0163;stroke-linecap:round;stroke-linejoin:round;stroke-miterlimit:10;}
	.st70{fill:#F26F21;}
	.st71{fill:#012169;}
	.st72{fill:#C8102E;}
	.st73{fill-rule:evenodd;clip-rule:evenodd;fill:#E21936;}
	.st74{fill-rule:evenodd;clip-rule:evenodd;fill:#FFD200;}
	.st75{fill:#0A1A5C;stroke:#000000;stroke-width:2.020941e-02;stroke-miterlimit:10;}
	.st76{fill:none;stroke:#0A1A5C;stroke-width:1.1266;stroke-linecap:round;stroke-linejoin:round;stroke-miterlimit:10;}
	.st77{fill:none;stroke:#F37021;stroke-width:4;stroke-miterlimit:10;}
	.st78{fill:none;stroke:#0A1A5C;stroke-width:5.0184;stroke-linecap:round;stroke-linejoin:round;stroke-miterlimit:10;}
	.st79{fill:none;stroke:#000000;stroke-width:2;stroke-miterlimit:10;}
	.st80{fill:none;stroke:#FFFFFF;stroke-width:3;stroke-linecap:round;stroke-linejoin:round;stroke-miterlimit:10;}
	.st81{fill:none;stroke:#FFFFFF;stroke-width:3;stroke-miterlimit:10;}
	.st82{fill:#FFFFFF;stroke:#FFFFFF;stroke-width:3;stroke-linecap:round;stroke-linejoin:round;stroke-miterlimit:10;}
	.st83{fill:none;stroke:#000000;stroke-width:3;stroke-miterlimit:10;}
	.st84{stroke:#000000;stroke-width:3;stroke-linecap:round;stroke-linejoin:round;stroke-miterlimit:10;}
</style>
<g id="Color">
</g>
<g id="PROJECT_DETAIL">
</g>
<g id="MODULE_DETAIL_1_">
</g>
<g id="MENU_DETAIL">
	<g id="MODULE_DETAIL" class="st54">
	</g>
</g>
<g id="body">
	<g id="dự_án">
	</g>
	<g id="thanh_menu">
	</g>
</g>
<g id="header">
	<g id="logo">
	</g>
</g>
<g id="icon_đèn">
</g>
<g id="ICON_CLOSE_WHITE">
</g>
<g id="ICON_SƠ_ĐỒ">
</g>
<g id="ICON_SOLAR">
</g>
<g id="ICON_GRID">
</g>
<g id="ICON_WIND">
</g>
<g id="ICON_BATTERY">
</g>
<g id="ICON_LOAD">
</g>
<g id="SOLAR_BLACK">
</g>
<g id="GRID_BLACK">
</g>
<g id="WIND_BLACK">
</g>
<g id="BATTERY_BLACK">
	<g>
		<g>
			<path class="st16" d="M85,3c5,0,9,4,9,9v73c0,5-4,9-9,9H12c-5,0-9-4-9-9V12c0-5,4-9,9-9H85 M85,0H12C5.4,0,0,5.4,0,12v73
				c0,6.6,5.4,12,12,12h73c6.6,0,12-5.4,12-12V12C97,5.4,91.6,0,85,0L85,0z"/>
		</g>
		<g>
			<path class="st16" d="M60.1,18.7H57v-0.3c0-1.9-1.5-3.4-3.3-3.4H43.2c-1.8,0-3.3,1.5-3.3,3.4v0.3h-3c-2.8,0-5.1,2.3-5.1,5.1v53
				c0,2.8,2.3,5.1,5.1,5.1h23.2c2.8,0,5.1-2.3,5.1-5.1v-53C65.2,21,62.9,18.7,60.1,18.7z M62.2,76.9c0,1.1-0.9,2.1-2,2.1H36.9
				c-1.1,0-2-0.9-2-2.1v-53c0-1.1,0.9-2.1,2-2.1h6v-3.4c0-0.2,0.1-0.3,0.3-0.3h10.5c0.2,0,0.3,0.1,0.3,0.3v3.4h6.1
				c1.1,0,2,0.9,2,2.1V76.9z"/>
			<polygon class="st16" points="50.4,29.8 38.7,52.9 48.5,52.9 41,70 58.1,47.5 48.4,46.5 			"/>
		</g>
	</g>
</g>
<g id="LOAD_BLACK">
</g>
</svg>
