<?xml version="1.0" encoding="utf-8"?>
<!-- Generator: Adobe Illustrator 22.0.0, SVG Export Plug-In . SVG Version: 6.00 Build 0)  -->
<svg version="1.1" id="Layer_1" xmlns="http://www.w3.org/2000/svg" xmlns:xlink="http://www.w3.org/1999/xlink" x="0px" y="0px"
	 viewBox="0 0 96 46.8" style="enable-background:new 0 0 96 46.8;" xml:space="preserve">
<style type="text/css">
	.st0{fill:#9DA3BE;stroke:#000000;stroke-width:0.5;stroke-miterlimit:10;}
	.st1{fill:#0A1A5C;}
	.st2{fill:#9DA3BE;}
	.st3{fill:#FFFFFF;stroke:#000000;stroke-width:0.5;stroke-miterlimit:10;}
	.st4{fill:none;stroke:#000000;stroke-miterlimit:10;}
	.st5{fill:#9DA3BE;stroke:#000000;stroke-width:0.6594;stroke-miterlimit:10;}
	.st6{fill:#999999;stroke:#000000;stroke-width:0.25;stroke-miterlimit:10;}
	.st7{fill:#0A1A5C;stroke:#000000;stroke-width:0.5;stroke-miterlimit:10;}
	.st8{fill:none;stroke:#231F20;stroke-width:0.3388;stroke-miterlimit:10;}
	.st9{fill:#FFFFFF;stroke:#231F20;stroke-width:0.3388;stroke-miterlimit:10;}
	.st10{fill:#CCCCCC;}
	.st11{fill:#AAAAAA;stroke:#231F20;stroke-width:0.3388;stroke-miterlimit:10;}
	.st12{fill:none;stroke:#FFFFFF;stroke-width:3;stroke-miterlimit:10;}
	.st13{fill:none;}
	.st14{fill:#FFFFFF;}
	.st15{fill:none;stroke:#FFFFFF;stroke-width:5;stroke-linecap:round;stroke-miterlimit:10;}
	.st16{fill:none;stroke:#FFFFFF;stroke-width:5;stroke-linecap:round;stroke-miterlimit:10;stroke-dasharray:15.6667,15.6667;}
	.st17{fill:#0A1A5C;stroke:#000000;stroke-width:0.9737;stroke-miterlimit:10;}
	.st18{fill:#CCCCCC;stroke:#000000;stroke-width:0.5;stroke-miterlimit:10;}
	.st19{fill:#F37021;}
	.st20{fill:#9DA3BE;stroke:#000000;stroke-width:0.9737;stroke-miterlimit:10;}
	.st21{fill:none;stroke:#FFFFFF;stroke-width:2;stroke-miterlimit:10;}
	.st22{fill:#9DA3BE;stroke:#000000;stroke-width:0.4769;stroke-miterlimit:10;}
	.st23{fill:#9DA3BE;stroke:#000000;stroke-width:0.5373;stroke-miterlimit:10;}
	.st24{fill:#0A1A5C;stroke:#000000;stroke-miterlimit:10;}
	.st25{fill:#0A1A5C;stroke:#000000;stroke-width:1.3636;stroke-miterlimit:10;}
	.st26{fill:#9DA3BE;stroke:#000000;stroke-miterlimit:10;}
	.st27{fill:#0A1A5C;stroke:#000000;stroke-width:1.2821;stroke-miterlimit:10;}
	.st28{fill:#9DA3BE;stroke:#000000;stroke-width:1.122;stroke-miterlimit:10;}
	.st29{fill:none;stroke:#000000;stroke-width:7.5318;stroke-linecap:round;stroke-miterlimit:10;}
	.st30{stroke:#000000;stroke-width:6;stroke-linecap:round;stroke-miterlimit:10;}
	.st31{fill:none;stroke:#000000;stroke-width:8;stroke-linecap:round;stroke-miterlimit:10;}
	.st32{fill:none;stroke:#000000;stroke-width:6;stroke-linecap:round;stroke-miterlimit:10;}
	.st33{fill:none;stroke:#FFFFFF;stroke-width:2;stroke-linecap:round;stroke-miterlimit:10;}
	.st34{fill:none;stroke:#FFFFFF;stroke-width:0.965;stroke-linecap:round;stroke-miterlimit:10;}
	.st35{fill:none;stroke:#0A1A5C;stroke-width:3.9302;stroke-miterlimit:10;}
	.st36{opacity:0.6;fill:#0A1A5C;}
	.st37{fill:none;stroke:#000000;stroke-width:2;stroke-miterlimit:10;}
	.st38{fill:#0A1A5C;stroke:#000000;stroke-width:0.6345;stroke-miterlimit:10;}
	.st39{opacity:0.8;fill:#0A1A5C;stroke:#000000;stroke-width:0.4686;stroke-miterlimit:10;}
	.st40{opacity:0.8;fill:#0A1A5C;stroke:#000000;stroke-width:0.5411;stroke-miterlimit:10;}
	.st41{fill:#0A1A5C;stroke:#000000;stroke-width:0.4686;stroke-miterlimit:10;}
	.st42{fill:#9DA3BE;stroke:#000000;stroke-width:0.2099;stroke-miterlimit:10;}
	.st43{fill:#9DA3BE;stroke:#000000;stroke-width:0.2102;stroke-miterlimit:10;}
	.st44{fill:#9DA3BE;stroke:#000000;stroke-width:0.2719;stroke-miterlimit:10;}
	.st45{fill:#9DA3BE;stroke:#000000;stroke-width:0.2181;stroke-miterlimit:10;}
	.st46{fill:#0A195C;}
	.st47{fill:none;stroke:#FFFFFF;stroke-width:1.0163;stroke-linecap:round;stroke-linejoin:round;stroke-miterlimit:10;}
	.st48{fill:#F26F21;}
	.st49{display:none;}
	.st50{display:inline;fill:#012169;}
	.st51{display:inline;}
	.st52{fill:#C8102E;}
	.st53{display:inline;fill-rule:evenodd;clip-rule:evenodd;fill:#E21936;}
	.st54{display:inline;fill-rule:evenodd;clip-rule:evenodd;fill:#FFD200;}
	.st55{display:inline;fill:#0A1A5C;}
	.st56{display:inline;fill:#0A1A5C;stroke:#000000;stroke-width:2.020941e-02;stroke-miterlimit:10;}
	
		.st57{display:inline;fill:none;stroke:#0A1A5C;stroke-width:1.1266;stroke-linecap:round;stroke-linejoin:round;stroke-miterlimit:10;}
	.st58{fill:none;stroke:#F37021;stroke-width:4;stroke-miterlimit:10;}
	.st59{fill:none;stroke:#CCCCCC;stroke-miterlimit:10;}
	.st60{fill:none;stroke:#CCCCCC;stroke-width:0.9689;stroke-miterlimit:10;}
	.st61{fill:#FFFFFF;stroke:#CCCCCC;stroke-width:0.9555;stroke-miterlimit:10;}
	.st62{fill:none;stroke:#CCCCCC;stroke-width:0.95;stroke-miterlimit:10;}
	.st63{fill:#999999;stroke:#CCCCCC;stroke-width:0.5866;stroke-miterlimit:10;}
	.st64{fill:#CCCCCC;stroke:#CCCCCC;stroke-width:0.9555;stroke-miterlimit:10;}
	.st65{fill-rule:evenodd;clip-rule:evenodd;fill:#FFFFFF;}
	.st66{fill:#FFFFFF;stroke:#FFFFFF;stroke-miterlimit:10;}
	.st67{fill:#FFFFFF;stroke:#FFFFFF;stroke-width:0.3262;stroke-miterlimit:10;}
	.st68{fill-rule:evenodd;clip-rule:evenodd;fill:#0A1A5C;}
	.st69{fill:#FFFFFE;}
	.st70{fill:#AAAAAA;}
	.st71{fill:#E2E2E2;}
	.st72{fill:#565656;}
	.st73{opacity:0.8;fill:#0A1A5C;}
	.st74{fill:#FFFFFF;stroke:#0A1A5C;stroke-width:1.7731;stroke-miterlimit:10;}
	.st75{fill:#9DA3BE;stroke:#000000;stroke-width:0.1894;stroke-miterlimit:10;}
	.st76{fill:#FFFFFF;stroke:#000000;stroke-width:0.1894;stroke-miterlimit:10;}
	.st77{fill:none;stroke:#000000;stroke-width:0.3787;stroke-miterlimit:10;}
	.st78{fill:#9DA3BE;stroke:#000000;stroke-width:0.2497;stroke-miterlimit:10;}
	.st79{fill:#999999;stroke:#000000;stroke-width:9.467980e-02;stroke-miterlimit:10;}
	.st80{fill:#00FF00;}
	.st81{fill:#FFFFFF;stroke:#000000;stroke-width:0.8866;stroke-miterlimit:10;}
	.st82{fill:#9DA3BE;stroke:#000000;stroke-width:0.5055;stroke-miterlimit:10;}
	.st83{fill:none;stroke:#FFFFFF;stroke-width:1.0383;stroke-miterlimit:10;}
	.st84{fill:#9DA3BE;stroke:#000000;stroke-width:0.2475;stroke-miterlimit:10;}
	.st85{fill:#9DA3BE;stroke:#000000;stroke-width:0.2789;stroke-miterlimit:10;}
	.st86{fill:#CCCCCC;stroke:#0A1A5C;stroke-width:1.7731;stroke-miterlimit:10;}
	.st87{fill:none;stroke:#000000;stroke-width:0.3971;stroke-miterlimit:10;}
	.st88{fill:#0A1A5C;stroke:#000000;stroke-width:0.3971;stroke-miterlimit:10;}
	.st89{fill:#0A1A5C;stroke:#000000;stroke-width:0.5415;stroke-miterlimit:10;}
	.st90{fill:#9DA3BE;stroke:#000000;stroke-width:0.3971;stroke-miterlimit:10;}
	.st91{fill:#0A1A5C;stroke:#000000;stroke-width:0.5217;stroke-miterlimit:10;}
	.st92{fill:#9DA3BE;stroke:#000000;stroke-width:0.4566;stroke-miterlimit:10;}
	.st93{fill:none;stroke:#000000;stroke-width:3.0646;stroke-linecap:round;stroke-miterlimit:10;}
	.st94{stroke:#000000;stroke-width:2.4414;stroke-linecap:round;stroke-miterlimit:10;}
	.st95{fill:none;stroke:#000000;stroke-width:3.2552;stroke-linecap:round;stroke-miterlimit:10;}
	.st96{fill:none;stroke:#000000;stroke-width:2.4414;stroke-linecap:round;stroke-miterlimit:10;}
	.st97{fill:none;stroke:#FFFFFF;stroke-width:0.8138;stroke-linecap:round;stroke-miterlimit:10;}
	.st98{fill:none;stroke:#FFFFFF;stroke-width:0.3926;stroke-linecap:round;stroke-miterlimit:10;}
	.st99{fill:none;stroke:#0A1A5C;stroke-width:1.5925;stroke-miterlimit:10;}
	.st100{fill:#9DA3BE;stroke:#000000;stroke-width:0.4052;stroke-miterlimit:10;}
	.st101{fill:none;stroke:#000000;stroke-width:0.8104;stroke-miterlimit:10;}
	.st102{fill:#0A1A5C;stroke:#000000;stroke-width:0.2571;stroke-miterlimit:10;}
	.st103{opacity:0.8;fill:#0A1A5C;stroke:#000000;stroke-width:0.1899;stroke-miterlimit:10;}
	.st104{opacity:0.8;fill:#0A1A5C;stroke:#000000;stroke-width:0.2192;stroke-miterlimit:10;}
	.st105{fill:#0A1A5C;stroke:#000000;stroke-width:0.1899;stroke-miterlimit:10;}
	.st106{fill:#9DA3BE;stroke:#000000;stroke-width:8.506256e-02;stroke-miterlimit:10;}
	.st107{fill:#9DA3BE;stroke:#000000;stroke-width:8.517154e-02;stroke-miterlimit:10;}
	.st108{fill:#9DA3BE;stroke:#000000;stroke-width:0.1102;stroke-miterlimit:10;}
	.st109{fill:#9DA3BE;stroke:#000000;stroke-width:8.838669e-02;stroke-miterlimit:10;}
	.st110{fill:#0A1A5C;stroke:#000000;stroke-width:0.1836;stroke-miterlimit:10;}
	.st111{fill:none;stroke:#231F20;stroke-width:0.1244;stroke-miterlimit:10;}
	.st112{fill:#FFFFFF;stroke:#231F20;stroke-width:0.1244;stroke-miterlimit:10;}
	.st113{fill:#AAAAAA;stroke:#231F20;stroke-width:0.1244;stroke-miterlimit:10;}
	.st114{fill:#0A1A5C;stroke:#000000;stroke-width:0.1861;stroke-miterlimit:10;}
	.st115{fill:none;stroke:#FFFFFF;stroke-width:1.1168;stroke-miterlimit:10;}
	.st116{fill:#9DA3BE;stroke:#000000;stroke-width:0.1861;stroke-miterlimit:10;}
	.st117{fill:none;stroke:#FFFFFF;stroke-width:1.8613;stroke-linecap:round;stroke-miterlimit:10;}
	.st118{fill:none;stroke:#FFFFFF;stroke-width:1.8613;stroke-linecap:round;stroke-miterlimit:10;stroke-dasharray:5.4518,5.4518;}
	.st119{fill:#0A1A5C;stroke:#000000;stroke-width:0.3925;stroke-miterlimit:10;}
	.st120{fill:#CCCCCC;stroke:#000000;stroke-width:0.2015;stroke-miterlimit:10;}
	.st121{fill:none;stroke:#0A1A5C;stroke-width:7;stroke-linecap:round;stroke-linejoin:round;stroke-miterlimit:10;}
	.st122{fill:#FFFFFF;stroke:#CCCCCC;stroke-width:1.0208;stroke-miterlimit:10;}
	.st123{fill:#FFFFFF;stroke:#0A1A5C;stroke-width:2;stroke-miterlimit:10;}
	.st124{fill:#0A1A5C;stroke:#000000;stroke-width:0.1154;stroke-miterlimit:10;}
	.st125{fill:none;stroke:#231F20;stroke-width:7.817870e-02;stroke-miterlimit:10;}
	.st126{fill:#FFFFFF;stroke:#231F20;stroke-width:7.817870e-02;stroke-miterlimit:10;}
	.st127{fill:#AAAAAA;stroke:#231F20;stroke-width:7.817870e-02;stroke-miterlimit:10;}
	.st128{fill:none;stroke:#CCCCCC;stroke-width:0.6948;stroke-miterlimit:10;}
	.st129{fill:#999999;}
	.st130{fill:#FFFFFF;stroke:#B3B3B3;stroke-width:2;stroke-miterlimit:10;}
	.st131{fill:none;stroke:#FFFFFF;stroke-width:0.7732;stroke-linecap:round;stroke-linejoin:round;stroke-miterlimit:10;}
	.st132{fill:#0A1A5C;stroke:#0A1A5C;stroke-width:0.8422;stroke-miterlimit:10;}
	.st133{fill:none;stroke:#0A1A5C;stroke-width:0.8422;stroke-miterlimit:10;}
	.st134{fill:#FFFFFF;stroke:#0A1A5C;stroke-width:0.8422;stroke-miterlimit:10;}
</style>
<g>
	<path class="st19" d="M80.3,5.5H10.8c-4.6,0-8.3,3.7-8.3,8.3v18.5c0,4.6,3.7,8.3,8.3,8.3h69.5c4.6,0,8.3-3.7,8.3-8.3V13.7
		C88.5,9.2,84.8,5.5,80.3,5.5z M39.4,28.3c-0.1,0.1-0.2,0.1-0.3,0.1c-0.1,0-0.2,0-0.3-0.1L31,20.6c-0.3-0.3-0.5-0.8-0.5-1.2
		c0-0.5,0.2-0.9,0.5-1.2l7.7-7.7c0.2-0.2,0.5-0.2,0.7,0c0.2,0.2,0.2,0.5,0,0.7l-7.7,7.7c-0.1,0.1-0.2,0.3-0.2,0.5s0.1,0.4,0.2,0.5
		l7.7,7.7C39.6,27.8,39.6,28.1,39.4,28.3z M60.4,28.7c-0.3,2.7-1.3,5.5-3,8.2c-0.2,0.2-0.4,0.4-0.7,0.4c-0.1,0-0.2,0-0.3,0
		c-0.4-0.1-0.6-0.5-0.6-0.8c0.3-4-0.5-7.2-2.4-9.2c-1.5-1.7-3.7-2.6-6.6-2.9v4.6c0,0.5-0.3,0.9-0.7,1.1c-0.4,0.2-0.9,0.1-1.3-0.2
		l-9.4-9.2c-0.3-0.3-0.5-0.7-0.5-1.2s0.2-0.9,0.5-1.2L45,9c0.3-0.3,0.8-0.4,1.3-0.2S47,9.4,47,9.8v4.8c5.7,0.3,10,2.7,12.2,6.7
		C60.3,23.4,60.7,26,60.4,28.7z"/>
	<path class="st14" d="M46.5,15.6c-0.3,0-0.5-0.2-0.5-0.5V9.8c0-0.1-0.1-0.2-0.1-0.2s-0.1,0-0.2,0l-9.4,9.2
		c-0.1,0.1-0.2,0.3-0.2,0.5c0,0.2,0.1,0.4,0.2,0.5l9.4,9.2c0.1,0.1,0.2,0.1,0.2,0c0,0,0.1-0.1,0.1-0.2v-5.1c0-0.1,0.1-0.3,0.1-0.3
		c0.1-0.1,0.2-0.1,0.3-0.1c0,0,0,0,0,0c3.4,0.1,6,1.2,7.7,3.2c1.9,2.1,2.8,5.4,2.6,9.3c2.9-5,3.4-10.2,1.4-14.1
		C56.3,18,52.1,15.8,46.5,15.6z"/>
	<path class="st14" d="M47,14.6V9.8c0-0.5-0.3-0.9-0.7-1.1S45.3,8.7,45,9l-9.4,9.2c-0.3,0.3-0.5,0.7-0.5,1.2s0.2,0.9,0.5,1.2
		l9.4,9.2c0.3,0.3,0.8,0.4,1.3,0.2c0.4-0.2,0.7-0.6,0.7-1.1v-4.6c2.8,0.2,5,1.2,6.6,2.9c1.8,2.1,2.7,5.2,2.4,9.2
		c0,0.4,0.2,0.7,0.6,0.8c0.1,0,0.2,0,0.3,0c0.3,0,0.5-0.1,0.7-0.4c1.7-2.7,2.7-5.5,3-8.2c0.3-2.7-0.2-5.2-1.3-7.4
		C57,17.3,52.7,15,47,14.6z M56.9,35.9c0.2-4-0.7-7.2-2.6-9.3c-1.8-2-4.4-3.1-7.7-3.2c0,0,0,0,0,0c-0.1,0-0.2,0-0.3,0.1
		c-0.1,0.1-0.1,0.2-0.1,0.3v5.1c0,0.1-0.1,0.2-0.1,0.2c0,0-0.1,0-0.2,0l-9.4-9.2c-0.1-0.1-0.2-0.3-0.2-0.5c0-0.2,0.1-0.4,0.2-0.5
		l9.4-9.2c0.1-0.1,0.2-0.1,0.2,0S46,9.7,46,9.8v5.3c0,0.3,0.2,0.5,0.5,0.5c5.6,0.2,9.8,2.4,11.8,6.2C60.3,25.7,59.8,30.9,56.9,35.9z
		"/>
	<path class="st14" d="M31.7,19.9c-0.1-0.1-0.2-0.3-0.2-0.5s0.1-0.4,0.2-0.5l7.7-7.7c0.2-0.2,0.2-0.5,0-0.7c-0.2-0.2-0.5-0.2-0.7,0
		L31,18.1c-0.3,0.3-0.5,0.8-0.5,1.2c0,0.5,0.2,0.9,0.5,1.2l7.7,7.7c0.1,0.1,0.2,0.1,0.3,0.1c0.1,0,0.2,0,0.3-0.1
		c0.2-0.2,0.2-0.5,0-0.7L31.7,19.9z"/>
</g>
</svg>
