<?xml version="1.0" encoding="utf-8"?>
<!-- Generator: Adobe Illustrator 22.0.0, SVG Export Plug-In . SVG Version: 6.00 Build 0)  -->
<svg version="1.1" id="Layer_1" xmlns="http://www.w3.org/2000/svg" xmlns:xlink="http://www.w3.org/1999/xlink" x="0px" y="0px"
	 viewBox="0 0 268.7 272.7" style="enable-background:new 0 0 268.7 272.7;" xml:space="preserve">
<style type="text/css">
	.st0{fill:#9DA3BE;stroke:#000000;stroke-width:0.5;stroke-miterlimit:10;}
	.st1{fill:#0A1A5C;}
	.st2{fill:#9DA3BE;}
	.st3{fill:#FFFFFF;stroke:#000000;stroke-width:0.5;stroke-miterlimit:10;}
	.st4{fill:none;stroke:#000000;stroke-miterlimit:10;}
	.st5{fill:#9DA3BE;stroke:#000000;stroke-width:0.6594;stroke-miterlimit:10;}
	.st6{fill:#999999;stroke:#000000;stroke-width:0.25;stroke-miterlimit:10;}
	.st7{fill:#0A1A5C;stroke:#000000;stroke-width:0.5;stroke-miterlimit:10;}
	.st8{fill:none;stroke:#231F20;stroke-width:0.3388;stroke-miterlimit:10;}
	.st9{fill:#FFFFFF;stroke:#231F20;stroke-width:0.3388;stroke-miterlimit:10;}
	.st10{fill:#CCCCCC;}
	.st11{fill:#AAAAAA;stroke:#231F20;stroke-width:0.3388;stroke-miterlimit:10;}
	.st12{fill:none;stroke:#FFFFFF;stroke-width:3;stroke-miterlimit:10;}
	.st13{fill:none;}
	.st14{fill:#FFFFFF;}
	.st15{fill:none;stroke:#FFFFFF;stroke-width:5;stroke-linecap:round;stroke-miterlimit:10;}
	.st16{fill:none;stroke:#FFFFFF;stroke-width:5;stroke-linecap:round;stroke-miterlimit:10;stroke-dasharray:15.6667,15.6667;}
	.st17{fill:#0A1A5C;stroke:#000000;stroke-width:0.9737;stroke-miterlimit:10;}
	.st18{fill:#CCCCCC;stroke:#000000;stroke-width:0.5;stroke-miterlimit:10;}
	.st19{fill:#F37021;}
	.st20{fill:#9DA3BE;stroke:#000000;stroke-width:0.9737;stroke-miterlimit:10;}
	.st21{fill:none;stroke:#FFFFFF;stroke-width:2;stroke-miterlimit:10;}
	.st22{fill:#9DA3BE;stroke:#000000;stroke-width:0.4769;stroke-miterlimit:10;}
	.st23{fill:#9DA3BE;stroke:#000000;stroke-width:0.5373;stroke-miterlimit:10;}
	.st24{fill:#0A1A5C;stroke:#000000;stroke-miterlimit:10;}
	.st25{fill:#0A1A5C;stroke:#000000;stroke-width:1.3636;stroke-miterlimit:10;}
	.st26{fill:#9DA3BE;stroke:#000000;stroke-miterlimit:10;}
	.st27{fill:#0A1A5C;stroke:#000000;stroke-width:1.2821;stroke-miterlimit:10;}
	.st28{fill:#9DA3BE;stroke:#000000;stroke-width:1.122;stroke-miterlimit:10;}
	.st29{fill:none;stroke:#000000;stroke-width:7.5318;stroke-linecap:round;stroke-miterlimit:10;}
	.st30{stroke:#000000;stroke-width:6;stroke-linecap:round;stroke-miterlimit:10;}
	.st31{fill:none;stroke:#000000;stroke-width:8;stroke-linecap:round;stroke-miterlimit:10;}
	.st32{fill:none;stroke:#000000;stroke-width:6;stroke-linecap:round;stroke-miterlimit:10;}
	.st33{fill:none;stroke:#FFFFFF;stroke-width:2;stroke-linecap:round;stroke-miterlimit:10;}
	.st34{fill:none;stroke:#FFFFFF;stroke-width:0.965;stroke-linecap:round;stroke-miterlimit:10;}
	.st35{fill:none;stroke:#0A1A5C;stroke-width:3.9302;stroke-miterlimit:10;}
	.st36{opacity:0.6;fill:#0A1A5C;}
	.st37{fill:none;stroke:#000000;stroke-width:2;stroke-miterlimit:10;}
	.st38{fill:#0A1A5C;stroke:#000000;stroke-width:0.6345;stroke-miterlimit:10;}
	.st39{opacity:0.8;fill:#0A1A5C;stroke:#000000;stroke-width:0.4686;stroke-miterlimit:10;}
	.st40{opacity:0.8;fill:#0A1A5C;stroke:#000000;stroke-width:0.5411;stroke-miterlimit:10;}
	.st41{fill:#0A1A5C;stroke:#000000;stroke-width:0.4686;stroke-miterlimit:10;}
	.st42{fill:#9DA3BE;stroke:#000000;stroke-width:0.2099;stroke-miterlimit:10;}
	.st43{fill:#9DA3BE;stroke:#000000;stroke-width:0.2102;stroke-miterlimit:10;}
	.st44{fill:#9DA3BE;stroke:#000000;stroke-width:0.2719;stroke-miterlimit:10;}
	.st45{fill:#9DA3BE;stroke:#000000;stroke-width:0.2181;stroke-miterlimit:10;}
	.st46{fill:#0A195C;}
	.st47{fill:none;stroke:#FFFFFF;stroke-width:1.0163;stroke-linecap:round;stroke-linejoin:round;stroke-miterlimit:10;}
	.st48{fill:#F26F21;}
	.st49{display:none;}
	.st50{display:inline;fill:#012169;}
	.st51{display:inline;}
	.st52{fill:#C8102E;}
	.st53{display:inline;fill-rule:evenodd;clip-rule:evenodd;fill:#E21936;}
	.st54{display:inline;fill-rule:evenodd;clip-rule:evenodd;fill:#FFD200;}
	.st55{display:inline;fill:#0A1A5C;}
	.st56{display:inline;fill:#0A1A5C;stroke:#000000;stroke-width:2.020941e-02;stroke-miterlimit:10;}
	
		.st57{display:inline;fill:none;stroke:#0A1A5C;stroke-width:1.1266;stroke-linecap:round;stroke-linejoin:round;stroke-miterlimit:10;}
	.st58{fill:none;stroke:#F37021;stroke-width:4;stroke-miterlimit:10;}
	.st59{fill:none;stroke:#CCCCCC;stroke-miterlimit:10;}
	.st60{fill:none;stroke:#CCCCCC;stroke-width:0.9689;stroke-miterlimit:10;}
	.st61{fill:#FFFFFF;stroke:#CCCCCC;stroke-width:0.9555;stroke-miterlimit:10;}
	.st62{fill:none;stroke:#CCCCCC;stroke-width:0.95;stroke-miterlimit:10;}
	.st63{fill:#999999;stroke:#CCCCCC;stroke-width:0.5866;stroke-miterlimit:10;}
	.st64{fill:#CCCCCC;stroke:#CCCCCC;stroke-width:0.9555;stroke-miterlimit:10;}
	.st65{fill-rule:evenodd;clip-rule:evenodd;fill:#FFFFFF;}
	.st66{fill:#FFFFFF;stroke:#FFFFFF;stroke-miterlimit:10;}
	.st67{fill:#FFFFFF;stroke:#FFFFFF;stroke-width:0.3262;stroke-miterlimit:10;}
	.st68{fill-rule:evenodd;clip-rule:evenodd;fill:#0A1A5C;}
	.st69{fill:#FFFFFE;}
	.st70{fill:#AAAAAA;}
	.st71{fill:#E2E2E2;}
	.st72{fill:#565656;}
	.st73{opacity:0.8;fill:#0A1A5C;}
	.st74{fill:#FFFFFF;stroke:#0A1A5C;stroke-width:1.7731;stroke-miterlimit:10;}
	.st75{fill:#9DA3BE;stroke:#000000;stroke-width:0.1894;stroke-miterlimit:10;}
	.st76{fill:#FFFFFF;stroke:#000000;stroke-width:0.1894;stroke-miterlimit:10;}
	.st77{fill:none;stroke:#000000;stroke-width:0.3787;stroke-miterlimit:10;}
	.st78{fill:#9DA3BE;stroke:#000000;stroke-width:0.2497;stroke-miterlimit:10;}
	.st79{fill:#999999;stroke:#000000;stroke-width:9.467980e-02;stroke-miterlimit:10;}
	.st80{fill:#00FF00;}
	.st81{fill:#FFFFFF;stroke:#000000;stroke-width:0.8866;stroke-miterlimit:10;}
	.st82{fill:#9DA3BE;stroke:#000000;stroke-width:0.5055;stroke-miterlimit:10;}
	.st83{fill:none;stroke:#FFFFFF;stroke-width:1.0383;stroke-miterlimit:10;}
	.st84{fill:#9DA3BE;stroke:#000000;stroke-width:0.2475;stroke-miterlimit:10;}
	.st85{fill:#9DA3BE;stroke:#000000;stroke-width:0.2789;stroke-miterlimit:10;}
	.st86{fill:#CCCCCC;stroke:#0A1A5C;stroke-width:1.7731;stroke-miterlimit:10;}
	.st87{fill:none;stroke:#000000;stroke-width:0.3971;stroke-miterlimit:10;}
	.st88{fill:#0A1A5C;stroke:#000000;stroke-width:0.3971;stroke-miterlimit:10;}
	.st89{fill:#0A1A5C;stroke:#000000;stroke-width:0.5415;stroke-miterlimit:10;}
	.st90{fill:#9DA3BE;stroke:#000000;stroke-width:0.3971;stroke-miterlimit:10;}
	.st91{fill:#0A1A5C;stroke:#000000;stroke-width:0.5217;stroke-miterlimit:10;}
	.st92{fill:#9DA3BE;stroke:#000000;stroke-width:0.4566;stroke-miterlimit:10;}
	.st93{fill:none;stroke:#000000;stroke-width:3.0646;stroke-linecap:round;stroke-miterlimit:10;}
	.st94{stroke:#000000;stroke-width:2.4414;stroke-linecap:round;stroke-miterlimit:10;}
	.st95{fill:none;stroke:#000000;stroke-width:3.2552;stroke-linecap:round;stroke-miterlimit:10;}
	.st96{fill:none;stroke:#000000;stroke-width:2.4414;stroke-linecap:round;stroke-miterlimit:10;}
	.st97{fill:none;stroke:#FFFFFF;stroke-width:0.8138;stroke-linecap:round;stroke-miterlimit:10;}
	.st98{fill:none;stroke:#FFFFFF;stroke-width:0.3926;stroke-linecap:round;stroke-miterlimit:10;}
	.st99{fill:none;stroke:#0A1A5C;stroke-width:1.5925;stroke-miterlimit:10;}
	.st100{fill:#9DA3BE;stroke:#000000;stroke-width:0.4052;stroke-miterlimit:10;}
	.st101{fill:none;stroke:#000000;stroke-width:0.8104;stroke-miterlimit:10;}
	.st102{fill:#0A1A5C;stroke:#000000;stroke-width:0.2571;stroke-miterlimit:10;}
	.st103{opacity:0.8;fill:#0A1A5C;stroke:#000000;stroke-width:0.1899;stroke-miterlimit:10;}
	.st104{opacity:0.8;fill:#0A1A5C;stroke:#000000;stroke-width:0.2192;stroke-miterlimit:10;}
	.st105{fill:#0A1A5C;stroke:#000000;stroke-width:0.1899;stroke-miterlimit:10;}
	.st106{fill:#9DA3BE;stroke:#000000;stroke-width:8.506256e-02;stroke-miterlimit:10;}
	.st107{fill:#9DA3BE;stroke:#000000;stroke-width:8.517154e-02;stroke-miterlimit:10;}
	.st108{fill:#9DA3BE;stroke:#000000;stroke-width:0.1102;stroke-miterlimit:10;}
	.st109{fill:#9DA3BE;stroke:#000000;stroke-width:8.838669e-02;stroke-miterlimit:10;}
	.st110{fill:#0A1A5C;stroke:#000000;stroke-width:0.1836;stroke-miterlimit:10;}
	.st111{fill:none;stroke:#231F20;stroke-width:0.1244;stroke-miterlimit:10;}
	.st112{fill:#FFFFFF;stroke:#231F20;stroke-width:0.1244;stroke-miterlimit:10;}
	.st113{fill:#AAAAAA;stroke:#231F20;stroke-width:0.1244;stroke-miterlimit:10;}
	.st114{fill:#0A1A5C;stroke:#000000;stroke-width:0.1861;stroke-miterlimit:10;}
	.st115{fill:none;stroke:#FFFFFF;stroke-width:1.1168;stroke-miterlimit:10;}
	.st116{fill:#9DA3BE;stroke:#000000;stroke-width:0.1861;stroke-miterlimit:10;}
	.st117{fill:none;stroke:#FFFFFF;stroke-width:1.8613;stroke-linecap:round;stroke-miterlimit:10;}
	.st118{fill:none;stroke:#FFFFFF;stroke-width:1.8613;stroke-linecap:round;stroke-miterlimit:10;stroke-dasharray:5.4518,5.4518;}
	.st119{fill:#0A1A5C;stroke:#000000;stroke-width:0.3925;stroke-miterlimit:10;}
	.st120{fill:#CCCCCC;stroke:#000000;stroke-width:0.2015;stroke-miterlimit:10;}
	.st121{fill:none;stroke:#0A1A5C;stroke-width:7;stroke-linecap:round;stroke-linejoin:round;stroke-miterlimit:10;}
	.st122{fill:#FFFFFF;stroke:#CCCCCC;stroke-width:1.0208;stroke-miterlimit:10;}
	.st123{fill:#FFFFFF;stroke:#0A1A5C;stroke-width:2;stroke-miterlimit:10;}
	.st124{fill:#0A1A5C;stroke:#000000;stroke-width:0.1154;stroke-miterlimit:10;}
	.st125{fill:none;stroke:#231F20;stroke-width:7.817870e-02;stroke-miterlimit:10;}
	.st126{fill:#FFFFFF;stroke:#231F20;stroke-width:7.817870e-02;stroke-miterlimit:10;}
	.st127{fill:#AAAAAA;stroke:#231F20;stroke-width:7.817870e-02;stroke-miterlimit:10;}
	.st128{fill:none;stroke:#CCCCCC;stroke-width:0.6948;stroke-miterlimit:10;}
	.st129{fill:#999999;}
	.st130{fill:#FFFFFF;stroke:#B3B3B3;stroke-width:2;stroke-miterlimit:10;}
	.st131{fill:none;stroke:#FFFFFF;stroke-width:0.7732;stroke-linecap:round;stroke-linejoin:round;stroke-miterlimit:10;}
	.st132{fill:#0A1A5C;stroke:#0A1A5C;stroke-width:0.8422;stroke-miterlimit:10;}
	.st133{fill:none;stroke:#0A1A5C;stroke-width:0.8422;stroke-miterlimit:10;}
	.st134{fill:#FFFFFF;stroke:#0A1A5C;stroke-width:0.8422;stroke-miterlimit:10;}
</style>
<g>
	<g>
		<circle class="st1" cx="208" cy="84.7" r="6"/>
		<circle class="st14" cx="208" cy="85.7" r="3"/>
	</g>
	<g>
		<circle class="st1" cx="83" cy="84.7" r="6"/>
		<circle class="st14" cx="83" cy="85.7" r="3"/>
	</g>
	<rect x="54.4" y="92.7" class="st1" width="161.8" height="142.8"/>
	<polygon class="st2" points="226.6,249.9 44,249.9 35.1,235.5 235.6,235.5 	"/>
	<g>
		<path class="st35" d="M97.4,261.7H76.3c-0.7,0-1.3-0.6-1.3-1.3v-9.3c0-0.7,0.6-1.3,1.3-1.3h21.1c0.7,0,1.3,0.6,1.3,1.3v9.3
			C98.7,261.1,98.1,261.7,97.4,261.7z"/>
		<path class="st35" d="M193.9,261.7h-20.1c-1,0-1.8-0.8-1.8-1.8v-8.3c0-1,0.8-1.8,1.8-1.8h20.1c1,0,1.8,0.8,1.8,1.8v8.3
			C195.6,260.9,194.8,261.7,193.9,261.7z"/>
	</g>
	<rect x="13.5" y="97.7" class="st36" width="40.6" height="133"/>
	<rect x="16.8" y="108.4" class="st36" width="34.1" height="111.5"/>
	<rect x="216.5" y="97.7" class="st36" width="40.6" height="133"/>
	<rect x="219.8" y="108.4" class="st36" width="34.1" height="111.5"/>
	<rect x="44.3" y="84.7" class="st2" width="182" height="8"/>
	<rect x="58" y="97.6" class="st26" width="7" height="133"/>
	<rect x="189.2" y="97.7" class="st26" width="7" height="133"/>
	<rect x="197.4" y="97.7" class="st26" width="7" height="133"/>
	<rect x="205.6" y="97.7" class="st26" width="7" height="133"/>
	<rect x="66.2" y="97.7" class="st26" width="7" height="133"/>
	<rect x="74.4" y="97.7" class="st26" width="7" height="133"/>
	<rect x="82.6" y="97.7" class="st26" width="7" height="133"/>
	<rect x="90.8" y="97.7" class="st26" width="7" height="133"/>
	<rect x="99" y="97.7" class="st26" width="7" height="133"/>
	<rect x="107.2" y="97.7" class="st26" width="7" height="133"/>
	<rect x="115.4" y="97.7" class="st26" width="7" height="133"/>
	<rect x="123.6" y="97.7" class="st26" width="7" height="133"/>
	<rect x="131.8" y="97.7" class="st26" width="7" height="133"/>
	<rect x="140" y="97.7" class="st26" width="7" height="133"/>
	<rect x="148.2" y="97.7" class="st26" width="7" height="133"/>
	<rect x="156.4" y="97.7" class="st26" width="7" height="133"/>
	<rect x="164.6" y="97.7" class="st26" width="7" height="133"/>
	<rect x="172.8" y="97.7" class="st26" width="7" height="133"/>
	<rect x="181" y="97.7" class="st26" width="7" height="133"/>
	<line class="st37" x1="13" y1="129.7" x2="257" y2="129.7"/>
	<line class="st37" x1="13.5" y1="200.2" x2="257" y2="200.2"/>
	<rect x="62.5" y="27.5" class="st38" width="14.6" height="57.1"/>
	<g>
		<rect x="63.1" y="17.8" class="st39" width="4" height="3.6"/>
		<rect x="67.1" y="17.8" class="st40" width="5.3" height="3.6"/>
		<rect x="72.4" y="17.8" class="st39" width="4" height="3.6"/>
	</g>
	<path class="st41" d="M78.8,28.2H60.7c-2.3,0-4.2-1.9-4.2-4.2v-3.1H83V24C83,26.3,81.1,28.2,78.8,28.2z"/>
	<path class="st41" d="M77.1,17.8H62.4c-1.1,0-1.9-0.9-1.9-1.9V7.6c0-1.1,0.9-1.9,1.9-1.9h14.7c1.1,0,1.9,0.9,1.9,1.9v8.3
		C79,17,78.2,17.8,77.1,17.8z"/>
	<path class="st1" d="M125,29.7v-3h-1.5c-1.7,0-3-1.8-3-4v0h-12.9v0c0,2.2-1.4,4-3,4H103v3h4.6v3.5c0,2.2-1.4,4-3,4H103v3h4.6v3.5
		c0,2.2-1.4,4-3,4H103v3h4.6v3.5c0,2.2-1.4,4-3,4H103v3h4.6v3.5c0,2.2-1.4,4-3,4H103v3h4.6v13h12.9v-13h4.6v-3h-1.5
		c-1.7,0-3-1.8-3-4v-3.5h4.6v-3h-1.5c-1.7,0-3-1.8-3-4v-3.5h4.6v-3h-1.5c-1.7,0-3-1.8-3-4v-3.5h4.6v-3h-1.5c-1.7,0-3-1.8-3-4v-3.5
		H125z"/>
	<path class="st1" d="M154.5,29.7v-3H153c-1.7,0-3-1.8-3-4v0h-12.9v0c0,2.2-1.4,4-3,4h-1.5v3h4.6v3.5c0,2.2-1.4,4-3,4h-1.5v3h4.6
		v3.5c0,2.2-1.4,4-3,4h-1.5v3h4.6v3.5c0,2.2-1.4,4-3,4h-1.5v3h4.6v3.5c0,2.2-1.4,4-3,4h-1.5v3h4.6v13h12.9v-13h4.6v-3H153
		c-1.7,0-3-1.8-3-4v-3.5h4.6v-3H153c-1.7,0-3-1.8-3-4v-3.5h4.6v-3H153c-1.7,0-3-1.8-3-4v-3.5h4.6v-3H153c-1.7,0-3-1.8-3-4v-3.5
		H154.5z"/>
	<path class="st1" d="M184,29.7v-3h-1.5c-1.7,0-3-1.8-3-4v0h-12.9v0c0,2.2-1.4,4-3,4H162v3h4.6v3.5c0,2.2-1.4,4-3,4H162v3h4.6v3.5
		c0,2.2-1.4,4-3,4H162v3h4.6v3.5c0,2.2-1.4,4-3,4H162v3h4.6v3.5c0,2.2-1.4,4-3,4H162v3h4.6v13h12.9v-13h4.6v-3h-1.5
		c-1.7,0-3-1.8-3-4v-3.5h4.6v-3h-1.5c-1.7,0-3-1.8-3-4v-3.5h4.6v-3h-1.5c-1.7,0-3-1.8-3-4v-3.5h4.6v-3h-1.5c-1.7,0-3-1.8-3-4v-3.5
		H184z"/>
	<g>
		<polygon class="st42" points="104.2,60.2 92.1,60.2 89.9,56.1 106.8,56.1 		"/>
		<rect x="89.9" y="40.7" class="st43" width="16.9" height="15.9"/>
		<path class="st44" d="M109.9,81.4H87.3c-0.7,0-1.3-0.6-1.3-1.3l0,0c0-2.2,1.8-4.1,4.1-4.1h17.1c2.2,0,4.1,1.8,4.1,4.1l0,0
			C111.2,80.8,110.6,81.4,109.9,81.4z"/>
		<rect x="89" y="81.4" class="st43" width="18.2" height="3.3"/>
		<rect x="92.9" y="60.2" class="st45" width="10.4" height="11.4"/>
		<path class="st44" d="M109.9,76.5H87.3c-0.7,0-1.3-0.6-1.3-1.3v0c0-2.2,1.8-4.1,4.1-4.1h17.1c2.2,0,4.1,1.8,4.1,4.1v0
			C111.2,75.9,110.6,76.5,109.9,76.5z"/>
		<g>
			<ellipse class="st14" cx="93.2" cy="43.9" rx="1.7" ry="1.6"/>
			<ellipse class="st14" cx="103.6" cy="43.9" rx="1.7" ry="1.6"/>
		</g>
		<g>
			<ellipse class="st14" cx="92.9" cy="51.3" rx="1.7" ry="1.6"/>
			<ellipse class="st14" cx="103.4" cy="51.3" rx="1.7" ry="1.6"/>
		</g>
	</g>
	<g>
		<polygon class="st42" points="135.2,60.2 123,60.2 120.9,56.1 137.8,56.1 		"/>
		<rect x="120.9" y="40.7" class="st43" width="16.9" height="15.9"/>
		<path class="st44" d="M140.8,81.4h-22.6c-0.7,0-1.3-0.6-1.3-1.3l0,0c0-2.2,1.8-4.1,4.1-4.1h17.1c2.2,0,4.1,1.8,4.1,4.1l0,0
			C142.1,80.8,141.5,81.4,140.8,81.4z"/>
		<rect x="120" y="81.4" class="st43" width="18.2" height="3.3"/>
		<rect x="123.9" y="60.2" class="st45" width="10.4" height="11.4"/>
		<path class="st44" d="M140.8,76.5h-22.6c-0.7,0-1.3-0.6-1.3-1.3v0c0-2.2,1.8-4.1,4.1-4.1h17.1c2.2,0,4.1,1.8,4.1,4.1v0
			C142.1,75.9,141.5,76.5,140.8,76.5z"/>
		<g>
			<ellipse class="st14" cx="124.1" cy="43.9" rx="1.7" ry="1.6"/>
			<ellipse class="st14" cx="134.5" cy="43.9" rx="1.7" ry="1.6"/>
		</g>
		<g>
			<ellipse class="st14" cx="123.9" cy="51.3" rx="1.7" ry="1.6"/>
			<ellipse class="st14" cx="134.3" cy="51.3" rx="1.7" ry="1.6"/>
		</g>
	</g>
	<g>
		<polygon class="st42" points="166.1,60.2 154,60.2 151.8,56.1 168.7,56.1 		"/>
		<rect x="151.8" y="40.7" class="st43" width="16.9" height="15.9"/>
		<path class="st44" d="M171.7,81.4h-22.6c-0.7,0-1.3-0.6-1.3-1.3l0,0c0-2.2,1.8-4.1,4.1-4.1H169c2.2,0,4.1,1.8,4.1,4.1l0,0
			C173.1,80.8,172.5,81.4,171.7,81.4z"/>
		<rect x="150.9" y="81.4" class="st43" width="18.2" height="3.3"/>
		<rect x="154.8" y="60.2" class="st45" width="10.4" height="11.4"/>
		<path class="st44" d="M171.7,76.5h-22.6c-0.7,0-1.3-0.6-1.3-1.3v0c0-2.2,1.8-4.1,4.1-4.1H169c2.2,0,4.1,1.8,4.1,4.1v0
			C173.1,75.9,172.5,76.5,171.7,76.5z"/>
		<g>
			<ellipse class="st14" cx="155.1" cy="43.9" rx="1.7" ry="1.6"/>
			<ellipse class="st14" cx="165.5" cy="43.9" rx="1.7" ry="1.6"/>
		</g>
		<g>
			<ellipse class="st14" cx="154.8" cy="51.3" rx="1.7" ry="1.6"/>
			<ellipse class="st14" cx="165.2" cy="51.3" rx="1.7" ry="1.6"/>
		</g>
	</g>
	<g>
		<polygon class="st42" points="197.1,60.2 184.9,60.2 182.7,56.1 199.7,56.1 		"/>
		<rect x="182.7" y="40.7" class="st43" width="16.9" height="15.9"/>
		<path class="st44" d="M202.7,81.4h-22.6c-0.7,0-1.3-0.6-1.3-1.3l0,0c0-2.2,1.8-4.1,4.1-4.1h17.1c2.2,0,4.1,1.8,4.1,4.1l0,0
			C204,80.8,203.4,81.4,202.7,81.4z"/>
		<rect x="181.9" y="81.4" class="st43" width="18.2" height="3.3"/>
		<rect x="185.8" y="60.2" class="st45" width="10.4" height="11.4"/>
		<path class="st44" d="M202.7,76.5h-22.6c-0.7,0-1.3-0.6-1.3-1.3v0c0-2.2,1.8-4.1,4.1-4.1h17.1c2.2,0,4.1,1.8,4.1,4.1v0
			C204,75.9,203.4,76.5,202.7,76.5z"/>
		<g>
			<ellipse class="st14" cx="186" cy="43.9" rx="1.7" ry="1.6"/>
			<ellipse class="st14" cx="196.4" cy="43.9" rx="1.7" ry="1.6"/>
		</g>
		<g>
			<ellipse class="st14" cx="185.8" cy="51.3" rx="1.7" ry="1.6"/>
			<ellipse class="st14" cx="196.2" cy="51.3" rx="1.7" ry="1.6"/>
		</g>
	</g>
</g>
</svg>
