<?xml version="1.0" encoding="utf-8"?>
<!-- Generator: Adobe Illustrator 22.0.0, SVG Export Plug-In . SVG Version: 6.00 Build 0)  -->
<svg version="1.1" xmlns="http://www.w3.org/2000/svg" xmlns:xlink="http://www.w3.org/1999/xlink" x="0px" y="0px"
	 viewBox="0 0 215 137" style="enable-background:new 0 0 215 137;" xml:space="preserve">
<style type="text/css">
	.st0{fill:#0A1A5C;}
	.st1{fill:#F37021;}
	.st2{fill:#CCCCCC;}
	.st3{fill:#FFD4A6;}
	.st4{fill:#9DA3BE;}
	.st5{fill:#FF0000;}
	.st6{fill:#00FF00;}
	.st7{display:none;fill:#E5E5E5;}
	.st8{fill:none;stroke:#0A1A5C;stroke-width:5.0184;stroke-linecap:round;stroke-linejoin:round;stroke-miterlimit:10;}
	.st9{fill:#0A195C;}
	.st10{fill:#FFFFFF;}
	.st11{fill:none;stroke:#FFFFFF;stroke-width:1.0163;stroke-linecap:round;stroke-linejoin:round;stroke-miterlimit:10;}
	.st12{fill:#F26F21;}
	.st13{display:none;}
	.st14{display:inline;fill:#012169;}
	.st15{display:inline;}
	.st16{fill:#C8102E;}
	.st17{display:inline;fill-rule:evenodd;clip-rule:evenodd;fill:#E21936;}
	.st18{display:inline;fill-rule:evenodd;clip-rule:evenodd;fill:#FFD200;}
	.st19{display:inline;fill:#0A1A5C;}
	.st20{display:inline;fill:#0A1A5C;stroke:#000000;stroke-width:2.020941e-02;stroke-miterlimit:10;}
	
		.st21{display:inline;fill:none;stroke:#0A1A5C;stroke-width:1.1266;stroke-linecap:round;stroke-linejoin:round;stroke-miterlimit:10;}
	.st22{fill:none;stroke:#F37021;stroke-width:4;stroke-miterlimit:10;}
	.st23{fill:none;stroke:#CCCCCC;stroke-miterlimit:10;}
	.st24{fill:none;stroke:#E6E6E6;stroke-width:1.2119;stroke-miterlimit:10;}
	.st25{fill:#999999;}
	.st26{fill:#CCCCCC;stroke:#CCCCCC;stroke-width:1.0208;stroke-miterlimit:10;}
	.st27{fill:#FFFFFF;stroke:#999999;stroke-width:0.5832;stroke-miterlimit:10;}
	.st28{fill:none;stroke:#FFFFFF;stroke-width:0.7732;stroke-linecap:round;stroke-linejoin:round;stroke-miterlimit:10;}
	.st29{fill-rule:evenodd;clip-rule:evenodd;fill:#FFFFFF;}
	.st30{fill:#FFFFFF;stroke:#FFFFFF;stroke-miterlimit:10;}
	.st31{fill:#FFFFFF;stroke:#FFFFFF;stroke-width:0.3262;stroke-miterlimit:10;}
	.st32{fill-rule:evenodd;clip-rule:evenodd;fill:#0A1A5C;}
	.st33{fill:#FFFFFE;}
	.st34{fill:none;stroke:#CCCCCC;stroke-width:0.8657;stroke-miterlimit:10;}
	.st35{fill:#FFFFFF;stroke:#CCCCCC;stroke-width:0.9555;stroke-miterlimit:10;}
	.st36{fill:none;stroke:#CCCCCC;stroke-width:0.8423;stroke-miterlimit:10;}
	.st37{fill:#999999;stroke:#CCCCCC;stroke-width:0.5866;stroke-miterlimit:10;}
	.st38{fill:#CCCCCC;stroke:#CCCCCC;stroke-width:0.9555;stroke-miterlimit:10;}
	.st39{fill:#FFFFFF;stroke:#CCCCCC;stroke-width:1.0208;stroke-miterlimit:10;}
	.st40{fill-rule:evenodd;clip-rule:evenodd;}
	.st41{fill:#FFFFFF;stroke:#FFFFFF;stroke-width:0.7732;stroke-linecap:round;stroke-linejoin:round;stroke-miterlimit:10;}
	.st42{opacity:0.6;}
	.st43{fill:none;}
	.st44{opacity:0.2;}
	.st45{fill:#FFFFFF;stroke:#FFFFFF;stroke-width:0.8783;stroke-miterlimit:10;}
	.st46{fill:#FFFFFF;stroke:#FFFFFF;stroke-width:0.8713;stroke-miterlimit:10;}
	.st47{fill:none;stroke:#B3B3B3;stroke-width:1.1187;stroke-miterlimit:10;}
	.st48{fill:#0A1A5C;stroke:#CCCCCC;stroke-width:0.6643;stroke-miterlimit:10;}
	.st49{fill:#0A1A5C;stroke:#CCCCCC;stroke-width:0.7299;stroke-miterlimit:10;}
	.st50{fill:none;stroke:#CCCCCC;stroke-width:0.7297;stroke-miterlimit:10;}
	.st51{fill:none;stroke:#FFFFFF;stroke-width:0.8301;stroke-miterlimit:10;}
	.st52{fill:#FFFFFF;stroke:#FFFFFF;stroke-width:0.8301;stroke-linecap:round;stroke-linejoin:round;stroke-miterlimit:10;}
	.st53{fill:#FFFFFF;stroke:#CCCCCC;stroke-width:0.7857;stroke-miterlimit:10;}
	.st54{fill:#FFFFFF;stroke:#CCCCCC;stroke-width:0.8632;stroke-miterlimit:10;}
	.st55{fill:#FFFFFF;stroke:#CCCCCC;stroke-width:0.6117;stroke-miterlimit:10;}
	.st56{fill:#F9F9F9;stroke:#CCCCCC;stroke-width:0.7857;stroke-miterlimit:10;}
	.st57{display:none;fill:#0A1A5C;}
	.st58{display:inline;fill:#FFFFFF;}
	.st59{fill:#0A1A5C;stroke:#CCCCCC;stroke-width:0.7857;stroke-miterlimit:10;}
	.st60{opacity:0.4;fill:#0A1A5C;stroke:#CCCCCC;stroke-width:0.8632;stroke-miterlimit:10;}
	.st61{opacity:0.4;fill:#0A1A5C;stroke:#CCCCCC;stroke-width:0.6117;stroke-miterlimit:10;}
	.st62{fill:#AAAAAA;}
	.st63{fill:#E2E2E2;}
	.st64{fill:#565656;}
	.st65{fill:#E6E6E6;}
	.st66{fill:none;stroke:#000000;stroke-width:0.7732;stroke-miterlimit:10;}
	.st67{stroke:#000000;stroke-width:0.7732;stroke-linecap:round;stroke-linejoin:round;stroke-miterlimit:10;}
	.st68{fill:#9DA3BE;stroke:#FFFFFF;stroke-miterlimit:10;}
	.st69{fill-rule:evenodd;clip-rule:evenodd;fill:#F37021;}
	.st70{fill:#FFFFFF;stroke:#000000;stroke-width:0.75;stroke-miterlimit:10;}
	.st71{fill:#FFFFFF;stroke:#000000;stroke-miterlimit:10;}
	.st72{fill:#9DA3BE;stroke:#FFFFFF;stroke-width:0.75;stroke-miterlimit:10;}
	.st73{fill:#FFD4A6;stroke:#FFFFFF;stroke-width:0.75;stroke-miterlimit:10;}
	.st74{fill:#FFFFFF;stroke:#FFFFFF;stroke-width:0.75;stroke-miterlimit:10;}
	.st75{fill:none;stroke:#999999;stroke-width:10;stroke-linecap:round;stroke-linejoin:round;stroke-miterlimit:10;}
	.st76{fill:#FFFFFF;stroke:#999999;stroke-miterlimit:10;}
	.st77{fill:none;stroke:#FFFFFF;stroke-width:0.9862;stroke-miterlimit:10;}
	.st78{opacity:0.1;}
	.st79{fill:none;stroke:#B3B3B3;stroke-width:10;stroke-linecap:round;stroke-miterlimit:10;}
	.st80{fill:none;stroke:#E6E6E6;stroke-width:1.239;stroke-miterlimit:10;}
	.st81{fill:none;stroke:#B3B3B3;stroke-width:1.2222;stroke-miterlimit:10;}
	.st82{fill:none;stroke:#000000;stroke-width:2;stroke-miterlimit:10;}
	.st83{fill:none;stroke:#FFFFFF;stroke-width:3;stroke-linecap:round;stroke-linejoin:round;stroke-miterlimit:10;}
	.st84{fill:none;stroke:#FFFFFF;stroke-width:3;stroke-miterlimit:10;}
	.st85{fill:#FFFFFF;stroke:#FFFFFF;stroke-width:3;stroke-linecap:round;stroke-linejoin:round;stroke-miterlimit:10;}
	.st86{fill:none;stroke:#000000;stroke-width:3;stroke-miterlimit:10;}
	.st87{stroke:#000000;stroke-width:3;stroke-linecap:round;stroke-linejoin:round;stroke-miterlimit:10;}
	.st88{fill:#D8D8D8;}
	.st89{fill:none;stroke:#CCCCCC;stroke-width:1.5967;stroke-miterlimit:10;}
	.st90{fill:#0A1A5C;stroke:#CCCCCC;stroke-width:1.4186;stroke-miterlimit:10;}
	.st91{fill:#9DA3BE;stroke:#CCCCCC;stroke-width:1.4186;stroke-miterlimit:10;}
	.st92{fill:none;stroke:#808080;stroke-miterlimit:10;}
	.st93{opacity:0.6;fill-rule:evenodd;clip-rule:evenodd;fill:#F37021;}
	.st94{opacity:0.8;fill-rule:evenodd;clip-rule:evenodd;fill:#F37021;}
	.st95{fill:none;stroke:#B3B3B3;stroke-width:0.9837;stroke-miterlimit:10;}
	.st96{fill:#D3CCB9;}
	.st97{fill:#ADA794;}
	.st98{fill:#C4BFB3;}
	.st99{fill:#E69F87;}
	.st100{fill:#222027;}
	.st101{fill:#FFB296;}
	.st102{fill:#D6957E;}
	.st103{fill:#D47433;}
	.st104{fill:#F18539;}
	.st105{fill:#FFC43D;}
	.st106{fill:#FFCF61;}
	.st107{fill:#FFB614;}
	.st108{fill:#163D54;}
	.st109{fill:#1D5273;}
	.st110{fill:#BC4D39;}
	.st111{fill:#D1917B;}
	.st112{fill:#F2F4F6;}
	.st113{fill:#EBA48A;}
	.st114{fill:#000038;}
	.st115{fill:#ADADAD;}
	.st116{fill:#D6D6D6;}
	.st117{fill:#33313B;}
	.st118{fill:#565951;}
	.st119{fill:#7B6B5C;}
	.st120{fill:#493A27;}
	.st121{fill:#302415;}
	.st122{fill:#41301C;}
	.st123{fill:#8A392B;}
	.st124{fill:#3E403B;}
	.st125{fill:#484A43;}
	.st126{clip-path:url(#SVGID_2_);}
	.st127{fill:#E4DED0;}
	.st128{fill:#65685F;}
	.st129{fill:#7D827C;}
	.st130{fill:#575952;}
	.st131{fill:#393B35;}
	.st132{fill:#2F2D36;}
	.st133{fill:#3B3228;}
	.st134{fill:#42453E;}
	.st135{fill-rule:evenodd;clip-rule:evenodd;fill:#F3A521;}
	.st136{fill-rule:evenodd;clip-rule:evenodd;fill:#F38427;}
</style>
<g id="Color">
</g>
<g id="PROJECT_DETAIL">
</g>
<g id="MODULE_DETAIL_1_">
</g>
<g id="MENU_DETAIL">
</g>
<g id="WEB_1">
	<g id="body">
		<g id="dự_án">
		</g>
	</g>
	<g id="header">
	</g>
</g>
<g id="WEB_Ver_2">
	<g id="WEB_2">
		<g id="Header">
			<g id="logo">
			</g>
		</g>
		<g id="Body">
			<g id="thanh_menu">
			</g>
		</g>
		<g id="Table">
		</g>
	</g>
	<g id="PROJECT_HÌNH_ẢNH">
	</g>
</g>
<g id="TABLE_DETAIL">
</g>
<g id="icon_đèn">
</g>
<g id="ICON_CLOSE_WHITE">
</g>
<g id="ICON_SƠ_ĐỒ">
</g>
<g id="ICON_SOLAR">
</g>
<g id="ICON_GRID">
</g>
<g id="ICON_WIND">
</g>
<g id="ICON_BATTERY">
</g>
<g id="ICON_LOAD">
</g>
<g id="SOLAR_BLACK">
</g>
<g id="GRID_BLACK">
</g>
<g id="WIND_BLACK">
</g>
<g id="BATTERY_BLACK">
</g>
<g id="LOAD_BLACK">
</g>
<g id="ICON">
</g>
<g id="TAB_SITE">
</g>
<g id="Layer_36">
	<g>
		<path class="st32" d="M25.2,52c0,2,0.2,4,0.6,6c0.1,0.6,0.2,1.1,0.3,1.6c-43,19-27.1,75.9,20.5,75.9c34.9,0,43.7,0,52.6,0
			c25.2,0,51.1,0.1,57.6,0.1c15.7,0,29.9-4.7,40.3-12.2c10.8-7.8,17.5-18.8,17.5-31c0-10.8-5.3-20.7-14-28.2
			c-7.9-6.8-18.7-11.8-31-13.9c-0.2-0.5-0.3-1-0.5-1.5c-1.7-19.6-20-32.5-41.4-25c-0.2,0.1-0.5,0.1-0.7,0.2
			C95.5-13,25.6,4.5,25.2,52L25.2,52z"/>
		<g>
			<g>
				<path class="st10" d="M80.7,77.4l9,2.8c-1.4,5-3.7,8.7-6.9,11.2c-3.2,2.4-7.3,3.6-12.2,3.6c-6.1,0-11.1-2.1-15-6.2
					s-5.9-9.8-5.9-17.1c0-7.6,2-13.6,5.9-17.8s9.1-6.3,15.5-6.3c5.6,0,10.2,1.7,13.7,5c2.1,2,3.7,4.8,4.7,8.4l-9.2,2.2
					c-0.5-2.4-1.7-4.3-3.4-5.6s-3.8-2.1-6.3-2.1c-3.4,0-6.2,1.2-8.3,3.7s-3.2,6.4-3.2,11.9c0,5.8,1,9.9,3.1,12.4
					c2.1,2.5,4.8,3.7,8.1,3.7c2.5,0,4.6-0.8,6.3-2.3C78.7,83.3,80,80.8,80.7,77.4z"/>
				<path class="st10" d="M95.8,71.6c0-4.7,0.7-8.6,2.1-11.8c1-2.3,2.5-4.4,4.3-6.3s3.8-3.2,5.9-4.1c2.9-1.2,6.2-1.8,9.9-1.8
					c6.8,0,12.2,2.1,16.2,6.3s6.1,10,6.1,17.5c0,7.4-2,13.2-6,17.4c-4,4.2-9.4,6.3-16.1,6.3c-6.8,0-12.2-2.1-16.3-6.2
					S95.8,78.9,95.8,71.6z M105.3,71.3c0,5.2,1.2,9.1,3.6,11.8s5.4,4,9.1,4c3.7,0,6.7-1.3,9.1-4c2.4-2.7,3.5-6.6,3.5-12
					c0-5.3-1.1-9.2-3.5-11.8c-2.3-2.6-5.4-3.9-9.2-3.9s-6.9,1.3-9.2,3.9S105.3,66.1,105.3,71.3z"/>
			</g>
			<g>
				<path class="st10" d="M165.7,102.8v5.1h-19.3c0.2-1.9,0.8-3.8,1.9-5.5c1-1.7,3.1-4,6.2-6.9c2.5-2.3,4-3.9,4.6-4.7
					c0.8-1.1,1.1-2.3,1.1-3.4c0-1.2-0.3-2.2-1-2.8s-1.6-1-2.7-1c-1.1,0-2.1,0.4-2.7,1c-0.7,0.7-1.1,1.8-1.2,3.4l-5.5-0.5
					c0.3-3,1.3-5.2,3.1-6.5c1.7-1.3,3.9-2,6.5-2c2.8,0,5,0.8,6.7,2.3c1.6,1.5,2.4,3.4,2.4,5.7c0,1.3-0.2,2.5-0.7,3.7
					c-0.5,1.2-1.2,2.4-2.2,3.7c-0.7,0.8-1.9,2.1-3.6,3.7c-1.7,1.6-2.8,2.6-3.3,3.2c-0.5,0.5-0.8,1-1.1,1.5H165.7z"/>
			</g>
		</g>
	</g>
</g>
<g id="Layer_35">
</g>
<g id="Layer_34">
</g>
<g id="Layer_33">
</g>
</svg>
