<?xml version="1.0" encoding="utf-8"?>
<!-- Generator: Adobe Illustrator 22.0.0, SVG Export Plug-In . SVG Version: 6.00 Build 0)  -->
<svg version="1.1" xmlns="http://www.w3.org/2000/svg" xmlns:xlink="http://www.w3.org/1999/xlink" x="0px" y="0px"
	 viewBox="0 0 97 97" style="enable-background:new 0 0 97 97;" xml:space="preserve">
<style type="text/css">
	.st0{fill:#0A1A5C;}
	.st1{fill:#C1C1C1;}
	.st2{fill:#FF671F;}
	.st3{fill:#FFFFFF;}
	.st4{fill-rule:evenodd;clip-rule:evenodd;fill:#FFFFFF;}
	.st5{fill:#FFFFFF;stroke:#FFFFFF;stroke-width:1.849;stroke-miterlimit:10;}
	.st6{fill:#FFFFFF;stroke:#FFFFFF;stroke-width:0.6031;stroke-miterlimit:10;}
	.st7{fill:none;}
	.st8{fill:#FFFFFE;}
	.st9{fill:#CCCCCC;}
	.st10{fill:none;stroke:#B3B3B3;stroke-width:1.003;stroke-miterlimit:10;}
	.st11{fill:#FFFFFF;stroke:#CCCCCC;stroke-width:1.7931;stroke-miterlimit:10;}
	.st12{fill:none;stroke:#CCCCCC;stroke-width:0.8471;stroke-miterlimit:10;}
	.st13{fill:#999999;}
	.st14{fill:#CCCCCC;stroke:#CCCCCC;stroke-width:1.8957;stroke-miterlimit:10;}
	.st15{fill:none;stroke:#CCCCCC;stroke-miterlimit:10;}
	.st16{fill:#1B3281;}
	.st17{fill:#B5B6D1;}
	.st18{fill:#F9A46F;stroke:#FFFFFF;stroke-width:0.3025;stroke-miterlimit:10;}
	.st19{fill:#F68A46;stroke:#FFFFFF;stroke-width:0.3025;stroke-miterlimit:10;}
	.st20{fill:#FF671F;stroke:#FFFFFF;stroke-width:0.3025;stroke-miterlimit:10;}
	.st21{fill:#FEDEC7;stroke:#FFFFFF;stroke-width:0.3025;stroke-miterlimit:10;}
	.st22{fill:#FEDEC7;}
	.st23{fill:#F68A46;}
	.st24{fill:#F9A46F;}
	.st25{fill:#FF671F;stroke:#FF671F;stroke-width:0.7171;stroke-linecap:round;stroke-linejoin:round;stroke-miterlimit:10;}
	.st26{fill:#F9A46F;stroke:#F9A46F;stroke-width:0.1649;stroke-miterlimit:10;}
	.st27{fill:#FF671F;stroke:#FF671F;stroke-width:0.1649;stroke-miterlimit:10;}
	.st28{opacity:0.88;}
	.st29{fill:#FCC198;}
	.st30{fill:none;stroke:#0A1A5C;stroke-width:2;stroke-miterlimit:10;}
	.st31{opacity:0.2;}
	.st32{fill:#FFFFFF;stroke:#FFFFFF;stroke-width:0.8783;stroke-miterlimit:10;}
	.st33{fill:#FFFFFF;stroke:#FFFFFF;stroke-width:0.8713;stroke-miterlimit:10;}
	.st34{fill:none;stroke:#B3B3B3;stroke-width:1.1187;stroke-miterlimit:10;}
	.st35{fill:#FFFFFF;stroke:#CCCCCC;stroke-width:0.5946;stroke-miterlimit:10;}
	.st36{fill:#0A1A5C;stroke:#CCCCCC;stroke-width:0.5377;stroke-miterlimit:10;}
	.st37{fill:#FFFFFF;stroke:#CCCCCC;stroke-width:0.8286;stroke-miterlimit:10;}
	.st38{fill:#FFFFFF;stroke:#CCCCCC;stroke-width:0.9104;stroke-miterlimit:10;}
	.st39{fill:#FFFFFF;stroke:#CCCCCC;stroke-width:0.7829;stroke-miterlimit:10;}
	.st40{fill:#0A1A5C;stroke:#CCCCCC;stroke-width:0.8233;stroke-miterlimit:10;}
	.st41{fill:#0A1A5C;stroke:#CCCCCC;stroke-width:0.7117;stroke-miterlimit:10;}
	.st42{fill:#0A1A5C;stroke:#CCCCCC;stroke-width:0.7493;stroke-miterlimit:10;}
	.st43{fill:#FFFFFF;stroke:#0A1A5C;stroke-miterlimit:10;}
	.st44{fill:#0A1A5C;stroke:#0A1A5C;stroke-width:0.7524;stroke-miterlimit:10;}
	.st45{fill:#FFFFFF;stroke:#0A1A5C;stroke-width:0.7524;stroke-miterlimit:10;}
	.st46{fill:#F37021;}
	.st47{fill:none;stroke:#0A1A5C;stroke-miterlimit:10;}
	.st48{fill:#F26F21;}
	.st49{fill:#FFFFFF;stroke:#F37021;stroke-width:6.9715;stroke-miterlimit:10;}
	.st50{fill:none;stroke:#0A1A5C;stroke-width:2.5392;stroke-miterlimit:10;}
	.st51{fill:none;stroke:#000000;stroke-width:2.0231;stroke-miterlimit:10;}
	.st52{fill:none;stroke:#FF671F;stroke-width:2;stroke-miterlimit:10;}
	.st53{fill:#E6E6E6;}
	.st54{fill:#FFFFFF;stroke:#0A1A5C;stroke-width:3.4555;stroke-miterlimit:10;}
	.st55{fill:#9DA3BE;stroke:#000000;stroke-width:0.369;stroke-miterlimit:10;}
	.st56{fill:#9DA3BE;}
	.st57{fill:#FFFFFF;stroke:#000000;stroke-width:0.369;stroke-miterlimit:10;}
	.st58{fill:none;stroke:#000000;stroke-width:0.7381;stroke-miterlimit:10;}
	.st59{fill:#9DA3BE;stroke:#000000;stroke-width:0.4867;stroke-miterlimit:10;}
	.st60{fill:#999999;stroke:#000000;stroke-width:0.1845;stroke-miterlimit:10;}
	.st61{fill:#00FF00;}
	.st62{fill:#FFFFFF;stroke:#000000;stroke-width:1.7278;stroke-miterlimit:10;}
	.st63{fill:#9DA3BE;stroke:#000000;stroke-width:0.9851;stroke-miterlimit:10;}
	.st64{fill:none;stroke:#FFFFFF;stroke-width:2.0234;stroke-miterlimit:10;}
	.st65{fill:#9DA3BE;stroke:#000000;stroke-width:0.4824;stroke-miterlimit:10;}
	.st66{fill:#9DA3BE;stroke:#000000;stroke-width:0.5436;stroke-miterlimit:10;}
	.st67{fill:none;stroke:#000000;stroke-width:0.7739;stroke-miterlimit:10;}
	.st68{fill:#0A1A5C;stroke:#000000;stroke-width:0.7739;stroke-miterlimit:10;}
	.st69{fill:#0A1A5C;stroke:#000000;stroke-width:1.0553;stroke-miterlimit:10;}
	.st70{fill:#9DA3BE;stroke:#000000;stroke-width:0.7739;stroke-miterlimit:10;}
	.st71{fill:#0A1A5C;stroke:#000000;stroke-width:1.0167;stroke-miterlimit:10;}
	.st72{fill:#9DA3BE;stroke:#000000;stroke-width:0.8897;stroke-miterlimit:10;}
	.st73{fill:none;stroke:#000000;stroke-width:5.9724;stroke-linecap:round;stroke-miterlimit:10;}
	.st74{stroke:#000000;stroke-width:4.7578;stroke-linecap:round;stroke-miterlimit:10;}
	.st75{fill:none;stroke:#000000;stroke-width:6.3438;stroke-linecap:round;stroke-miterlimit:10;}
	.st76{fill:none;stroke:#000000;stroke-width:4.7578;stroke-linecap:round;stroke-miterlimit:10;}
	.st77{fill:none;stroke:#FFFFFF;stroke-width:1.5859;stroke-linecap:round;stroke-miterlimit:10;}
	.st78{fill:none;stroke:#FFFFFF;stroke-width:0.7652;stroke-linecap:round;stroke-miterlimit:10;}
	.st79{fill:none;stroke:#0A1A5C;stroke-width:3.1035;stroke-miterlimit:10;}
	.st80{opacity:0.6;fill:#0A1A5C;}
	.st81{fill:#9DA3BE;stroke:#000000;stroke-width:0.7896;stroke-miterlimit:10;}
	.st82{fill:none;stroke:#000000;stroke-width:1.5793;stroke-miterlimit:10;}
	.st83{fill:#0A1A5C;stroke:#000000;stroke-width:0.501;stroke-miterlimit:10;}
	.st84{opacity:0.8;fill:#0A1A5C;stroke:#000000;stroke-width:0.37;stroke-miterlimit:10;}
	.st85{opacity:0.8;fill:#0A1A5C;stroke:#000000;stroke-width:0.4273;stroke-miterlimit:10;}
	.st86{fill:#0A1A5C;stroke:#000000;stroke-width:0.37;stroke-miterlimit:10;}
	.st87{fill:#9DA3BE;stroke:#000000;stroke-width:0.1658;stroke-miterlimit:10;}
	.st88{fill:#9DA3BE;stroke:#000000;stroke-width:0.166;stroke-miterlimit:10;}
	.st89{fill:#9DA3BE;stroke:#000000;stroke-width:0.2147;stroke-miterlimit:10;}
	.st90{fill:#9DA3BE;stroke:#000000;stroke-width:0.1723;stroke-miterlimit:10;}
	.st91{fill:#0A1A5C;stroke:#000000;stroke-width:0.3577;stroke-miterlimit:10;}
	.st92{fill:none;stroke:#231F20;stroke-width:0.2424;stroke-miterlimit:10;}
	.st93{fill:#FFFFFF;stroke:#231F20;stroke-width:0.2424;stroke-miterlimit:10;}
	.st94{fill:#AAAAAA;stroke:#231F20;stroke-width:0.2424;stroke-miterlimit:10;}
	.st95{fill:#0A1A5C;stroke:#000000;stroke-width:0.3627;stroke-miterlimit:10;}
	.st96{fill:none;stroke:#FFFFFF;stroke-width:2.1764;stroke-miterlimit:10;}
	.st97{fill:#9DA3BE;stroke:#000000;stroke-width:0.3627;stroke-miterlimit:10;}
	.st98{fill:none;stroke:#FFFFFF;stroke-width:3.6274;stroke-linecap:round;stroke-miterlimit:10;}
	.st99{fill:none;stroke:#FFFFFF;stroke-width:3.6274;stroke-linecap:round;stroke-miterlimit:10;stroke-dasharray:10.6247,10.6247;}
	.st100{fill:#0A1A5C;stroke:#000000;stroke-width:0.7649;stroke-miterlimit:10;}
	.st101{fill:#CCCCCC;stroke:#000000;stroke-width:0.3928;stroke-miterlimit:10;}
	.st102{fill:#F9A46F;stroke:#F9A46F;stroke-width:0.5;stroke-miterlimit:10;}
	.st103{fill:#FF671F;stroke:#FF671F;stroke-width:0.5;stroke-miterlimit:10;}
	.st104{fill:#F9A46F;stroke:#FFFFFF;stroke-width:0.9258;stroke-miterlimit:10;}
	.st105{fill:#F68A46;stroke:#FFFFFF;stroke-width:0.9258;stroke-miterlimit:10;}
	.st106{fill:#FF671F;stroke:#FFFFFF;stroke-width:0.9258;stroke-miterlimit:10;}
	.st107{fill:#FEDEC7;stroke:#FFFFFF;stroke-width:0.9258;stroke-miterlimit:10;}
	.st108{fill:#FF671F;stroke:#FF671F;stroke-width:2.1738;stroke-linecap:round;stroke-linejoin:round;stroke-miterlimit:10;}
	.st109{fill:#0A1A5C;stroke:#FFFFFF;stroke-width:2.1738;stroke-linecap:round;stroke-linejoin:round;stroke-miterlimit:10;}
	.st110{fill:#FFFFFF;stroke:#FFFFFF;stroke-width:0.5;stroke-miterlimit:10;}
	.st111{fill:#FFFFFF;stroke:#FFFFFF;stroke-width:0.9258;stroke-miterlimit:10;}
	.st112{fill:none;stroke:#CCCCCC;stroke-width:1.5967;stroke-miterlimit:10;}
	.st113{fill:#0A1A5C;stroke:#CCCCCC;stroke-width:1.4186;stroke-miterlimit:10;}
	.st114{fill:#9DA3BE;stroke:#CCCCCC;stroke-width:1.4186;stroke-miterlimit:10;}
	.st115{fill:none;stroke:#808080;stroke-width:1.1621;stroke-miterlimit:10;}
	.st116{fill-rule:evenodd;clip-rule:evenodd;}
	.st117{fill:none;stroke:#808080;stroke-miterlimit:10;}
	.st118{fill-rule:evenodd;clip-rule:evenodd;fill:#F37021;}
	.st119{fill-rule:evenodd;clip-rule:evenodd;fill:#0A1A5C;}
	.st120{opacity:0.6;fill-rule:evenodd;clip-rule:evenodd;fill:#F37021;}
	.st121{opacity:0.8;fill-rule:evenodd;clip-rule:evenodd;fill:#F37021;}
	.st122{fill:none;stroke:#B3B3B3;stroke-width:0.9837;stroke-miterlimit:10;}
	.st123{fill:#D3CCB9;}
	.st124{fill:#ADA794;}
	.st125{fill:#C4BFB3;}
	.st126{fill:#E69F87;}
	.st127{fill:#222027;}
	.st128{fill:#FFB296;}
	.st129{fill:#D6957E;}
	.st130{fill:#D47433;}
	.st131{fill:#F18539;}
	.st132{fill:#FFC43D;}
	.st133{fill:#FFCF61;}
	.st134{fill:#FFB614;}
	.st135{fill:#163D54;}
	.st136{fill:#1D5273;}
	.st137{fill:#BC4D39;}
	.st138{fill:#D1917B;}
	.st139{fill:#F2F4F6;}
	.st140{fill:#EBA48A;}
	.st141{fill:#000038;}
	.st142{fill:#ADADAD;}
	.st143{fill:#D6D6D6;}
	.st144{fill:#33313B;}
	.st145{fill:#565951;}
	.st146{fill:#7B6B5C;}
	.st147{fill:#493A27;}
	.st148{fill:#302415;}
	.st149{fill:#41301C;}
	.st150{fill:#8A392B;}
	.st151{fill:#3E403B;}
	.st152{fill:#484A43;}
	.st153{clip-path:url(#SVGID_2_);}
	.st154{fill:#E4DED0;}
	.st155{fill:#65685F;}
	.st156{fill:#7D827C;}
	.st157{fill:#575952;}
	.st158{fill:#393B35;}
	.st159{fill:#2F2D36;}
	.st160{fill:#3B3228;}
	.st161{fill:#42453E;}
	.st162{clip-path:url(#SVGID_4_);}
	.st163{clip-path:url(#SVGID_6_);}
</style>
<g id="cảnh_báo">
</g>
<g id="biểu_đồ">
</g>
<g id="ảnh_gì_đó">
</g>
<g id="thiết_bị">
</g>
<g id="icon_v2.0">
	<g>
		<g>
			<circle class="st3" cx="48.5" cy="48.5" r="46"/>
			<path class="st0" d="M48.5,5C72.5,5,92,24.5,92,48.5C92,72.5,72.5,92,48.5,92S5,72.5,5,48.5S24.5,5,48.5,5 M48.5,0
				C21.8,0,0,21.8,0,48.5v0C0,75.2,21.8,97,48.5,97S97,75.2,97,48.5v0C97,21.8,75.2,0,48.5,0L48.5,0z"/>
		</g>
		<g>
			<g>
				<polygon class="st22" points="33.9,49.5 40.6,49.5 41.5,46.4 35.7,46.4 				"/>
				<polygon class="st2" points="41.4,49.5 48.1,49.5 48.1,46.4 42.3,46.4 				"/>
				<polygon class="st23" points="40.1,54.3 48,54.3 48.1,50 41.3,50 				"/>
				<polygon class="st24" points="31.3,54.3 39.2,54.3 40.5,50 33.7,50 				"/>
				<polygon class="st23" points="48.9,49.5 55.6,49.5 54.7,46.4 48.9,46.4 				"/>
				<polygon class="st24" points="55.5,46.4 56.4,49.5 63.1,49.5 61.3,46.4 				"/>
				<polygon class="st23" points="57.8,54.3 65.7,54.3 63.3,50 56.5,50 				"/>
				<polygon class="st24" points="49,54.3 56.9,54.3 55.7,50 48.9,50 				"/>
				<polygon class="st23" points="27.5,61.3 37.1,61.3 39,55 30.9,55 				"/>
				<polygon class="st2" points="38.3,61.3 47.9,61.3 48,55 40,55 				"/>
				<polygon class="st24" points="35.4,72 47.7,72 47.9,62.2 38,62.2 				"/>
				<polygon class="st22" points="21.6,72 33.9,72 36.8,62.2 27,62.2 				"/>
				<polygon class="st23" points="49.1,61.3 58.7,61.3 57,55 49,55 				"/>
				<polygon class="st22" points="59.9,61.3 69.5,61.3 66.1,55 58,55 				"/>
				<polygon class="st2" points="63.1,72 75.4,72 70,62.2 60.2,62.2 				"/>
				<polygon class="st23" points="49.3,72 61.6,72 59,62.2 49.1,62.2 				"/>
			</g>
			<line class="st108" x1="21.3" y1="74.9" x2="75.7" y2="74.9"/>
			<rect x="46" y="74.9" class="st2" width="5.1" height="8"/>
			<ellipse class="st2" cx="48.5" cy="82.5" rx="8.3" ry="2.2"/>
		</g>
		<g>
			<g id="XMLID_2_">
				<path id="XMLID_11_" class="st23" d="M60.6,22.2l5.3-4.6l-7,0.6C59.7,19.5,60.2,20.8,60.6,22.2z"/>
				<path id="XMLID_10_" class="st23" d="M48.2,12.6l-3.4-5.8l-0.6,6.5C45.5,12.9,46.8,12.7,48.2,12.6z"/>
				<path id="XMLID_9_" class="st24" d="M56.2,15.3l1.1-6.9l-4.8,4.8C53.8,13.7,55.1,14.4,56.2,15.3z"/>
				<path id="XMLID_8_" class="st24" d="M60.8,26.3c-0.1,1.4-0.5,2.8-1.1,4.1l6.8-0.1L60.8,26.3z"/>
				<path id="XMLID_7_" class="st23" d="M53.8,36.2l5.1,4.1l-1.7-6.5C56.2,34.8,55.1,35.6,53.8,36.2z"/>
				<path id="XMLID_6_" class="st24" d="M48.5,37.4c-1.1,0-2.1-0.1-3-0.4l1.2,6.1l2.7-5.8C49,37.4,48.8,37.4,48.5,37.4z"/>
				<path id="XMLID_5_" class="st24" d="M40.2,15.8l-6-2.1l3.6,5.1C38.4,17.7,39.2,16.7,40.2,15.8z"/>
				<path id="XMLID_4_" class="st24" d="M38.4,32.1l-3,5.3l5.5-2.6C39.9,34,39.1,33.1,38.4,32.1z"/>
				<path id="XMLID_3_" class="st23" d="M36.1,25c0-0.5,0-0.9,0.1-1.4l-5.7,2.2l5.9,1.6C36.2,26.6,36.1,25.8,36.1,25z"/>
			</g>
			<circle id="XMLID_1_" class="st2" cx="48.5" cy="25" r="9.4"/>
		</g>
	</g>
</g>
<g id="tổng_quan">
</g>
</svg>
