<?xml version="1.0" encoding="utf-8"?>
<!-- Generator: Adobe Illustrator 22.0.0, SVG Export Plug-In . SVG Version: 6.00 Build 0)  -->
<svg version="1.1" id="Capa_1" xmlns="http://www.w3.org/2000/svg" xmlns:xlink="http://www.w3.org/1999/xlink" x="0px" y="0px"
	 viewBox="0 0 2318 1218.1" style="enable-background:new 0 0 2318 1218.1;" xml:space="preserve">
<style type="text/css">
	.st0{fill:#0D3675;}
	.st1{fill:#FFFFFF;}
	.st2{fill:#E12D34;}
</style>
<g>
	<rect class="st0" width="927" height="655.9"/>
	<polygon class="st1" points="76.4,28.6 83.7,55.5 112.7,55.1 88.3,69.5 98.8,97.8 76.4,78.1 53.9,97.8 64.4,69.5 40,55.1 69,55.5 	
		"/>
	<polygon class="st1" points="231.2,28.6 238.6,55.5 267.6,55.1 243.1,69.5 253.7,97.8 231.2,78.1 208.7,97.8 219.3,69.5 
		194.8,55.1 223.8,55.5 	"/>
	<polygon class="st1" points="386.1,28.6 393.4,55.5 422.4,55.1 398,69.5 408.5,97.8 386.1,78.1 363.6,97.8 374.1,69.5 349.7,55.1 
		378.7,55.5 	"/>
	<polygon class="st1" points="540.9,28.6 548.3,55.5 577.3,55.1 552.8,69.5 563.4,97.8 540.9,78.1 518.4,97.8 529,69.5 504.5,55.1 
		533.5,55.5 	"/>
	<polygon class="st1" points="695.8,28.6 703.1,55.5 732.1,55.1 707.7,69.5 718.2,97.8 695.8,78.1 673.3,97.8 683.8,69.5 
		659.4,55.1 688.4,55.5 	"/>
	<polygon class="st1" points="850.6,28.6 858,55.5 887,55.1 862.5,69.5 873.1,97.8 850.6,78.1 828.1,97.8 838.7,69.5 814.2,55.1 
		843.2,55.5 	"/>
	<polygon class="st1" points="76.4,158 83.7,184.9 112.7,184.5 88.3,198.9 98.8,227.2 76.4,207.6 53.9,227.2 64.4,198.9 40,184.5 
		69,184.9 	"/>
	<polygon class="st1" points="231.2,158 238.6,184.9 267.6,184.5 243.1,198.9 253.7,227.2 231.2,207.6 208.7,227.2 219.3,198.9 
		194.8,184.5 223.8,184.9 	"/>
	<polygon class="st1" points="386.1,158 393.4,184.9 422.4,184.5 398,198.9 408.5,227.2 386.1,207.6 363.6,227.2 374.1,198.9 
		349.7,184.5 378.7,184.9 	"/>
	<polygon class="st1" points="540.9,158 548.3,184.9 577.3,184.5 552.8,198.9 563.4,227.2 540.9,207.6 518.4,227.2 529,198.9 
		504.5,184.5 533.5,184.9 	"/>
	<polygon class="st1" points="695.8,158 703.1,184.9 732.1,184.5 707.7,198.9 718.2,227.2 695.8,207.6 673.3,227.2 683.8,198.9 
		659.4,184.5 688.4,184.9 	"/>
	<polygon class="st1" points="850.6,158 858,184.9 887,184.5 862.5,198.9 873.1,227.2 850.6,207.6 828.1,227.2 838.7,198.9 
		814.2,184.5 843.2,184.9 	"/>
	<polygon class="st1" points="153.8,93.9 161.2,120.7 190.2,120.3 165.7,134.7 176.3,163 153.8,143.4 131.3,163 141.9,134.7 
		117.4,120.3 146.4,120.7 	"/>
	<polygon class="st1" points="308.6,93.9 316,120.7 345,120.3 320.6,134.7 331.1,163 308.6,143.4 286.2,163 296.7,134.7 
		272.3,120.3 301.3,120.7 	"/>
	<polygon class="st1" points="463.5,93.9 470.9,120.7 499.9,120.3 475.4,134.7 486,163 463.5,143.4 441,163 451.6,134.7 
		427.1,120.3 456.1,120.7 	"/>
	<polygon class="st1" points="618.3,93.9 625.7,120.7 654.7,120.3 630.3,134.7 640.8,163 618.3,143.4 595.9,163 606.4,134.7 
		582,120.3 611,120.7 	"/>
	<polygon class="st1" points="773.2,93.9 780.6,120.7 809.6,120.3 785.1,134.7 795.7,163 773.2,143.4 750.7,163 761.3,134.7 
		736.8,120.3 765.8,120.7 	"/>
	<polygon class="st1" points="76.4,291.4 83.7,318.2 112.7,317.8 88.3,332.3 98.8,360.6 76.4,340.9 53.9,360.6 64.4,332.3 40,317.8 
		69,318.2 	"/>
	<polygon class="st1" points="231.2,291.4 238.6,318.2 267.6,317.8 243.1,332.3 253.7,360.6 231.2,340.9 208.7,360.6 219.3,332.3 
		194.8,317.8 223.8,318.2 	"/>
	<polygon class="st1" points="386.1,291.4 393.4,318.2 422.4,317.8 398,332.3 408.5,360.6 386.1,340.9 363.6,360.6 374.1,332.3 
		349.7,317.8 378.7,318.2 	"/>
	<polygon class="st1" points="540.9,291.4 548.3,318.2 577.3,317.8 552.8,332.3 563.4,360.6 540.9,340.9 518.4,360.6 529,332.3 
		504.5,317.8 533.5,318.2 	"/>
	<polygon class="st1" points="695.8,291.4 703.1,318.2 732.1,317.8 707.7,332.3 718.2,360.6 695.8,340.9 673.3,360.6 683.8,332.3 
		659.4,317.8 688.4,318.2 	"/>
	<polygon class="st1" points="850.6,291.4 858,318.2 887,317.8 862.5,332.3 873.1,360.6 850.6,340.9 828.1,360.6 838.7,332.3 
		814.2,317.8 843.2,318.2 	"/>
	<polygon class="st1" points="153.8,227.2 161.2,254.1 190.2,253.6 165.7,268.1 176.3,296.4 153.8,276.7 131.3,296.4 141.9,268.1 
		117.4,253.6 146.4,254.1 	"/>
	<polygon class="st1" points="308.6,227.2 316,254.1 345,253.6 320.6,268.1 331.1,296.4 308.6,276.7 286.2,296.4 296.7,268.1 
		272.3,253.6 301.3,254.1 	"/>
	<polygon class="st1" points="463.5,227.2 470.9,254.1 499.9,253.6 475.4,268.1 486,296.4 463.5,276.7 441,296.4 451.6,268.1 
		427.1,253.6 456.1,254.1 	"/>
	<polygon class="st1" points="618.3,227.2 625.7,254.1 654.7,253.6 630.3,268.1 640.8,296.4 618.3,276.7 595.9,296.4 606.4,268.1 
		582,253.6 611,254.1 	"/>
	<polygon class="st1" points="773.2,227.2 780.6,254.1 809.6,253.6 785.1,268.1 795.7,296.4 773.2,276.7 750.7,296.4 761.3,268.1 
		736.8,253.6 765.8,254.1 	"/>
	<polygon class="st1" points="76.4,424.7 83.7,451.6 112.7,451.2 88.3,465.6 98.8,493.9 76.4,474.3 53.9,493.9 64.4,465.6 40,451.2 
		69,451.6 	"/>
	<polygon class="st1" points="231.2,424.7 238.6,451.6 267.6,451.2 243.1,465.6 253.7,493.9 231.2,474.3 208.7,493.9 219.3,465.6 
		194.8,451.2 223.8,451.6 	"/>
	<polygon class="st1" points="386.1,424.7 393.4,451.6 422.4,451.2 398,465.6 408.5,493.9 386.1,474.3 363.6,493.9 374.1,465.6 
		349.7,451.2 378.7,451.6 	"/>
	<polygon class="st1" points="540.9,424.7 548.3,451.6 577.3,451.2 552.8,465.6 563.4,493.9 540.9,474.3 518.4,493.9 529,465.6 
		504.5,451.2 533.5,451.6 	"/>
	<polygon class="st1" points="695.8,424.7 703.1,451.6 732.1,451.2 707.7,465.6 718.2,493.9 695.8,474.3 673.3,493.9 683.8,465.6 
		659.4,451.2 688.4,451.6 	"/>
	<polygon class="st1" points="850.6,424.7 858,451.6 887,451.2 862.5,465.6 873.1,493.9 850.6,474.3 828.1,493.9 838.7,465.6 
		814.2,451.2 843.2,451.6 	"/>
	<polygon class="st1" points="153.8,360.6 161.2,387.4 190.2,387 165.7,401.4 176.3,429.7 153.8,410.1 131.3,429.7 141.9,401.4 
		117.4,387 146.4,387.4 	"/>
	<polygon class="st1" points="308.6,360.6 316,387.4 345,387 320.6,401.4 331.1,429.7 308.6,410.1 286.2,429.7 296.7,401.4 
		272.3,387 301.3,387.4 	"/>
	<polygon class="st1" points="463.5,360.6 470.9,387.4 499.9,387 475.4,401.4 486,429.7 463.5,410.1 441,429.7 451.6,401.4 
		427.1,387 456.1,387.4 	"/>
	<polygon class="st1" points="618.3,360.6 625.7,387.4 654.7,387 630.3,401.4 640.8,429.7 618.3,410.1 595.9,429.7 606.4,401.4 
		582,387 611,387.4 	"/>
	<polygon class="st1" points="773.2,360.6 780.6,387.4 809.6,387 785.1,401.4 795.7,429.7 773.2,410.1 750.7,429.7 761.3,401.4 
		736.8,387 765.8,387.4 	"/>
	<polygon class="st1" points="76.4,558.1 83.7,584.9 112.7,584.5 88.3,599 98.8,627.3 76.4,607.6 53.9,627.3 64.4,599 40,584.5 
		69,584.9 	"/>
	<polygon class="st1" points="231.2,558.1 238.6,584.9 267.6,584.5 243.1,599 253.7,627.3 231.2,607.6 208.7,627.3 219.3,599 
		194.8,584.5 223.8,584.9 	"/>
	<polygon class="st1" points="386.1,558.1 393.4,584.9 422.4,584.5 398,599 408.5,627.3 386.1,607.6 363.6,627.3 374.1,599 
		349.7,584.5 378.7,584.9 	"/>
	<polygon class="st1" points="540.9,558.1 548.3,584.9 577.3,584.5 552.8,599 563.4,627.3 540.9,607.6 518.4,627.3 529,599 
		504.5,584.5 533.5,584.9 	"/>
	<polygon class="st1" points="695.8,558.1 703.1,584.9 732.1,584.5 707.7,599 718.2,627.3 695.8,607.6 673.3,627.3 683.8,599 
		659.4,584.5 688.4,584.9 	"/>
	<polygon class="st1" points="850.6,558.1 858,584.9 887,584.5 862.5,599 873.1,627.3 850.6,607.6 828.1,627.3 838.7,599 
		814.2,584.5 843.2,584.9 	"/>
	<polygon class="st1" points="153.8,493.9 161.2,520.8 190.2,520.3 165.7,534.8 176.3,563.1 153.8,543.4 131.3,563.1 141.9,534.8 
		117.4,520.3 146.4,520.8 	"/>
	<polygon class="st1" points="308.6,493.9 316,520.8 345,520.3 320.6,534.8 331.1,563.1 308.6,543.4 286.2,563.1 296.7,534.8 
		272.3,520.3 301.3,520.8 	"/>
	<polygon class="st1" points="463.5,493.9 470.9,520.8 499.9,520.3 475.4,534.8 486,563.1 463.5,543.4 441,563.1 451.6,534.8 
		427.1,520.3 456.1,520.8 	"/>
	<polygon class="st1" points="618.3,493.9 625.7,520.8 654.7,520.3 630.3,534.8 640.8,563.1 618.3,543.4 595.9,563.1 606.4,534.8 
		582,520.3 611,520.8 	"/>
	<polygon class="st1" points="773.2,493.9 780.6,520.8 809.6,520.3 785.1,534.8 795.7,563.1 773.2,543.4 750.7,563.1 761.3,534.8 
		736.8,520.3 765.8,520.8 	"/>
	<rect x="927" class="st2" width="1391" height="93.7"/>
	<rect x="927" y="93.7" class="st1" width="1391" height="93.7"/>
	<rect x="927" y="187.4" class="st2" width="1391" height="93.7"/>
	<rect x="927" y="281.1" class="st1" width="1391" height="93.7"/>
	<rect x="927" y="374.8" class="st2" width="1391" height="93.7"/>
	<rect x="927" y="468.5" class="st1" width="1391" height="93.7"/>
	<rect x="927" y="562.2" class="st2" width="1391" height="93.7"/>
	<rect y="655.9" class="st1" width="2318" height="93.7"/>
	<rect y="749.6" class="st2" width="2318" height="93.7"/>
	<rect y="843.3" class="st1" width="2318" height="93.7"/>
	<rect y="937" class="st2" width="2318" height="93.7"/>
	<rect y="1030.7" class="st1" width="2318" height="93.7"/>
	<rect y="1124.4" class="st2" width="2318" height="93.7"/>
</g>
</svg>
