<?xml version="1.0" encoding="utf-8"?>
<!-- Generator: Adobe Illustrator 22.0.0, SVG Export Plug-In . SVG Version: 6.00 Build 0)  -->
<svg version="1.1" xmlns="http://www.w3.org/2000/svg" xmlns:xlink="http://www.w3.org/1999/xlink" x="0px" y="0px"
	 viewBox="0 0 118 111" style="enable-background:new 0 0 118 111;" xml:space="preserve">
<style type="text/css">
	.st0{fill:#0A1A5C;}
	.st1{fill:#F37021;}
	.st2{fill:#CCCCCC;}
	.st3{fill:#FFD4A6;}
	.st4{fill:#9DA3BE;}
	.st5{fill:#FF0000;}
	.st6{fill:#00FF00;}
	.st7{display:none;fill:#E5E5E5;}
	.st8{fill:none;stroke:#0A1A5C;stroke-width:5.0184;stroke-linecap:round;stroke-linejoin:round;stroke-miterlimit:10;}
	.st9{fill:#0A195C;}
	.st10{fill:#FFFFFF;}
	.st11{fill:none;stroke:#FFFFFF;stroke-width:1.0163;stroke-linecap:round;stroke-linejoin:round;stroke-miterlimit:10;}
	.st12{fill:#F26F21;}
	.st13{display:none;}
	.st14{display:inline;fill:#012169;}
	.st15{display:inline;}
	.st16{fill:#C8102E;}
	.st17{display:inline;fill-rule:evenodd;clip-rule:evenodd;fill:#E21936;}
	.st18{display:inline;fill-rule:evenodd;clip-rule:evenodd;fill:#FFD200;}
	.st19{display:inline;fill:#0A1A5C;}
	.st20{display:inline;fill:#0A1A5C;stroke:#000000;stroke-width:2.020941e-02;stroke-miterlimit:10;}
	
		.st21{display:inline;fill:none;stroke:#0A1A5C;stroke-width:1.1266;stroke-linecap:round;stroke-linejoin:round;stroke-miterlimit:10;}
	.st22{fill:none;stroke:#F37021;stroke-width:4;stroke-miterlimit:10;}
	.st23{fill:none;stroke:#CCCCCC;stroke-miterlimit:10;}
	.st24{fill:none;stroke:#E6E6E6;stroke-width:1.2119;stroke-miterlimit:10;}
	.st25{fill:#999999;}
	.st26{fill:#CCCCCC;stroke:#CCCCCC;stroke-width:1.0208;stroke-miterlimit:10;}
	.st27{fill:#FFFFFF;stroke:#999999;stroke-width:0.5832;stroke-miterlimit:10;}
	.st28{fill:none;stroke:#FFFFFF;stroke-width:0.7732;stroke-linecap:round;stroke-linejoin:round;stroke-miterlimit:10;}
	.st29{fill-rule:evenodd;clip-rule:evenodd;fill:#FFFFFF;}
	.st30{fill:#FFFFFF;stroke:#FFFFFF;stroke-miterlimit:10;}
	.st31{fill:#FFFFFF;stroke:#FFFFFF;stroke-width:0.3262;stroke-miterlimit:10;}
	.st32{fill-rule:evenodd;clip-rule:evenodd;fill:#0A1A5C;}
	.st33{fill:#FFFFFE;}
	.st34{fill:none;stroke:#CCCCCC;stroke-width:0.8657;stroke-miterlimit:10;}
	.st35{fill:#FFFFFF;stroke:#CCCCCC;stroke-width:0.9555;stroke-miterlimit:10;}
	.st36{fill:none;stroke:#CCCCCC;stroke-width:0.8423;stroke-miterlimit:10;}
	.st37{fill:#999999;stroke:#CCCCCC;stroke-width:0.5866;stroke-miterlimit:10;}
	.st38{fill:#CCCCCC;stroke:#CCCCCC;stroke-width:0.9555;stroke-miterlimit:10;}
	.st39{fill:#FFFFFF;stroke:#CCCCCC;stroke-width:1.0208;stroke-miterlimit:10;}
	.st40{fill-rule:evenodd;clip-rule:evenodd;}
	.st41{fill:#FFFFFF;stroke:#FFFFFF;stroke-width:0.7732;stroke-linecap:round;stroke-linejoin:round;stroke-miterlimit:10;}
	.st42{opacity:0.6;}
	.st43{fill:none;}
	.st44{opacity:0.2;}
	.st45{fill:#FFFFFF;stroke:#FFFFFF;stroke-width:0.8783;stroke-miterlimit:10;}
	.st46{fill:#FFFFFF;stroke:#FFFFFF;stroke-width:0.8713;stroke-miterlimit:10;}
	.st47{fill:none;stroke:#B3B3B3;stroke-width:1.1187;stroke-miterlimit:10;}
	.st48{fill:#0A1A5C;stroke:#CCCCCC;stroke-width:0.6643;stroke-miterlimit:10;}
	.st49{fill:#0A1A5C;stroke:#CCCCCC;stroke-width:0.7299;stroke-miterlimit:10;}
	.st50{fill:none;stroke:#CCCCCC;stroke-width:0.7297;stroke-miterlimit:10;}
	.st51{fill:none;stroke:#FFFFFF;stroke-width:0.8301;stroke-miterlimit:10;}
	.st52{fill:#FFFFFF;stroke:#FFFFFF;stroke-width:0.8301;stroke-linecap:round;stroke-linejoin:round;stroke-miterlimit:10;}
	.st53{fill:#FFFFFF;stroke:#CCCCCC;stroke-width:0.7857;stroke-miterlimit:10;}
	.st54{fill:#FFFFFF;stroke:#CCCCCC;stroke-width:0.8632;stroke-miterlimit:10;}
	.st55{fill:#FFFFFF;stroke:#CCCCCC;stroke-width:0.6117;stroke-miterlimit:10;}
	.st56{fill:#F9F9F9;stroke:#CCCCCC;stroke-width:0.7857;stroke-miterlimit:10;}
	.st57{display:none;fill:#0A1A5C;}
	.st58{display:inline;fill:#FFFFFF;}
	.st59{fill:#0A1A5C;stroke:#CCCCCC;stroke-width:0.7857;stroke-miterlimit:10;}
	.st60{opacity:0.4;fill:#0A1A5C;stroke:#CCCCCC;stroke-width:0.8632;stroke-miterlimit:10;}
	.st61{opacity:0.4;fill:#0A1A5C;stroke:#CCCCCC;stroke-width:0.6117;stroke-miterlimit:10;}
	.st62{fill:#AAAAAA;}
	.st63{fill:#E2E2E2;}
	.st64{fill:#565656;}
	.st65{fill:#E6E6E6;}
	.st66{fill:none;stroke:#000000;stroke-width:0.7732;stroke-miterlimit:10;}
	.st67{stroke:#000000;stroke-width:0.7732;stroke-linecap:round;stroke-linejoin:round;stroke-miterlimit:10;}
	.st68{fill:#9DA3BE;stroke:#FFFFFF;stroke-miterlimit:10;}
	.st69{fill-rule:evenodd;clip-rule:evenodd;fill:#F37021;}
	.st70{fill:#FFFFFF;stroke:#000000;stroke-width:0.75;stroke-miterlimit:10;}
	.st71{fill:#FFFFFF;stroke:#000000;stroke-miterlimit:10;}
	.st72{fill:#9DA3BE;stroke:#FFFFFF;stroke-width:0.75;stroke-miterlimit:10;}
	.st73{fill:#FFD4A6;stroke:#FFFFFF;stroke-width:0.75;stroke-miterlimit:10;}
	.st74{fill:#FFFFFF;stroke:#FFFFFF;stroke-width:0.75;stroke-miterlimit:10;}
	.st75{fill:none;stroke:#999999;stroke-width:10;stroke-linecap:round;stroke-linejoin:round;stroke-miterlimit:10;}
	.st76{fill:#FFFFFF;stroke:#999999;stroke-miterlimit:10;}
	.st77{fill:none;stroke:#FFFFFF;stroke-width:0.9862;stroke-miterlimit:10;}
	.st78{opacity:0.1;}
	.st79{fill:none;stroke:#B3B3B3;stroke-width:10;stroke-linecap:round;stroke-miterlimit:10;}
	.st80{fill:none;stroke:#E6E6E6;stroke-width:1.239;stroke-miterlimit:10;}
	.st81{fill:none;stroke:#B3B3B3;stroke-width:1.2222;stroke-miterlimit:10;}
	.st82{fill:none;stroke:#000000;stroke-width:2;stroke-miterlimit:10;}
	.st83{fill:none;stroke:#FFFFFF;stroke-width:3;stroke-linecap:round;stroke-linejoin:round;stroke-miterlimit:10;}
	.st84{fill:none;stroke:#FFFFFF;stroke-width:3;stroke-miterlimit:10;}
	.st85{fill:#FFFFFF;stroke:#FFFFFF;stroke-width:3;stroke-linecap:round;stroke-linejoin:round;stroke-miterlimit:10;}
	.st86{fill:none;stroke:#000000;stroke-width:3;stroke-miterlimit:10;}
	.st87{stroke:#000000;stroke-width:3;stroke-linecap:round;stroke-linejoin:round;stroke-miterlimit:10;}
	.st88{fill:#D8D8D8;}
</style>
<g id="Color">
</g>
<g id="PROJECT_DETAIL">
</g>
<g id="MODULE_DETAIL_1_">
</g>
<g id="MENU_DETAIL">
</g>
<g id="WEB_1">
	<g id="body">
		<g id="dự_án">
		</g>
	</g>
	<g id="header">
	</g>
</g>
<g id="WEB_Ver_2">
	<g id="WEB_2">
		<g id="Header">
			<g id="logo">
			</g>
		</g>
		<g id="Body">
			<g id="thanh_menu">
			</g>
			<g>
				<path class="st10" d="M97.1,37c-0.1-1.2-0.2-2.4-0.4-3.5c0-0.3,0-0.5-0.1-0.8c0-0.1,0-0.1-0.1-0.2C96.9,34,97,35.5,97.1,37z"/>
				<path class="st10" d="M46.1,5.5c0.3-0.1,0.7-0.2,1-0.3C46.8,5.3,46.4,5.4,46.1,5.5z"/>
				<path class="st10" d="M84.6,11.9c-0.3-0.3-0.6-0.5-0.9-0.8c-0.8-0.7-1.6-1.5-2.5-2.1c0,0,0,0,0,0C82.3,9.9,83.4,10.9,84.6,11.9z
					"/>
				<path class="st10" d="M93.4,23.6c-0.3-0.7-0.6-1.3-1-2c-0.3-0.5-0.5-1-0.7-1.4c-0.2-0.3-0.4-0.5-0.5-0.7
					C92.1,20.8,92.8,22.2,93.4,23.6z"/>
				<path class="st10" d="M24,34.1c0.1-0.6,0.1-1.2,0.2-1.7C24,32.9,24,33.5,24,34.1z"/>
				<path class="st10" d="M25.4,27.9c0.3-0.8,0.4-1.7,0.7-2.4C25.9,26.3,25.7,27.1,25.4,27.9z"/>
				<path class="st10" d="M28.5,21.1c0.4-0.6,0.6-1.3,1-1.9C29.1,19.8,28.9,20.5,28.5,21.1z"/>
				<path class="st10" d="M34,13.7c-0.1,0.1-0.1,0.1-0.2,0.2C33.9,13.8,34,13.7,34,13.7C34,13.7,34,13.7,34,13.7z"/>
				<path class="st10" d="M95.8,30c-0.1-0.3-0.1-0.5-0.2-0.7c-0.3-1.2-0.6-2.3-1.1-3.4c0,0,0-0.1-0.1-0.1C95,27.1,95.4,28.6,95.8,30
					z"/>
				<path class="st10" d="M77.6,7.1c-0.5-0.2-0.9-0.5-1.4-0.8c-0.5-0.2-0.9-0.5-1.3-0.7c0,0,0,0,0,0C75.8,6,76.7,6.6,77.6,7.1z"/>
				<path class="st10" d="M25.2,50.2c0-0.1,0-0.1-0.1-0.2C25.1,50.1,25.2,50.2,25.2,50.2z"/>
				<path class="st10" d="M96,50.1c0,0.1-0.1,0.3-0.1,0.4C95.9,50.4,96,50.3,96,50.1z"/>
				<path class="st10" d="M90.2,18.1c0.3,0.4,0.6,0.7,0.8,1.1C90.8,18.9,90.5,18.5,90.2,18.1z"/>
				<path class="st10" d="M81.1,9c-1.1-0.8-2.3-1.3-3.5-2c-0.9-0.5-1.7-1.1-2.7-1.5c-4.4-1.9-9.3-3-14.5-3c-4.6,0-9.1,0.9-13.3,2.5
					c-0.3,0.1-0.7,0.2-1,0.3c-4.5,1.9-8.6,4.6-12.1,8.2c-0.1,0.1-0.1,0.1-0.2,0.2c-1.6,1.7-3.1,3.4-4.3,5.3c-0.4,0.6-0.7,1.3-1,1.9
					c-0.8,1.4-1.7,2.9-2.3,4.4c-0.3,0.8-0.5,1.6-0.7,2.4c-0.5,1.5-1,2.9-1.3,4.5C24,32.9,24,33.5,24,34.1c-0.3,1.8-0.5,3.6-0.5,5.5
					c0.1,13.4,10.2,32,18.6,45.2c4.9,7.8,9.7,14.3,12.8,18.5c3.6,4.8,5.9,7.5,6.1,7.6c0.4-0.5,9.5-11.7,18.4-25.9
					c8.4-13.3,18.3-32,18-45.4c0-0.9-0.2-1.7-0.3-2.6c-0.1-1.5-0.2-3.1-0.5-4.5c-0.2-0.9-0.5-1.6-0.7-2.5c-0.4-1.5-0.8-2.9-1.4-4.3
					c-0.3-0.7-0.7-1.4-1-2.1c-0.7-1.4-1.4-2.8-2.2-4.1c-0.4-0.6-0.9-1.2-1.3-1.8c-1.1-1.4-2.1-2.9-3.4-4.1c-0.6-0.6-1.3-1.1-2-1.7
					C83.4,10.9,82.3,9.9,81.1,9z M60.4,59.4c-11,0-19.8-8.9-19.8-19.8c0-11,8.9-19.8,19.8-19.8c11,0,19.8,8.9,19.8,19.8
					C80.3,50.5,71.4,59.4,60.4,59.4z"/>
				<path class="st10" d="M34.2,13.5c0.1-0.1,0.2-0.2,0.3-0.2C34.4,13.3,34.3,13.4,34.2,13.5z"/>
				<path class="st10" d="M97.4,39.6c0.1,3.2-0.4,6.8-1.4,10.5C97,46.2,97.5,42.7,97.4,39.6c0-2.1-0.3-4.1-0.7-6.1
					c0.2,1.2,0.3,2.3,0.4,3.5C97.2,37.9,97.4,38.7,97.4,39.6z"/>
				<path class="st10" d="M24,34.1c0.1-0.6,0.1-1.1,0.2-1.7c0.3-1.5,0.8-3,1.3-4.5c0.3-0.8,0.4-1.7,0.7-2.4c0.6-1.5,1.5-3,2.3-4.4
					c0.4-0.6,0.6-1.3,1-1.9c1.3-1.9,2.7-3.7,4.3-5.3c0.1-0.1,0.1-0.1,0.2-0.2c0,0,0,0,0,0c0.1-0.1,0.1-0.1,0.2-0.2
					c-0.1,0.1-0.1,0.1-0.2,0.2c-3.4,3.4-6,7.3-7.8,11.7c-1.9,4.5-2.8,9.3-2.8,14.3c0,3.1,0.6,6.6,1.7,10.5c-1-3.7-1.6-7.2-1.7-10.5
					C23.4,37.7,23.7,35.9,24,34.1z"/>
				<path class="st10" d="M96.6,32.7c0.1,0.3,0,0.5,0.1,0.8C96.7,33.2,96.7,33,96.6,32.7z"/>
				<path class="st10" d="M61,111c-0.5,0-28.5-34.8-35.8-60.7c1,3.5,2.3,7.3,4.2,11.4c3.1,7,7.4,14.9,12.8,23.3
					c4.9,7.8,9.7,14.4,12.8,18.5C58.3,108,60.8,111,61,111L61,111L61,111c0.1-0.1,9.4-11.5,18.4-25.9C84.8,76.6,89,68.8,92,61.8
					c1.7-4,3-7.8,3.9-11.2C89,76.6,61,111,61,111z"/>
				<path class="st10" d="M81.1,9.1c0.9,0.6,1.7,1.4,2.5,2.1C82.8,10.4,82,9.7,81.1,9.1z"/>
				<path class="st10" d="M74.9,5.6c0.5,0.2,0.9,0.5,1.3,0.7C75.8,6.1,75.4,5.8,74.9,5.6z"/>
				<path class="st10" d="M91.7,20.3c0.3,0.4,0.5,0.9,0.7,1.4C92.2,21.2,92,20.7,91.7,20.3z"/>
				<path class="st10" d="M94.5,25.8c0.5,1.1,0.7,2.3,1.1,3.4C95.3,28.1,95,26.9,94.5,25.8z"/>
				<path class="st10" d="M88.1,15.2c0.7,0.8,1.2,1.7,1.8,2.5c0.1,0.1,0.2,0.3,0.3,0.4C89.5,17.2,88.9,16.1,88.1,15.2z"/>
				<path class="st10" d="M47.1,5.2c4.2-1.6,8.6-2.6,13.3-2.6c5.1,0,9.9,1,14.3,2.9c-4.5-1.9-9.3-2.9-14.3-2.9c-5,0-9.9,1-14.6,3
					c-4.3,1.8-8.1,4.4-11.4,7.7c3.3-3.2,7.2-5.9,11.6-7.7C46.4,5.4,46.8,5.3,47.1,5.2z"/>
				<path class="st10" d="M94.5,25.7c0,0,0,0.1,0.1,0.1c-0.1-0.2-0.1-0.4-0.2-0.6c-0.5-1.2-1.2-2.4-1.9-3.5c0.4,0.6,0.6,1.3,1,2
					C93.8,24.3,94.2,25,94.5,25.7z"/>
				<path class="st10" d="M81.1,9C81.1,9.1,81.1,9.1,81.1,9c-1.5-1.1-3.2-1.9-4.9-2.7c0.5,0.2,0.9,0.5,1.4,0.8
					C78.8,7.7,80,8.3,81.1,9z"/>
				<path class="st10" d="M96.6,32.5c0,0.1,0,0.1,0.1,0.2c-0.2-1.2-0.7-2.3-1-3.4c0.1,0.2,0.1,0.5,0.2,0.7
					C96.1,30.9,96.4,31.6,96.6,32.5z"/>
				<path class="st10" d="M74.9,5.6c-0.1,0-0.1-0.1-0.2-0.1C74.8,5.6,74.9,5.6,74.9,5.6C74.9,5.6,74.9,5.6,74.9,5.6z"/>
				<path class="st10" d="M91.7,20.3c-0.2-0.3-0.5-0.7-0.7-1c0.1,0.1,0.1,0.2,0.2,0.3C91.4,19.8,91.6,20,91.7,20.3z"/>
				<path class="st10" d="M86.5,13.6c0.1,0.1,0.2,0.2,0.3,0.3c-0.1-0.1-0.3-0.3-0.4-0.4c-0.9-0.9-1.9-1.5-2.8-2.3
					c0.3,0.3,0.6,0.5,0.9,0.8C85.2,12.5,85.9,13,86.5,13.6z"/>
				<path class="st10" d="M84.6,11.9c0.6,0.6,1.4,1.1,2,1.7C85.9,13,85.2,12.5,84.6,11.9z"/>
				<path class="st10" d="M91.1,19.2c-0.3-0.4-0.6-0.7-0.8-1.1c-0.1-0.1-0.2-0.3-0.3-0.4c0.4,0.6,0.9,1.2,1.3,1.8
					C91.2,19.4,91.1,19.3,91.1,19.2z"/>
				<path class="st10" d="M94.5,25.7c-0.3-0.7-0.7-1.4-1-2.1C93.8,24.3,94.2,25,94.5,25.7z"/>
				<path class="st10" d="M95.9,50.5c0-0.1,0.1-0.3,0.1-0.4c1-3.7,1.5-7.3,1.4-10.5c0-0.9-0.2-1.7-0.3-2.6c0.1,0.9,0.3,1.7,0.3,2.6
					c0.3,13.5-9.6,32.1-18,45.4c-8.9,14.2-18,25.4-18.4,25.9c-0.2-0.1-2.5-2.8-6.1-7.6c-3.1-4.1-7.9-10.7-12.8-18.5
					C33.7,71.6,23.6,53,23.5,39.6c0-1.9,0.2-3.7,0.5-5.5c-0.3,1.8-0.5,3.6-0.5,5.5c0,3.2,0.6,6.7,1.7,10.5c0,0.1,0,0.1,0.1,0.2
					C32.5,76.2,60.5,111,61,111C61,111,89,76.6,95.9,50.5z"/>
				<path class="st10" d="M26.2,25.5c0.6-1.5,1.5-3,2.3-4.4C27.7,22.5,26.8,23.9,26.2,25.5z"/>
				<path class="st10" d="M46.1,5.5c-4.4,1.8-8.3,4.5-11.6,7.7c-0.1,0.1-0.2,0.2-0.3,0.2c-0.1,0.1-0.1,0.1-0.2,0.2
					C37.5,10.1,41.6,7.4,46.1,5.5z"/>
				<path class="st10" d="M29.5,19.2c1.3-1.9,2.7-3.7,4.3-5.3C32.3,15.5,30.8,17.3,29.5,19.2z"/>
				<path class="st10" d="M96.6,32.5c-0.2-0.9-0.5-1.6-0.7-2.5C96.1,30.9,96.4,31.6,96.6,32.5z"/>
				<path class="st10" d="M77.6,7.1c1.2,0.6,2.4,1.2,3.5,2C80,8.3,78.8,7.7,77.6,7.1z"/>
				<path class="st10" d="M47.1,5.2c4.2-1.6,8.7-2.5,13.3-2.5c5.2,0,10,1.1,14.5,3c-0.1,0-0.1-0.1-0.1-0.1c0,0,0,0,0,0
					c-4.4-1.9-9.2-2.9-14.3-2.9C55.7,2.6,51.2,3.6,47.1,5.2z"/>
				<path class="st10" d="M24.1,32.4c0.3-1.5,0.8-3,1.3-4.5C24.9,29.4,24.4,30.8,24.1,32.4z"/>
			</g>
		</g>
		<g id="Table">
		</g>
	</g>
	<g id="PROJECT_HÌNH_ẢNH">
	</g>
</g>
<g id="TABLE_DETAIL">
</g>
<g id="icon_đèn">
</g>
<g id="ICON_CLOSE_WHITE">
</g>
<g id="ICON_SƠ_ĐỒ">
</g>
<g id="ICON_SOLAR">
</g>
<g id="ICON_GRID">
</g>
<g id="ICON_WIND">
</g>
<g id="ICON_BATTERY">
</g>
<g id="ICON_LOAD">
</g>
<g id="SOLAR_BLACK">
</g>
<g id="GRID_BLACK">
</g>
<g id="WIND_BLACK">
</g>
<g id="BATTERY_BLACK">
</g>
<g id="LOAD_BLACK">
</g>
<g id="ICON">
</g>
</svg>
