<?xml version="1.0" encoding="utf-8"?>
<!-- Generator: Adobe Illustrator 22.0.0, SVG Export Plug-In . SVG Version: 6.00 Build 0)  -->
<svg version="1.1" id="Layer_1" xmlns="http://www.w3.org/2000/svg" xmlns:xlink="http://www.w3.org/1999/xlink" x="0px" y="0px"
	 viewBox="0 0 1179.2 1240" style="enable-background:new 0 0 1179.2 1240;" xml:space="preserve">
<style type="text/css">
	.st0{fill:#FFFFFF;}
</style>
<g>
	<g>
		<path class="st0" d="M589.6,613.2c-81.9,0-158.9-31.9-216.8-89.8C314.9,465.5,283,388.5,283,306.6c0-81.9,31.9-158.9,89.8-216.8
			C430.7,31.9,507.7,0,589.6,0c81.9,0,158.9,31.9,216.8,89.8s89.8,134.9,89.8,216.8c0,81.9-31.9,158.9-89.8,216.8
			C748.5,581.3,671.5,613.2,589.6,613.2z M589.6,40C442.6,40,323,159.6,323,306.6c0,147,119.6,266.6,266.6,266.6
			s266.6-119.6,266.6-266.6C856.2,159.6,736.6,40,589.6,40z"/>
	</g>
	<g>
		<path class="st0" d="M1159.2,1240H20c-5.6,0-10.9-2.3-14.7-6.5c-3.8-4.1-5.7-9.6-5.2-15.2c12.3-147.3,79-284,188-384.7
			c109.6-101.3,252.2-157.1,401.5-157.1c149.3,0,291.9,55.8,401.5,157.1c109,100.7,175.7,237.4,188,384.7c0.5,5.6-1.4,11.1-5.2,15.2
			C1170.1,1237.7,1164.8,1240,1159.2,1240z M42.2,1200H1137c-33.8-272.8-270.1-483.5-547.4-483.5C312.3,716.5,75.9,927.2,42.2,1200z
			"/>
	</g>
</g>
</svg>
