<?xml version="1.0" encoding="utf-8"?>
<!-- Generator: Adobe Illustrator 22.0.0, SVG Export Plug-In . SVG Version: 6.00 Build 0)  -->
<svg version="1.1" id="Layer_1" xmlns="http://www.w3.org/2000/svg" xmlns:xlink="http://www.w3.org/1999/xlink" x="0px" y="0px"
	 viewBox="0 0 512 512" style="enable-background:new 0 0 512 512;" xml:space="preserve">
<style type="text/css">
	.st0{fill:#FFFFFF;}
</style>
<path class="st0" d="M149.3,56v80c0,13.3-10.7,24-24,24H24c-13.3,0-24-10.7-24-24V56c0-13.3,10.7-24,24-24h101.3
	C138.6,32,149.3,42.7,149.3,56L149.3,56z M330.7,296v-80c0-13.3-10.7-24-24-24H205.3c-13.3,0-24,10.7-24,24v80c0,13.3,10.7,24,24,24
	h101.3C319.9,320,330.7,309.3,330.7,296z M362.7,56v80c0,13.3,10.7,24,24,24H488c13.3,0,24-10.7,24-24V56c0-13.3-10.7-24-24-24
	H386.7C373.4,32,362.7,42.7,362.7,56z M330.7,136V56c0-13.3-10.7-24-24-24H205.3c-13.3,0-24,10.7-24,24v80c0,13.3,10.7,24,24,24
	h101.3C319.9,160,330.7,149.3,330.7,136z M125.3,192H24c-13.3,0-24,10.7-24,24v80c0,13.3,10.7,24,24,24h101.3c13.3,0,24-10.7,24-24
	v-80C149.3,202.7,138.6,192,125.3,192L125.3,192z M0,376v80c0,13.3,10.7,24,24,24h101.3c13.3,0,24-10.7,24-24v-80
	c0-13.3-10.7-24-24-24H24C10.7,352,0,362.7,0,376z M386.7,320H488c13.3,0,24-10.7,24-24v-80c0-13.3-10.7-24-24-24H386.7
	c-13.3,0-24,10.7-24,24v80C362.7,309.3,373.4,320,386.7,320z M386.7,480H488c13.3,0,24-10.7,24-24v-80c0-13.3-10.7-24-24-24H386.7
	c-13.3,0-24,10.7-24,24v80C362.7,469.3,373.4,480,386.7,480z M181.3,376v80c0,13.3,10.7,24,24,24h101.3c13.3,0,24-10.7,24-24v-80
	c0-13.3-10.7-24-24-24H205.3C192.1,352,181.3,362.7,181.3,376z"/>
</svg>
