<?xml version="1.0" encoding="utf-8"?>
<!-- Generator: Adobe Illustrator 22.0.0, SVG Export Plug-In . SVG Version: 6.00 Build 0)  -->
<svg version="1.1" id="Layer_1" xmlns="http://www.w3.org/2000/svg" xmlns:xlink="http://www.w3.org/1999/xlink" x="0px" y="0px"
	 viewBox="0 0 213.7 272.7" style="enable-background:new 0 0 213.7 272.7;" xml:space="preserve">
<style type="text/css">
	.st0{fill:#9DA3BE;stroke:#000000;stroke-width:0.5;stroke-miterlimit:10;}
	.st1{fill:#0A1A5C;}
	.st2{fill:#9DA3BE;}
	.st3{fill:#FFFFFF;stroke:#000000;stroke-width:0.5;stroke-miterlimit:10;}
	.st4{fill:none;stroke:#000000;stroke-miterlimit:10;}
	.st5{fill:#9DA3BE;stroke:#000000;stroke-width:0.6594;stroke-miterlimit:10;}
	.st6{fill:#999999;stroke:#000000;stroke-width:0.25;stroke-miterlimit:10;}
	.st7{fill:#0A1A5C;stroke:#000000;stroke-width:0.5;stroke-miterlimit:10;}
	.st8{fill:none;stroke:#231F20;stroke-width:0.3388;stroke-miterlimit:10;}
	.st9{fill:#FFFFFF;stroke:#231F20;stroke-width:0.3388;stroke-miterlimit:10;}
	.st10{fill:#CCCCCC;}
	.st11{fill:#AAAAAA;stroke:#231F20;stroke-width:0.3388;stroke-miterlimit:10;}
	.st12{fill:none;stroke:#FFFFFF;stroke-width:3;stroke-miterlimit:10;}
	.st13{fill:none;}
	.st14{fill:#FFFFFF;}
	.st15{fill:none;stroke:#FFFFFF;stroke-width:5;stroke-linecap:round;stroke-miterlimit:10;}
	.st16{fill:none;stroke:#FFFFFF;stroke-width:5;stroke-linecap:round;stroke-miterlimit:10;stroke-dasharray:15.6667,15.6667;}
	.st17{fill:#0A1A5C;stroke:#000000;stroke-width:0.9737;stroke-miterlimit:10;}
	.st18{fill:#CCCCCC;stroke:#000000;stroke-width:0.5;stroke-miterlimit:10;}
	.st19{fill:#F37021;}
	.st20{fill:#9DA3BE;stroke:#000000;stroke-width:0.9737;stroke-miterlimit:10;}
	.st21{fill:none;stroke:#FFFFFF;stroke-width:2;stroke-miterlimit:10;}
	.st22{fill:#9DA3BE;stroke:#000000;stroke-width:0.4769;stroke-miterlimit:10;}
	.st23{fill:#9DA3BE;stroke:#000000;stroke-width:0.5373;stroke-miterlimit:10;}
	.st24{fill:#0A1A5C;stroke:#000000;stroke-miterlimit:10;}
	.st25{fill:#0A1A5C;stroke:#000000;stroke-width:1.3636;stroke-miterlimit:10;}
	.st26{fill:#9DA3BE;stroke:#000000;stroke-miterlimit:10;}
	.st27{fill:#0A1A5C;stroke:#000000;stroke-width:1.2821;stroke-miterlimit:10;}
	.st28{fill:#9DA3BE;stroke:#000000;stroke-width:1.122;stroke-miterlimit:10;}
	.st29{fill:none;stroke:#000000;stroke-width:7.5318;stroke-linecap:round;stroke-miterlimit:10;}
	.st30{stroke:#000000;stroke-width:6;stroke-linecap:round;stroke-miterlimit:10;}
	.st31{fill:none;stroke:#000000;stroke-width:8;stroke-linecap:round;stroke-miterlimit:10;}
	.st32{fill:none;stroke:#000000;stroke-width:6;stroke-linecap:round;stroke-miterlimit:10;}
	.st33{fill:none;stroke:#FFFFFF;stroke-width:2;stroke-linecap:round;stroke-miterlimit:10;}
	.st34{fill:none;stroke:#FFFFFF;stroke-width:0.965;stroke-linecap:round;stroke-miterlimit:10;}
	.st35{fill:none;stroke:#0A1A5C;stroke-width:3.9302;stroke-miterlimit:10;}
	.st36{opacity:0.6;fill:#0A1A5C;}
	.st37{fill:none;stroke:#000000;stroke-width:2;stroke-miterlimit:10;}
	.st38{fill:#0A1A5C;stroke:#000000;stroke-width:0.6345;stroke-miterlimit:10;}
	.st39{opacity:0.8;fill:#0A1A5C;stroke:#000000;stroke-width:0.4686;stroke-miterlimit:10;}
	.st40{opacity:0.8;fill:#0A1A5C;stroke:#000000;stroke-width:0.5411;stroke-miterlimit:10;}
	.st41{fill:#0A1A5C;stroke:#000000;stroke-width:0.4686;stroke-miterlimit:10;}
	.st42{fill:#9DA3BE;stroke:#000000;stroke-width:0.2099;stroke-miterlimit:10;}
	.st43{fill:#9DA3BE;stroke:#000000;stroke-width:0.2102;stroke-miterlimit:10;}
	.st44{fill:#9DA3BE;stroke:#000000;stroke-width:0.2719;stroke-miterlimit:10;}
	.st45{fill:#9DA3BE;stroke:#000000;stroke-width:0.2181;stroke-miterlimit:10;}
	.st46{fill:#0A195C;}
	.st47{fill:none;stroke:#FFFFFF;stroke-width:1.0163;stroke-linecap:round;stroke-linejoin:round;stroke-miterlimit:10;}
	.st48{fill:#F26F21;}
	.st49{display:none;}
	.st50{display:inline;fill:#012169;}
	.st51{display:inline;}
	.st52{fill:#C8102E;}
	.st53{display:inline;fill-rule:evenodd;clip-rule:evenodd;fill:#E21936;}
	.st54{display:inline;fill-rule:evenodd;clip-rule:evenodd;fill:#FFD200;}
	.st55{display:inline;fill:#0A1A5C;}
	.st56{display:inline;fill:#0A1A5C;stroke:#000000;stroke-width:2.020941e-02;stroke-miterlimit:10;}
	
		.st57{display:inline;fill:none;stroke:#0A1A5C;stroke-width:1.1266;stroke-linecap:round;stroke-linejoin:round;stroke-miterlimit:10;}
	.st58{fill:none;stroke:#F37021;stroke-width:4;stroke-miterlimit:10;}
	.st59{fill:none;stroke:#CCCCCC;stroke-miterlimit:10;}
	.st60{fill:none;stroke:#CCCCCC;stroke-width:0.9689;stroke-miterlimit:10;}
	.st61{fill:#FFFFFF;stroke:#CCCCCC;stroke-width:0.9555;stroke-miterlimit:10;}
	.st62{fill:none;stroke:#CCCCCC;stroke-width:0.95;stroke-miterlimit:10;}
	.st63{fill:#999999;stroke:#CCCCCC;stroke-width:0.5866;stroke-miterlimit:10;}
	.st64{fill:#CCCCCC;stroke:#CCCCCC;stroke-width:0.9555;stroke-miterlimit:10;}
	.st65{fill-rule:evenodd;clip-rule:evenodd;fill:#FFFFFF;}
	.st66{fill:#FFFFFF;stroke:#FFFFFF;stroke-miterlimit:10;}
	.st67{fill:#FFFFFF;stroke:#FFFFFF;stroke-width:0.3262;stroke-miterlimit:10;}
	.st68{fill-rule:evenodd;clip-rule:evenodd;fill:#0A1A5C;}
	.st69{fill:#FFFFFE;}
	.st70{fill:#AAAAAA;}
	.st71{fill:#E2E2E2;}
	.st72{fill:#565656;}
	.st73{opacity:0.8;fill:#0A1A5C;}
	.st74{fill:#FFFFFF;stroke:#0A1A5C;stroke-width:1.7731;stroke-miterlimit:10;}
	.st75{fill:#9DA3BE;stroke:#000000;stroke-width:0.1894;stroke-miterlimit:10;}
	.st76{fill:#FFFFFF;stroke:#000000;stroke-width:0.1894;stroke-miterlimit:10;}
	.st77{fill:none;stroke:#000000;stroke-width:0.3787;stroke-miterlimit:10;}
	.st78{fill:#9DA3BE;stroke:#000000;stroke-width:0.2497;stroke-miterlimit:10;}
	.st79{fill:#999999;stroke:#000000;stroke-width:9.467980e-02;stroke-miterlimit:10;}
	.st80{fill:#00FF00;}
	.st81{fill:#FFFFFF;stroke:#000000;stroke-width:0.8866;stroke-miterlimit:10;}
	.st82{fill:#9DA3BE;stroke:#000000;stroke-width:0.5055;stroke-miterlimit:10;}
	.st83{fill:none;stroke:#FFFFFF;stroke-width:1.0383;stroke-miterlimit:10;}
	.st84{fill:#9DA3BE;stroke:#000000;stroke-width:0.2475;stroke-miterlimit:10;}
	.st85{fill:#9DA3BE;stroke:#000000;stroke-width:0.2789;stroke-miterlimit:10;}
	.st86{fill:#CCCCCC;stroke:#0A1A5C;stroke-width:1.7731;stroke-miterlimit:10;}
	.st87{fill:none;stroke:#000000;stroke-width:0.3971;stroke-miterlimit:10;}
	.st88{fill:#0A1A5C;stroke:#000000;stroke-width:0.3971;stroke-miterlimit:10;}
	.st89{fill:#0A1A5C;stroke:#000000;stroke-width:0.5415;stroke-miterlimit:10;}
	.st90{fill:#9DA3BE;stroke:#000000;stroke-width:0.3971;stroke-miterlimit:10;}
	.st91{fill:#0A1A5C;stroke:#000000;stroke-width:0.5217;stroke-miterlimit:10;}
	.st92{fill:#9DA3BE;stroke:#000000;stroke-width:0.4566;stroke-miterlimit:10;}
	.st93{fill:none;stroke:#000000;stroke-width:3.0646;stroke-linecap:round;stroke-miterlimit:10;}
	.st94{stroke:#000000;stroke-width:2.4414;stroke-linecap:round;stroke-miterlimit:10;}
	.st95{fill:none;stroke:#000000;stroke-width:3.2552;stroke-linecap:round;stroke-miterlimit:10;}
	.st96{fill:none;stroke:#000000;stroke-width:2.4414;stroke-linecap:round;stroke-miterlimit:10;}
	.st97{fill:none;stroke:#FFFFFF;stroke-width:0.8138;stroke-linecap:round;stroke-miterlimit:10;}
	.st98{fill:none;stroke:#FFFFFF;stroke-width:0.3926;stroke-linecap:round;stroke-miterlimit:10;}
	.st99{fill:none;stroke:#0A1A5C;stroke-width:1.5925;stroke-miterlimit:10;}
	.st100{fill:#9DA3BE;stroke:#000000;stroke-width:0.4052;stroke-miterlimit:10;}
	.st101{fill:none;stroke:#000000;stroke-width:0.8104;stroke-miterlimit:10;}
	.st102{fill:#0A1A5C;stroke:#000000;stroke-width:0.2571;stroke-miterlimit:10;}
	.st103{opacity:0.8;fill:#0A1A5C;stroke:#000000;stroke-width:0.1899;stroke-miterlimit:10;}
	.st104{opacity:0.8;fill:#0A1A5C;stroke:#000000;stroke-width:0.2192;stroke-miterlimit:10;}
	.st105{fill:#0A1A5C;stroke:#000000;stroke-width:0.1899;stroke-miterlimit:10;}
	.st106{fill:#9DA3BE;stroke:#000000;stroke-width:8.506256e-02;stroke-miterlimit:10;}
	.st107{fill:#9DA3BE;stroke:#000000;stroke-width:8.517154e-02;stroke-miterlimit:10;}
	.st108{fill:#9DA3BE;stroke:#000000;stroke-width:0.1102;stroke-miterlimit:10;}
	.st109{fill:#9DA3BE;stroke:#000000;stroke-width:8.838669e-02;stroke-miterlimit:10;}
	.st110{fill:#0A1A5C;stroke:#000000;stroke-width:0.1836;stroke-miterlimit:10;}
	.st111{fill:none;stroke:#231F20;stroke-width:0.1244;stroke-miterlimit:10;}
	.st112{fill:#FFFFFF;stroke:#231F20;stroke-width:0.1244;stroke-miterlimit:10;}
	.st113{fill:#AAAAAA;stroke:#231F20;stroke-width:0.1244;stroke-miterlimit:10;}
	.st114{fill:#0A1A5C;stroke:#000000;stroke-width:0.1861;stroke-miterlimit:10;}
	.st115{fill:none;stroke:#FFFFFF;stroke-width:1.1168;stroke-miterlimit:10;}
	.st116{fill:#9DA3BE;stroke:#000000;stroke-width:0.1861;stroke-miterlimit:10;}
	.st117{fill:none;stroke:#FFFFFF;stroke-width:1.8613;stroke-linecap:round;stroke-miterlimit:10;}
	.st118{fill:none;stroke:#FFFFFF;stroke-width:1.8613;stroke-linecap:round;stroke-miterlimit:10;stroke-dasharray:5.4518,5.4518;}
	.st119{fill:#0A1A5C;stroke:#000000;stroke-width:0.3925;stroke-miterlimit:10;}
	.st120{fill:#CCCCCC;stroke:#000000;stroke-width:0.2015;stroke-miterlimit:10;}
	.st121{fill:none;stroke:#0A1A5C;stroke-width:7;stroke-linecap:round;stroke-linejoin:round;stroke-miterlimit:10;}
	.st122{fill:#FFFFFF;stroke:#CCCCCC;stroke-width:1.0208;stroke-miterlimit:10;}
	.st123{fill:#FFFFFF;stroke:#0A1A5C;stroke-width:2;stroke-miterlimit:10;}
	.st124{fill:#0A1A5C;stroke:#000000;stroke-width:0.1154;stroke-miterlimit:10;}
	.st125{fill:none;stroke:#231F20;stroke-width:7.817870e-02;stroke-miterlimit:10;}
	.st126{fill:#FFFFFF;stroke:#231F20;stroke-width:7.817870e-02;stroke-miterlimit:10;}
	.st127{fill:#AAAAAA;stroke:#231F20;stroke-width:7.817870e-02;stroke-miterlimit:10;}
	.st128{fill:none;stroke:#CCCCCC;stroke-width:0.6948;stroke-miterlimit:10;}
	.st129{fill:#999999;}
	.st130{fill:#FFFFFF;stroke:#B3B3B3;stroke-width:2;stroke-miterlimit:10;}
	.st131{fill:none;stroke:#FFFFFF;stroke-width:0.7732;stroke-linecap:round;stroke-linejoin:round;stroke-miterlimit:10;}
	.st132{fill:#0A1A5C;stroke:#0A1A5C;stroke-width:0.8422;stroke-miterlimit:10;}
	.st133{fill:none;stroke:#0A1A5C;stroke-width:0.8422;stroke-miterlimit:10;}
	.st134{fill:#FFFFFF;stroke:#0A1A5C;stroke-width:0.8422;stroke-miterlimit:10;}
</style>
<rect x="10.5" y="145.2" class="st27" width="192" height="120"/>
<rect x="20.5" y="154.2" class="st28" width="173" height="102"/>
<g>
	<line class="st29" x1="82" y1="131.7" x2="107" y2="79.7"/>
	<line class="st29" x1="132" y1="131.7" x2="107" y2="79.7"/>
</g>
<circle class="st30" cx="107" cy="74.7" r="10"/>
<path class="st31" d="M36,122.7C9.4,96.2,9.4,53.2,36,26.6"/>
<path class="st32" d="M68,104.7c-16.6-16.6-16.6-43.4,0-60"/>
<path class="st31" d="M178,122.7c26.6-26.6,26.6-69.6,0-96.2"/>
<path class="st32" d="M146,104.7c16.6-16.6,16.6-43.4,0-60"/>
<g>
	<g>
		<path class="st14" d="M54.8,181.7c-13,0-23.6,10.6-23.6,23.6c0,13,10.6,23.6,23.6,23.6c13,0,23.6-10.6,23.6-23.6
			C78.4,192.3,67.8,181.7,54.8,181.7z M52.8,190.1c0-1.1,0.9-2,2-2c1.1,0,2,0.9,2,2v11.4c0,1.1-0.9,2-2,2c-1.1,0-2-0.9-2-2V190.1z
			 M68.5,211.2c-0.7,1.8-1.8,3.4-3.2,4.7c-1.4,1.4-3,2.4-4.7,3.2c-1.8,0.8-3.8,1.2-5.8,1.2c-2,0-4-0.4-5.8-1.2
			c-1.8-0.7-3.4-1.8-4.7-3.2c-1.4-1.4-2.4-3-3.2-4.7c-0.8-1.8-1.2-3.8-1.2-5.8c0-2.7,0.7-5.3,2.1-7.6c1.3-2.2,3.2-4.1,5.4-5.3
			c1-0.6,2.2-0.2,2.8,0.8c0.6,1,0.2,2.2-0.8,2.8c-3.4,1.9-5.5,5.5-5.5,9.4c0,6,4.9,10.8,10.8,10.8c6,0,10.8-4.9,10.8-10.8
			c0-3.9-2.1-7.5-5.5-9.4c-1-0.6-1.3-1.8-0.8-2.8c0.6-1,1.8-1.3,2.8-0.8c2.2,1.3,4.1,3.1,5.4,5.3c1.4,2.3,2.1,4.9,2.1,7.6
			C69.7,207.4,69.3,209.3,68.5,211.2z"/>
		<path class="st13" d="M62.2,192.4c-1-0.6-2.2-0.2-2.8,0.8c-0.6,1-0.2,2.2,0.8,2.8c3.4,1.9,5.5,5.5,5.5,9.4c0,6-4.9,10.8-10.8,10.8
			c-6,0-10.8-4.9-10.8-10.8c0-3.9,2.1-7.5,5.5-9.4c1-0.6,1.3-1.8,0.8-2.8c-0.6-1-1.8-1.3-2.8-0.8c-2.2,1.3-4.1,3.1-5.4,5.3
			c-1.4,2.3-2.1,4.9-2.1,7.6c0,2,0.4,4,1.2,5.8c0.7,1.8,1.8,3.4,3.2,4.7c1.4,1.4,3,2.4,4.7,3.2c1.8,0.8,3.8,1.2,5.8,1.2
			c2,0,4-0.4,5.8-1.2c1.8-0.7,3.4-1.8,4.7-3.2c1.4-1.4,2.4-3,3.2-4.7c0.8-1.8,1.2-3.8,1.2-5.8c0-2.7-0.7-5.3-2.1-7.6
			C66.3,195.6,64.4,193.7,62.2,192.4z"/>
		<path class="st13" d="M54.8,203.6c1.1,0,2-0.9,2-2v-11.4c0-1.1-0.9-2-2-2c-1.1,0-2,0.9-2,2v11.4C52.8,202.7,53.7,203.6,54.8,203.6
			z"/>
	</g>
	<path class="st14" d="M180.4,183h-20.2l-10.4,10.7v31.5c0,1.3,1.1,2.4,2.4,2.4h28.2c1.3,0,2.4-1.1,2.4-2.4v-39.8
		C182.8,184.1,181.7,183,180.4,183z M172.8,185.9h2.4v9.3h-2.4V185.9z M168.1,185.9h2.4v9.3h-2.4V185.9z M163.4,185.9h2.4v9.3h-2.4
		V185.9z M158.7,189.7h2.4v5.6h-2.4V189.7z M178.4,221H154v-13.4h24.4V221z M179.8,195.2h-2.4v-9.3h2.4V195.2z"/>
	<g>
		<g>
			<path class="st33" d="M132.2,183.8H95.9c-0.9,0-1.6,0.7-1.6,1.6v39.8c0,0.9,0.7,1.6,1.6,1.6h36.3c0.9,0,1.6-0.7,1.6-1.6v-39.8
				C133.8,184.5,133.1,183.8,132.2,183.8z M128.7,219.3H99.4v-13h3.9v-8.6h4.3v-4.6h3.9v-1.8h5.2v1.8h3.9v4.6h4.3v8.6h3.9V219.3z"/>
			<polygon class="st33" points="124.8,197.7 120.5,197.7 120.5,193.1 116.6,193.1 116.6,191.3 111.5,191.3 111.5,193.1 
				107.6,193.1 107.6,197.7 103.3,197.7 103.3,206.3 99.4,206.3 99.4,219.3 128.7,219.3 128.7,206.3 124.8,206.3 			"/>
		</g>
		<g>
			<line class="st34" x1="103.3" y1="212.6" x2="103.3" y2="216.9"/>
			<line class="st34" x1="106.9" y1="212.6" x2="106.9" y2="216.9"/>
			<line class="st34" x1="110.5" y1="212.6" x2="110.5" y2="216.9"/>
			<line class="st34" x1="114.1" y1="212.6" x2="114.1" y2="216.9"/>
			<line class="st34" x1="117.6" y1="212.6" x2="117.6" y2="216.9"/>
			<line class="st34" x1="121.2" y1="212.6" x2="121.2" y2="216.9"/>
			<line class="st34" x1="124.8" y1="212.6" x2="124.8" y2="216.9"/>
		</g>
	</g>
</g>
</svg>
