<?xml version="1.0" encoding="utf-8"?>
<!-- Generator: Adobe Illustrator 22.0.0, SVG Export Plug-In . SVG Version: 6.00 Build 0)  -->
<svg version="1.1" xmlns="http://www.w3.org/2000/svg" xmlns:xlink="http://www.w3.org/1999/xlink" x="0px" y="0px"
	 viewBox="0 0 2191.1 1535.2" style="enable-background:new 0 0 2191.1 1535.2;" xml:space="preserve">
<style type="text/css">
	.st0{fill:none;}
	.st1{fill:#B5B6D1;}
</style>
<g id="Layer_1">
</g>
<g id="Layer_2">
	<g>
		<path class="st0" d="M1878.1,401.7h38.4l1.4-68.4c0.4-17.5-7.4-34.1-21.7-46.6c-14.4-12.5-33.6-19.4-54.2-19.4h-836.1
			c-49,0-93.7-21.3-119.5-56.9l-86.9-120c-13.9-19.2-38.1-30.7-64.5-30.7H139.8c-41.9,0-75.9,29.1-75.9,64.9v1208.7l296-766.4
			c18-46.7,68.8-78,126.3-78h1428.6l0-0.2h-40.6h40.6l1.8-87H1878.1z"/>
		<path class="st0" d="M2098.4,544.1H486.2c-29.6,0-55.6,16.1-64.9,40.1l-345,893.3h1702.2L2126.3,577c3-7.7,1.5-15.9-4.1-22.5
			C2116.6,547.9,2108,544.1,2098.4,544.1z"/>
		<path class="st1" d="M2174.6,522.1c-17.9-21.1-45.6-33.2-76.1-33.2h-119.1l0-0.2h-64.7l0,0.2H486.2c-57.5,0-108.3,31.4-126.3,78
			l-296,766.4V124.6c0-35.8,34.1-64.9,75.9-64.9h595.1c26.5,0,50.6,11.5,64.5,30.7l86.9,120c25.8,35.6,70.5,56.9,119.5,56.9h836.1
			c20.5,0,39.8,6.9,54.2,19.4c14.4,12.5,22.1,29.1,21.7,46.6l-1.1,54.3c-0.2,7.7,6,14.1,13.8,14.1h37.1c7.5,0,13.6-6,13.8-13.5
			l1.1-53.9c0.7-32.5-13.6-63.1-40.3-86.3c-26.6-23.2-62.3-35.9-100.3-35.9h-836.1c-26.5,0-50.6-11.5-64.5-30.7l-86.9-120
			C828.6,25.8,783.9,4.5,734.9,4.5H139.8C62.3,4.5-0.8,58.4-0.8,124.6v1376.1l-0.1,0.3l0,0c0,17.5,14.2,31.7,31.7,31.7h1715.8
			c47.4,0,89.9-29.1,106.9-73.3l334.1-865.1C2197.2,569.6,2192.4,543.3,2174.6,522.1z M2126.3,577l-319.5,827.1
			c-17.1,44.2-59.6,73.3-106.9,73.3H76.3l345-893.3c9.3-24,35.3-40.1,64.9-40.1h1612.3c9.5,0,18.2,3.8,23.7,10.4
			C2127.7,561.1,2129.2,569.3,2126.3,577z"/>
	</g>
</g>
</svg>
