<?xml version="1.0" encoding="utf-8"?>
<!-- Generator: Adobe Illustrator 22.0.0, SVG Export Plug-In . SVG Version: 6.00 Build 0)  -->
<svg version="1.1" id="Layer_1" xmlns="http://www.w3.org/2000/svg" xmlns:xlink="http://www.w3.org/1999/xlink" x="0px" y="0px"
	 viewBox="0 0 213.7 272.7" style="enable-background:new 0 0 213.7 272.7;" xml:space="preserve">
<style type="text/css">
	.st0{fill:#9DA3BE;stroke:#000000;stroke-width:0.5;stroke-miterlimit:10;}
	.st1{fill:#0A1A5C;}
	.st2{fill:#9DA3BE;}
	.st3{fill:#FFFFFF;stroke:#000000;stroke-width:0.5;stroke-miterlimit:10;}
	.st4{fill:none;stroke:#000000;stroke-miterlimit:10;}
	.st5{fill:#9DA3BE;stroke:#000000;stroke-width:0.6594;stroke-miterlimit:10;}
	.st6{fill:#999999;stroke:#000000;stroke-width:0.25;stroke-miterlimit:10;}
	.st7{fill:#0A1A5C;stroke:#000000;stroke-width:0.5;stroke-miterlimit:10;}
	.st8{fill:none;stroke:#231F20;stroke-width:0.3388;stroke-miterlimit:10;}
	.st9{fill:#FFFFFF;stroke:#231F20;stroke-width:0.3388;stroke-miterlimit:10;}
	.st10{fill:#CCCCCC;}
	.st11{fill:#AAAAAA;stroke:#231F20;stroke-width:0.3388;stroke-miterlimit:10;}
	.st12{fill:none;stroke:#FFFFFF;stroke-width:3;stroke-miterlimit:10;}
	.st13{fill:none;}
	.st14{fill:#FFFFFF;}
	.st15{fill:none;stroke:#FFFFFF;stroke-width:5;stroke-linecap:round;stroke-miterlimit:10;}
	.st16{fill:none;stroke:#FFFFFF;stroke-width:5;stroke-linecap:round;stroke-miterlimit:10;stroke-dasharray:15.6667,15.6667;}
	.st17{fill:#0A1A5C;stroke:#000000;stroke-width:0.9737;stroke-miterlimit:10;}
	.st18{fill:#CCCCCC;stroke:#000000;stroke-width:0.5;stroke-miterlimit:10;}
	.st19{fill:#F37021;}
	.st20{fill:#9DA3BE;stroke:#000000;stroke-width:0.9737;stroke-miterlimit:10;}
	.st21{fill:none;stroke:#FFFFFF;stroke-width:2;stroke-miterlimit:10;}
	.st22{fill:#9DA3BE;stroke:#000000;stroke-width:0.4769;stroke-miterlimit:10;}
	.st23{fill:#9DA3BE;stroke:#000000;stroke-width:0.5373;stroke-miterlimit:10;}
	.st24{fill:#0A1A5C;stroke:#000000;stroke-miterlimit:10;}
	.st25{fill:#0A1A5C;stroke:#000000;stroke-width:1.3636;stroke-miterlimit:10;}
	.st26{fill:#9DA3BE;stroke:#000000;stroke-miterlimit:10;}
	.st27{fill:#0A1A5C;stroke:#000000;stroke-width:1.2821;stroke-miterlimit:10;}
	.st28{fill:#9DA3BE;stroke:#000000;stroke-width:1.122;stroke-miterlimit:10;}
	.st29{fill:none;stroke:#000000;stroke-width:7.5318;stroke-linecap:round;stroke-miterlimit:10;}
	.st30{stroke:#000000;stroke-width:6;stroke-linecap:round;stroke-miterlimit:10;}
	.st31{fill:none;stroke:#000000;stroke-width:8;stroke-linecap:round;stroke-miterlimit:10;}
	.st32{fill:none;stroke:#000000;stroke-width:6;stroke-linecap:round;stroke-miterlimit:10;}
	.st33{fill:none;stroke:#FFFFFF;stroke-width:2;stroke-linecap:round;stroke-miterlimit:10;}
	.st34{fill:none;stroke:#FFFFFF;stroke-width:0.965;stroke-linecap:round;stroke-miterlimit:10;}
	.st35{fill:none;stroke:#0A1A5C;stroke-width:3.9302;stroke-miterlimit:10;}
	.st36{opacity:0.6;fill:#0A1A5C;}
	.st37{fill:none;stroke:#000000;stroke-width:2;stroke-miterlimit:10;}
	.st38{fill:#0A1A5C;stroke:#000000;stroke-width:0.6345;stroke-miterlimit:10;}
	.st39{opacity:0.8;fill:#0A1A5C;stroke:#000000;stroke-width:0.4686;stroke-miterlimit:10;}
	.st40{opacity:0.8;fill:#0A1A5C;stroke:#000000;stroke-width:0.5411;stroke-miterlimit:10;}
	.st41{fill:#0A1A5C;stroke:#000000;stroke-width:0.4686;stroke-miterlimit:10;}
	.st42{fill:#9DA3BE;stroke:#000000;stroke-width:0.2099;stroke-miterlimit:10;}
	.st43{fill:#9DA3BE;stroke:#000000;stroke-width:0.2102;stroke-miterlimit:10;}
	.st44{fill:#9DA3BE;stroke:#000000;stroke-width:0.2719;stroke-miterlimit:10;}
	.st45{fill:#9DA3BE;stroke:#000000;stroke-width:0.2181;stroke-miterlimit:10;}
	.st46{fill:#0A195C;}
	.st47{fill:none;stroke:#FFFFFF;stroke-width:1.0163;stroke-linecap:round;stroke-linejoin:round;stroke-miterlimit:10;}
	.st48{fill:#F26F21;}
	.st49{display:none;}
	.st50{display:inline;fill:#012169;}
	.st51{display:inline;}
	.st52{fill:#C8102E;}
	.st53{display:inline;fill-rule:evenodd;clip-rule:evenodd;fill:#E21936;}
	.st54{display:inline;fill-rule:evenodd;clip-rule:evenodd;fill:#FFD200;}
	.st55{display:inline;fill:#0A1A5C;}
	.st56{display:inline;fill:#0A1A5C;stroke:#000000;stroke-width:2.020941e-02;stroke-miterlimit:10;}
	
		.st57{display:inline;fill:none;stroke:#0A1A5C;stroke-width:1.1266;stroke-linecap:round;stroke-linejoin:round;stroke-miterlimit:10;}
	.st58{fill:none;stroke:#F37021;stroke-width:4;stroke-miterlimit:10;}
	.st59{fill:none;stroke:#CCCCCC;stroke-miterlimit:10;}
	.st60{fill:none;stroke:#CCCCCC;stroke-width:0.9689;stroke-miterlimit:10;}
	.st61{fill:#FFFFFF;stroke:#CCCCCC;stroke-width:0.9555;stroke-miterlimit:10;}
	.st62{fill:none;stroke:#CCCCCC;stroke-width:0.95;stroke-miterlimit:10;}
	.st63{fill:#999999;stroke:#CCCCCC;stroke-width:0.5866;stroke-miterlimit:10;}
	.st64{fill:#CCCCCC;stroke:#CCCCCC;stroke-width:0.9555;stroke-miterlimit:10;}
	.st65{fill-rule:evenodd;clip-rule:evenodd;fill:#FFFFFF;}
	.st66{fill:#FFFFFF;stroke:#FFFFFF;stroke-miterlimit:10;}
	.st67{fill:#FFFFFF;stroke:#FFFFFF;stroke-width:0.3262;stroke-miterlimit:10;}
	.st68{fill-rule:evenodd;clip-rule:evenodd;fill:#0A1A5C;}
	.st69{fill:#FFFFFE;}
	.st70{fill:#AAAAAA;}
	.st71{fill:#E2E2E2;}
	.st72{fill:#565656;}
	.st73{opacity:0.8;fill:#0A1A5C;}
	.st74{fill:#FFFFFF;stroke:#0A1A5C;stroke-width:1.7731;stroke-miterlimit:10;}
	.st75{fill:#9DA3BE;stroke:#000000;stroke-width:0.1894;stroke-miterlimit:10;}
	.st76{fill:#FFFFFF;stroke:#000000;stroke-width:0.1894;stroke-miterlimit:10;}
	.st77{fill:none;stroke:#000000;stroke-width:0.3787;stroke-miterlimit:10;}
	.st78{fill:#9DA3BE;stroke:#000000;stroke-width:0.2497;stroke-miterlimit:10;}
	.st79{fill:#999999;stroke:#000000;stroke-width:9.467980e-02;stroke-miterlimit:10;}
	.st80{fill:#00FF00;}
	.st81{fill:#FFFFFF;stroke:#000000;stroke-width:0.8866;stroke-miterlimit:10;}
	.st82{fill:#9DA3BE;stroke:#000000;stroke-width:0.5055;stroke-miterlimit:10;}
	.st83{fill:none;stroke:#FFFFFF;stroke-width:1.0383;stroke-miterlimit:10;}
	.st84{fill:#9DA3BE;stroke:#000000;stroke-width:0.2475;stroke-miterlimit:10;}
	.st85{fill:#9DA3BE;stroke:#000000;stroke-width:0.2789;stroke-miterlimit:10;}
	.st86{fill:#CCCCCC;stroke:#0A1A5C;stroke-width:1.7731;stroke-miterlimit:10;}
	.st87{fill:none;stroke:#000000;stroke-width:0.3971;stroke-miterlimit:10;}
	.st88{fill:#0A1A5C;stroke:#000000;stroke-width:0.3971;stroke-miterlimit:10;}
	.st89{fill:#0A1A5C;stroke:#000000;stroke-width:0.5415;stroke-miterlimit:10;}
	.st90{fill:#9DA3BE;stroke:#000000;stroke-width:0.3971;stroke-miterlimit:10;}
	.st91{fill:#0A1A5C;stroke:#000000;stroke-width:0.5217;stroke-miterlimit:10;}
	.st92{fill:#9DA3BE;stroke:#000000;stroke-width:0.4566;stroke-miterlimit:10;}
	.st93{fill:none;stroke:#000000;stroke-width:3.0646;stroke-linecap:round;stroke-miterlimit:10;}
	.st94{stroke:#000000;stroke-width:2.4414;stroke-linecap:round;stroke-miterlimit:10;}
	.st95{fill:none;stroke:#000000;stroke-width:3.2552;stroke-linecap:round;stroke-miterlimit:10;}
	.st96{fill:none;stroke:#000000;stroke-width:2.4414;stroke-linecap:round;stroke-miterlimit:10;}
	.st97{fill:none;stroke:#FFFFFF;stroke-width:0.8138;stroke-linecap:round;stroke-miterlimit:10;}
	.st98{fill:none;stroke:#FFFFFF;stroke-width:0.3926;stroke-linecap:round;stroke-miterlimit:10;}
	.st99{fill:none;stroke:#0A1A5C;stroke-width:1.5925;stroke-miterlimit:10;}
	.st100{fill:#9DA3BE;stroke:#000000;stroke-width:0.4052;stroke-miterlimit:10;}
	.st101{fill:none;stroke:#000000;stroke-width:0.8104;stroke-miterlimit:10;}
	.st102{fill:#0A1A5C;stroke:#000000;stroke-width:0.2571;stroke-miterlimit:10;}
	.st103{opacity:0.8;fill:#0A1A5C;stroke:#000000;stroke-width:0.1899;stroke-miterlimit:10;}
	.st104{opacity:0.8;fill:#0A1A5C;stroke:#000000;stroke-width:0.2192;stroke-miterlimit:10;}
	.st105{fill:#0A1A5C;stroke:#000000;stroke-width:0.1899;stroke-miterlimit:10;}
	.st106{fill:#9DA3BE;stroke:#000000;stroke-width:8.506256e-02;stroke-miterlimit:10;}
	.st107{fill:#9DA3BE;stroke:#000000;stroke-width:8.517154e-02;stroke-miterlimit:10;}
	.st108{fill:#9DA3BE;stroke:#000000;stroke-width:0.1102;stroke-miterlimit:10;}
	.st109{fill:#9DA3BE;stroke:#000000;stroke-width:8.838669e-02;stroke-miterlimit:10;}
	.st110{fill:#0A1A5C;stroke:#000000;stroke-width:0.1836;stroke-miterlimit:10;}
	.st111{fill:none;stroke:#231F20;stroke-width:0.1244;stroke-miterlimit:10;}
	.st112{fill:#FFFFFF;stroke:#231F20;stroke-width:0.1244;stroke-miterlimit:10;}
	.st113{fill:#AAAAAA;stroke:#231F20;stroke-width:0.1244;stroke-miterlimit:10;}
	.st114{fill:#0A1A5C;stroke:#000000;stroke-width:0.1861;stroke-miterlimit:10;}
	.st115{fill:none;stroke:#FFFFFF;stroke-width:1.1168;stroke-miterlimit:10;}
	.st116{fill:#9DA3BE;stroke:#000000;stroke-width:0.1861;stroke-miterlimit:10;}
	.st117{fill:none;stroke:#FFFFFF;stroke-width:1.8613;stroke-linecap:round;stroke-miterlimit:10;}
	.st118{fill:none;stroke:#FFFFFF;stroke-width:1.8613;stroke-linecap:round;stroke-miterlimit:10;stroke-dasharray:5.4518,5.4518;}
	.st119{fill:#0A1A5C;stroke:#000000;stroke-width:0.3925;stroke-miterlimit:10;}
	.st120{fill:#CCCCCC;stroke:#000000;stroke-width:0.2015;stroke-miterlimit:10;}
	.st121{fill:none;stroke:#0A1A5C;stroke-width:7;stroke-linecap:round;stroke-linejoin:round;stroke-miterlimit:10;}
	.st122{fill:#FFFFFF;stroke:#CCCCCC;stroke-width:1.0208;stroke-miterlimit:10;}
	.st123{fill:#FFFFFF;stroke:#0A1A5C;stroke-width:2;stroke-miterlimit:10;}
	.st124{fill:#0A1A5C;stroke:#000000;stroke-width:0.1154;stroke-miterlimit:10;}
	.st125{fill:none;stroke:#231F20;stroke-width:7.817870e-02;stroke-miterlimit:10;}
	.st126{fill:#FFFFFF;stroke:#231F20;stroke-width:7.817870e-02;stroke-miterlimit:10;}
	.st127{fill:#AAAAAA;stroke:#231F20;stroke-width:7.817870e-02;stroke-miterlimit:10;}
	.st128{fill:none;stroke:#CCCCCC;stroke-width:0.6948;stroke-miterlimit:10;}
	.st129{fill:#999999;}
	.st130{fill:#FFFFFF;stroke:#B3B3B3;stroke-width:2;stroke-miterlimit:10;}
	.st131{fill:none;stroke:#FFFFFF;stroke-width:0.7732;stroke-linecap:round;stroke-linejoin:round;stroke-miterlimit:10;}
	.st132{fill:#0A1A5C;stroke:#0A1A5C;stroke-width:0.8422;stroke-miterlimit:10;}
	.st133{fill:none;stroke:#0A1A5C;stroke-width:0.8422;stroke-miterlimit:10;}
	.st134{fill:#FFFFFF;stroke:#0A1A5C;stroke-width:0.8422;stroke-miterlimit:10;}
</style>
<g>
	<g>
		<path class="st0" d="M71.1,75.2H13.9c-2.4,0-4.4-2-4.4-4.4V10.5c0-2.4,2-4.4,4.4-4.4h57.3c2.4,0,4.4,2,4.4,4.4v60.2
			C75.5,73.2,73.5,75.2,71.1,75.2z"/>
		<path class="st0" d="M71.1,144.2H13.9c-2.4,0-4.4-2-4.4-4.4V79.5c0-2.4,2-4.4,4.4-4.4h57.3c2.4,0,4.4,2,4.4,4.4v60.3
			C75.5,142.2,73.5,144.2,71.1,144.2z"/>
		<path class="st1" d="M66.3,26.2H23.8c-1.2,0-2.3-1-2.3-2.3v-6.5c0-1.2,1-2.2,2.3-2.2h42.5c1.2,0,2.3,1,2.3,2.2v6.5
			C68.5,25.2,67.5,26.2,66.3,26.2z"/>
		<path class="st1" d="M66,40.7H43c-1.4,0-2.5-1.1-2.5-2.5v-9.5c0-1.4,1.1-2.5,2.5-2.5h23c1.4,0,2.5,1.1,2.5,2.5v9.5
			C68.5,39.5,67.4,40.7,66,40.7z"/>
		<path class="st2" d="M47,37.4L47,37.4c-2.2,0-4-1.8-4-4v0c0-2.2,1.8-4,4-4h0c2.2,0,4,1.8,4,4v0C51,35.6,49.2,37.4,47,37.4z"/>
		<path class="st1" d="M66,70.7H43c-1.4,0-2.5-1.1-2.5-2.5v-9.5c0-1.4,1.1-2.5,2.5-2.5h23c1.4,0,2.5,1.1,2.5,2.5v9.5
			C68.5,69.5,67.4,70.7,66,70.7z"/>
		<path class="st2" d="M47,67.4L47,67.4c-2.2,0-4-1.8-4-4v0c0-2.2,1.8-4,4-4h0c2.2,0,4,1.8,4,4v0C51,65.6,49.2,67.4,47,67.4z"/>
		<circle class="st3" cx="59" cy="48.7" r="3"/>
		<line class="st4" x1="9.5" y1="26.2" x2="75.5" y2="26.2"/>
		<line class="st4" x1="59" y1="26.2" x2="59" y2="75.2"/>
	</g>
	<g>
		<path class="st0" d="M137.1,75.2H79.9c-2.4,0-4.4-2-4.4-4.4V10.5c0-2.4,2-4.4,4.4-4.4h57.3c2.4,0,4.4,2,4.4,4.4v60.2
			C141.5,73.2,139.5,75.2,137.1,75.2z"/>
		<path class="st1" d="M132.3,26.2H89.8c-1.2,0-2.3-1-2.3-2.3v-6.5c0-1.2,1-2.2,2.3-2.2h42.5c1.2,0,2.3,1,2.3,2.2v6.5
			C134.5,25.2,133.5,26.2,132.3,26.2z"/>
		<path class="st1" d="M132,40.7h-23c-1.4,0-2.5-1.1-2.5-2.5v-9.5c0-1.4,1.1-2.5,2.5-2.5h23c1.4,0,2.5,1.1,2.5,2.5v9.5
			C134.5,39.5,133.4,40.7,132,40.7z"/>
		<path class="st2" d="M113,37.4L113,37.4c-2.2,0-4-1.8-4-4v0c0-2.2,1.8-4,4-4h0c2.2,0,4,1.8,4,4v0C117,35.6,115.2,37.4,113,37.4z"
			/>
		<path class="st1" d="M132,70.7h-23c-1.4,0-2.5-1.1-2.5-2.5v-9.5c0-1.4,1.1-2.5,2.5-2.5h23c1.4,0,2.5,1.1,2.5,2.5v9.5
			C134.5,69.5,133.4,70.7,132,70.7z"/>
		<path class="st2" d="M113,67.4L113,67.4c-2.2,0-4-1.8-4-4v0c0-2.2,1.8-4,4-4h0c2.2,0,4,1.8,4,4v0C117,65.6,115.2,67.4,113,67.4z"
			/>
		<circle class="st3" cx="125" cy="48.7" r="3"/>
		<line class="st4" x1="75.5" y1="26.2" x2="141.5" y2="26.2"/>
		<line class="st4" x1="125" y1="26.2" x2="125" y2="75.2"/>
	</g>
	<g>
		<path class="st0" d="M203.1,75.2h-57.3c-2.4,0-4.4-2-4.4-4.4V10.5c0-2.4,2-4.4,4.4-4.4h57.3c2.4,0,4.4,2,4.4,4.4v60.2
			C207.5,73.2,205.5,75.2,203.1,75.2z"/>
		<path class="st1" d="M198.3,26.2h-42.5c-1.2,0-2.3-1-2.3-2.3v-6.5c0-1.2,1-2.2,2.3-2.2h42.5c1.2,0,2.3,1,2.3,2.2v6.5
			C200.5,25.2,199.5,26.2,198.3,26.2z"/>
		<path class="st1" d="M198,40.7h-23c-1.4,0-2.5-1.1-2.5-2.5v-9.5c0-1.4,1.1-2.5,2.5-2.5h23c1.4,0,2.5,1.1,2.5,2.5v9.5
			C200.5,39.5,199.4,40.7,198,40.7z"/>
		<path class="st2" d="M179,37.4L179,37.4c-2.2,0-4-1.8-4-4v0c0-2.2,1.8-4,4-4l0,0c2.2,0,4,1.8,4,4v0C183,35.6,181.2,37.4,179,37.4z
			"/>
		<path class="st1" d="M198,70.7h-23c-1.4,0-2.5-1.1-2.5-2.5v-9.5c0-1.4,1.1-2.5,2.5-2.5h23c1.4,0,2.5,1.1,2.5,2.5v9.5
			C200.5,69.5,199.4,70.7,198,70.7z"/>
		<path class="st2" d="M179,67.4L179,67.4c-2.2,0-4-1.8-4-4v0c0-2.2,1.8-4,4-4l0,0c2.2,0,4,1.8,4,4v0C183,65.6,181.2,67.4,179,67.4z
			"/>
		<circle class="st3" cx="191" cy="48.7" r="3"/>
		<line class="st4" x1="141.5" y1="26.2" x2="207.5" y2="26.2"/>
		<line class="st4" x1="191" y1="26.2" x2="191" y2="75.2"/>
	</g>
	<path class="st0" d="M137.1,144.2H79.9c-2.4,0-4.4-2-4.4-4.4V79.5c0-2.4,2-4.4,4.4-4.4h57.3c2.4,0,4.4,2,4.4,4.4v60.3
		C141.5,142.2,139.5,144.2,137.1,144.2z"/>
	<path class="st0" d="M203.1,144.2h-57.3c-2.4,0-4.4-2-4.4-4.4V79.5c0-2.4,2-4.4,4.4-4.4h57.3c2.4,0,4.4,2,4.4,4.4v60.3
		C207.5,142.2,205.5,144.2,203.1,144.2z"/>
	<g>
		<path class="st5" d="M203.1,264.2h-57.3c-2.4,0-4.4-2-4.4-4.4V148.5c0-2.4,2-4.4,4.4-4.4h57.3c2.4,0,4.4,2,4.4,4.4v111.2
			C207.5,262.2,205.5,264.2,203.1,264.2z"/>
		<g>
			<circle class="st6" cx="147.3" cy="150.2" r="2"/>
			<circle class="st6" cx="201.8" cy="150.7" r="2"/>
		</g>
		<rect x="151" y="257.2" class="st1" width="47" height="7"/>
	</g>
	<g>
		<path class="st5" d="M137.1,264.2H79.9c-2.4,0-4.4-2-4.4-4.4V148.5c0-2.4,2-4.4,4.4-4.4h57.3c2.4,0,4.4,2,4.4,4.4v111.2
			C141.5,262.2,139.5,264.2,137.1,264.2z"/>
		<g>
			<circle class="st6" cx="81.3" cy="150.2" r="2"/>
			<circle class="st6" cx="135.8" cy="150.7" r="2"/>
		</g>
		<rect x="85" y="257.2" class="st1" width="47" height="7"/>
	</g>
	<g>
		<path class="st5" d="M71.1,264.2H13.9c-2.4,0-4.4-2-4.4-4.4V148.5c0-2.4,2-4.4,4.4-4.4h57.3c2.4,0,4.4,2,4.4,4.4v111.2
			C75.5,262.2,73.5,264.2,71.1,264.2z"/>
		<g>
			<circle class="st6" cx="15.3" cy="150.2" r="2"/>
			<circle class="st6" cx="69.8" cy="150.7" r="2"/>
		</g>
		<rect x="19" y="257.2" class="st1" width="47" height="7"/>
	</g>
</g>
</svg>
