<?xml version="1.0" encoding="utf-8"?>
<!-- Generator: Adobe Illustrator 22.0.0, SVG Export Plug-In . SVG Version: 6.00 Build 0)  -->
<svg version="1.1" xmlns="http://www.w3.org/2000/svg" xmlns:xlink="http://www.w3.org/1999/xlink" x="0px" y="0px"
	 viewBox="0 0 215 206" style="enable-background:new 0 0 215 206;" xml:space="preserve">
<style type="text/css">
	.st0{fill:#0A1A5C;}
	.st1{fill:#F37021;}
	.st2{fill:#CCCCCC;}
	.st3{fill:#FFD4A6;}
	.st4{fill:#9DA3BE;}
	.st5{fill:#FF0000;}
	.st6{fill:#00FF00;}
	.st7{display:none;fill:#E5E5E5;}
	.st8{fill:none;stroke:#0A1A5C;stroke-width:5.0184;stroke-linecap:round;stroke-linejoin:round;stroke-miterlimit:10;}
	.st9{fill:#0A195C;}
	.st10{fill:#FFFFFF;}
	.st11{fill:none;stroke:#FFFFFF;stroke-width:1.0163;stroke-linecap:round;stroke-linejoin:round;stroke-miterlimit:10;}
	.st12{fill:#F26F21;}
	.st13{display:none;}
	.st14{display:inline;fill:#012169;}
	.st15{display:inline;}
	.st16{fill:#C8102E;}
	.st17{display:inline;fill-rule:evenodd;clip-rule:evenodd;fill:#E21936;}
	.st18{display:inline;fill-rule:evenodd;clip-rule:evenodd;fill:#FFD200;}
	.st19{display:inline;fill:#0A1A5C;}
	.st20{display:inline;fill:#0A1A5C;stroke:#000000;stroke-width:2.020941e-02;stroke-miterlimit:10;}
	
		.st21{display:inline;fill:none;stroke:#0A1A5C;stroke-width:1.1266;stroke-linecap:round;stroke-linejoin:round;stroke-miterlimit:10;}
	.st22{fill:none;stroke:#F37021;stroke-width:4;stroke-miterlimit:10;}
	.st23{fill:none;stroke:#CCCCCC;stroke-miterlimit:10;}
	.st24{fill:none;stroke:#E6E6E6;stroke-width:1.2119;stroke-miterlimit:10;}
	.st25{fill:#999999;}
	.st26{fill:#CCCCCC;stroke:#CCCCCC;stroke-width:1.0208;stroke-miterlimit:10;}
	.st27{fill:#FFFFFF;stroke:#999999;stroke-width:0.5832;stroke-miterlimit:10;}
	.st28{fill:none;stroke:#FFFFFF;stroke-width:0.7732;stroke-linecap:round;stroke-linejoin:round;stroke-miterlimit:10;}
	.st29{fill-rule:evenodd;clip-rule:evenodd;fill:#FFFFFF;}
	.st30{fill:#FFFFFF;stroke:#FFFFFF;stroke-miterlimit:10;}
	.st31{fill:#FFFFFF;stroke:#FFFFFF;stroke-width:0.3262;stroke-miterlimit:10;}
	.st32{fill-rule:evenodd;clip-rule:evenodd;fill:#0A1A5C;}
	.st33{fill:#FFFFFE;}
	.st34{fill:none;stroke:#CCCCCC;stroke-width:0.8657;stroke-miterlimit:10;}
	.st35{fill:#FFFFFF;stroke:#CCCCCC;stroke-width:0.9555;stroke-miterlimit:10;}
	.st36{fill:none;stroke:#CCCCCC;stroke-width:0.8423;stroke-miterlimit:10;}
	.st37{fill:#999999;stroke:#CCCCCC;stroke-width:0.5866;stroke-miterlimit:10;}
	.st38{fill:#CCCCCC;stroke:#CCCCCC;stroke-width:0.9555;stroke-miterlimit:10;}
	.st39{fill:#FFFFFF;stroke:#CCCCCC;stroke-width:1.0208;stroke-miterlimit:10;}
	.st40{fill-rule:evenodd;clip-rule:evenodd;}
	.st41{fill:#FFFFFF;stroke:#FFFFFF;stroke-width:0.7732;stroke-linecap:round;stroke-linejoin:round;stroke-miterlimit:10;}
	.st42{opacity:0.6;}
	.st43{fill:none;}
	.st44{opacity:0.2;}
	.st45{fill:#FFFFFF;stroke:#FFFFFF;stroke-width:0.8783;stroke-miterlimit:10;}
	.st46{fill:#FFFFFF;stroke:#FFFFFF;stroke-width:0.8713;stroke-miterlimit:10;}
	.st47{fill:none;stroke:#B3B3B3;stroke-width:1.1187;stroke-miterlimit:10;}
	.st48{fill:#0A1A5C;stroke:#CCCCCC;stroke-width:0.6643;stroke-miterlimit:10;}
	.st49{fill:#0A1A5C;stroke:#CCCCCC;stroke-width:0.7299;stroke-miterlimit:10;}
	.st50{fill:none;stroke:#CCCCCC;stroke-width:0.7297;stroke-miterlimit:10;}
	.st51{fill:none;stroke:#FFFFFF;stroke-width:0.8301;stroke-miterlimit:10;}
	.st52{fill:#FFFFFF;stroke:#FFFFFF;stroke-width:0.8301;stroke-linecap:round;stroke-linejoin:round;stroke-miterlimit:10;}
	.st53{fill:#FFFFFF;stroke:#CCCCCC;stroke-width:0.7857;stroke-miterlimit:10;}
	.st54{fill:#FFFFFF;stroke:#CCCCCC;stroke-width:0.8632;stroke-miterlimit:10;}
	.st55{fill:#FFFFFF;stroke:#CCCCCC;stroke-width:0.6117;stroke-miterlimit:10;}
	.st56{fill:#F9F9F9;stroke:#CCCCCC;stroke-width:0.7857;stroke-miterlimit:10;}
	.st57{display:none;fill:#0A1A5C;}
	.st58{display:inline;fill:#FFFFFF;}
	.st59{fill:#0A1A5C;stroke:#CCCCCC;stroke-width:0.7857;stroke-miterlimit:10;}
	.st60{opacity:0.4;fill:#0A1A5C;stroke:#CCCCCC;stroke-width:0.8632;stroke-miterlimit:10;}
	.st61{opacity:0.4;fill:#0A1A5C;stroke:#CCCCCC;stroke-width:0.6117;stroke-miterlimit:10;}
	.st62{fill:#AAAAAA;}
	.st63{fill:#E2E2E2;}
	.st64{fill:#565656;}
	.st65{fill:#E6E6E6;}
	.st66{fill:none;stroke:#000000;stroke-width:0.7732;stroke-miterlimit:10;}
	.st67{stroke:#000000;stroke-width:0.7732;stroke-linecap:round;stroke-linejoin:round;stroke-miterlimit:10;}
	.st68{fill:#9DA3BE;stroke:#FFFFFF;stroke-miterlimit:10;}
	.st69{fill-rule:evenodd;clip-rule:evenodd;fill:#F37021;}
	.st70{fill:#FFFFFF;stroke:#000000;stroke-width:0.75;stroke-miterlimit:10;}
	.st71{fill:#FFFFFF;stroke:#000000;stroke-miterlimit:10;}
	.st72{fill:#9DA3BE;stroke:#FFFFFF;stroke-width:0.75;stroke-miterlimit:10;}
	.st73{fill:#FFD4A6;stroke:#FFFFFF;stroke-width:0.75;stroke-miterlimit:10;}
	.st74{fill:#FFFFFF;stroke:#FFFFFF;stroke-width:0.75;stroke-miterlimit:10;}
	.st75{fill:none;stroke:#999999;stroke-width:10;stroke-linecap:round;stroke-linejoin:round;stroke-miterlimit:10;}
	.st76{fill:#FFFFFF;stroke:#999999;stroke-miterlimit:10;}
	.st77{fill:none;stroke:#FFFFFF;stroke-width:0.9862;stroke-miterlimit:10;}
	.st78{opacity:0.1;}
	.st79{fill:none;stroke:#B3B3B3;stroke-width:10;stroke-linecap:round;stroke-miterlimit:10;}
	.st80{fill:none;stroke:#E6E6E6;stroke-width:1.239;stroke-miterlimit:10;}
	.st81{fill:none;stroke:#B3B3B3;stroke-width:1.2222;stroke-miterlimit:10;}
	.st82{fill:none;stroke:#000000;stroke-width:2;stroke-miterlimit:10;}
	.st83{fill:none;stroke:#FFFFFF;stroke-width:3;stroke-linecap:round;stroke-linejoin:round;stroke-miterlimit:10;}
	.st84{fill:none;stroke:#FFFFFF;stroke-width:3;stroke-miterlimit:10;}
	.st85{fill:#FFFFFF;stroke:#FFFFFF;stroke-width:3;stroke-linecap:round;stroke-linejoin:round;stroke-miterlimit:10;}
	.st86{fill:none;stroke:#000000;stroke-width:3;stroke-miterlimit:10;}
	.st87{stroke:#000000;stroke-width:3;stroke-linecap:round;stroke-linejoin:round;stroke-miterlimit:10;}
	.st88{fill:#D8D8D8;}
	.st89{fill:none;stroke:#CCCCCC;stroke-width:1.5967;stroke-miterlimit:10;}
	.st90{fill:#0A1A5C;stroke:#CCCCCC;stroke-width:1.4186;stroke-miterlimit:10;}
	.st91{fill:#9DA3BE;stroke:#CCCCCC;stroke-width:1.4186;stroke-miterlimit:10;}
	.st92{fill:none;stroke:#808080;stroke-miterlimit:10;}
	.st93{opacity:0.6;fill-rule:evenodd;clip-rule:evenodd;fill:#F37021;}
	.st94{opacity:0.8;fill-rule:evenodd;clip-rule:evenodd;fill:#F37021;}
	.st95{fill:none;stroke:#B3B3B3;stroke-width:0.9837;stroke-miterlimit:10;}
	.st96{fill:#D3CCB9;}
	.st97{fill:#ADA794;}
	.st98{fill:#C4BFB3;}
	.st99{fill:#E69F87;}
	.st100{fill:#222027;}
	.st101{fill:#FFB296;}
	.st102{fill:#D6957E;}
	.st103{fill:#D47433;}
	.st104{fill:#F18539;}
	.st105{fill:#FFC43D;}
	.st106{fill:#FFCF61;}
	.st107{fill:#FFB614;}
	.st108{fill:#163D54;}
	.st109{fill:#1D5273;}
	.st110{fill:#BC4D39;}
	.st111{fill:#D1917B;}
	.st112{fill:#F2F4F6;}
	.st113{fill:#EBA48A;}
	.st114{fill:#000038;}
	.st115{fill:#ADADAD;}
	.st116{fill:#D6D6D6;}
	.st117{fill:#33313B;}
	.st118{fill:#565951;}
	.st119{fill:#7B6B5C;}
	.st120{fill:#493A27;}
	.st121{fill:#302415;}
	.st122{fill:#41301C;}
	.st123{fill:#8A392B;}
	.st124{fill:#3E403B;}
	.st125{fill:#484A43;}
	.st126{clip-path:url(#SVGID_2_);}
	.st127{fill:#E4DED0;}
	.st128{fill:#65685F;}
	.st129{fill:#7D827C;}
	.st130{fill:#575952;}
	.st131{fill:#393B35;}
	.st132{fill:#2F2D36;}
	.st133{fill:#3B3228;}
	.st134{fill:#42453E;}
	.st135{fill-rule:evenodd;clip-rule:evenodd;fill:#F3A521;}
	.st136{fill-rule:evenodd;clip-rule:evenodd;fill:#F38427;}
</style>
<g id="Color">
</g>
<g id="PROJECT_DETAIL">
</g>
<g id="MODULE_DETAIL_1_">
</g>
<g id="MENU_DETAIL">
</g>
<g id="WEB_1">
	<g id="body">
		<g id="dự_án">
		</g>
	</g>
	<g id="header">
	</g>
</g>
<g id="WEB_Ver_2">
	<g id="WEB_2">
		<g id="Header">
			<g id="logo">
			</g>
		</g>
		<g id="Body">
			<g id="thanh_menu">
			</g>
		</g>
		<g id="Table">
		</g>
	</g>
	<g id="PROJECT_HÌNH_ẢNH">
	</g>
</g>
<g id="TABLE_DETAIL">
</g>
<g id="icon_đèn">
</g>
<g id="ICON_CLOSE_WHITE">
</g>
<g id="ICON_SƠ_ĐỒ">
</g>
<g id="ICON_SOLAR">
</g>
<g id="ICON_GRID">
</g>
<g id="ICON_WIND">
</g>
<g id="ICON_BATTERY">
</g>
<g id="ICON_LOAD">
</g>
<g id="SOLAR_BLACK">
</g>
<g id="GRID_BLACK">
</g>
<g id="WIND_BLACK">
</g>
<g id="BATTERY_BLACK">
</g>
<g id="LOAD_BLACK">
</g>
<g id="ICON">
</g>
<g id="TAB_SITE">
</g>
<g id="Layer_36">
</g>
<g id="Layer_35">
</g>
<g id="Layer_34">
	<g>
		<g>
			<path class="st69" d="M48.7,44.7C63.6,29.7,84.2,20.5,107,20.5s43.4,9.2,58.3,24.2c14.9,14.9,24.2,35.6,24.2,58.3
				s-9.2,43.4-24.2,58.3c-14.9,14.9-35.6,24.2-58.3,24.2s-43.4-9.2-58.3-24.2c-14.9-14.9-24.2-35.6-24.2-58.3S33.7,59.6,48.7,44.7
				L48.7,44.7z M210,103c0-28.4-11.5-54.2-30.2-72.8C161.2,11.5,135.4,0,107,0S52.8,11.5,34.2,30.2C15.5,48.8,4,74.6,4,103
				s11.5,54.2,30.2,72.8C52.8,194.5,78.6,206,107,206s54.2-11.5,72.8-30.2C198.5,157.2,210,131.4,210,103z"/>
			<path class="st32" d="M83.2,79.5c0-7.3,2.6-13.2,7.8-17.7c3.5-3.1,8.6-4.9,15.4-5.6v-4.9h6.1v4.9c6,0.6,10.7,2.3,14.2,5.2
				c4.5,3.7,7.2,8.8,8.1,15.3l-10.6,1.6c-0.6-4-1.9-7.1-3.8-9.3c-1.9-2.1-4.5-3.6-7.9-4.2v29.6c5.2,1.3,8.6,2.3,10.3,3
				c3.2,1.4,5.8,3.1,7.8,5.1c2,2,3.6,4.4,4.7,7.2c1.1,2.8,1.6,5.8,1.6,9c0,7.1-2.3,13.1-6.8,17.8c-4.5,4.8-10.4,7.3-17.6,7.7v10.4
				h-6.1v-10.3c-5.1-0.6-9.3-1.8-12.5-3.4c-3.2-1.7-6-4.3-8.3-8c-2.3-3.7-3.7-8.2-4.1-13.5l10.3-1.9c0.8,5.5,2.2,9.6,4.2,12.2
				c2.9,3.7,6.4,5.7,10.4,6.1v-32.7c-4.2-0.8-8.5-2.4-13-4.9c-3.3-1.8-5.8-4.4-7.6-7.6C84.1,87.3,83.2,83.7,83.2,79.5L83.2,79.5z
				 M182.6,103c0-20.9-8.5-39.8-22.2-53.5c-13.7-13.7-32.6-22.2-53.5-22.2c-20.9,0-39.8,8.5-53.5,22.2C39.8,63.2,31.4,82.1,31.4,103
				c0,20.9,8.5,39.8,22.2,53.5c13.7,13.7,32.6,22.2,53.5,22.2c20.9,0,39.8-8.5,53.5-22.2C174.2,142.8,182.6,123.9,182.6,103z"/>
			<path class="st32" d="M106.3,93.2V64.8c-4,0.6-7.1,2.2-9.4,4.8c-2.3,2.6-3.4,5.6-3.4,9.2c0,3.5,1,6.4,2.9,8.8
				C98.4,89.9,101.7,91.8,106.3,93.2z"/>
			<path class="st32" d="M126.2,119.5c0-3.7-0.9-6.7-2.8-9c-1.9-2.3-5.5-4.3-11-6.1v31.3c4-0.5,7.3-2.2,9.9-5.2
				C124.9,127.6,126.2,123.9,126.2,119.5z"/>
		</g>
	</g>
</g>
<g id="Layer_33">
</g>
</svg>
