<?xml version="1.0" encoding="utf-8"?>
<!-- Generator: Adobe Illustrator 22.0.0, SVG Export Plug-In . SVG Version: 6.00 Build 0)  -->
<svg version="1.1" xmlns="http://www.w3.org/2000/svg" xmlns:xlink="http://www.w3.org/1999/xlink" x="0px" y="0px"
	 viewBox="0 0 118 111" style="enable-background:new 0 0 118 111;" xml:space="preserve">
<style type="text/css">
	.st0{fill:#0A1A5C;}
	.st1{fill:#F37021;}
	.st2{fill:#CCCCCC;}
	.st3{fill:#FFD4A6;}
	.st4{fill:#9DA3BE;}
	.st5{fill:#FF0000;}
	.st6{fill:#00FF00;}
	.st7{display:none;fill:#E5E5E5;}
	.st8{fill:none;stroke:#0A1A5C;stroke-width:5.0184;stroke-linecap:round;stroke-linejoin:round;stroke-miterlimit:10;}
	.st9{fill:#0A195C;}
	.st10{fill:#FFFFFF;}
	.st11{fill:none;stroke:#FFFFFF;stroke-width:1.0163;stroke-linecap:round;stroke-linejoin:round;stroke-miterlimit:10;}
	.st12{fill:#F26F21;}
	.st13{display:none;}
	.st14{display:inline;fill:#012169;}
	.st15{display:inline;}
	.st16{fill:#C8102E;}
	.st17{display:inline;fill-rule:evenodd;clip-rule:evenodd;fill:#E21936;}
	.st18{display:inline;fill-rule:evenodd;clip-rule:evenodd;fill:#FFD200;}
	.st19{display:inline;fill:#0A1A5C;}
	.st20{display:inline;fill:#0A1A5C;stroke:#000000;stroke-width:2.020941e-02;stroke-miterlimit:10;}
	
		.st21{display:inline;fill:none;stroke:#0A1A5C;stroke-width:1.1266;stroke-linecap:round;stroke-linejoin:round;stroke-miterlimit:10;}
	.st22{fill:none;stroke:#F37021;stroke-width:4;stroke-miterlimit:10;}
	.st23{fill:none;stroke:#CCCCCC;stroke-miterlimit:10;}
	.st24{fill:none;stroke:#E6E6E6;stroke-width:1.2119;stroke-miterlimit:10;}
	.st25{fill:#999999;}
	.st26{fill:#CCCCCC;stroke:#CCCCCC;stroke-width:1.0208;stroke-miterlimit:10;}
	.st27{fill:#FFFFFF;stroke:#999999;stroke-width:0.5832;stroke-miterlimit:10;}
	.st28{fill:none;stroke:#FFFFFF;stroke-width:0.7732;stroke-linecap:round;stroke-linejoin:round;stroke-miterlimit:10;}
	.st29{fill-rule:evenodd;clip-rule:evenodd;fill:#FFFFFF;}
	.st30{fill:#FFFFFF;stroke:#FFFFFF;stroke-miterlimit:10;}
	.st31{fill:#FFFFFF;stroke:#FFFFFF;stroke-width:0.3262;stroke-miterlimit:10;}
	.st32{fill-rule:evenodd;clip-rule:evenodd;fill:#0A1A5C;}
	.st33{fill:#FFFFFE;}
	.st34{fill:none;stroke:#CCCCCC;stroke-width:0.8657;stroke-miterlimit:10;}
	.st35{fill:#FFFFFF;stroke:#CCCCCC;stroke-width:0.9555;stroke-miterlimit:10;}
	.st36{fill:none;stroke:#CCCCCC;stroke-width:0.8423;stroke-miterlimit:10;}
	.st37{fill:#999999;stroke:#CCCCCC;stroke-width:0.5866;stroke-miterlimit:10;}
	.st38{fill:#CCCCCC;stroke:#CCCCCC;stroke-width:0.9555;stroke-miterlimit:10;}
	.st39{fill:#FFFFFF;stroke:#CCCCCC;stroke-width:1.0208;stroke-miterlimit:10;}
	.st40{fill-rule:evenodd;clip-rule:evenodd;}
	.st41{fill:#FFFFFF;stroke:#FFFFFF;stroke-width:0.7732;stroke-linecap:round;stroke-linejoin:round;stroke-miterlimit:10;}
	.st42{opacity:0.6;}
	.st43{fill:none;}
	.st44{opacity:0.2;}
	.st45{fill:#FFFFFF;stroke:#FFFFFF;stroke-width:0.8783;stroke-miterlimit:10;}
	.st46{fill:#FFFFFF;stroke:#FFFFFF;stroke-width:0.8713;stroke-miterlimit:10;}
	.st47{fill:none;stroke:#B3B3B3;stroke-width:1.1187;stroke-miterlimit:10;}
	.st48{fill:#0A1A5C;stroke:#CCCCCC;stroke-width:0.6643;stroke-miterlimit:10;}
	.st49{fill:#0A1A5C;stroke:#CCCCCC;stroke-width:0.7299;stroke-miterlimit:10;}
	.st50{fill:none;stroke:#CCCCCC;stroke-width:0.7297;stroke-miterlimit:10;}
	.st51{fill:none;stroke:#FFFFFF;stroke-width:0.8301;stroke-miterlimit:10;}
	.st52{fill:#FFFFFF;stroke:#FFFFFF;stroke-width:0.8301;stroke-linecap:round;stroke-linejoin:round;stroke-miterlimit:10;}
	.st53{fill:#FFFFFF;stroke:#CCCCCC;stroke-width:0.7857;stroke-miterlimit:10;}
	.st54{fill:#FFFFFF;stroke:#CCCCCC;stroke-width:0.8632;stroke-miterlimit:10;}
	.st55{fill:#FFFFFF;stroke:#CCCCCC;stroke-width:0.6117;stroke-miterlimit:10;}
	.st56{fill:#F9F9F9;stroke:#CCCCCC;stroke-width:0.7857;stroke-miterlimit:10;}
	.st57{display:none;fill:#0A1A5C;}
	.st58{display:inline;fill:#FFFFFF;}
	.st59{fill:#0A1A5C;stroke:#CCCCCC;stroke-width:0.7857;stroke-miterlimit:10;}
	.st60{opacity:0.4;fill:#0A1A5C;stroke:#CCCCCC;stroke-width:0.8632;stroke-miterlimit:10;}
	.st61{opacity:0.4;fill:#0A1A5C;stroke:#CCCCCC;stroke-width:0.6117;stroke-miterlimit:10;}
	.st62{fill:#AAAAAA;}
	.st63{fill:#E2E2E2;}
	.st64{fill:#565656;}
	.st65{fill:#E6E6E6;}
	.st66{fill:none;stroke:#000000;stroke-width:0.7732;stroke-miterlimit:10;}
	.st67{stroke:#000000;stroke-width:0.7732;stroke-linecap:round;stroke-linejoin:round;stroke-miterlimit:10;}
	.st68{fill:#9DA3BE;stroke:#FFFFFF;stroke-miterlimit:10;}
	.st69{fill-rule:evenodd;clip-rule:evenodd;fill:#F37021;}
	.st70{fill:#FFFFFF;stroke:#000000;stroke-width:0.75;stroke-miterlimit:10;}
	.st71{fill:#FFFFFF;stroke:#000000;stroke-miterlimit:10;}
	.st72{fill:#9DA3BE;stroke:#FFFFFF;stroke-width:0.75;stroke-miterlimit:10;}
	.st73{fill:#FFD4A6;stroke:#FFFFFF;stroke-width:0.75;stroke-miterlimit:10;}
	.st74{fill:#FFFFFF;stroke:#FFFFFF;stroke-width:0.75;stroke-miterlimit:10;}
	.st75{fill:none;stroke:#999999;stroke-width:10;stroke-linecap:round;stroke-linejoin:round;stroke-miterlimit:10;}
	.st76{fill:#FFFFFF;stroke:#999999;stroke-miterlimit:10;}
	.st77{fill:none;stroke:#FFFFFF;stroke-width:0.9862;stroke-miterlimit:10;}
	.st78{opacity:0.1;}
	.st79{fill:none;stroke:#B3B3B3;stroke-width:10;stroke-linecap:round;stroke-miterlimit:10;}
	.st80{fill:none;stroke:#E6E6E6;stroke-width:1.239;stroke-miterlimit:10;}
	.st81{fill:none;stroke:#B3B3B3;stroke-width:1.2222;stroke-miterlimit:10;}
	.st82{fill:none;stroke:#000000;stroke-width:2;stroke-miterlimit:10;}
	.st83{fill:none;stroke:#FFFFFF;stroke-width:3;stroke-linecap:round;stroke-linejoin:round;stroke-miterlimit:10;}
	.st84{fill:none;stroke:#FFFFFF;stroke-width:3;stroke-miterlimit:10;}
	.st85{fill:#FFFFFF;stroke:#FFFFFF;stroke-width:3;stroke-linecap:round;stroke-linejoin:round;stroke-miterlimit:10;}
	.st86{fill:none;stroke:#000000;stroke-width:3;stroke-miterlimit:10;}
	.st87{stroke:#000000;stroke-width:3;stroke-linecap:round;stroke-linejoin:round;stroke-miterlimit:10;}
	.st88{fill:#D8D8D8;}
</style>
<g id="Color">
</g>
<g id="PROJECT_DETAIL">
</g>
<g id="MODULE_DETAIL_1_">
</g>
<g id="MENU_DETAIL">
</g>
<g id="WEB_1">
	<g id="body">
		<g id="dự_án">
		</g>
	</g>
	<g id="header">
	</g>
</g>
<g id="WEB_Ver_2">
	<g id="WEB_2">
		<g id="Header">
			<g id="logo">
			</g>
		</g>
		<g id="Body">
			<g id="thanh_menu">
			</g>
			<g>
				<path class="st10" d="M104.1,75.8c-1.3-3-3.1-5.7-5.4-8c-2.3-2.3-5-4.2-8-5.4c-3.1-1.3-6.4-2-9.9-2c-3.4,0-6.7,0.7-9.9,2
					c-3,1.3-5.7,3.1-8,5.4c-2.3,2.3-4.2,5-5.4,8c-1.3,3.1-2,6.4-2,9.9c0,3.4,0.7,6.7,2,9.9c1.3,3,3.1,5.7,5.4,8c2.3,2.3,5,4.2,8,5.4
					c3.1,1.3,6.4,2,9.9,2c3.4,0,6.7-0.7,9.9-2c3-1.3,5.7-3.1,8-5.4c2.3-2.3,4.2-5,5.4-8c1.3-3.1,2-6.4,2-9.9
					C106.1,82.3,105.5,78.9,104.1,75.8z M98.9,88.1h2.3c-1.1,9.4-8.6,16.9-18,18v-2.3c0-1.3-1.1-2.4-2.4-2.4c-1.3,0-2.4,1.1-2.4,2.4
					v2.3c-9.4-1.1-16.9-8.6-18-18h2.3c1.3,0,2.4-1.1,2.4-2.4s-1.1-2.4-2.4-2.4h-2.3c1.1-9.4,8.6-16.9,18-18v2.3
					c0,1.3,1.1,2.4,2.4,2.4c1.3,0,2.4-1.1,2.4-2.4v-2.3c9.4,1.1,16.9,8.6,18,18h-2.3c-1.3,0-2.4,1.1-2.4,2.4
					C96.6,87,97.6,88.1,98.9,88.1z"/>
				<path class="st10" d="M92.9,86v-0.6c0-1.4-1.1-2.5-2.5-2.5h-6.2c-0.8-1-2.1-1.6-3.4-1.6c-0.3,0-0.5,0-0.8,0.1l-5-5
					c-1-1-2.6-1-3.6,0c-1,1-1,2.6,0,3.6l5,5c0,0.2-0.1,0.5-0.1,0.8c0,2.4,2,4.4,4.4,4.4c1.3,0,2.5-0.6,3.4-1.6h6.2
					C91.8,88.5,92.9,87.4,92.9,86z"/>
				<path class="st10" d="M90.8,72.3L90.8,72.3c-0.9,0.9-0.9,2.4,0,3.3c0.5,0.5,1.1,0.7,1.7,0.7c0.6,0,1.2-0.2,1.7-0.7
					c0.9-0.9,0.9-2.4,0-3.3C93.3,71.4,91.8,71.4,90.8,72.3z"/>
				<path class="st10" d="M90.8,95.7c-0.9,0.9-0.9,2.4,0,3.3c0.4,0.4,1,0.7,1.7,0.7c0.6,0,1.2-0.2,1.7-0.7c0.9-0.9,0.9-2.4,0-3.3
					C93.3,94.8,91.8,94.8,90.8,95.7z"/>
				<path class="st10" d="M67.5,95.7c-0.9,0.9-0.9,2.4,0,3.3c0.4,0.4,1,0.7,1.7,0.7c0.6,0,1.2-0.2,1.7-0.7c0.9-0.9,0.9-2.4,0-3.3
					C69.9,94.8,68.4,94.8,67.5,95.7z"/>
				<path class="st10" d="M69.1,76.3c0.6,0,1.2-0.2,1.7-0.7c0.9-0.9,0.9-2.4,0-3.3c-0.9-0.9-2.4-0.9-3.3,0v0c-0.9,0.9-0.9,2.4,0,3.3
					C67.9,76.1,68.5,76.3,69.1,76.3z"/>
				<path class="st10" d="M64.9,11.3c0-2-1.6-3.6-3.6-3.6h-4.1c0-3.1-2.5-5.7-5.7-5.7c-3.1,0-5.7,2.5-5.7,5.7h-4.1
					c-2,0-3.6,1.6-3.6,3.6v8.4h26.7V11.3z M51.5,10.8c-1.7,0-3-1.3-3-3c0-1.7,1.3-3,3-3c1.7,0,3,1.3,3,3
					C54.5,9.4,53.2,10.8,51.5,10.8z"/>
				<path class="st10" d="M67.6,16.6h10.4v40.5C79,57,79.9,57,80.8,57c0.9,0,1.8,0,2.8,0.1V13.8c0-1.5-1.2-2.8-2.8-2.8H67.6
					c0,0.1,0,0.2,0,0.3V16.6z"/>
				<path class="st10" d="M24.9,82.9V16.6h10.4v-5.3c0-0.1,0-0.2,0-0.3H22.2c-1.5,0-2.8,1.2-2.8,2.8v71.8c0,1.5,1.2,2.8,2.8,2.8h30
					c-0.1-0.9-0.1-1.8-0.1-2.8c0-0.9,0-1.8,0.1-2.8H24.9z"/>
				<path class="st10" d="M32.2,35.1c-0.7,0-1.4,0.3-1.9,0.8c-0.5,0.5-0.8,1.2-0.8,1.9c0,0.7,0.3,1.4,0.8,1.9l3.7,3.7
					c0.5,0.5,1.2,0.8,1.9,0.8s1.4-0.3,1.9-0.8l9.6-9.6c1.1-1.1,1.1-2.8,0-3.9c-0.5-0.5-1.2-0.8-1.9-0.8c-0.7,0-1.4,0.3-1.9,0.8
					l-7.7,7.7l-1.8-1.8C33.6,35.4,32.9,35.1,32.2,35.1z"/>
				<path class="st10" d="M70.8,29.4H55c-1.5,0-2.8,1.2-2.8,2.8c0,1.5,1.2,2.8,2.8,2.8h15.8c1.5,0,2.8-1.2,2.8-2.8
					C73.6,30.6,72.3,29.4,70.8,29.4z"/>
				<path class="st10" d="M55,44.1h5.3c1.5,0,2.8-1.2,2.8-2.8v0c0-1.5-1.2-2.8-2.8-2.8H55c-1.5,0-2.8,1.2-2.8,2.8v0
					C52.3,42.9,53.5,44.1,55,44.1z"/>
				<path class="st10" d="M45.5,55.2c-0.7,0-1.4,0.3-1.9,0.8l-7.7,7.7l-1.8-1.8c-0.5-0.5-1.2-0.8-1.9-0.8c-0.7,0-1.4,0.3-1.9,0.8
					c-0.5,0.5-0.8,1.2-0.8,1.9c0,0.7,0.3,1.4,0.8,1.9l3.7,3.7c0.5,0.5,1.2,0.8,1.9,0.8s1.4-0.3,1.9-0.8l9.6-9.6
					c1.1-1.1,1.1-2.8,0-3.9C46.9,55.5,46.2,55.2,45.5,55.2z"/>
				<path class="st10" d="M53.1,60.1c0.5,0.5,1.2,0.8,1.9,0.8h11.2c1.1-0.6,2.2-1.2,3.4-1.7c1.3-0.5,2.6-1,3.9-1.3
					c-0.1-1.4-1.3-2.5-2.7-2.5H55c-1.5,0-2.8,1.2-2.8,2.8C52.3,58.9,52.6,59.6,53.1,60.1z"/>
				<path class="st10" d="M60.5,65.4c0.2-0.2,0.4-0.4,0.7-0.6c-0.3-0.1-0.6-0.1-0.9-0.1H55c-1.5,0-2.8,1.2-2.8,2.8
					c0,0.8,0.3,1.4,0.8,1.9c0.5,0.5,1.2,0.8,1.9,0.8h1.7C57.8,68.4,59.1,66.8,60.5,65.4z"/>
			</g>
		</g>
		<g id="Table">
		</g>
	</g>
	<g id="PROJECT_HÌNH_ẢNH">
	</g>
</g>
<g id="TABLE_DETAIL">
</g>
<g id="icon_đèn">
</g>
<g id="ICON_CLOSE_WHITE">
</g>
<g id="ICON_SƠ_ĐỒ">
</g>
<g id="ICON_SOLAR">
</g>
<g id="ICON_GRID">
</g>
<g id="ICON_WIND">
</g>
<g id="ICON_BATTERY">
</g>
<g id="ICON_LOAD">
</g>
<g id="SOLAR_BLACK">
</g>
<g id="GRID_BLACK">
</g>
<g id="WIND_BLACK">
</g>
<g id="BATTERY_BLACK">
</g>
<g id="LOAD_BLACK">
</g>
<g id="ICON">
</g>
</svg>
