<?xml version="1.0" encoding="utf-8"?>
<!-- Generator: Adobe Illustrator 22.0.0, SVG Export Plug-In . SVG Version: 6.00 Build 0)  -->
<svg version="1.1" xmlns="http://www.w3.org/2000/svg" xmlns:xlink="http://www.w3.org/1999/xlink" x="0px" y="0px"
	 viewBox="0 0 213.7 272.7" style="enable-background:new 0 0 213.7 272.7;" xml:space="preserve">
<style type="text/css">
	.st0{fill:#0A195C;}
	.st1{fill:#FFFFFF;}
	.st2{fill:none;stroke:#FFFFFF;stroke-width:1.0163;stroke-linecap:round;stroke-linejoin:round;stroke-miterlimit:10;}
	.st3{fill:#F26F21;}
	.st4{display:none;}
	.st5{display:inline;fill:#012169;}
	.st6{display:inline;}
	.st7{fill:#C8102E;}
	.st8{display:inline;fill-rule:evenodd;clip-rule:evenodd;fill:#E21936;}
	.st9{display:inline;fill-rule:evenodd;clip-rule:evenodd;fill:#FFD200;}
	.st10{display:inline;fill:#0A1A5C;}
	.st11{display:inline;fill:#0A1A5C;stroke:#000000;stroke-width:2.020941e-02;stroke-miterlimit:10;}
	
		.st12{display:inline;fill:none;stroke:#0A1A5C;stroke-width:1.1266;stroke-linecap:round;stroke-linejoin:round;stroke-miterlimit:10;}
	.st13{fill:none;stroke:#F37021;stroke-width:4;stroke-miterlimit:10;}
	.st14{fill:none;stroke:#CCCCCC;stroke-miterlimit:10;}
	.st15{fill:#0A1A5C;}
	.st16{fill:#9DA3BE;}
	.st17{fill:none;stroke:#CCCCCC;stroke-width:0.9689;stroke-miterlimit:10;}
	.st18{fill:#FFFFFF;stroke:#CCCCCC;stroke-width:0.9555;stroke-miterlimit:10;}
	.st19{fill:#CCCCCC;}
	.st20{fill:none;stroke:#CCCCCC;stroke-width:0.95;stroke-miterlimit:10;}
	.st21{fill:#999999;stroke:#CCCCCC;stroke-width:0.5866;stroke-miterlimit:10;}
	.st22{fill:#CCCCCC;stroke:#CCCCCC;stroke-width:0.9555;stroke-miterlimit:10;}
	.st23{fill:#F37021;}
	.st24{fill-rule:evenodd;clip-rule:evenodd;fill:#FFFFFF;}
	.st25{fill:#FFFFFF;stroke:#FFFFFF;stroke-miterlimit:10;}
	.st26{fill:#FFFFFF;stroke:#FFFFFF;stroke-width:0.3262;stroke-miterlimit:10;}
	.st27{fill-rule:evenodd;clip-rule:evenodd;fill:#0A1A5C;}
	.st28{fill:#FFFFFE;}
	.st29{fill:#AAAAAA;}
	.st30{fill:#E2E2E2;}
	.st31{fill:#565656;}
	.st32{fill:none;stroke:#0A1A5C;stroke-width:7;stroke-linecap:round;stroke-linejoin:round;stroke-miterlimit:10;}
	.st33{fill:#FFFFFF;stroke:#CCCCCC;stroke-width:1.0208;stroke-miterlimit:10;}
	.st34{fill:#FFFFFF;stroke:#0A1A5C;stroke-width:2;stroke-miterlimit:10;}
	.st35{fill:#0A1A5C;stroke:#000000;stroke-width:0.1154;stroke-miterlimit:10;}
	.st36{fill:none;stroke:#231F20;stroke-width:7.817870e-02;stroke-miterlimit:10;}
	.st37{fill:#FFFFFF;stroke:#231F20;stroke-width:7.817870e-02;stroke-miterlimit:10;}
	.st38{fill:#AAAAAA;stroke:#231F20;stroke-width:7.817870e-02;stroke-miterlimit:10;}
	.st39{fill:#00FF00;}
	.st40{fill:none;stroke:#CCCCCC;stroke-width:0.6948;stroke-miterlimit:10;}
	.st41{fill:#999999;}
	.st42{opacity:0.8;fill:#0A1A5C;}
	.st43{fill:#FFFFFF;stroke:#0A1A5C;stroke-width:1.7731;stroke-miterlimit:10;}
	.st44{fill:#9DA3BE;stroke:#000000;stroke-width:0.1894;stroke-miterlimit:10;}
	.st45{fill:#FFFFFF;stroke:#000000;stroke-width:0.1894;stroke-miterlimit:10;}
	.st46{fill:none;stroke:#000000;stroke-width:0.3787;stroke-miterlimit:10;}
	.st47{fill:#9DA3BE;stroke:#000000;stroke-width:0.2497;stroke-miterlimit:10;}
	.st48{fill:#999999;stroke:#000000;stroke-width:9.467980e-02;stroke-miterlimit:10;}
	.st49{fill:#FFFFFF;stroke:#000000;stroke-width:0.8866;stroke-miterlimit:10;}
	.st50{fill:#9DA3BE;stroke:#000000;stroke-width:0.5055;stroke-miterlimit:10;}
	.st51{fill:none;stroke:#FFFFFF;stroke-width:1.0383;stroke-miterlimit:10;}
	.st52{fill:#9DA3BE;stroke:#000000;stroke-width:0.2475;stroke-miterlimit:10;}
	.st53{fill:#9DA3BE;stroke:#000000;stroke-width:0.2789;stroke-miterlimit:10;}
	.st54{fill:#CCCCCC;stroke:#0A1A5C;stroke-width:1.7731;stroke-miterlimit:10;}
	.st55{fill:none;stroke:#000000;stroke-width:0.3971;stroke-miterlimit:10;}
	.st56{fill:#0A1A5C;stroke:#000000;stroke-width:0.3971;stroke-miterlimit:10;}
	.st57{fill:#0A1A5C;stroke:#000000;stroke-width:0.5415;stroke-miterlimit:10;}
	.st58{fill:#9DA3BE;stroke:#000000;stroke-width:0.3971;stroke-miterlimit:10;}
	.st59{fill:#0A1A5C;stroke:#000000;stroke-width:0.5217;stroke-miterlimit:10;}
	.st60{fill:#9DA3BE;stroke:#000000;stroke-width:0.4566;stroke-miterlimit:10;}
	.st61{fill:none;stroke:#000000;stroke-width:3.0646;stroke-linecap:round;stroke-miterlimit:10;}
	.st62{stroke:#000000;stroke-width:2.4414;stroke-linecap:round;stroke-miterlimit:10;}
	.st63{fill:none;stroke:#000000;stroke-width:3.2552;stroke-linecap:round;stroke-miterlimit:10;}
	.st64{fill:none;stroke:#000000;stroke-width:2.4414;stroke-linecap:round;stroke-miterlimit:10;}
	.st65{fill:none;}
	.st66{fill:none;stroke:#FFFFFF;stroke-width:0.8138;stroke-linecap:round;stroke-miterlimit:10;}
	.st67{fill:none;stroke:#FFFFFF;stroke-width:0.3926;stroke-linecap:round;stroke-miterlimit:10;}
	.st68{fill:none;stroke:#0A1A5C;stroke-width:1.5925;stroke-miterlimit:10;}
	.st69{opacity:0.6;fill:#0A1A5C;}
	.st70{fill:#9DA3BE;stroke:#000000;stroke-width:0.4052;stroke-miterlimit:10;}
	.st71{fill:none;stroke:#000000;stroke-width:0.8104;stroke-miterlimit:10;}
	.st72{fill:#0A1A5C;stroke:#000000;stroke-width:0.2571;stroke-miterlimit:10;}
	.st73{opacity:0.8;fill:#0A1A5C;stroke:#000000;stroke-width:0.1899;stroke-miterlimit:10;}
	.st74{opacity:0.8;fill:#0A1A5C;stroke:#000000;stroke-width:0.2192;stroke-miterlimit:10;}
	.st75{fill:#0A1A5C;stroke:#000000;stroke-width:0.1899;stroke-miterlimit:10;}
	.st76{fill:#9DA3BE;stroke:#000000;stroke-width:8.506256e-02;stroke-miterlimit:10;}
	.st77{fill:#9DA3BE;stroke:#000000;stroke-width:8.517154e-02;stroke-miterlimit:10;}
	.st78{fill:#9DA3BE;stroke:#000000;stroke-width:0.1102;stroke-miterlimit:10;}
	.st79{fill:#9DA3BE;stroke:#000000;stroke-width:8.838669e-02;stroke-miterlimit:10;}
	.st80{fill:#0A1A5C;stroke:#000000;stroke-width:0.1836;stroke-miterlimit:10;}
	.st81{fill:none;stroke:#231F20;stroke-width:0.1244;stroke-miterlimit:10;}
	.st82{fill:#FFFFFF;stroke:#231F20;stroke-width:0.1244;stroke-miterlimit:10;}
	.st83{fill:#AAAAAA;stroke:#231F20;stroke-width:0.1244;stroke-miterlimit:10;}
	.st84{fill:#0A1A5C;stroke:#000000;stroke-width:0.1861;stroke-miterlimit:10;}
	.st85{fill:none;stroke:#FFFFFF;stroke-width:1.1168;stroke-miterlimit:10;}
	.st86{fill:#9DA3BE;stroke:#000000;stroke-width:0.1861;stroke-miterlimit:10;}
	.st87{fill:none;stroke:#FFFFFF;stroke-width:1.8613;stroke-linecap:round;stroke-miterlimit:10;}
	.st88{fill:none;stroke:#FFFFFF;stroke-width:1.8613;stroke-linecap:round;stroke-miterlimit:10;stroke-dasharray:5.4518,5.4518;}
	.st89{fill:#0A1A5C;stroke:#000000;stroke-width:0.3925;stroke-miterlimit:10;}
	.st90{fill:#CCCCCC;stroke:#000000;stroke-width:0.2015;stroke-miterlimit:10;}
	.st91{fill:#FFFFFF;stroke:#B3B3B3;stroke-width:2;stroke-miterlimit:10;}
	.st92{fill:none;stroke:#FFFFFF;stroke-width:0.7732;stroke-linecap:round;stroke-linejoin:round;stroke-miterlimit:10;}
	.st93{fill:#0A1A5C;stroke:#0A1A5C;stroke-width:0.8422;stroke-miterlimit:10;}
	.st94{fill:none;stroke:#0A1A5C;stroke-width:0.8422;stroke-miterlimit:10;}
	.st95{fill:#FFFFFF;stroke:#0A1A5C;stroke-width:0.8422;stroke-miterlimit:10;}
	.st96{fill:#9DA3BE;stroke:#000000;stroke-width:0.5;stroke-miterlimit:10;}
	.st97{fill:#FFFFFF;stroke:#000000;stroke-width:0.5;stroke-miterlimit:10;}
	.st98{fill:none;stroke:#000000;stroke-miterlimit:10;}
	.st99{fill:#9DA3BE;stroke:#000000;stroke-width:0.6594;stroke-miterlimit:10;}
	.st100{fill:#999999;stroke:#000000;stroke-width:0.25;stroke-miterlimit:10;}
	.st101{fill:#0A1A5C;stroke:#000000;stroke-width:0.5;stroke-miterlimit:10;}
	.st102{fill:none;stroke:#231F20;stroke-width:0.3388;stroke-miterlimit:10;}
	.st103{fill:#FFFFFF;stroke:#231F20;stroke-width:0.3388;stroke-miterlimit:10;}
	.st104{fill:#AAAAAA;stroke:#231F20;stroke-width:0.3388;stroke-miterlimit:10;}
	.st105{fill:none;stroke:#FFFFFF;stroke-width:3;stroke-miterlimit:10;}
	.st106{fill:none;stroke:#FFFFFF;stroke-width:5;stroke-linecap:round;stroke-miterlimit:10;}
	.st107{fill:none;stroke:#FFFFFF;stroke-width:5;stroke-linecap:round;stroke-miterlimit:10;stroke-dasharray:15.6667,15.6667;}
	.st108{fill:#0A1A5C;stroke:#000000;stroke-width:0.6991;stroke-miterlimit:10;}
	.st109{fill:#CCCCCC;stroke:#000000;stroke-width:0.3589;stroke-miterlimit:10;}
	.st110{fill:#0A1A5C;stroke:#000000;stroke-width:0.9737;stroke-miterlimit:10;}
	.st111{fill:#CCCCCC;stroke:#000000;stroke-width:0.5;stroke-miterlimit:10;}
	.st112{fill:#9DA3BE;stroke:#000000;stroke-width:0.9737;stroke-miterlimit:10;}
	.st113{fill:none;stroke:#FFFFFF;stroke-width:2;stroke-miterlimit:10;}
	.st114{fill:#9DA3BE;stroke:#000000;stroke-width:0.4769;stroke-miterlimit:10;}
	.st115{fill:#9DA3BE;stroke:#000000;stroke-width:0.5373;stroke-miterlimit:10;}
	.st116{fill:#0A1A5C;stroke:#000000;stroke-miterlimit:10;}
	.st117{fill:#0A1A5C;stroke:#000000;stroke-width:1.3636;stroke-miterlimit:10;}
	.st118{fill:#9DA3BE;stroke:#000000;stroke-miterlimit:10;}
	.st119{fill:#0A1A5C;stroke:#000000;stroke-width:1.2821;stroke-miterlimit:10;}
	.st120{fill:#9DA3BE;stroke:#000000;stroke-width:1.122;stroke-miterlimit:10;}
	.st121{fill:none;stroke:#000000;stroke-width:7.5318;stroke-linecap:round;stroke-miterlimit:10;}
	.st122{stroke:#000000;stroke-width:6;stroke-linecap:round;stroke-miterlimit:10;}
	.st123{fill:none;stroke:#000000;stroke-width:8;stroke-linecap:round;stroke-miterlimit:10;}
	.st124{fill:none;stroke:#000000;stroke-width:6;stroke-linecap:round;stroke-miterlimit:10;}
	.st125{fill:none;stroke:#FFFFFF;stroke-width:2;stroke-linecap:round;stroke-miterlimit:10;}
	.st126{fill:none;stroke:#FFFFFF;stroke-width:0.965;stroke-linecap:round;stroke-miterlimit:10;}
	.st127{fill:none;stroke:#0A1A5C;stroke-width:3.9302;stroke-miterlimit:10;}
	.st128{fill:none;stroke:#000000;stroke-width:2;stroke-miterlimit:10;}
	.st129{fill:#0A1A5C;stroke:#000000;stroke-width:0.6345;stroke-miterlimit:10;}
	.st130{opacity:0.8;fill:#0A1A5C;stroke:#000000;stroke-width:0.4686;stroke-miterlimit:10;}
	.st131{opacity:0.8;fill:#0A1A5C;stroke:#000000;stroke-width:0.5411;stroke-miterlimit:10;}
	.st132{fill:#0A1A5C;stroke:#000000;stroke-width:0.4686;stroke-miterlimit:10;}
	.st133{fill:#9DA3BE;stroke:#000000;stroke-width:0.2099;stroke-miterlimit:10;}
	.st134{fill:#9DA3BE;stroke:#000000;stroke-width:0.2102;stroke-miterlimit:10;}
	.st135{fill:#9DA3BE;stroke:#000000;stroke-width:0.2719;stroke-miterlimit:10;}
	.st136{fill:#9DA3BE;stroke:#000000;stroke-width:0.2181;stroke-miterlimit:10;}
	.st137{fill:#E6E6E6;stroke:#000000;stroke-width:0.5;stroke-miterlimit:10;}
	.st138{opacity:0.8;fill:#0A1A5C;stroke:#000000;stroke-width:0.6496;stroke-miterlimit:10;}
	.st139{opacity:0.8;fill:#0A1A5C;stroke:#000000;stroke-width:0.6124;stroke-miterlimit:10;}
	.st140{opacity:0.8;fill:#0A1A5C;stroke:#000000;stroke-width:0.7631;stroke-miterlimit:10;}
	.st141{fill:#0A1A5C;stroke:#000000;stroke-width:0.7631;stroke-miterlimit:10;}
	.st142{opacity:0.8;fill:#0A1A5C;stroke:#000000;stroke-width:0.5176;stroke-miterlimit:10;}
	.st143{fill:none;stroke:#000000;stroke-width:0.4544;stroke-miterlimit:10;}
	.st144{fill:none;stroke:#000000;stroke-width:0.4237;stroke-miterlimit:10;}
	.st145{fill:#CCCCCC;stroke:#000000;stroke-width:0.4714;stroke-miterlimit:10;}
	.st146{fill:#CCCCCC;stroke:#000000;stroke-width:0.3708;stroke-miterlimit:10;}
	.st147{fill:#24325E;stroke:#000000;stroke-width:0.3568;stroke-miterlimit:10;}
	.st148{fill:#0A1A5C;stroke:#000000;stroke-width:0.3909;stroke-miterlimit:10;}
	.st149{opacity:0.8;}
	.st150{fill:none;stroke:#000000;stroke-width:0.8333;stroke-miterlimit:10;}
	.st151{fill:#0A1A5C;stroke:#000000;stroke-width:0.4265;stroke-miterlimit:10;}
	.st152{fill:#9DA3BE;stroke:#000000;stroke-width:0.3933;stroke-miterlimit:10;}
	.st153{fill:#F2F2F2;stroke:#000000;stroke-width:0.5427;stroke-miterlimit:10;}
	.st154{fill:#9DA3BE;stroke:#000000;stroke-width:0.2821;stroke-miterlimit:10;}
	.st155{fill:#0A1A5C;stroke:#000000;stroke-width:0.3182;stroke-miterlimit:10;}
	.st156{fill:#9DA3BE;stroke:#000000;stroke-width:0.5477;stroke-miterlimit:10;}
	.st157{fill:#9DA3BE;stroke:#000000;stroke-width:0.4946;stroke-miterlimit:10;}
	.st158{fill:#F2F2F2;stroke:#000000;stroke-width:0.4268;stroke-miterlimit:10;}
	.st159{fill:#F2F2F2;stroke:#000000;stroke-width:0.25;stroke-miterlimit:10;}
	.st160{fill:#F2F2F2;}
	.st161{fill:#0A1A5C;stroke:#0A1A5C;stroke-width:0.25;stroke-miterlimit:10;}
	.st162{fill:#1C1C1C;}
	.st163{fill:none;stroke:#0A1A5C;stroke-width:0.75;stroke-miterlimit:10;}
	.st164{fill:none;stroke:#0A1A5C;stroke-width:0.75;stroke-miterlimit:10;stroke-dasharray:2.6667,2.6667;}
	
		.st165{fill:none;stroke:#0A1A5C;stroke-width:2;stroke-linecap:round;stroke-linejoin:round;stroke-miterlimit:10;stroke-dasharray:5;}
	.st166{fill:#9DA3BE;stroke:#000000;stroke-width:0.3748;stroke-miterlimit:10;}
	.st167{fill:none;stroke:#FFFFFF;stroke-width:0.7699;stroke-miterlimit:10;}
	.st168{fill:#9DA3BE;stroke:#000000;stroke-width:0.1836;stroke-miterlimit:10;}
	.st169{fill:#9DA3BE;stroke:#000000;stroke-width:0.2068;stroke-miterlimit:10;}
	.st170{fill:none;stroke:#FFFFFF;stroke-miterlimit:10;}
	.st171{fill:none;stroke:#FFFFFF;stroke-miterlimit:10;stroke-dasharray:3.5;}
</style>
<g id="Layer_1">
</g>
<g id="icon">
	<g>
		<g class="st149">
			<path class="st23" d="M51.4,20.5c-6.2,2.5-5.3,7.4,1.3,7.6c-6.7-0.3-7.9,4.5-1.9,7.5c-6-3-9.1,0.9-4.8,6.1
				c-4.3-5.2-8.7-2.9-6.9,3.6c-1.8-6.5-6.8-6.2-7.7,0.5c1-6.7-3.7-8.4-7.3-2.7c3.6-5.7,0.1-9.2-5.6-5.4c5.6-3.8,3.8-8.4-2.9-7.2
				c6.7-1.2,6.9-6.1,0.3-7.8c6.6,1.6,8.8-2.8,3.4-7c5.3,4.1,9.2,0.9,6-5c3.2,5.9,8,4.6,7.5-2.1c0.5,6.7,5.4,7.4,7.7,1.1
				c-2.3,6.3,1.9,8.9,6.6,4.1C42.4,18.8,45.2,23,51.4,20.5z"/>
		</g>
		<circle class="st23" cx="34.1" cy="27.4" r="10"/>
		<circle class="st150" cx="160" cy="145" r="10"/>
		
			<rect x="96.6" y="90.2" transform="matrix(1 -3.601385e-03 3.601385e-03 1 -0.6436 0.396)" class="st151" width="26" height="177.5"/>
		
			<rect x="19.6" y="166.7" transform="matrix(1 -3.601385e-03 3.601385e-03 1 -0.6247 0.3959)" class="st151" width="180" height="14"/>
		<path class="st152" d="M73.1,166.8l-28,0.1c-1.9,0-3.5-1.6-3.5-3.5l-0.1-28c0-1.9,1.6-3.5,3.5-3.5l28-0.1c1.9,0,3.5,1.6,3.5,3.5
			l0.1,28C76.6,165.2,75,166.8,73.1,166.8z"/>
		<polygon class="st153" points="196.7,58.8 172.5,58.9 160.6,76 172.6,92.9 196.8,92.8 183.5,75.9 		"/>
		<path class="st154" d="M174.1,166.4l-28,0.1c-1.9,0-3.5-1.6-3.5-3.5l0-11c0-1.9,1.6-3.5,3.5-3.5l28-0.1c1.9,0,3.5,1.6,3.5,3.5
			l0,11C177.6,164.8,176,166.4,174.1,166.4z"/>
		
			<rect x="146" y="144.5" transform="matrix(1 -3.601385e-03 3.601385e-03 1 -0.5265 0.5773)" class="st155" width="28" height="4"/>
		<path class="st156" d="M114.8,90.1l-11,0c-1.9,0-3.5-1.6-3.5-3.5l-0.1-18c0-1.9,1.6-3.5,3.5-3.5l11,0c1.9,0,3.5,1.6,3.5,3.5
			l0.1,18C118.3,88.6,116.8,90.1,114.8,90.1z"/>
		<path class="st156" d="M99.1,81.2l-53.7,0.2c-0.6,0-1.2-0.5-1.2-1.2l0-7.7c0-0.6,0.5-1.2,1.2-1.2l53.7-0.2c0.6,0,1.2,0.5,1.2,1.2
			l0,7.7C100.3,80.7,99.8,81.2,99.1,81.2z"/>
		<path class="st157" d="M162.8,81l-43.3,0.2c-0.6,0-1.2-0.5-1.2-1.2l0-7.7c0-0.6,0.5-1.2,1.2-1.2l43.3-0.2c0.6,0,1.2,0.5,1.2,1.2
			l0,7.7C163.9,80.4,163.4,81,162.8,81z"/>
		<circle class="st158" cx="38.8" cy="75.9" r="15"/>
		<path class="st159" d="M121.5,28.6c0.1-0.5,0.1-1,0.1-1.5c0-6.1-5-11-11-11c-4.3,0-8,2.5-9.8,6.1c-1.7-1.3-3.9-2-6.2-2
			c-5.8,0-10.5,4.7-10.5,10.5c0,5,3.5,9.2,8.2,10.2c0.6,0.2,1.2,0.3,1.8,0.3l25-0.1c3.6,0,6.5-2.9,6.5-6.5
			C125.6,31.9,123.9,29.5,121.5,28.6z"/>
		<path class="st159" d="M55.5,35.8c0.1-0.5,0.1-1,0.1-1.5c0-6.1-5-11-11-11c-4.3,0-8,2.5-9.8,6.1c-1.7-1.3-3.9-2-6.2-2
			c-5.8,0-10.5,4.7-10.5,10.5c0,5,3.5,9.2,8.2,10.2c0.6,0.2,1.2,0.3,1.8,0.3l25-0.1c3.6,0,6.5-2.9,6.5-6.5
			C59.6,39.1,57.9,36.8,55.5,35.8z"/>
		<path class="st159" d="M131.3,41.3c0-0.3,0.1-0.6,0.1-0.9c0-3.8-3.1-6.8-6.8-6.8c-2.7,0-4.9,1.5-6.1,3.8c-1.1-0.8-2.4-1.3-3.8-1.2
			c-3.6,0-6.5,2.9-6.5,6.5c0,3.1,2.2,5.7,5.1,6.3c0.4,0.1,0.7,0.2,1.1,0.2l15.5-0.1c2.2,0,4-1.8,4-4
			C133.9,43.4,132.8,41.9,131.3,41.3z"/>
		
			<rect x="171.7" y="39.2" transform="matrix(1 -3.601385e-03 3.601385e-03 1 -0.1561 0.65)" class="st160" width="17.5" height="9"/>
		<path class="st161" d="M47.8,50.4L47.8,50.4l-0.1,0l-0.1,0l-9.1,0l0,0.6l6.9,0l0.6,0l1.6,0l0.1,0c1.7,0,3.1,1.4,3.1,3
			c0,1.3-1.1,2.4-2.4,2.4c-1,0-1.9-0.8-1.9-1.8c0-0.8,0.6-1.4,1.4-1.4c0.6,0,1.1,0.5,1.1,1.1c0,0.4-0.4,0.8-0.8,0.8
			c-0.3,0-0.6-0.3-0.6-0.6l0-0.1l-0.6,0l0,0.1c0,0.7,0.5,1.2,1.2,1.2c0.8,0,1.4-0.6,1.4-1.4c0-0.9-0.8-1.7-1.7-1.7c-1.1,0-2,0.9-2,2
			c0,1.3,1.1,2.4,2.5,2.4c1.6,0,3-1.3,3-3C51.4,52,49.8,50.4,47.8,50.4z"/>
		<path class="st15" d="M49.6,46.4L49.6,46.4l-0.2,0l-0.2,0l-15.5,0.1l0-0.9l11.8,0l1.1,0l2.7,0l0.2,0c2.9,0,5.2-2.2,5.2-4.9
			c0-2.1-1.8-3.8-4.1-3.8c-1.7,0-3.2,1.3-3.1,2.9c0,1.2,1.1,2.2,2.4,2.2c1,0,1.8-0.8,1.8-1.7c0-0.7-0.6-1.3-1.4-1.3
			c-0.5,0-1,0.4-1,0.9l0,0.2l-1,0l0-0.2c0-1,0.9-1.9,2-1.9c1.3,0,2.4,1,2.4,2.2c0,1.5-1.3,2.7-2.9,2.7c-1.9,0-3.5-1.4-3.5-3.2
			c0-2.1,1.9-3.9,4.2-3.9c2.8,0,5.1,2.1,5.1,4.7C55.7,43.7,53,46.3,49.6,46.4z"/>
		<g>
			<line class="st162" x1="35.7" y1="48.4" x2="48.7" y2="48.4"/>
			<g>
				<line class="st163" x1="35.7" y1="48.4" x2="38.2" y2="48.4"/>
				<line class="st164" x1="40.8" y1="48.4" x2="44.8" y2="48.4"/>
				<line class="st163" x1="46.2" y1="48.4" x2="48.7" y2="48.4"/>
			</g>
		</g>
		<g class="st149">
			<path class="st23" d="M192.4,20c-6.2,2.5-5.3,7.4,1.3,7.6c-6.7-0.3-7.9,4.5-1.9,7.5c-6-3-9.1,0.9-4.8,6.1
				c-4.3-5.2-8.7-2.9-6.9,3.6c-1.8-6.5-6.8-6.2-7.7,0.5c1-6.7-3.7-8.4-7.3-2.7c3.6-5.7,0.1-9.2-5.6-5.4c5.6-3.8,3.8-8.4-2.9-7.2
				c6.7-1.2,6.9-6.1,0.3-7.8c6.6,1.6,8.8-2.8,3.4-7c5.3,4.1,9.2,0.9,6-5c3.2,5.9,8,4.6,7.5-2.1c0.5,6.7,5.4,7.4,7.7,1.1
				c-2.3,6.3,1.9,8.9,6.6,4.1C183.4,18.3,186.2,22.5,192.4,20z"/>
		</g>
		<circle class="st23" cx="175.1" cy="26.9" r="10"/>
		<path class="st159" d="M196.5,35.3c0.1-0.5,0.1-1,0.1-1.5c0-6.1-5-11-11-11c-4.3,0-8,2.5-9.8,6.1c-1.7-1.3-3.9-2-6.2-2
			c-5.8,0-10.5,4.7-10.5,10.5c0,5,3.5,9.2,8.2,10.2c0.6,0.2,1.2,0.3,1.8,0.3l25-0.1c3.6,0,6.5-2.9,6.5-6.5
			C200.6,38.6,198.9,36.3,196.5,35.3z"/>
		
			<rect x="172.7" y="39.2" transform="matrix(1 -3.601385e-03 3.601385e-03 1 -0.156 0.6536)" class="st160" width="17.5" height="9"/>
		<line class="st165" x1="171.6" y1="40.4" x2="180.7" y2="53.4"/>
		<line class="st165" x1="176.6" y1="40.4" x2="185.7" y2="53.4"/>
		<line class="st165" x1="181.6" y1="40.4" x2="190.7" y2="53.4"/>
	</g>
</g>
</svg>
