<?xml version="1.0" encoding="utf-8"?>
<!-- Generator: Adobe Illustrator 22.0.0, SVG Export Plug-In . SVG Version: 6.00 Build 0)  -->
<svg version="1.1" xmlns="http://www.w3.org/2000/svg" xmlns:xlink="http://www.w3.org/1999/xlink" x="0px" y="0px"
	 viewBox="0 0 97.1 96.9" style="enable-background:new 0 0 97.1 96.9;" xml:space="preserve">
<style type="text/css">
	.st0{fill:#0A1A5C;}
	.st1{fill:#F37021;}
	.st2{fill:#CCCCCC;}
	.st3{fill:#FFD4A6;}
	.st4{fill:#9DA3BE;}
	.st5{fill:#FF0000;}
	.st6{fill:#00FF00;}
	.st7{display:none;fill:#E5E5E5;}
	.st8{fill:none;stroke:#0A1A5C;stroke-width:5.0184;stroke-linecap:round;stroke-linejoin:round;stroke-miterlimit:10;}
	.st9{fill:#0A195C;}
	.st10{fill:#FFFFFF;}
	.st11{fill:none;stroke:#FFFFFF;stroke-width:1.0163;stroke-linecap:round;stroke-linejoin:round;stroke-miterlimit:10;}
	.st12{fill:#F26F21;}
	.st13{display:none;}
	.st14{display:inline;fill:#012169;}
	.st15{display:inline;}
	.st16{fill:#C8102E;}
	.st17{display:inline;fill-rule:evenodd;clip-rule:evenodd;fill:#E21936;}
	.st18{display:inline;fill-rule:evenodd;clip-rule:evenodd;fill:#FFD200;}
	.st19{display:inline;fill:#0A1A5C;}
	.st20{display:inline;fill:#0A1A5C;stroke:#000000;stroke-width:2.020941e-02;stroke-miterlimit:10;}
	
		.st21{display:inline;fill:none;stroke:#0A1A5C;stroke-width:1.1266;stroke-linecap:round;stroke-linejoin:round;stroke-miterlimit:10;}
	.st22{fill:none;stroke:#F37021;stroke-width:4;stroke-miterlimit:10;}
	.st23{fill:none;stroke:#CCCCCC;stroke-miterlimit:10;}
	.st24{fill:none;stroke:#E6E6E6;stroke-width:1.2119;stroke-miterlimit:10;}
	.st25{fill:#999999;}
	.st26{fill:#CCCCCC;stroke:#CCCCCC;stroke-width:1.0208;stroke-miterlimit:10;}
	.st27{fill:#FFFFFF;stroke:#999999;stroke-width:0.5832;stroke-miterlimit:10;}
	.st28{fill:none;stroke:#FFFFFF;stroke-width:0.7732;stroke-linecap:round;stroke-linejoin:round;stroke-miterlimit:10;}
	.st29{fill-rule:evenodd;clip-rule:evenodd;fill:#FFFFFF;}
	.st30{fill:#FFFFFF;stroke:#FFFFFF;stroke-miterlimit:10;}
	.st31{fill:#FFFFFF;stroke:#FFFFFF;stroke-width:0.3262;stroke-miterlimit:10;}
	.st32{fill-rule:evenodd;clip-rule:evenodd;fill:#0A1A5C;}
	.st33{fill:#FFFFFE;}
	.st34{fill:none;stroke:#CCCCCC;stroke-width:0.8657;stroke-miterlimit:10;}
	.st35{fill:#FFFFFF;stroke:#CCCCCC;stroke-width:0.9555;stroke-miterlimit:10;}
	.st36{fill:none;stroke:#CCCCCC;stroke-width:0.8423;stroke-miterlimit:10;}
	.st37{fill:#999999;stroke:#CCCCCC;stroke-width:0.5866;stroke-miterlimit:10;}
	.st38{fill:#CCCCCC;stroke:#CCCCCC;stroke-width:0.9555;stroke-miterlimit:10;}
	.st39{fill:#FFFFFF;stroke:#CCCCCC;stroke-width:1.0208;stroke-miterlimit:10;}
	.st40{fill-rule:evenodd;clip-rule:evenodd;}
	.st41{fill:#FFFFFF;stroke:#FFFFFF;stroke-width:0.7732;stroke-linecap:round;stroke-linejoin:round;stroke-miterlimit:10;}
	.st42{opacity:0.6;}
	.st43{fill:none;}
	.st44{opacity:0.2;}
	.st45{fill:#FFFFFF;stroke:#FFFFFF;stroke-width:0.8783;stroke-miterlimit:10;}
	.st46{fill:#FFFFFF;stroke:#FFFFFF;stroke-width:0.8713;stroke-miterlimit:10;}
	.st47{fill:none;stroke:#B3B3B3;stroke-width:1.1187;stroke-miterlimit:10;}
	.st48{fill:#0A1A5C;stroke:#CCCCCC;stroke-width:0.6643;stroke-miterlimit:10;}
	.st49{fill:#0A1A5C;stroke:#CCCCCC;stroke-width:0.7299;stroke-miterlimit:10;}
	.st50{fill:none;stroke:#CCCCCC;stroke-width:0.7297;stroke-miterlimit:10;}
	.st51{fill:none;stroke:#FFFFFF;stroke-width:0.8301;stroke-miterlimit:10;}
	.st52{fill:#FFFFFF;stroke:#FFFFFF;stroke-width:0.8301;stroke-linecap:round;stroke-linejoin:round;stroke-miterlimit:10;}
	.st53{fill:#FFFFFF;stroke:#CCCCCC;stroke-width:0.7857;stroke-miterlimit:10;}
	.st54{fill:#FFFFFF;stroke:#CCCCCC;stroke-width:0.8632;stroke-miterlimit:10;}
	.st55{fill:#FFFFFF;stroke:#CCCCCC;stroke-width:0.6117;stroke-miterlimit:10;}
	.st56{fill:#F9F9F9;stroke:#CCCCCC;stroke-width:0.7857;stroke-miterlimit:10;}
	.st57{display:none;fill:#0A1A5C;}
	.st58{display:inline;fill:#FFFFFF;}
	.st59{fill:#0A1A5C;stroke:#CCCCCC;stroke-width:0.7857;stroke-miterlimit:10;}
	.st60{opacity:0.4;fill:#0A1A5C;stroke:#CCCCCC;stroke-width:0.8632;stroke-miterlimit:10;}
	.st61{opacity:0.4;fill:#0A1A5C;stroke:#CCCCCC;stroke-width:0.6117;stroke-miterlimit:10;}
	.st62{fill:#AAAAAA;}
	.st63{fill:#E2E2E2;}
	.st64{fill:#565656;}
	.st65{fill:#E6E6E6;}
	.st66{fill:none;stroke:#000000;stroke-width:0.7732;stroke-miterlimit:10;}
	.st67{stroke:#000000;stroke-width:0.7732;stroke-linecap:round;stroke-linejoin:round;stroke-miterlimit:10;}
	.st68{fill:#9DA3BE;stroke:#FFFFFF;stroke-miterlimit:10;}
	.st69{fill-rule:evenodd;clip-rule:evenodd;fill:#F37021;}
	.st70{fill:#FFFFFF;stroke:#000000;stroke-width:0.75;stroke-miterlimit:10;}
	.st71{fill:#FFFFFF;stroke:#000000;stroke-miterlimit:10;}
	.st72{fill:#9DA3BE;stroke:#FFFFFF;stroke-width:0.75;stroke-miterlimit:10;}
	.st73{fill:#FFD4A6;stroke:#FFFFFF;stroke-width:0.75;stroke-miterlimit:10;}
	.st74{fill:#FFFFFF;stroke:#FFFFFF;stroke-width:0.75;stroke-miterlimit:10;}
	.st75{fill:none;stroke:#999999;stroke-width:10;stroke-linecap:round;stroke-linejoin:round;stroke-miterlimit:10;}
	.st76{fill:#FFFFFF;stroke:#999999;stroke-miterlimit:10;}
	.st77{fill:none;stroke:#FFFFFF;stroke-width:0.9862;stroke-miterlimit:10;}
	.st78{opacity:0.1;}
	.st79{fill:none;stroke:#B3B3B3;stroke-width:10;stroke-linecap:round;stroke-miterlimit:10;}
	.st80{fill:none;stroke:#E6E6E6;stroke-width:1.239;stroke-miterlimit:10;}
	.st81{fill:none;stroke:#B3B3B3;stroke-width:1.2222;stroke-miterlimit:10;}
	.st82{fill:none;stroke:#000000;stroke-width:2;stroke-miterlimit:10;}
	.st83{fill:none;stroke:#FFFFFF;stroke-width:3;stroke-linecap:round;stroke-linejoin:round;stroke-miterlimit:10;}
	.st84{fill:none;stroke:#FFFFFF;stroke-width:3;stroke-miterlimit:10;}
	.st85{fill:#FFFFFF;stroke:#FFFFFF;stroke-width:3;stroke-linecap:round;stroke-linejoin:round;stroke-miterlimit:10;}
	.st86{fill:none;stroke:#000000;stroke-width:3;stroke-miterlimit:10;}
	.st87{stroke:#000000;stroke-width:3;stroke-linecap:round;stroke-linejoin:round;stroke-miterlimit:10;}
	.st88{fill:#D8D8D8;}
</style>
<g id="Color">
</g>
<g id="PROJECT_DETAIL">
</g>
<g id="MODULE_DETAIL_1_">
</g>
<g id="MENU_DETAIL">
</g>
<g id="WEB_1">
	<g id="body">
		<g id="dự_án">
		</g>
	</g>
	<g id="header">
	</g>
</g>
<g id="WEB_Ver_2">
	<g id="WEB_2">
		<g id="Header">
			<g id="logo">
			</g>
		</g>
		<g id="Body">
			<g id="thanh_menu">
			</g>
		</g>
		<g id="Table">
		</g>
	</g>
	<g id="PROJECT_HÌNH_ẢNH">
	</g>
</g>
<g id="TABLE_DETAIL">
</g>
<g id="icon_đèn">
</g>
<g id="ICON_CLOSE_WHITE">
</g>
<g id="ICON_SƠ_ĐỒ">
</g>
<g id="ICON_SOLAR">
</g>
<g id="ICON_GRID">
	<path class="st0" d="M85,97H12C5.4,97,0,91.6,0,85V12C0,5.4,5.4,0,12,0h73c6.6,0,12,5.4,12,12v73C97,91.6,91.6,97,85,97z"/>
	<path class="st29" d="M76.9,80.1H20.2c-0.6,0-1.1-0.5-1.1-1.1v-6.2c0-0.6,0.5-1.1,1.1-1.1H32l8-23.3h-7l-1.6,2.3
		c0.7,0,1.3,0.6,1.3,1.3c0,0.7-0.6,1.3-1.3,1.3h-1.2v0.7c0,0.7-0.6,1.3-1.3,1.3c-0.7,0-1.3-0.6-1.3-1.3v-0.7h-1.2
		c-0.7,0-1.3-0.6-1.3-1.3c0-0.7,0.6-1.3,1.3-1.3h1.8l3-4.4c0.1-0.1,0.1-0.2,0.2-0.3c0.1-0.1,0.2-0.1,0.3-0.2l8.9-4.4v-6H33l-1.6,2.3
		c0.7,0,1.3,0.6,1.3,1.3c0,0.7-0.6,1.3-1.3,1.3h-1.2v0.7c0,0.7-0.6,1.3-1.3,1.3c-0.7,0-1.3-0.6-1.3-1.3v-0.7h-1.2
		c-0.7,0-1.3-0.6-1.3-1.3c0-0.7,0.6-1.3,1.3-1.3h1.8l3-4.4c0.1-0.1,0.2-0.2,0.3-0.3c0.1-0.1,0.2-0.1,0.2-0.2l9.3-4.6l6.4-10.7
		c0.2-0.4,0.7-0.6,1.2-0.6c0.5,0,0.9,0.2,1.2,0.6l6.4,10.7l9.3,4.6c0,0,0.1,0,0.1,0.1c0.1,0.1,0.3,0.2,0.4,0.4l3,4.4l1.8,0
		c0.7,0,1.3,0.6,1.3,1.3c0,0.7-0.6,1.3-1.3,1.3h-1.2v0.7c0,0.7-0.6,1.3-1.3,1.3c-0.7,0-1.3-0.6-1.3-1.3v-0.7h-1.2
		c-0.7,0-1.3-0.6-1.3-1.3c0-0.7,0.6-1.3,1.3-1.3l-1.6-2.3h-7.6v6l8.9,4.4c0.1,0,0.1,0.1,0.2,0.1c0.1,0.1,0.2,0.2,0.3,0.3l3,4.4h1.8
		c0.7,0,1.3,0.6,1.3,1.3c0,0.7-0.6,1.3-1.3,1.3h-1.2v0.7c0,0.7-0.6,1.3-1.3,1.3c-0.7,0-1.3-0.6-1.3-1.3v-0.7h-1.2
		c-0.7,0-1.3-0.6-1.3-1.3c0-0.7,0.6-1.3,1.3-1.3l-1.6-2.3h-7l4.2,12.3c0,0,0,0,0,0l3.8,11h11.7c0.6,0,1.1,0.5,1.1,1.1V79
		C78,79.6,77.5,80.1,76.9,80.1L76.9,80.1z M55.5,71.7l-6.7-3.4l-6.7,3.4H55.5L55.5,71.7z M45.8,66.9l-8-4l-3.1,8.9h1.4
		c0,0,0.1-0.1,0.2-0.1L45.8,66.9L45.8,66.9z M39.6,57.7l6.9-5.4l-4-3.1L39.6,57.7L39.6,57.7z M48.7,50.7l2.9-2.3h-5.9L48.7,50.7
		L48.7,50.7z M54.5,49l-3.9,3l6.8,5.3L54.5,49L54.5,49z M48.4,53.8L39.1,61l9.2,4.7l9.3-4.7L48.4,53.8L48.4,53.8z M51.3,67.1
		l9.1,4.6h1.9l-3-8.7L51.3,67.1L51.3,67.1z M50.2,38.1l3.6,4.9v-0.7c0,0,0,0,0,0V34c0,0,0,0,0,0c0,0,0,0,0,0v-0.7L50.2,38.1
		L50.2,38.1z M48.6,35.9l4-5.3h-7.9L48.6,35.9L48.6,35.9z M44.6,45.7h7.9l-4-5.3L44.6,45.7L44.6,45.7z M43.2,43l3.6-4.9l-3.6-4.9V43
		L43.2,43z M40.6,45.7v-1.3L38,45.7H40.6L40.6,45.7z M56.5,44.4v1.3h2.6L56.5,44.4L56.5,44.4z M40.6,32.7v-1.3L38,32.7H40.6
		L40.6,32.7z M56.5,31.4v1.3l2.6,0L56.5,31.4L56.5,31.4z M52.8,27.9l-4.3-7.1l-4.3,7.1H52.8z"/>
</g>
<g id="ICON_WIND">
</g>
<g id="ICON_BATTERY">
</g>
<g id="ICON_LOAD">
</g>
<g id="SOLAR_BLACK">
</g>
<g id="GRID_BLACK">
</g>
<g id="WIND_BLACK">
</g>
<g id="BATTERY_BLACK">
</g>
<g id="LOAD_BLACK">
</g>
<g id="ICON">
</g>
</svg>
