<?xml version="1.0" encoding="utf-8"?>
<!-- Generator: Adobe Illustrator 23.0.0, SVG Export Plug-In . SVG Version: 6.00 Build 0)  -->
<svg version="1.1" xmlns="http://www.w3.org/2000/svg" xmlns:xlink="http://www.w3.org/1999/xlink" x="0px" y="0px"
	 viewBox="0 0 3710 3710" style="enable-background:new 0 0 3710 3710;" xml:space="preserve">
<style type="text/css">
	.st0{display:none;}
	.st1{fill:url(#SVGID_1_);}
	.st2{fill:url(#SVGID_2_);}
	.st3{fill:#91B3FA;}
	.st4{fill:url(#SVGID_3_);}
	.st5{fill:#BDD0FB;}
	.st6{fill:url(#SVGID_4_);}
	.st7{opacity:0.37;fill:#FFFFFF;}
	.st8{fill:url(#SVGID_5_);}
	.st9{fill:url(#SVGID_6_);}
	.st10{fill:url(#SVGID_7_);}
	.st11{fill:url(#SVGID_8_);}
	.st12{opacity:0.67;fill:#91B3FA;}
	.st13{opacity:0.78;fill:#FFFFFF;}
	.st14{fill:url(#SVGID_9_);}
	.st15{fill:url(#SVGID_10_);}
	.st16{opacity:0.6;fill:#FFFFFF;}
	.st17{fill:url(#SVGID_11_);}
	.st18{fill:url(#SVGID_12_);}
	.st19{fill:url(#SVGID_13_);}
	.st20{fill:url(#SVGID_14_);}
	.st21{fill:url(#SVGID_15_);}
	.st22{fill:url(#SVGID_16_);}
	.st23{fill:url(#SVGID_17_);}
	.st24{fill:url(#SVGID_18_);}
	.st25{fill:url(#SVGID_19_);}
	.st26{fill:url(#SVGID_20_);}
	.st27{fill:url(#SVGID_21_);}
	.st28{fill:url(#SVGID_22_);}
	.st29{fill:url(#SVGID_23_);}
	.st30{fill:url(#SVGID_24_);}
	.st31{fill:#7D97F4;}
	.st32{fill:url(#SVGID_25_);}
	.st33{fill:url(#SVGID_26_);}
	.st34{fill:url(#SVGID_27_);}
	.st35{fill:url(#SVGID_28_);}
	.st36{fill:url(#SVGID_29_);}
	.st37{fill:url(#SVGID_30_);}
	.st38{fill:url(#SVGID_31_);}
	.st39{fill:url(#SVGID_32_);}
	.st40{fill:url(#SVGID_33_);}
	.st41{fill:url(#SVGID_34_);}
	.st42{fill:url(#SVGID_35_);}
	.st43{fill:#FFFFFF;}
	.st44{fill:url(#SVGID_36_);}
	.st45{fill:url(#SVGID_37_);}
	.st46{fill:url(#SVGID_38_);}
	.st47{fill:url(#SVGID_39_);}
	.st48{fill:url(#SVGID_40_);}
	.st49{fill:url(#SVGID_41_);}
	.st50{fill:url(#SVGID_42_);}
	.st51{opacity:0.7;fill:#FFFFFF;}
	.st52{fill:url(#SVGID_43_);}
	.st53{fill:url(#SVGID_44_);}
	.st54{fill:url(#SVGID_45_);}
	.st55{fill:url(#SVGID_46_);}
	.st56{fill:url(#SVGID_47_);}
	.st57{fill:url(#SVGID_48_);}
	.st58{fill:url(#SVGID_49_);}
	.st59{fill:url(#SVGID_50_);}
	.st60{fill:url(#SVGID_51_);}
	.st61{fill:url(#SVGID_52_);}
	.st62{fill:url(#SVGID_53_);}
	.st63{fill:url(#SVGID_54_);}
	.st64{fill:url(#SVGID_55_);}
	.st65{fill:url(#SVGID_56_);}
	.st66{fill:url(#SVGID_57_);}
	.st67{fill:url(#SVGID_58_);}
	.st68{fill:url(#SVGID_59_);}
	.st69{fill:url(#SVGID_60_);}
	.st70{fill:url(#SVGID_61_);}
	.st71{fill:url(#SVGID_62_);}
	.st72{fill:url(#SVGID_63_);}
	.st73{fill:url(#SVGID_64_);}
	.st74{fill:url(#SVGID_65_);}
	.st75{fill:url(#SVGID_66_);}
	.st76{fill:url(#SVGID_67_);}
	.st77{fill:url(#SVGID_68_);}
	.st78{fill:url(#SVGID_69_);}
	.st79{fill:url(#SVGID_70_);}
	.st80{fill:url(#SVGID_71_);}
	.st81{fill:url(#SVGID_72_);}
	.st82{fill:url(#SVGID_73_);}
	.st83{fill:url(#SVGID_74_);}
	.st84{fill:url(#SVGID_75_);}
	.st85{fill:url(#SVGID_76_);}
</style>
<g id="Background" class="st0">
</g>
<g id="Illustration">
	<g>
		<linearGradient id="SVGID_1_" gradientUnits="userSpaceOnUse" x1="3419.3018" y1="3609.677" x2="1372.696" y2="1400.6421">
			<stop  offset="0" style="stop-color:#DAE3FE"/>
			<stop  offset="1" style="stop-color:#E9EFFD"/>
		</linearGradient>
		<path class="st1" d="M3134.09,2350.83c-281.22,657.32-1023.54,939.65-1605.17,891.51c-158.81-13.14-478.33-39.59-727.82-275.52
			c-479.12-453.09-405.33-1400.18,53.32-1957.77c59.07-71.81,467.91-552.9,1105.01-546.46c466.45,4.71,793.85,268.21,833.66,301.03
			c50.29,41.47,161.21,140.01,261.18,296.34C3289.18,1427.29,3309.83,1940.07,3134.09,2350.83z"/>
		<g>
			<g>
				<linearGradient id="SVGID_2_" gradientUnits="userSpaceOnUse" x1="1619.3109" y1="2665.9617" x2="2232.7273" y2="825.707">
					<stop  offset="0" style="stop-color:#09005D"/>
					<stop  offset="1" style="stop-color:#1A0F91"/>
				</linearGradient>
				<path class="st2" d="M3127.82,2755.29c0,27.15-20.42,49.36-45.38,49.36H628.76c-24.96,0-45.37-22.21-45.37-49.36l-20.42-1535.52
					c0-27.15,29.37-80.16,83.21-76.17l2398.01-67.57c31.31-0.88,61.59,12.24,83.76,36.31c22.17,24.07,34.31,56.98,33.57,91.04
					L3127.82,2755.29z"/>
				<path class="st3" d="M3083.02,2707.93c0,25.71-19.32,46.75-42.93,46.75H687.93c-23.61,0-42.93-21.04-42.93-46.75l-19.27-1393.96
					c2.27-83.88,69.8-114.03,110.74-112.25c0,0,1874.26-54.76,2298.27-67.15c22-0.64,43.27,8.59,58.85,25.51
					c15.58,16.92,24.15,40.08,23.6,64.04L3083.02,2707.93z"/>
			</g>
			<linearGradient id="SVGID_3_" gradientUnits="userSpaceOnUse" x1="1956.1681" y1="1755.1035" x2="1828.9064" y2="3149.8879">
				<stop  offset="0" style="stop-color:#09005D"/>
				<stop  offset="1" style="stop-color:#1A0F91"/>
			</linearGradient>
			<path class="st4" d="M3238.18,2932.12H471.68c-4.13,0-7.51-3.38-7.51-7.51v-119.91c0-4.13,3.38-7.51,7.51-7.51h2766.5
				c4.13,0,7.51,3.38,7.51,7.51v119.91C3245.68,2928.74,3242.31,2932.12,3238.18,2932.12z"/>
		</g>
		<g>
			<path class="st5" d="M720.04,1284.38L2357,1246.02c26.62-0.62,48.66,15.21,48.66,34.97v18.19c0,18.98-20.4,34.49-45.98,34.97
				l-1636.25,30.74c-25.6,0.48-47.05-14.28-48.31-33.25l-0.7-10.57C673.12,1301.53,693.68,1285,720.04,1284.38z"/>
			<linearGradient id="SVGID_4_" gradientUnits="userSpaceOnUse" x1="2215.9319" y1="1300.1135" x2="2357.1829" y2="1300.1135">
				<stop  offset="0" style="stop-color:#DAE3FE"/>
				<stop  offset="1" style="stop-color:#E9EFFD"/>
			</linearGradient>
			<path class="st6" d="M2356.78,1289.4c3.48-27.73-15.78-52.97-43.01-56.38c-27.23-3.41-52.12,16.3-55.59,44.03
				c-1.82,14.49,2.58,28.29,11.08,38.67l-50.69,39c-3.2,2.58-3.53,7.34-0.72,10.33l0.46,0.49c2.49,2.65,6.67,2.76,9.3,0.25
				l46.05-45.35c7.35,6.92,16.81,11.66,27.53,13C2328.41,1336.84,2353.3,1317.13,2356.78,1289.4z M2302.87,1320
				c-19.94-2.5-34.05-20.99-31.5-41.3c2.55-20.31,20.78-34.75,40.72-32.25c19.94,2.5,34.05,20.99,31.5,41.3
				C2341.04,1308.06,2322.81,1322.5,2302.87,1320z"/>
			<path class="st5" d="M689.22,1993.59l27.3,660.43c0.92,22.26,32.01,39.94,69.7,39.63l801.42-6.52
				c37.68-0.31,67.92-18.47,67.83-40.72l-2.79-666.62c-0.1-22.81-31.96-41.11-70.57-40.51l-825.93,12.71
				C718.25,1952.56,688.29,1971.18,689.22,1993.59z"/>
			<path class="st5" d="M1809.56,1409.12l502.4-6.11c51.42-0.63,94.06,16.07,94.49,37.01l8.53,415.16
				c0.43,20.92-41.46,37.9-92.87,37.65l-523.02-2.61c-29.43-0.15-53.29-9.75-53.98-21.72l-24.53-421.17
				C1719.38,1426.8,1759.13,1409.73,1809.56,1409.12z"/>
			<path class="st5" d="M815.31,1399.61l714.93-6.3c73.18-0.64,133.85,16.57,134.46,38.14l12.14,427.87
				c0.61,21.56-59.01,39.06-132.16,38.8l-744.28-2.69c-41.87-0.15-75.83-10.04-76.82-22.38l-34.9-434.06
				C686.98,1417.83,743.55,1400.24,815.31,1399.61z"/>
			<path class="st5" d="M1808.37,1943.73l502.4-9.7c51.42-0.99,94.06,25.51,94.49,58.73l8.53,658.86
				c0.43,33.2-41.46,60.15-92.87,59.74l-523.02-4.14c-29.43-0.23-53.29-15.47-53.98-34.47l-24.53-668.4
				C1718.19,1971.79,1757.94,1944.7,1808.37,1943.73z"/>
			<path class="st5" d="M2545.91,1227.5l391.95-6.31c40.12-0.65,73.38,16.6,73.72,38.23l6.66,428.83
				c0.34,21.61-32.35,39.15-72.46,38.89l-408.04-2.7c-22.96-0.15-41.57-10.07-42.12-22.43l-19.13-435.04
				C2475.55,1245.76,2506.56,1228.13,2545.91,1227.5z"/>
			<path class="st5" d="M2555.54,1784.71l391.95-4.95c40.12-0.51,73.38,13.03,73.72,29.99l6.66,336.47
				c0.34,16.96-32.35,30.72-72.46,30.51l-408.04-2.12c-22.96-0.12-41.57-7.9-42.12-17.6l-19.13-341.34
				C2485.18,1799.04,2516.19,1785.2,2555.54,1784.71z"/>
			<path class="st7" d="M2574.23,2251.89l391.95-5.7c40.12-0.58,73.38,15,73.72,34.53l6.66,387.33
				c0.34,19.52-32.35,35.36-72.46,35.12l-408.04-2.44c-22.96-0.14-41.57-9.09-42.12-20.26l-19.13-392.93
				C2503.88,2268.38,2534.89,2252.46,2574.23,2251.89z"/>
		</g>
		<g>
			<g>
				
					<linearGradient id="SVGID_5_" gradientUnits="userSpaceOnUse" x1="1315.6337" y1="-123.9016" x2="1313.4421" y2="210.3025" gradientTransform="matrix(-0.9036 -0.4283 -0.4283 0.9036 3932.531 1216.7393)">
					<stop  offset="0" style="stop-color:#09005D"/>
					<stop  offset="1" style="stop-color:#1A0F91"/>
				</linearGradient>
				<path class="st8" d="M2624.95,743.43c0.48-1.06,0.94-2.13,1.44-3.18c24.09-50.84,63.97-61.36,99.12-44.7
					c35.15,16.66,52.25,54.18,28.16,105.02c-0.21,0.44-0.44,0.88-0.65,1.31C2729.32,784.15,2683.83,755.44,2624.95,743.43z"/>
				
					<linearGradient id="SVGID_6_" gradientUnits="userSpaceOnUse" x1="1840.5221" y1="723.4649" x2="1645.5687" y2="1134.5615" gradientTransform="matrix(-0.4785 -0.8781 -0.8781 0.4785 4225.6958 2016.3077)">
					<stop  offset="0" style="stop-color:#09005D"/>
					<stop  offset="1" style="stop-color:#1A0F91"/>
				</linearGradient>
				<path class="st9" d="M2753.01,801.89c-24.43,50.29-79.92,94.27-114.76,77.76c-34.42-16.31-35.89-85.61-13.3-136.22
					C2683.83,755.44,2729.32,784.15,2753.01,801.89z"/>
			</g>
			
				<linearGradient id="SVGID_7_" gradientUnits="userSpaceOnUse" x1="1376.7059" y1="-123.4934" x2="1374.5146" y2="210.6988" gradientTransform="matrix(-0.9036 -0.4283 -0.4283 0.9036 3932.531 1216.7393)">
				<stop  offset="0" style="stop-color:#4F52FF"/>
				<stop  offset="1" style="stop-color:#4042E2"/>
			</linearGradient>
			<path class="st10" d="M2691.63,716.33c11.96-21.56,22.46-43.84,30.82-67.1c4.04-11.67,7.62-23.58,9.54-35.97
				c1-6.18,1.41-12.52,1.12-18.92c-0.27-6.38-1.72-13.01-5.13-18.94c-3.37-5.97-9.3-10.52-15.7-12.61
				c-6.46-2.25-12.98-2.6-19.5-2.16c-6.49,0.46-13.53,2.37-18.94,7.29c-5.57,4.83-7.91,12.22-8.3,18.9
				c-0.43,6.81,0.96,13.38,3.19,19.55c2.31,6.15,5.4,12.05,10.39,17.07c2.55,2.4,5.56,4.94,10.22,5.62c2.32,0.28,4.91-0.2,6.94-1.39
				c2.13-1.18,3.43-2.77,4.73-4.36c4.12-6.51,5.06-13.03,6.04-19.39c0.37-2.39-1.27-4.63-3.67-5c-2.39-0.37-4.63,1.27-5,3.67
				c-0.01,0.04-0.01,0.09-0.02,0.13l-0.02,0.21c-0.68,5.68-1.82,11.62-4.27,15.57c-1.37,1.82-2.4,2.44-3.78,2.33
				c-1.51-0.1-3.68-1.46-5.5-3.22c-3.77-3.61-6.7-8.73-8.74-13.98c-2.02-5.28-3.29-10.96-3.01-16.41c0.26-5.41,1.9-10.66,5.7-14.02
				c3.67-3.48,9.03-5.23,14.65-5.71c11.38-1.16,23.7,1.55,29.25,11.13c2.79,4.65,4.25,10.32,4.59,16.14
				c0.35,5.83,0.1,11.79-0.76,17.72c-1.62,11.88-4.91,23.62-8.69,35.16c-7.82,23.02-17.9,45.41-29.35,66.9l-0.03,0.05
				c-0.48,0.9-0.14,2.01,0.76,2.49C2690.04,717.53,2691.15,717.2,2691.63,716.33z"/>
			
				<linearGradient id="SVGID_8_" gradientUnits="userSpaceOnUse" x1="1257.0273" y1="-124.283" x2="1254.8359" y2="209.9149" gradientTransform="matrix(-0.9036 -0.4283 -0.4283 0.9036 3932.531 1216.7393)">
				<stop  offset="0" style="stop-color:#4F52FF"/>
				<stop  offset="1" style="stop-color:#4042E2"/>
			</linearGradient>
			<path class="st11" d="M2730.6,734.52c9.39-22.47,20.34-44.45,33.21-65.08c6.54-10.23,13.54-20.21,21.71-28.99
				c4.05-4.42,8.5-8.39,13.23-11.81c4.72-3.43,10.03-5.89,15.4-6.67c10.93-1.77,20.83,6.05,27.13,15.59
				c3.18,4.65,5.23,9.91,4.86,14.96c-0.19,5.07-3.23,9.67-7.25,13.29c-4.04,3.67-9.25,6.28-14.61,8.06
				c-5.36,1.75-11.17,2.72-16.35,2.09c-2.52-0.3-4.94-1.12-5.98-2.22c-0.96-0.99-1.12-2.18-0.59-4.4c1.51-4.4,5.37-9.05,9.35-13.17
				l0.13-0.14c1.68-1.74,1.63-4.52-0.11-6.2c-1.74-1.68-4.52-1.63-6.2,0.11c-0.03,0.03-0.07,0.08-0.1,0.11
				c-4.31,4.79-8.75,9.65-11.18,16.95c-0.42,2.01-0.82,4.02-0.39,6.42c0.36,2.32,1.64,4.63,3.32,6.25c3.47,3.18,7.35,3.9,10.82,4.35
				c7.04,0.69,13.57-0.65,19.79-2.76c6.19-2.18,12.15-5.26,17.15-9.91c4.92-4.53,9.16-11.02,9.37-18.39
				c0.38-7.3-2.6-13.96-6.35-19.27c-3.79-5.32-8.19-10.15-14.02-13.72c-5.67-3.62-12.94-5.33-19.7-4.17
				c-6.74,1.11-12.8,4.19-17.91,8.02c-5.13,3.83-9.78,8.16-13.93,12.85c-8.38,9.33-15.33,19.64-21.8,30.15
				c-12.72,21.2-23.31,43.44-32.42,66.34c-0.38,0.94,0.08,2.02,1.03,2.39c0.93,0.37,1.99-0.07,2.38-1L2730.6,734.52z"/>
			<path class="st12" d="M2700.8,758.54c0,0-20.61,185.91,52.15,196.14C2825.69,964.92,2820.05,858.25,2700.8,758.54z"/>
			<path class="st12" d="M2700.8,758.54c0,0-130.86,133.66-184.84,83.82C2461.98,792.53,2548.12,729.37,2700.8,758.54z"/>
			<path class="st12" d="M2689.7,765.24c0,0-175.81,63.87-202.91-4.41C2459.69,692.54,2564.68,672.87,2689.7,765.24z"/>
			<path class="st12" d="M2707.91,773.87c0,0,61.87,176.52,131.89,154.26C2909.81,905.88,2858.57,812.16,2707.91,773.87z"/>
			<path class="st13" d="M2751.93,942.98c0.57,0.27,1.2,0.42,1.87,0.42c16.57,0.04,27.78-5.18,33.31-15.52
				c16.24-30.38-26.43-94.55-28.25-97.27c-1.36-2.01-4.07-2.54-6.08-1.2c-2.01,1.35-2.54,4.07-1.2,6.08
				c11.61,17.3,39.23,66.88,27.8,88.26c-3.88,7.25-12.48,10.92-25.56,10.89c-2.42-0.01-4.39,1.95-4.39,4.37
				C2749.42,940.76,2750.45,942.27,2751.93,942.98z"/>
			
				<linearGradient id="SVGID_9_" gradientUnits="userSpaceOnUse" x1="1309.3258" y1="98.4184" x2="1561.0079" y2="98.4184" gradientTransform="matrix(-0.9036 -0.4283 -0.4283 0.9036 3932.531 1216.7393)">
				<stop  offset="0" style="stop-color:#4F52FF"/>
				<stop  offset="1" style="stop-color:#4042E2"/>
			</linearGradient>
			<path class="st14" d="M2697.33,765.86c0,0-62.07-96.27-98.53-113.53c-39.29-18.61-99.2-1.25-128.62,9.45
				c-5.75,2.09-5.41,10.28,0.46,12C2537.85,693.51,2615.59,727.06,2697.33,765.86z"/>
			
				<linearGradient id="SVGID_10_" gradientUnits="userSpaceOnUse" x1="1064.6694" y1="98.4067" x2="1316.3517" y2="98.4067" gradientTransform="matrix(-0.9036 -0.4283 -0.4283 0.9036 3932.531 1216.7393)">
				<stop  offset="0" style="stop-color:#4F52FF"/>
				<stop  offset="1" style="stop-color:#4042E2"/>
			</linearGradient>
			<path class="st15" d="M2690.98,762.85c0,0,113.81-12.91,150.26,4.38c39.28,18.63,63.77,75.99,74.12,105.54
				c2.02,5.77-4.53,10.7-9.58,7.24C2847.96,840.49,2772.77,801.56,2690.98,762.85z"/>
			<path class="st16" d="M2891.84,852.45c1.11,0.53,2.43,0.59,3.65,0.05c2.21-0.98,3.22-3.56,2.24-5.78
				c-1.58-3.57-39.29-87.37-102.01-81.68c-2.41,0.22-4.19,2.35-3.97,4.76c0.22,2.41,2.35,4.19,4.76,3.97
				c56.5-5.13,92.83,75.67,93.19,76.49C2890.15,851.26,2890.92,852.01,2891.84,852.45z"/>
		</g>
		<linearGradient id="SVGID_11_" gradientUnits="userSpaceOnUse" x1="2417.679" y1="1988.2322" x2="2699.9934" y2="1988.2322">
			<stop  offset="0" style="stop-color:#4F52FF"/>
			<stop  offset="1" style="stop-color:#4042E2"/>
		</linearGradient>
		<path class="st17" d="M2435.58,2744.09l-17.9-1141.91c-0.2-12.53,11.89-22.77,26.86-22.77h0c24.22,0,43.85-16.43,43.85-36.69
			v-278.93c0-17.76,17.58-31.98,38.78-31.39l96.58,2.68c23.77,0.66,42.77,16.78,43.21,36.69l33.03,1472.33H2435.58z"/>
		<g>
			<g>
				
					<linearGradient id="SVGID_12_" gradientUnits="userSpaceOnUse" x1="4062.658" y1="2149.0313" x2="4185.6392" y2="2474.9314" gradientTransform="matrix(1 0 0 1 -1327.0549 0)">
					<stop  offset="0" style="stop-color:#FEBBBA"/>
					<stop  offset="1" style="stop-color:#FF928E"/>
				</linearGradient>
				<path class="st18" d="M2703.45,2169.61l0.4,12.5c38.43,53.5,73.38,39.85,97.46,23.8c-14.49-36.03-17.06-40.01-28.62-52.54
					C2729.23,2184.97,2703.45,2169.61,2703.45,2169.61z"/>
				<linearGradient id="SVGID_13_" gradientUnits="userSpaceOnUse" x1="3555.626" y1="270.8921" x2="3319.957" y2="863.4306">
					<stop  offset="0" style="stop-color:#FF928E"/>
					<stop  offset="1" style="stop-color:#FE7062"/>
				</linearGradient>
				<path class="st19" d="M2878.57,2110.9l-67.63-105.73c-4.44,59.64-15.01,115.5-38.26,148.2c11.56,12.52,14.13,16.51,28.62,52.54
					C2861.39,2165.84,2878.57,2110.9,2878.57,2110.9z"/>
			</g>
			
				<linearGradient id="SVGID_14_" gradientUnits="userSpaceOnUse" x1="4706.9854" y1="2969.0347" x2="4851.7778" y2="2969.0347" gradientTransform="matrix(-1 0 0 1 7706.3877 0)">
				<stop  offset="0" style="stop-color:#09005D"/>
				<stop  offset="1" style="stop-color:#1A0F91"/>
			</linearGradient>
			<path class="st20" d="M2944.97,2998.23c-33.72,1.55-66.35,0.58-88.14-0.54c19.84-14.12,65.55-44.85,103.79-57.08l26.26-1.57
				c0,0,8.9,13.53,12.07,44.49C2994.59,2988.96,2981.88,2996.53,2944.97,2998.23z"/>
			
				<linearGradient id="SVGID_15_" gradientUnits="userSpaceOnUse" x1="-5183.1719" y1="2675.5586" x2="-5183.1719" y2="2975.2666" gradientTransform="matrix(-1 0 0 1 -2256.166 0)">
				<stop  offset="0" style="stop-color:#4F52FF"/>
				<stop  offset="1" style="stop-color:#4042E2"/>
			</linearGradient>
			<path class="st21" d="M2856.55,2997.88c0.09-0.06,0.18-0.13,0.27-0.19c21.79,1.12,54.43,2.09,88.14,0.54
				c36.91-1.7,49.63-9.27,53.98-14.7c0.15,1.43,0.3,2.84,0.42,4.34c0.55,6.8-4.5,12.76-11.3,13.27
				c-27.61,2.09-96.08,6.82-129.09,5.08C2854.62,3006,2853,3000.41,2856.55,2997.88z"/>
			
				<linearGradient id="SVGID_16_" gradientUnits="userSpaceOnUse" x1="4452.6338" y1="2969.396" x2="4520.4307" y2="2969.396" gradientTransform="matrix(-1 0 0 1 7706.3877 0)">
				<stop  offset="0" style="stop-color:#09005D"/>
				<stop  offset="1" style="stop-color:#1A0F91"/>
			</linearGradient>
			<path class="st22" d="M3186.12,2989.2c2.47-15.83,6.43-38.71,9.49-44.56c4.8-9.18,21.23,0,21.23,0s11.53,5.38,16.84,14.34
				c3.38,5.71,12.74,21.97,19.08,33.01c0.73,1.27,1.03,2.62,0.99,3.93l-65.78,2.3C3186.36,2995.65,3185.6,2992.5,3186.12,2989.2z"/>
			
				<linearGradient id="SVGID_17_" gradientUnits="userSpaceOnUse" x1="-5500.9292" y1="2746.158" x2="-5470.4507" y2="3066.1853" gradientTransform="matrix(-1 0 0 1 -2256.166 0)">
				<stop  offset="0" style="stop-color:#4F52FF"/>
				<stop  offset="1" style="stop-color:#4042E2"/>
			</linearGradient>
			<path class="st23" d="M3253.75,2995.93c-0.11,3.76-3.09,7.17-7.29,7.28l-46.87,1.29c-4.95,0.14-9.24-2.44-11.63-6.27
				L3253.75,2995.93z"/>
			
				<linearGradient id="SVGID_18_" gradientUnits="userSpaceOnUse" x1="4481.3076" y1="2922.657" x2="4525.2979" y2="2922.657" gradientTransform="matrix(-1 0 0 1 7706.3877 0)">
				<stop  offset="0" style="stop-color:#FEBBBA"/>
				<stop  offset="1" style="stop-color:#FF928E"/>
			</linearGradient>
			<path class="st24" d="M3181.09,2892.03c0.57,1.9,9.07,43.11,12.79,61.19c1.03,5,5.53,8.51,10.63,8.25
				c2.78-0.14,6.02-0.39,9.42-0.83c6.03-0.78,10.61-5.81,10.85-11.88c0.6-15.84,0.9-46.26-4.92-58.05
				C3211.83,2874.46,3181.09,2892.03,3181.09,2892.03z"/>
			
				<linearGradient id="SVGID_19_" gradientUnits="userSpaceOnUse" x1="4714.3501" y1="2919.7776" x2="4751.0142" y2="2919.7776" gradientTransform="matrix(-1 0 0 1 7706.3877 0)">
				<stop  offset="0" style="stop-color:#FEBBBA"/>
				<stop  offset="1" style="stop-color:#FF928E"/>
			</linearGradient>
			<path class="st25" d="M2992.04,2903.83c-3.65-0.12,1.45,18.82-4.06,37.44c-1.24,4.2-4.38,7.49-8.76,7.55
				c-2.84,0.04-6.2-0.02-9.61-0.29c-5.14-0.41-9.26-4.4-9.74-9.53l-4.49-48.28L2992.04,2903.83z"/>
			<linearGradient id="SVGID_20_" gradientUnits="userSpaceOnUse" x1="3111.4058" y1="2477.1106" x2="3416.7966" y2="1496.8429">
				<stop  offset="0" style="stop-color:#4F52FF"/>
				<stop  offset="1" style="stop-color:#4042E2"/>
			</linearGradient>
			<path class="st26" d="M2890.06,2390.56c1.63,7.92,59.06,342.94,62.55,516.3c0.06,2.91,2.2,5.34,5.08,5.75
				c7.29,1.02,21.49,2.32,35.26-0.23c1.89-0.35,3.31-1.9,3.43-3.82c2.01-32.31,18.15-305.45-1.62-434.03
				c0,0,163.31,343.72,188.07,438.49c0.6,2.31,2.72,3.86,5.1,3.73c6.99-0.37,21.54-1.63,33.09-5.88c4.14-1.52,6.5-5.87,5.45-10.16
				c-13.83-56.72-110.76-447.5-176.57-533.6L2890.06,2390.56z"/>
			<linearGradient id="SVGID_21_" gradientUnits="userSpaceOnUse" x1="2983.5684" y1="2464.7324" x2="3032.386" y2="2192.0295">
				<stop  offset="0" style="stop-color:#4F52FF"/>
				<stop  offset="1" style="stop-color:#4042E2"/>
			</linearGradient>
			<path class="st27" d="M2994.75,2476.67c0.54,0,1.08-0.2,1.5-0.61c0.85-0.83,0.86-2.19,0.03-3.03l-21.87-22.36
				c-0.83-0.85-2.18-0.86-3.03-0.03c-0.85,0.83-0.86,2.19-0.03,3.03l21.87,22.36C2993.64,2476.46,2994.19,2476.67,2994.75,2476.67z"
				/>
			<linearGradient id="SVGID_22_" gradientUnits="userSpaceOnUse" x1="2739.5295" y1="2158.0186" x2="3035.8005" y2="2174.8521">
				<stop  offset="0" style="stop-color:#FF928E"/>
				<stop  offset="1" style="stop-color:#FE7062"/>
			</linearGradient>
			<path class="st28" d="M2796.7,1971.12c41.95-10.99,119.34-28.37,180.93-24.52c20.12,1.26,23.93,20.2,24.73,34.35
				c9.31,164.06,23.58,301.46,47.53,386.17c-53.83,21.3-107.19,31.18-159.83,23.44c-39.44-84.47-73.92-182-103.38-292.75
				c0,0-17.28-88.33-0.5-117.78C2788.79,1975.45,2792.24,1972.29,2796.7,1971.12z"/>
			
				<linearGradient id="SVGID_23_" gradientUnits="userSpaceOnUse" x1="4823.8159" y1="2008.0858" x2="4841.8784" y2="1896.699" gradientTransform="matrix(-1 0 0 1 7706.3877 0)">
				<stop  offset="0" style="stop-color:#FEBBBA"/>
				<stop  offset="1" style="stop-color:#FF928E"/>
			</linearGradient>
			<path class="st29" d="M2897.61,1856.2c0,0,10.59,63.2,13.75,92.42c0.51,4.75-1.97,9.24-6.22,11.43
				c-11.58,5.96-36.29,15.56-63.22,6.75c-4.44-1.45-7.34-5.74-7.24-10.41l1.85-84.37L2897.61,1856.2z"/>
			<g>
				
					<linearGradient id="SVGID_24_" gradientUnits="userSpaceOnUse" x1="2708.7573" y1="1398.0188" x2="2269.2808" y2="2070.1597" gradientTransform="matrix(0.9633 0.2686 -0.2686 0.9633 568.7578 -681.8088)">
					<stop  offset="0" style="stop-color:#09005D"/>
					<stop  offset="1" style="stop-color:#1A0F91"/>
				</linearGradient>
				<path class="st30" d="M2642.89,1523c1.5-0.85,2.03-2.75,1.19-4.25l-4.3-7.62l-0.33,0.18l-25.31-41.05
					c-0.9-1.47-2.83-1.92-4.29-1.02l-4.79,2.96c-1.47,0.9-1.92,2.83-1.02,4.29l23.36,37.89c0.93,1.51,0.42,3.49-1.12,4.36
					l-183.6,103.54c-1.5,0.85-2.03,2.75-1.19,4.25l4.3,7.62l0.06-0.03l59.66,105.8c0.85,1.5,2.75,2.03,4.25,1.19l4.9-2.77
					c1.5-0.85,2.03-2.75,1.19-4.25L2457.72,1631c-0.85-1.5-0.32-3.4,1.19-4.25L2642.89,1523z"/>
				
					<rect x="2183.62" y="1481.86" transform="matrix(0.871 -0.4912 0.4912 0.871 -442.5398 1377.3906)" class="st31" width="436.87" height="99.35"/>
				<linearGradient id="SVGID_25_" gradientUnits="userSpaceOnUse" x1="2761.3911" y1="2009.7273" x2="3181.999" y2="1429.2881">
					<stop  offset="0" style="stop-color:#09005D"/>
					<stop  offset="1" style="stop-color:#1A0F91"/>
				</linearGradient>
				<path class="st32" d="M2899.9,2473.81l-28.15,14.25c-0.74,0.37-1.64,0.08-2.01-0.66l-381.87-754.35
					c-0.37-0.74-0.08-1.64,0.66-2.01l28.15-14.25c0.74-0.37,1.64-0.08,2.01,0.66l381.87,754.35
					C2900.93,2472.54,2900.64,2473.44,2899.9,2473.81z"/>
				
					<ellipse transform="matrix(0.871 -0.4912 0.4912 0.871 -519.6471 1297.6385)" class="st31" cx="2211.61" cy="1638.52" rx="18.57" ry="50.05"/>
				
					<ellipse transform="matrix(0.871 -0.4912 0.4912 0.871 -366.3864 1455.8911)" class="st31" cx="2589.65" cy="1425.75" rx="18.57" ry="50.05"/>
			</g>
			
				<linearGradient id="SVGID_26_" gradientUnits="userSpaceOnUse" x1="1784.0365" y1="17.9491" x2="1916.5811" y2="369.1924" gradientTransform="matrix(0.7526 0.6585 -0.6585 0.7526 1409.2811 924.6944)">
				<stop  offset="0" style="stop-color:#FEBBBA"/>
				<stop  offset="1" style="stop-color:#FF928E"/>
			</linearGradient>
			<path class="st33" d="M2697.3,2171.53c-2.66-4.03-3.33-9.02-1.9-13.64c2.76-8.95,8.54-22.08,18.2-19.18
				c14.38,4.33,16.3,39.86,16.3,39.86l-3.82,22.81l4.8,11.38C2721.37,2208.17,2709.69,2191.74,2697.3,2171.53z"/>
			<linearGradient id="SVGID_27_" gradientUnits="userSpaceOnUse" x1="3056.075" y1="2068.6055" x2="2789.6311" y2="2365.2131">
				<stop  offset="0" style="stop-color:#FEBBBA"/>
				<stop  offset="1" style="stop-color:#FF928E"/>
			</linearGradient>
			<path class="st34" d="M3030.2,2251.81c5.88-8.25,11.77-17.27,17.59-27.23c57.54-98.55-47.99-249.47-47.99-249.47l-32.16,95.74
				c47.55,53.03,27.58,104.19,11.4,146.65c-21.18,55.58-112.78,102.7-112.78,102.7l17.45,21.53
				C2883.71,2341.73,2977.88,2325.16,3030.2,2251.81z"/>
			<linearGradient id="SVGID_28_" gradientUnits="userSpaceOnUse" x1="2746.9897" y1="2026.7194" x2="3043.2595" y2="2043.5529">
				<stop  offset="0" style="stop-color:#FF928E"/>
				<stop  offset="1" style="stop-color:#FE7062"/>
			</linearGradient>
			<path class="st35" d="M3066.37,2125.58c-1.19-76.51-61.96-157.79-73.06-172.1c-0.79-1.02-2.36-0.81-2.89,0.36l-22.78,117.01
				c9.67,22.61,7.71,36.84,17.37,57.21c26.14-3.66,50.4-3.84,76.18,1.74C3063.88,2130.39,3066.41,2128.34,3066.37,2125.58z"/>
			<linearGradient id="SVGID_29_" gradientUnits="userSpaceOnUse" x1="3075.2991" y1="2085.8745" x2="2808.8542" y2="2382.4829">
				<stop  offset="0" style="stop-color:#FEBBBA"/>
				<stop  offset="1" style="stop-color:#FF928E"/>
			</linearGradient>
			<path class="st36" d="M2866.26,2320.2c-5.35-2.71-47.28,3.4-40.85,9.17c11.27,10.11,11.76,17.77-0.09,27.23
				c-5.85,4.67-19.29,11.76-22.96,0.85c-1.03-3.07-1.17-7.04-4.09-8.44c-2.16-1.03-8.26,6.35-8.62,8.72
				c-2.04,13.28,8.56,24.32,20.25,28.72c5.67,2.14,11.71,3.05,17.7,3.95c3.33,0.5,11.64,1.74,12.39,1.41
				c0.87-0.38,1.38-1.26,2.02-1.96c2.73-3.03,17.35-15.35,20.54-19.47c1.72-2.22,23.63-29.85,22.52-32.49
				C2885.06,2337.88,2870.79,2322.49,2866.26,2320.2z"/>
			<g>
				
					<linearGradient id="SVGID_30_" gradientUnits="userSpaceOnUse" x1="-7482.2793" y1="-3105.7451" x2="-7517.3369" y2="-3221.373" gradientTransform="matrix(-0.746 -0.6659 -0.6659 0.746 -4843.6182 -803.1727)">
					<stop  offset="0" style="stop-color:#FEBBBA"/>
					<stop  offset="1" style="stop-color:#FF928E"/>
				</linearGradient>
				<path class="st37" d="M2824.26,1788.87c0,0-33.87,63.76-29.53,89.52c4.34,25.76,46.32,23.91,82.98,2.99l25.62-68.85
					L2824.26,1788.87z"/>
				
					<linearGradient id="SVGID_31_" gradientUnits="userSpaceOnUse" x1="-7513.9077" y1="-3307.209" x2="-7484.5825" y2="-3139.9463" gradientTransform="matrix(-0.746 -0.6659 -0.6659 0.746 -4843.6182 -803.1727)">
					<stop  offset="0" style="stop-color:#09005D"/>
					<stop  offset="1" style="stop-color:#1A0F91"/>
				</linearGradient>
				<path class="st38" d="M2876.09,1847.57c-1.49-0.66-2.04-2.48-1.15-3.85c2.71-4.15,7.8-12.6,9.42-20.01c0,0,6.09-3.9-15.5-9.07
					c-21.59-5.17-53.78-13.19-60.55-31.56c-6.6-17.92,10.74-62.97,38.39-27.07c1.05,1.37,3.11,1.4,4.16,0.03
					c4.53-5.9,16.45-18.15,33-10.72c15.49,6.95,17.23,18.3,17.02,24.02c-0.06,1.68,1.44,2.99,3.1,2.68
					c7.83-1.49,26.62-2.78,35.39,16.5c7.22,15.88,2.53,24.86-1.75,29.26c-1.39,1.42-0.78,3.77,1.12,4.35
					c5.15,1.58,11.79,5.94,11.13,17.99c-0.92,16.67-19.55,15.2-24.86,14.44c-0.87-0.12-1.75,0.17-2.33,0.82
					c-4.55,5.03-25.04,26.41-47.23,28.99c-1.92,0.22-3.41-1.67-2.78-3.5l9.6-27.91c0.45-1.3-0.17-2.72-1.43-3.27L2876.09,1847.57z"
					/>
				
					<linearGradient id="SVGID_32_" gradientUnits="userSpaceOnUse" x1="-7518.1162" y1="-3106.2832" x2="-7549.6582" y2="-3210.3157" gradientTransform="matrix(-0.746 -0.6659 -0.6659 0.746 -4843.6182 -803.1727)">
					<stop  offset="0" style="stop-color:#FEBBBA"/>
					<stop  offset="1" style="stop-color:#FF928E"/>
				</linearGradient>
				<path class="st39" d="M2872.23,1851.53c0,0,24.12-16.55,25.88-2.61c1.76,13.94-21.72,20.18-33.35,14.99L2872.23,1851.53z"/>
			</g>
		</g>
		<g>
			<path class="st5" d="M2799.79,3000.44c-74.08,24.74-146.05,24.77-215.46,2.16c-17.54-5.72-29.43-22.07-29.43-40.52v-339.94
				c85.29,18.77,174.69,19.72,268.86,0v345.2C2823.77,2982.4,2814.07,2995.67,2799.79,3000.44z"/>
			<ellipse class="st31" cx="2689.34" cy="2619.43" rx="134.43" ry="27.02"/>
			<linearGradient id="SVGID_33_" gradientUnits="userSpaceOnUse" x1="2693.7986" y1="2783.0249" x2="2739.2488" y2="2446.355">
				<stop  offset="0" style="stop-color:#4F52FF"/>
				<stop  offset="1" style="stop-color:#4042E2"/>
			</linearGradient>
			<path class="st40" d="M2823.77,2883.89c-89.62,31.17-179.24,31.17-268.86,0v-135.61c90.43,22.29,180.09,23.43,268.86,0V2883.89z"
				/>
			<linearGradient id="SVGID_34_" gradientUnits="userSpaceOnUse" x1="2746.2883" y1="2290.8206" x2="2726.0881" y2="2422.1218">
				<stop  offset="0" style="stop-color:#4F52FF"/>
				<stop  offset="1" style="stop-color:#4042E2"/>
			</linearGradient>
			<path class="st41" d="M2569.32,2653.04c2.88,10.76,15.16,18.02,25.98,15.36c7.58-1.87,14.07-7.81,21.88-7.94
				c8.87-0.15,15.95,7.16,21.12,14.37c9.4,13.09,16.54,27.8,21.03,43.27c1.5,5.15,2.82,10.63,6.44,14.59
				c7.75,8.48,22.4,5.77,31.01-1.84c8.61-7.6,13.29-18.58,19.69-28.12c6.4-9.54,16.23-18.44,27.69-17.75
				c3.84,0.23,7.56,1.55,11.4,1.71c8.51,0.36,16.87-5.67,19.23-13.85c0.72-2.51,0.95-5.21,2.24-7.48
				c3.88-6.79,14.16-7.45,19.47-12.96c3.37-3.49,4.49-8.57,8.42-12.01c1.49-1.3,11.68-5.51,11.89-6.16
				c1.79-5.48-3.9-10.43-9.17-12.78c-30.91-13.76-66.24-0.04-99.75,4.65c-32.92,4.61-64.42-2.9-97.02-2.62
				C2592.9,2623.65,2562.61,2627.98,2569.32,2653.04z"/>
			<ellipse class="st31" cx="2690.89" cy="2620.2" rx="134.43" ry="27.02"/>
			<linearGradient id="SVGID_35_" gradientUnits="userSpaceOnUse" x1="2696.9897" y1="2574.5703" x2="2675.803" y2="2674.4507">
				<stop  offset="0" style="stop-color:#09005D"/>
				<stop  offset="1" style="stop-color:#1A0F91"/>
			</linearGradient>
			<ellipse class="st42" cx="2687.31" cy="2620.2" rx="110.67" ry="16.34"/>
		</g>
		<g>
			<path class="st31" d="M1224.93,2973.89H498.21c-23.17,0-41.96-18.79-41.96-41.96v-701.69c0-23.13,18.72-41.9,41.85-41.96
				l732.54-1.97c23.3-0.06,42.2,18.88,42.07,42.18l-5.81,703.65C1266.77,2955.24,1248.02,2973.89,1224.93,2973.89z"/>
			<path class="st5" d="M1189.32,2240.03l-649.81,4c-23.49,0.14-42.42,19.28-42.31,42.77l4.53,590.16
				c0.11,23.13,18.67,41.95,41.8,42.37l631.37,11.52c23.58,0.43,43.02-18.39,43.35-41.97l13.9-605.68
				C1232.49,2259.35,1213.17,2239.88,1189.32,2240.03z"/>
			<path class="st16" d="M1162.9,2294.76v4.48c0,7.03-5.7,12.74-12.74,12.74H649.49c-7.03,0-12.74-5.7-12.74-12.74v-4.48
				c0-7.03,5.7-12.74,12.74-12.74h500.67C1157.2,2282.02,1162.9,2287.72,1162.9,2294.76z"/>
			<path class="st16" d="M1107.04,2351.11L1107.04,2351.11c-0.36,6.67-5.81,11.92-12.49,12.05l-437.86,7.98
				c-7.12,0.13-12.97-5.61-12.97-12.73v-1.04c0-6.96,5.58-12.63,12.53-12.74l437.86-6.94
				C1101.5,2337.57,1107.43,2343.73,1107.04,2351.11z"/>
			<path class="st43" d="M1151.73,2897.47c-0.15,0-0.29,0-0.44,0l-592.24-7.11c-9.74-0.12-18.84-4.03-25.62-11.03
				c-6.78-6.99-10.41-16.21-10.23-25.95l15.24-416.74c0.18-9.59,4.13-18.63,11.12-25.35c6.99-6.72,16.32-10.3,25.87-10.13
				l591.2,11.51c19.97,0.39,35.93,16.96,35.58,36.93c0,0.03,0,0.07,0,0.1l-14.21,412.24
				C1187.66,2881.57,1171.43,2897.47,1151.73,2897.47z M574.72,2413.22c-6.29,0-12.23,2.39-16.78,6.77
				c-4.66,4.49-7.3,10.52-7.42,16.99l-15.24,416.74c-0.12,6.39,2.3,12.54,6.82,17.21c4.53,4.67,10.6,7.28,17.1,7.36l592.23,7.11
				c0.1,0,0.19,0,0.29,0c13.14,0,23.97-10.61,24.21-23.78l14.21-412.29c0.21-13.3-10.43-24.33-23.74-24.59l-591.2-11.51
				C575.04,2413.23,574.88,2413.22,574.72,2413.22z M1196.18,2449.48h0.03H1196.18z"/>
			<path class="st43" d="M1188.51,2493.62H543.52c-3.33,0-6.04-2.7-6.04-6.04s2.7-6.04,6.04-6.04h644.99c3.33,0,6.04,2.7,6.04,6.04
				S1191.84,2493.62,1188.51,2493.62z"/>
		</g>
		<g>
			<g>
				<g>
					<linearGradient id="SVGID_36_" gradientUnits="userSpaceOnUse" x1="942.7189" y1="1020.6496" x2="952.0317" y2="1020.6496">
						<stop  offset="0" style="stop-color:#FEBBBA"/>
						<stop  offset="1" style="stop-color:#FF928E"/>
					</linearGradient>
					<path class="st44" d="M950.67,1031.88c-0.64,0.58-1.46,0.96-2.39,1.04c-2.26,0.2-4.24-1.47-4.44-3.73
						c-0.47-5.48-0.85-11.04-1.12-16.51c-0.11-2.26,1.64-4.18,3.9-4.3c2.26-0.11,4.19,1.63,4.3,3.9c0.26,5.37,0.63,10.83,1.1,16.2
						C952.13,1029.81,951.6,1031.05,950.67,1031.88z"/>
					<linearGradient id="SVGID_37_" gradientUnits="userSpaceOnUse" x1="943.5659" y1="759.0664" x2="1638.8104" y2="759.0664">
						<stop  offset="0" style="stop-color:#FEBBBA"/>
						<stop  offset="1" style="stop-color:#FF928E"/>
					</linearGradient>
					<path class="st45" d="M1637.45,648.71c-1.42,1.28-3.6,1.43-5.2,0.24c-8.89-6.62-18.16-12.98-27.55-18.87
						c-1.92-1.21-2.5-3.74-1.29-5.66c1.18-1.94,3.74-2.5,5.65-1.29c9.57,6.02,19.02,12.49,28.09,19.24
						c1.82,1.35,2.19,3.92,0.84,5.74C1637.83,648.34,1637.65,648.53,1637.45,648.71z M1561.5,603.53c-1.18,1.07-2.93,1.39-4.47,0.68
						c-10.04-4.64-20.41-8.96-30.84-12.82c-2.13-0.79-3.21-3.15-2.42-5.27c0.78-2.13,3.15-3.21,5.27-2.42
						c10.63,3.94,21.21,8.34,31.44,13.07c2.06,0.95,2.95,3.39,2,5.45C1562.24,602.73,1561.9,603.17,1561.5,603.53z M1477.92,574.81
						c-0.97,0.87-2.32,1.27-3.68,0.95c-10.82-2.53-21.85-4.66-32.79-6.34c-2.24-0.34-3.78-2.44-3.43-4.68
						c0.34-2.23,2.43-3.78,4.67-3.43c11.15,1.71,22.39,3.88,33.42,6.46c2.2,0.51,3.57,2.72,3.06,4.93
						C1478.96,573.55,1478.52,574.27,1477.92,574.81z M950.42,960.76c-0.81,0.73-1.9,1.14-3.08,1.04c-2.26-0.18-3.94-2.16-3.76-4.41
						c0.9-11.25,2.25-22.62,4.03-33.8c0.35-2.23,2.45-3.76,4.7-3.41c2.24,0.36,3.76,2.46,3.41,4.7
						c-1.74,10.97-3.07,22.12-3.95,33.16C951.67,959.13,951.17,960.08,950.42,960.76z M1390.27,563.59
						c-0.75,0.68-1.76,1.08-2.85,1.05c-11.07-0.27-22.3-0.1-33.36,0.5c-2.26,0.12-4.2-1.61-4.32-3.87c-0.12-2.27,1.61-4.2,3.87-4.32
						c11.28-0.62,22.73-0.79,34.01-0.51c2.26,0.06,4.06,1.94,4,4.2C1391.6,561.82,1391.08,562.86,1390.27,563.59z M966.42,873.83
						c-1.02,0.92-2.48,1.31-3.9,0.9c-2.17-0.63-3.42-2.91-2.79-5.09c3.17-10.88,6.8-21.74,10.78-32.29
						c0.79-2.12,3.17-3.19,5.28-2.39c2.12,0.8,3.19,3.16,2.39,5.28c-3.9,10.35-7.46,21.01-10.58,31.69
						C967.38,872.69,966.96,873.34,966.42,873.83z M1302.21,570.58c-0.54,0.49-1.23,0.84-2,0.99c-10.86,2-21.82,4.47-32.57,7.33
						c-2.19,0.59-4.43-0.72-5.02-2.91c-0.58-2.19,0.72-4.44,2.91-5.02c10.95-2.92,22.12-5.44,33.19-7.48
						c2.23-0.41,4.37,1.06,4.78,3.29C1303.77,568.24,1303.24,569.65,1302.21,570.58z M999.65,791.93c-1.24,1.12-3.11,1.41-4.67,0.58
						c-2-1.06-2.76-3.55-1.7-5.55c5.31-9.98,11.08-19.88,17.15-29.41c1.21-1.91,3.75-2.47,5.66-1.26c1.91,1.22,2.47,3.75,1.26,5.66
						c-5.95,9.35-11.61,19.05-16.82,28.85C1000.29,791.25,999.99,791.62,999.65,791.93z M1217.43,595.44
						c-0.34,0.31-0.74,0.57-1.2,0.75c-10.26,4.19-20.48,8.84-30.4,13.82c-2.02,1.02-4.49,0.2-5.51-1.82
						c-1.02-2.02-0.2-4.49,1.83-5.5c10.1-5.08,20.52-9.82,30.98-14.08c2.1-0.86,4.49,0.15,5.35,2.24
						C1219.15,592.49,1218.68,594.31,1217.43,595.44z M1139.47,637.01c-0.14,0.13-0.3,0.25-0.46,0.36
						c-9.19,6.17-18.26,12.8-26.97,19.7c-1.78,1.41-4.35,1.11-5.76-0.67c-1.41-1.78-1.02-4.35,0.67-5.76
						c8.87-7.03,18.12-13.78,27.49-20.08c1.88-1.26,4.43-0.76,5.69,1.12C1141.27,633.4,1140.96,635.67,1139.47,637.01z
						 M1048.95,718.59c-1.49,1.35-3.78,1.42-5.37,0.1c-1.74-1.45-1.97-4.04-0.52-5.78c7.24-8.68,14.92-17.18,22.82-25.26
						c1.65-1.59,4.18-1.65,5.8-0.07c1.62,1.58,1.65,4.18,0.07,5.8c-7.75,7.93-15.28,16.27-22.38,24.78
						C1049.23,718.32,1049.09,718.46,1048.95,718.59z"/>
					<linearGradient id="SVGID_38_" gradientUnits="userSpaceOnUse" x1="1672.4844" y1="687.0544" x2="1692.2585" y2="687.0544">
						<stop  offset="0" style="stop-color:#FEBBBA"/>
						<stop  offset="1" style="stop-color:#FF928E"/>
					</linearGradient>
					<path class="st46" d="M1690.9,695.9c-1.64,1.48-4.17,1.4-5.71-0.21c-3.73-3.88-7.58-7.75-11.46-11.5
						c-1.63-1.57-1.67-4.17-0.1-5.8c1.61-1.57,4.17-1.67,5.8-0.1c3.95,3.82,7.89,7.76,11.68,11.72c1.57,1.63,1.51,4.23-0.12,5.8
						C1690.97,695.84,1690.93,695.87,1690.9,695.9z"/>
				</g>
				<g>
					<linearGradient id="SVGID_39_" gradientUnits="userSpaceOnUse" x1="1804.0203" y1="998.7191" x2="1812.5107" y2="998.7191">
						<stop  offset="0" style="stop-color:#FEBBBA"/>
						<stop  offset="1" style="stop-color:#FF928E"/>
					</linearGradient>
					<path class="st47" d="M1810.87,1009.96c-0.76,0.69-1.79,1.09-2.9,1.06c-2.26-0.08-4.03-1.99-3.95-4.25
						c0.2-5.42,0.29-10.89,0.28-16.24c0-2.26,1.83-4.1,4.09-4.11c2.27,0,4.11,1.83,4.11,4.1c0.01,5.46-0.09,11.03-0.29,16.56
						C1812.18,1008.22,1811.66,1009.25,1810.87,1009.96z"/>
					<linearGradient id="SVGID_40_" gradientUnits="userSpaceOnUse" x1="1099.4854" y1="1241.5242" x2="1806.869" y2="1241.5242">
						<stop  offset="0" style="stop-color:#FEBBBA"/>
						<stop  offset="1" style="stop-color:#FF928E"/>
					</linearGradient>
					<path class="st48" d="M1669.12,1314.24l-2.77,2.48c-1.7,1.5-4.29,1.34-5.79-0.35c-1.49-1.69-1.34-4.26,0.32-5.76
						c0.01-0.01,0.02-0.02,0.03-0.03l2.71-2.42c7.19-6.49,14.26-13.32,21.02-20.31c1.62-1.59,4.17-1.67,5.8-0.1
						c1.63,1.57,1.67,4.17,0.1,5.8C1683.66,1300.66,1676.45,1307.63,1669.12,1314.24z M1623.92,1349.86
						c-0.14,0.12-0.28,0.24-0.43,0.34c-9.17,6.28-18.7,12.29-28.33,17.86c-1.96,1.13-4.47,0.46-5.6-1.5
						c-1.14-1.96-0.45-4.46,1.5-5.61c9.45-5.46,18.81-11.36,27.8-17.52c1.87-1.28,4.42-0.8,5.7,1.06
						C1625.73,1346.21,1625.42,1348.5,1623.92,1349.86z M1725.28,1252.71c-1.43,1.29-3.61,1.43-5.2,0.24
						c-1.81-1.36-2.19-3.93-0.83-5.74c6.55-8.74,12.82-17.85,18.66-27.05c1.21-1.93,3.74-2.48,5.66-1.27
						c1.91,1.21,2.48,3.74,1.27,5.66c-5.95,9.38-12.34,18.66-19.01,27.58C1725.65,1252.34,1725.47,1252.54,1725.28,1252.71z
						 M1547.63,1391.58c-0.33,0.3-0.72,0.55-1.15,0.73c-10.26,4.34-20.8,8.32-31.32,11.84c-2.15,0.72-4.47-0.44-5.19-2.59
						c-0.72-2.14,0.43-4.48,2.59-5.19c10.32-3.45,20.66-7.36,30.74-11.62c2.08-0.88,4.49,0.09,5.37,2.18
						C1549.35,1388.59,1548.89,1390.44,1547.63,1391.58z M1770.04,1178.14c-1.19,1.07-2.95,1.39-4.49,0.67
						c-2.05-0.96-2.93-3.4-1.97-5.45c4.62-9.83,8.93-20.01,12.81-30.26c0.8-2.12,3.17-3.19,5.29-2.38c2.12,0.8,3.18,3.17,2.38,5.29
						c-3.96,10.44-8.35,20.82-13.06,30.84C1770.77,1177.35,1770.43,1177.79,1770.04,1178.14z M1464.53,1417.2
						c-0.53,0.48-1.19,0.82-1.94,0.97c-10.89,2.18-22.01,3.97-33.05,5.31c-2.25,0.27-4.29-1.33-4.56-3.58
						c-0.28-2.25,1.33-4.29,3.58-4.57c10.83-1.32,21.75-3.07,32.43-5.21c2.22-0.45,4.38,0.99,4.83,3.21
						C1466.11,1414.81,1465.57,1416.26,1464.53,1417.2z M1798.91,1096.1c-0.97,0.88-2.35,1.28-3.72,0.94
						c-2.2-0.53-3.55-2.76-3.02-4.95c2.58-10.61,4.78-21.44,6.54-32.21c0.37-2.24,2.47-3.75,4.71-3.38
						c2.23,0.36,3.75,2.48,3.38,4.71c-1.8,10.97-4.04,22.01-6.67,32.82C1799.94,1094.85,1799.5,1095.57,1798.91,1096.1z
						 M1378.01,1425.55c-0.73,0.66-1.7,1.06-2.77,1.05c-11.09-0.06-22.34-0.56-33.45-1.48c-2.26-0.19-3.93-2.17-3.75-4.43
						c0.18-2.26,2.17-3.94,4.43-3.75c10.9,0.91,21.94,1.39,32.82,1.46c2.27,0.01,4.09,1.86,4.08,4.12
						C1379.36,1423.73,1378.83,1424.81,1378.01,1425.55z M1291.56,1416.26c-0.94,0.85-2.26,1.25-3.6,0.97
						c-8.55-1.8-17.19-3.9-25.67-6.22c-2.28-0.63-4.56-1.27-6.82-1.93c-2.18-0.64-3.42-2.91-2.79-5.09
						c0.63-2.18,2.91-3.42,5.08-2.79c2.22,0.65,4.45,1.28,6.69,1.89c8.32,2.28,16.8,4.34,25.19,6.11c2.22,0.47,3.63,2.64,3.17,4.86
						C1292.64,1414.95,1292.18,1415.7,1291.56,1416.26z M1208.67,1389.94c-1.16,1.04-2.85,1.38-4.38,0.72
						c-10.21-4.41-20.37-9.28-30.21-14.46c-2-1.06-2.77-3.54-1.71-5.54c1.05-2,3.54-2.77,5.54-1.72
						c9.65,5.09,19.63,9.86,29.64,14.19c2.08,0.9,3.04,3.31,2.14,5.39C1209.45,1389.08,1209.1,1389.55,1208.67,1389.94z
						 M1132.75,1347.53c-1.39,1.25-3.5,1.43-5.1,0.31c-9.1-6.38-18.07-13.2-26.67-20.27c-1.75-1.44-2-4.02-0.56-5.77
						c1.44-1.71,4.03-2,5.77-0.56c8.43,6.94,17.24,13.64,26.16,19.89c1.85,1.3,2.31,3.86,1.01,5.71
						C1133.18,1347.1,1132.97,1347.33,1132.75,1347.53z"/>
					<linearGradient id="SVGID_41_" gradientUnits="userSpaceOnUse" x1="1049.0369" y1="1281.4178" x2="1068.2032" y2="1281.4178">
						<stop  offset="0" style="stop-color:#FEBBBA"/>
						<stop  offset="1" style="stop-color:#FF928E"/>
					</linearGradient>
					<path class="st49" d="M1066.85,1290.53c-1.65,1.49-4.2,1.39-5.73-0.23c-3.75-3.97-7.49-8.1-11.13-12.25
						c-1.49-1.71-1.13-4.3,0.39-5.79c1.71-1.49,4.3-1.32,5.79,0.39c3.57,4.08,7.24,8.13,10.92,12.03c1.56,1.65,1.48,4.24-0.17,5.8
						C1066.89,1290.49,1066.87,1290.51,1066.85,1290.53z"/>
				</g>
				<g>
					<linearGradient id="SVGID_42_" gradientUnits="userSpaceOnUse" x1="1050.171" y1="988.193" x2="1706.4615" y2="988.193">
						<stop  offset="0" style="stop-color:#FF928E"/>
						<stop  offset="1" style="stop-color:#FE7062"/>
					</linearGradient>
					<path class="st50" d="M1102.77,1176.39c1.03,1.95,3.19,3.03,5.37,2.7l62.21-9.64c19.29,22.18,42.26,41.45,68.37,56.73
						l2.04,62.88c0.07,2.21,1.53,4.12,3.64,4.77l72.15,22.28c2.11,0.65,4.4-0.11,5.7-1.89l37.15-50.77
						c30.18,2.1,60.01-0.85,88.46-8.29l45.94,43.04c1.61,1.51,4,1.83,5.95,0.8l66.77-35.26c1.95-1.03,3.03-3.19,2.7-5.37
						l-9.64-62.21c22.18-19.29,41.45-42.26,56.73-68.37l62.88-2.04c2.21-0.07,4.12-1.53,4.77-3.64l22.28-72.15
						c0.65-2.11-0.11-4.4-1.89-5.7l-50.77-37.15c2.1-30.18-0.85-60.01-8.29-88.46l43.05-45.94c1.51-1.61,1.83-4,0.8-5.95
						L1653.86,800c-1.03-1.95-3.19-3.03-5.37-2.7l-62.21,9.64c-19.29-22.18-42.26-41.45-68.37-56.73l-2.04-62.88
						c-0.07-2.2-1.53-4.12-3.64-4.77l-72.15-22.28c-2.11-0.65-4.4,0.11-5.7,1.89l-37.15,50.77c-30.18-2.1-60.01,0.85-88.46,8.29
						l-45.93-43.04c-1.61-1.51-4-1.83-5.95-0.8l-66.77,35.26c-1.95,1.03-3.03,3.18-2.7,5.37l9.64,62.21
						c-22.18,19.29-41.45,42.26-56.73,68.37l-62.88,2.04c-2.2,0.07-4.12,1.53-4.77,3.64l-22.28,72.15c-0.65,2.11,0.11,4.4,1.89,5.7
						l50.77,37.15c-2.1,30.18,0.86,60.01,8.29,88.46l-43.04,45.94c-1.51,1.61-1.83,4-0.8,5.95L1102.77,1176.39z"/>
					<path class="st51" d="M1427.35,1042.54c-0.02,0.02-0.03,0.03-0.05,0.05c-14.53,13.08-33.28,19.73-52.81,18.7
						c-19.53-1.02-37.49-9.59-50.57-24.11c-13.09-14.53-19.73-33.29-18.71-52.81c2.11-40.31,36.62-71.39,76.93-69.27
						c19.53,1.02,37.49,9.59,50.57,24.11c13.09,14.53,19.73,33.29,18.71,52.81C1450.39,1011.52,1441.85,1029.46,1427.35,1042.54z
						 M1337.52,942.98c-12.06,10.88-19.17,25.81-20.02,42.03c-0.85,16.25,4.67,31.85,15.56,43.93
						c10.88,12.09,25.83,19.21,42.07,20.06c16.24,0.85,31.85-4.68,43.93-15.56c0.01-0.01,0.03-0.03,0.04-0.04
						c12.06-10.88,19.17-25.81,20.02-42.03c0.85-16.24-4.67-31.85-15.56-43.93c-10.88-12.09-25.83-19.21-42.07-20.06
						c-16.24-0.85-31.85,4.68-43.93,15.56C1337.55,942.95,1337.54,942.97,1337.52,942.98z"/>
					<path class="st51" d="M1506.05,1126.94c-47.7,43.04-116.24,60.65-181.96,40.36c-12.84-3.97-25.24-9.28-36.85-15.81l6.03-10.72
						c10.86,6.1,22.45,11.07,34.45,14.78c72.87,22.5,149.46-4.85,192.82-62.6c0.08-0.11,0.16-0.22,0.24-0.32
						c0.08-0.11,0.16-0.22,0.25-0.33c11.61-15.6,20.79-33.39,26.85-53c13.88-44.93,9.43-92.57-12.53-134.16
						c-6.96-13.18-15.41-25.25-25.14-36.03c-20.98-23.24-47.89-40.5-78.58-49.98c-92.75-28.65-191.52,23.51-220.16,116.25
						c-9.42,30.5-10.4,62.91-2.84,93.73l-11.95,2.93c-8.09-32.98-7.04-67.66,3.03-100.29c30.66-99.22,136.32-155.03,235.55-124.38
						c32.84,10.14,61.63,28.6,84.07,53.47c10.41,11.54,19.46,24.45,26.9,38.55c23.49,44.49,28.26,95.47,13.41,143.54
						C1549.28,1076.43,1530.37,1104.99,1506.05,1126.94z"/>
				</g>
			</g>
			<g>
				<g>
					<linearGradient id="SVGID_43_" gradientUnits="userSpaceOnUse" x1="1796.6567" y1="1102.527" x2="1815.2303" y2="1102.527">
						<stop  offset="0" style="stop-color:#FEBBBA"/>
						<stop  offset="1" style="stop-color:#FF928E"/>
					</linearGradient>
					<path class="st52" d="M1798.05,1107c-0.55-0.38-0.99-0.93-1.22-1.61c-0.56-1.67,0.33-3.48,2-4.04
						c4.08-1.38,8.25-2.63,12.4-3.74c1.7-0.45,3.44,0.56,3.9,2.26c0.45,1.7-0.56,3.45-2.26,3.9c-4.02,1.07-8.05,2.29-12,3.62
						C1799.88,1107.72,1798.85,1107.54,1798.05,1107z"/>
					<linearGradient id="SVGID_44_" gradientUnits="userSpaceOnUse" x1="1851.6558" y1="1221.1515" x2="2064.7073" y2="1221.1515">
						<stop  offset="0" style="stop-color:#FEBBBA"/>
						<stop  offset="1" style="stop-color:#FF928E"/>
					</linearGradient>
					<path class="st53" d="M2052.28,1350.93c-1.11-0.76-1.66-2.16-1.27-3.52c2.43-8.37,4.32-16.99,5.61-25.63
						c0.26-1.74,1.88-2.94,3.62-2.68c1.74,0.26,2.94,1.88,2.68,3.62c-1.33,8.92-3.28,17.83-5.8,26.47
						c-0.49,1.69-2.26,2.66-3.95,2.17C2052.86,1351.26,2052.55,1351.11,2052.28,1350.93z M2059.73,1281.63
						c-0.78-0.53-1.32-1.4-1.39-2.42c-0.59-8.72-1.78-17.47-3.53-26c-0.35-1.72,0.76-3.41,2.48-3.76c1.72-0.35,3.41,0.76,3.76,2.48
						c1.81,8.8,3.03,17.84,3.64,26.85c0.12,1.76-1.21,3.28-2.96,3.4C2060.99,1282.22,2060.3,1282.02,2059.73,1281.63z
						 M1853.05,1096.82c-0.8-0.55-1.35-1.46-1.39-2.5c-0.07-1.76,1.29-3.24,3.05-3.31c4.8-0.2,9.68-0.23,14.53-0.09
						c4.19,0.12,8.41,0.38,12.56,0.75c1.76,0.16,3.05,1.71,2.88,3.47c-0.16,1.75-1.71,3.04-3.46,2.88
						c-4.02-0.37-8.11-0.61-12.17-0.73c-4.7-0.14-9.43-0.11-14.08,0.08C1854.26,1097.39,1853.6,1097.19,1853.05,1096.82z
						 M2042.85,1214.03c-0.47-0.32-0.86-0.77-1.11-1.33c-3.57-7.95-7.72-15.74-12.33-23.15c-0.93-1.5-0.47-3.46,1.02-4.39
						c1.5-0.93,3.45-0.47,4.39,1.02c4.76,7.66,9.05,15.7,12.73,23.91c0.72,1.61,0,3.49-1.6,4.21
						C2044.9,1214.77,2043.73,1214.63,2042.85,1214.03z M1922.13,1106.06c-1.14-0.77-1.68-2.23-1.24-3.6
						c0.54-1.68,2.33-2.6,4.01-2.07c8.57,2.74,17.05,6.1,25.19,9.98c1.59,0.75,2.26,2.66,1.51,4.25c-0.76,1.59-2.66,2.26-4.25,1.51
						c-7.89-3.76-16.09-7.01-24.4-9.66C1922.66,1106.36,1922.38,1106.23,1922.13,1106.06z M2003.6,1156.45
						c-0.17-0.12-0.34-0.25-0.49-0.41c-6.11-6.25-12.68-12.14-19.55-17.5c-1.39-1.08-1.63-3.09-0.55-4.48
						c1.08-1.38,3.07-1.56,4.47-0.55c7.09,5.54,13.88,11.62,20.19,18.07c1.23,1.26,1.21,3.28-0.05,4.51
						C2006.52,1157.17,2004.83,1157.29,2003.6,1156.45z"/>
					<linearGradient id="SVGID_45_" gradientUnits="userSpaceOnUse" x1="2027.7236" y1="1393.9036" x2="2040.6191" y2="1393.9036">
						<stop  offset="0" style="stop-color:#FEBBBA"/>
						<stop  offset="1" style="stop-color:#FF928E"/>
					</linearGradient>
					<path class="st54" d="M2029.11,1402.01c-1.42-0.97-1.82-2.89-0.89-4.35c2.24-3.52,4.4-7.14,6.4-10.78
						c0.85-1.54,2.79-2.1,4.33-1.25c1.62,0.8,2.1,2.79,1.25,4.33c-2.07,3.76-4.29,7.5-6.61,11.13c-0.95,1.48-2.92,1.92-4.4,0.97
						C2029.17,1402.05,2029.14,1402.03,2029.11,1402.01z"/>
				</g>
				<g>
					<linearGradient id="SVGID_46_" gradientUnits="userSpaceOnUse" x1="1895.0046" y1="1486.9568" x2="1913.8477" y2="1486.9568">
						<stop  offset="0" style="stop-color:#FEBBBA"/>
						<stop  offset="1" style="stop-color:#FF928E"/>
					</linearGradient>
					<path class="st55" d="M1896.4,1490.9c-0.68-0.47-1.19-1.2-1.34-2.08c-0.31-1.73,0.85-3.38,2.58-3.69
						c4.1-0.72,8.23-1.59,12.27-2.58c1.71-0.42,3.43,0.63,3.85,2.34c0.42,1.71-0.63,3.43-2.34,3.85c-4.17,1.02-8.43,1.92-12.67,2.67
						C1897.89,1491.56,1897.06,1491.36,1896.4,1490.9z"/>
					<linearGradient id="SVGID_47_" gradientUnits="userSpaceOnUse" x1="1661.4932" y1="1359.3658" x2="1858.892" y2="1359.3658">
						<stop  offset="0" style="stop-color:#FEBBBA"/>
						<stop  offset="1" style="stop-color:#FF928E"/>
					</linearGradient>
					<path class="st56" d="M1763.26,1467.98c-1.36-0.93-1.8-2.76-0.97-4.21c0.87-1.53,2.82-2.06,4.35-1.19
						c7.45,4.25,15.26,8.04,23.22,11.27c1.65,0.66,2.42,2.52,1.76,4.15c-0.66,1.63-2.52,2.42-4.15,1.76
						c-8.21-3.33-16.28-7.25-23.98-11.64C1763.4,1468.08,1763.33,1468.03,1763.26,1467.98z M1728.75,1443.06
						c-0.12-0.08-0.23-0.17-0.34-0.27c-6.59-5.93-12.85-12.35-18.6-19.09c-1.14-1.34-0.98-3.35,0.35-4.49
						c1.34-1.14,3.35-0.98,4.49,0.35c5.57,6.52,11.63,12.74,18.02,18.48c1.31,1.18,1.42,3.19,0.24,4.5
						C1731.83,1443.76,1730.05,1443.95,1728.75,1443.06z M1827.81,1491.1c-1-0.68-1.56-1.9-1.35-3.17c0.3-1.73,1.94-2.9,3.68-2.6
						c8.44,1.44,17.08,2.34,25.68,2.67c1.76,0.06,3.13,1.54,3.06,3.31c-0.07,1.76-1.55,3.13-3.31,3.06
						c-8.88-0.34-17.8-1.26-26.51-2.75C1828.61,1491.52,1828.18,1491.35,1827.81,1491.1z M1686.4,1389.14
						c-0.41-0.28-0.76-0.66-1.01-1.12c-4.2-7.82-7.91-15.98-11.03-24.26c-0.62-1.65,0.21-3.49,1.86-4.11
						c1.65-0.62,3.49,0.21,4.1,1.86c3.02,8.02,6.61,15.92,10.68,23.49c0.83,1.55,0.25,3.48-1.3,4.32
						C1688.62,1389.9,1687.35,1389.79,1686.4,1389.14z M1664.93,1324.04c-0.71-0.49-1.23-1.26-1.36-2.18
						c-1.27-8.74-1.97-17.68-2.08-26.56c-0.02-1.76,1.39-3.2,3.15-3.23c1.76-0.02,3.2,1.39,3.23,3.15
						c0.11,8.61,0.78,17.26,2.01,25.73c0.25,1.74-0.95,3.36-2.69,3.61C1666.36,1324.68,1665.57,1324.47,1664.93,1324.04z
						 M1666.87,1255.5c-1.03-0.7-1.59-1.97-1.33-3.27c1.77-8.69,4.13-17.35,7.03-25.71c0.58-1.66,2.39-2.54,4.05-1.97
						c1.67,0.57,2.54,2.39,1.97,4.05c-2.81,8.1-5.1,16.48-6.81,24.9c-0.35,1.73-2.03,2.84-3.76,2.49
						C1667.6,1255.9,1667.21,1255.73,1666.87,1255.5z"/>
					<linearGradient id="SVGID_48_" gradientUnits="userSpaceOnUse" x1="1690.6676" y1="1183.6201" x2="1704.0488" y2="1183.6201">
						<stop  offset="0" style="stop-color:#FEBBBA"/>
						<stop  offset="1" style="stop-color:#FF928E"/>
					</linearGradient>
					<path class="st57" d="M1692.06,1191.57c-1.4-0.95-1.81-2.84-0.92-4.3c2.25-3.67,4.65-7.3,7.12-10.81c1-1.42,2.96-1.78,4.4-0.8
						c0.01,0.01,0.03,0.02,0.04,0.03c1.44,1.01,1.78,3,0.77,4.44c-2.4,3.4-4.72,6.92-6.9,10.47c-0.92,1.5-2.88,1.97-4.38,1.05
						C1692.14,1191.63,1692.1,1191.6,1692.06,1191.57z"/>
				</g>
				<g>
					<linearGradient id="SVGID_49_" gradientUnits="userSpaceOnUse" x1="1711.2754" y1="1292.7335" x2="2018.5071" y2="1292.7335">
						<stop  offset="0" style="stop-color:#FF928E"/>
						<stop  offset="1" style="stop-color:#FE7062"/>
					</linearGradient>
					<path class="st58" d="M1750.6,1189.79c-0.76,0.67-1.01,1.76-0.62,2.7l11.09,26.82c-7.84,11.06-13.97,23.44-17.97,36.8
						l-27.94,7.76c-0.98,0.27-1.68,1.14-1.74,2.15l-2.13,34.74c-0.06,1.02,0.53,1.96,1.47,2.35l26.79,11.11
						c2.34,13.75,6.91,26.79,13.34,38.72l-14.28,25.26c-0.5,0.89-0.38,1.99,0.29,2.75l23.06,26.07c0.67,0.76,1.76,1.01,2.7,0.62
						l26.82-11.09c11.06,7.84,23.44,13.96,36.8,17.97l7.76,27.94c0.27,0.98,1.14,1.68,2.15,1.74l34.74,2.13
						c1.02,0.06,1.96-0.53,2.35-1.47l11.11-26.79c13.75-2.34,26.79-6.91,38.72-13.34l25.26,14.28c0.89,0.5,1.99,0.38,2.75-0.29
						l26.07-23.06c0.76-0.67,1.01-1.76,0.62-2.7l-11.09-26.82c7.84-11.06,13.97-23.44,17.97-36.8l27.94-7.76
						c0.98-0.27,1.68-1.14,1.74-2.15l2.13-34.74c0.06-1.02-0.53-1.96-1.47-2.35l-26.79-11.11c-2.34-13.75-6.91-26.79-13.34-38.72
						l14.28-25.26c0.5-0.89,0.38-1.99-0.29-2.75l-23.06-26.07c-0.67-0.76-1.76-1.01-2.7-0.62l-26.82,11.09
						c-11.06-7.84-23.44-13.97-36.8-17.97l-7.76-27.94c-0.27-0.98-1.14-1.68-2.15-1.74l-34.74-2.13c-1.02-0.06-1.96,0.53-2.35,1.47
						l-11.11,26.79c-13.75,2.34-26.79,6.91-38.72,13.34l-25.26-14.28c-0.89-0.5-1.99-0.38-2.75,0.29L1750.6,1189.79z"/>
					<path class="st51" d="M1844.79,1322.22c-0.01-0.01-0.02-0.01-0.03-0.02c-7.87-5.37-13.18-13.5-14.94-22.87
						c-1.76-9.37,0.23-18.86,5.6-26.73c5.38-7.87,13.5-13.18,22.87-14.94c19.34-3.64,38.03,9.13,41.67,28.47
						c1.76,9.37-0.23,18.86-5.6,26.73c-5.38,7.87-13.5,13.18-22.87,14.94C1862.14,1329.57,1852.65,1327.58,1844.79,1322.22z
						 M1879.6,1271.16c-5.52-3.77-12.47-5.43-19.55-4.1c-6.86,1.29-12.8,5.18-16.74,10.94c-3.94,5.76-5.4,12.72-4.1,19.57
						c1.29,6.86,5.18,12.8,10.94,16.74c0.01,0,0.01,0.01,0.02,0.01c5.76,3.93,12.7,5.38,19.55,4.09c6.86-1.29,12.8-5.17,16.74-10.94
						c3.94-5.76,5.4-12.72,4.1-19.57C1889.24,1280.81,1885.14,1274.93,1879.6,1271.16z"/>
					<path class="st51" d="M1815.55,1366.66c-25.02-17.06-40.72-46.49-38.73-78.84c0.34-5.6,1.21-11.16,2.58-16.56
						c0.18-0.69,0.36-1.39,0.56-2.07l9.2,2.58c-1.51,5.39-2.45,10.99-2.8,16.63l0,0c-0.38,6.26-0.02,12.4,1,18.32
						c0,0.02,0.01,0.03,0.01,0.05c0,0.03,0.01,0.06,0.01,0.09c4.6,26.38,22.37,48.62,46.64,59.11c6.28,2.72,13,4.66,20.03,5.67
						c0.23,0.03,0.45,0.07,0.68,0.1c0.18,0.02,0.37,0.05,0.55,0.07c0.47,0.06,0.94,0.12,1.42,0.17c1.28,0.14,2.58,0.25,3.88,0.33
						c21.12,1.3,41.48-5.71,57.33-19.73c5.02-4.44,9.4-9.42,13.08-14.82c7.93-11.64,12.62-25.24,13.5-39.67
						c1.29-21.12-5.71-41.48-19.73-57.33c-14.01-15.85-33.37-25.29-54.49-26.58c-14.33-0.88-28.61,2.13-41.28,8.71l-4.4-8.49
						c14.21-7.38,30.21-10.76,46.27-9.77c23.67,1.45,45.35,12.03,61.06,29.79c15.71,17.76,23.56,40.58,22.11,64.24
						c-0.99,16.17-6.24,31.41-15.13,44.46c-4.12,6.05-9.03,11.63-14.66,16.61c-17.76,15.71-40.58,23.56-64.24,22.11
						C1843.5,1380.84,1828.31,1375.36,1815.55,1366.66z"/>
				</g>
			</g>
			<g>
				<g>
					<path class="st3" d="M2309.1,820.32c-0.85-0.52-1.44-1.44-1.49-2.51c-0.19-4.13-0.48-8.26-0.84-12.29
						c-0.16-1.71,1.11-3.23,2.82-3.38c1.71-0.15,3.23,1.11,3.38,2.82c0.37,4.12,0.66,8.34,0.86,12.55c0.08,1.72-1.25,3.18-2.96,3.26
						C2310.22,820.81,2309.61,820.64,2309.1,820.32z"/>
					<path class="st3" d="M1855.78,1088.58c-6.2-3.79-12.33-7.86-18.22-12.08c-1.4-1-1.72-2.95-0.72-4.34
						c1-1.39,2.93-1.74,4.34-0.72c6.77,4.86,13.86,9.48,21.06,13.77c0.01,0.01,0.02,0.01,0.03,0.02c1.45,0.89,1.92,2.78,1.05,4.25
						c-0.88,1.48-2.79,1.96-4.27,1.08C1857.97,1089.91,1856.87,1089.25,1855.78,1088.58z M1895.92,1109.11
						c-1.29-0.79-1.85-2.42-1.25-3.86c0.66-1.59,2.49-2.33,4.08-1.67c7.7,3.22,15.64,6.16,23.6,8.73c1.65,0.52,2.54,2.28,2.01,3.92
						c-0.53,1.63-2.28,2.54-3.92,2.01c-8.13-2.62-16.23-5.62-24.09-8.91C1896.2,1109.27,1896.05,1109.19,1895.92,1109.11z
						 M1959.84,1127.89c-1.06-0.65-1.67-1.9-1.44-3.2c0.3-1.69,1.91-2.82,3.61-2.52c8.24,1.46,16.63,2.57,24.93,3.32
						c1.71,0.15,2.98,1.67,2.82,3.38c-0.15,1.71-1.67,2.98-3.38,2.82c-8.48-0.76-17.04-1.91-25.46-3.39
						C1960.53,1128.23,1960.17,1128.09,1959.84,1127.89z M2026.31,1132.08c-0.85-0.52-1.44-1.43-1.49-2.5
						c-0.08-1.72,1.24-3.18,2.96-3.26c8.33-0.41,16.75-1.2,25.04-2.33c1.7-0.23,3.28,0.96,3.51,2.66c0.23,1.7-0.96,3.27-2.66,3.51
						c-8.46,1.16-17.07,1.96-25.57,2.38C2027.44,1132.56,2026.83,1132.39,2026.31,1132.08z M2092.02,1121.3
						c-0.64-0.39-1.15-1.02-1.37-1.81c-0.47-1.65,0.5-3.38,2.15-3.84c8.03-2.26,16.07-4.91,23.89-7.85c1.61-0.6,3.41,0.21,4.01,1.82
						c0.6,1.61-0.21,3.41-1.82,4.01c-7.99,3.01-16.2,5.71-24.4,8.02C2093.62,1121.89,2092.73,1121.74,2092.02,1121.3z
						 M2153.71,1096.19c-0.45-0.28-0.84-0.67-1.11-1.17c-0.82-1.51-0.26-3.4,1.25-4.22c7.35-4,14.61-8.35,21.57-12.94
						c1.44-0.95,3.37-0.55,4.31,0.89c0.95,1.43,0.55,3.37-0.88,4.31c-7.11,4.69-14.52,9.13-22.02,13.22
						C2155.81,1096.82,2154.63,1096.75,2153.71,1096.19z M2208.34,1058.06c-0.26-0.16-0.5-0.36-0.72-0.6
						c-1.13-1.29-1.01-3.26,0.28-4.39c6.28-5.52,12.39-11.37,18.17-17.4c1.19-1.24,3.15-1.28,4.4-0.09c1.24,1.19,1.28,3.16,0.09,4.4
						c-5.9,6.16-12.15,12.13-18.55,17.77C2210.97,1058.66,2209.47,1058.75,2208.34,1058.06z M2253.14,1008.74
						c-0.07-0.04-0.13-0.09-0.2-0.13c-1.39-1.01-1.71-2.95-0.7-4.35c4.32-5.99,8.46-12.21,12.3-18.49c0.51-0.84,1.02-1.68,1.53-2.52
						c0.88-1.48,2.79-1.96,4.27-1.08c0.01,0.01,0.02,0.01,0.03,0.02c1.45,0.89,1.93,2.79,1.05,4.25c-0.52,0.86-1.04,1.72-1.56,2.58
						c-3.93,6.42-8.15,12.77-12.56,18.88C2256.33,1009.24,2254.52,1009.58,2253.14,1008.74z M2285.77,950.67
						c-1.29-0.79-1.85-2.43-1.24-3.86c3.24-7.68,6.2-15.61,8.79-23.58c0.53-1.64,2.29-2.53,3.92-2c1.63,0.55,2.53,2.29,2,3.92
						c-2.65,8.13-5.67,16.23-8.98,24.07c-0.67,1.59-2.49,2.33-4.08,1.66C2286.05,950.82,2285.91,950.75,2285.77,950.67z
						 M2304.73,886.79c-1.06-0.65-1.67-1.9-1.44-3.21c1.48-8.25,2.62-16.63,3.39-24.93c0.16-1.71,1.68-2.97,3.39-2.81
						c1.71,0.16,2.97,1.67,2.81,3.39c-0.78,8.47-1.95,17.03-3.46,25.45c-0.3,1.69-1.92,2.82-3.61,2.52
						C2305.42,887.13,2305.06,886.99,2304.73,886.79z"/>
					<path class="st3" d="M1805.85,1050.17c-0.19-0.11-0.37-0.25-0.53-0.41c-3.06-2.92-6.06-5.91-8.91-8.87
						c-1.19-1.24-1.16-3.21,0.08-4.4c1.24-1.2,3.21-1.15,4.4,0.08c2.8,2.9,5.73,5.83,8.73,8.69c1.24,1.19,1.29,3.16,0.1,4.4
						C1808.69,1050.75,1807.07,1050.92,1805.85,1050.17z"/>
				</g>
				<g>
					<path class="st3" d="M1713.41,835.79c-0.89-0.55-1.49-1.52-1.49-2.65c-0.02-4.15,0.06-8.38,0.21-12.58
						c0.06-1.72,1.51-3.06,3.23-2.99c1.72,0.07,3.06,1.51,2.99,3.23c-0.16,4.11-0.23,8.26-0.21,12.32c0.01,1.72-1.38,3.12-3.1,3.13
						C1714.44,836.25,1713.88,836.08,1713.41,835.79z"/>
					<path class="st3" d="M1717.94,782.93c-1.06-0.65-1.67-1.9-1.44-3.2c1.45-8.24,3.28-16.55,5.43-24.68
						c0.44-1.66,2.14-2.66,3.81-2.22c1.66,0.45,2.66,2.14,2.22,3.81c-2.1,7.97-3.89,16.11-5.32,24.18c-0.3,1.69-1.91,2.82-3.61,2.52
						C1718.63,783.27,1718.26,783.13,1717.94,782.93z M1736.29,719.99c-1.28-0.79-1.84-2.41-1.25-3.85
						c3.22-7.77,6.8-15.48,10.65-22.92c0.79-1.53,2.67-2.12,4.2-1.33c1.55,0.8,2.13,2.67,1.34,4.2
						c-3.77,7.29-7.28,14.84-10.43,22.45c-0.66,1.59-2.48,2.34-4.07,1.68C1736.57,720.15,1736.43,720.08,1736.29,719.99z
						 M1767.94,662.58c-0.06-0.04-0.12-0.07-0.17-0.11c-1.4-0.99-1.74-2.94-0.75-4.34c4.84-6.85,10.03-13.58,15.44-20.01
						c1.11-1.32,3.07-1.48,4.39-0.38c1.32,1.11,1.49,3.07,0.38,4.39c-5.3,6.3-10.38,12.89-15.12,19.6
						C1771.15,663.06,1769.32,663.43,1767.94,662.58z M1811.43,613.53c-0.25-0.15-0.48-0.34-0.69-0.57
						c-1.15-1.28-1.05-3.24,0.22-4.4c6.22-5.63,12.77-11.06,19.45-16.14c1.37-1.04,3.32-0.78,4.36,0.59
						c1.04,1.37,0.78,3.32-0.59,4.36c-6.54,4.98-12.95,10.3-19.05,15.81C1814.1,614.13,1812.58,614.23,1811.43,613.53z
						 M1864.59,575.18c-0.44-0.27-0.81-0.64-1.08-1.12c-0.85-1.5-0.32-3.4,1.17-4.24c7.3-4.14,14.87-8.01,22.49-11.53
						c1.56-0.72,3.41-0.04,4.13,1.53c0.72,1.56,0.04,3.41-1.52,4.13c-7.47,3.44-14.88,7.24-22.03,11.29
						C1866.73,575.81,1865.52,575.75,1864.59,575.18z M1924.81,549.31c-0.63-0.38-1.12-0.99-1.35-1.75
						c-0.5-1.65,0.43-3.39,2.07-3.89c8.03-2.45,16.26-4.58,24.46-6.34c1.68-0.36,3.34,0.71,3.7,2.39c0.36,1.68-0.71,3.34-2.39,3.7
						c-8.02,1.72-16.08,3.81-23.95,6.21C1926.45,549.91,1925.54,549.76,1924.81,549.31z M1989.2,537.24
						c-0.83-0.51-1.4-1.39-1.48-2.43c-0.13-1.71,1.16-3.21,2.87-3.34c8.38-0.63,16.88-0.9,25.26-0.82c1.72,0.02,3.1,1.43,3.08,3.14
						c-0.02,1.72-1.43,3.1-3.15,3.08c-8.21-0.08-16.53,0.19-24.73,0.8C1990.38,537.74,1989.74,537.57,1989.2,537.24z
						 M2054.69,539.62c-1.03-0.63-1.64-1.84-1.46-3.11c0.25-1.7,1.84-2.88,3.54-2.62c8.28,1.23,16.63,2.82,24.82,4.74
						c1.68,0.38,2.71,2.07,2.32,3.74c-0.39,1.67-2.07,2.71-3.74,2.32c-8.03-1.88-16.21-3.44-24.31-4.64
						C2055.43,539.98,2055.04,539.84,2054.69,539.62z M2118.1,556.22c-1.26-0.77-1.83-2.34-1.28-3.77c0.61-1.61,2.41-2.41,4.02-1.8
						c7.87,3.01,15.67,6.38,23.21,10.01c1.54,0.77,2.2,2.61,1.45,4.16c-0.75,1.55-2.61,2.2-4.16,1.45
						c-7.38-3.56-15.03-6.86-22.73-9.8C2118.44,556.41,2118.26,556.32,2118.1,556.22z M2196.62,600.96
						c-0.11-0.07-0.21-0.14-0.32-0.22c-6.44-5.11-13.18-10.01-20.02-14.56c-1.43-0.95-1.82-2.88-0.87-4.32
						c0.95-1.43,2.87-1.86,4.32-0.87c6.99,4.64,13.86,9.64,20.44,14.87c1.35,1.07,1.57,3.03,0.5,4.37
						C2199.69,601.48,2197.94,601.76,2196.62,600.96z"/>
					<path class="st3" d="M2235.15,637.64c-0.26-0.16-0.5-0.36-0.72-0.6c-2.72-3.1-5.52-6.15-8.32-9.08
						c-1.19-1.24-1.14-3.21,0.1-4.4c1.25-1.19,3.21-1.15,4.4,0.1c2.86,2.99,5.72,6.11,8.49,9.27c1.13,1.29,1.01,3.26-0.28,4.39
						C2237.78,638.24,2236.29,638.33,2235.15,637.64z"/>
				</g>
				<g>
					<g>
						<path class="st31" d="M2202.58,703.48c-0.72-1.35-2.21-2.09-3.71-1.86l-42.99,6.77c-13.38-15.3-29.29-28.59-47.36-39.11
							l-1.52-43.47c-0.05-1.52-1.07-2.85-2.53-3.29l-49.92-15.29c-1.46-0.45-3.04,0.08-3.94,1.31l-25.6,35.16
							c-20.87-1.4-41.49,0.69-61.14,5.88l-31.83-29.68c-1.12-1.04-2.77-1.26-4.12-0.54l-46.11,24.49c-1.35,0.72-2.09,2.21-1.86,3.71
							l6.77,42.99c-15.3,13.38-28.59,29.29-39.11,47.36l-43.47,1.52c-1.52,0.05-2.85,1.07-3.29,2.53l-15.29,49.92
							c-0.45,1.46,0.08,3.04,1.31,3.94l35.16,25.6c-1.4,20.87,0.69,41.49,5.88,61.14l-29.69,31.83c-1.04,1.12-1.26,2.77-0.54,4.12
							l24.48,46.11c0.72,1.35,2.21,2.09,3.71,1.86l42.99-6.77c13.37,15.3,29.29,28.59,47.36,39.11l1.51,43.47
							c0.05,1.52,1.07,2.85,2.53,3.29l49.92,15.29c1.46,0.45,3.04-0.08,3.94-1.32l25.6-35.16c20.87,1.4,41.49-0.69,61.14-5.88
							l31.83,29.68c1.12,1.04,2.77,1.26,4.12,0.54l46.11-24.48c1.35-0.72,2.09-2.21,1.86-3.71l-6.77-42.99
							c15.3-13.38,28.59-29.29,39.11-47.36l43.47-1.51c1.52-0.05,2.85-1.07,3.29-2.53l15.29-49.92c0.45-1.46-0.08-3.04-1.31-3.94
							l-35.16-25.6c1.4-20.87-0.69-41.49-5.88-61.14l29.68-31.83c1.04-1.12,1.26-2.77,0.54-4.12L2202.58,703.48z"/>
					</g>
					<path class="st3" d="M1985.8,877.62c-4.13-2.53-7.92-5.66-11.26-9.35c-9.14-10.11-13.81-23.17-13.12-36.78
						c0.68-13.61,6.62-26.14,16.73-35.29c10.11-9.15,23.17-13.81,36.78-13.13c13.61,0.68,26.15,6.62,35.29,16.73
						c9.14,10.11,13.81,23.17,13.12,36.78c-0.68,13.61-6.62,26.14-16.73,35.29c-10.11,9.15-23.17,13.81-36.78,13.13
						C2001.19,884.57,1992.99,882.02,1985.8,877.62z M2034.1,798.43c-5.87-3.59-12.57-5.67-19.64-6.03l0,0
						c-11.12-0.56-21.79,3.25-30.05,10.72c-8.26,7.47-13.11,17.71-13.66,28.83c-0.56,11.12,3.25,21.79,10.72,30.05
						c7.47,8.26,17.71,13.11,28.83,13.66c11.12,0.56,21.79-3.25,30.05-10.72c8.26-7.47,13.11-17.71,13.66-28.83
						c0.56-11.12-3.25-21.79-10.72-30.05C2040.57,803.06,2037.47,800.5,2034.1,798.43z M2014.7,787.74l0.03,0.02L2014.7,787.74z"/>
					<path class="st3" d="M1943.29,946.11c-49.64-30.36-74.56-91.58-56.75-149.73c3.29-10.73,7.84-20.73,13.44-29.89
						c30.36-49.64,91.59-74.57,149.74-56.77c1.04,0.32,2.09,0.66,3.12,1c6.99,2.33,13.77,5.24,20.21,8.68
						c0.75,0.4,1.5,0.81,2.25,1.22l-4.56,8.16c-7.48-4.18-15.47-7.59-23.76-10.13c-0.08-0.03-0.16-0.05-0.23-0.07
						c-63.89-19.43-131.71,16.66-151.27,80.53c-19.59,63.95,16.5,131.91,80.46,151.5c53.99,16.54,110.84-6.61,139.03-52.71
						c5.2-8.51,9.43-17.79,12.48-27.75c6.44-21.02,7.06-43.36,1.81-64.59l9.07-2.25c5.67,22.87,5,46.92-1.94,69.57
						c-3.29,10.73-7.84,20.73-13.44,29.89c-30.36,49.64-91.59,74.57-149.74,56.77C1962.46,956.26,1952.45,951.71,1943.29,946.11z"/>
				</g>
			</g>
		</g>
		<g>
			<g>
				
					<linearGradient id="SVGID_50_" gradientUnits="userSpaceOnUse" x1="-2158.5271" y1="1373.4154" x2="-2009.9471" y2="1767.1531" gradientTransform="matrix(-1 0 0 1 -929.111 0)">
					<stop  offset="0" style="stop-color:#FEBBBA"/>
					<stop  offset="1" style="stop-color:#FF928E"/>
				</linearGradient>
				<path class="st59" d="M1268.07,1441.61l-29.19,28.79c-41.44-3.98-73.38-16.88-97.91-33.23c14.76-36.71,29.75-58.48,41.53-71.24
					C1221.09,1420.18,1268.07,1441.61,1268.07,1441.61z"/>
				<linearGradient id="SVGID_51_" gradientUnits="userSpaceOnUse" x1="1054.818" y1="881.5923" x2="1105.3185" y2="1224.995">
					<stop  offset="0" style="stop-color:#4F52FF"/>
					<stop  offset="1" style="stop-color:#4042E2"/>
				</linearGradient>
				<path class="st60" d="M1064.87,1333.88l68.9-107.72c4.52,60.76,25.05,106.44,48.74,139.75c-11.78,12.76-26.77,34.53-41.53,71.24
					C1079.76,1396.35,1064.87,1333.88,1064.87,1333.88z"/>
			</g>
			
				<linearGradient id="SVGID_52_" gradientUnits="userSpaceOnUse" x1="10898.6943" y1="2155.5132" x2="11046.2061" y2="2155.5132" gradientTransform="matrix(1 0 0 1 -9962.5537 0)">
				<stop  offset="0" style="stop-color:#09005D"/>
				<stop  offset="1" style="stop-color:#1A0F91"/>
			</linearGradient>
			<path class="st61" d="M991.6,2185.25c34.35,1.58,67.6,0.59,89.8-0.55c-20.21-14.39-66.78-45.69-105.74-58.15l-26.75-1.6
				c0,0-9.06,13.78-12.3,45.33C941.04,2175.81,954,2183.52,991.6,2185.25z"/>
			<linearGradient id="SVGID_53_" gradientUnits="userSpaceOnUse" x1="1009.897" y1="1856.5231" x2="1009.897" y2="2161.8621">
				<stop  offset="0" style="stop-color:#4F52FF"/>
				<stop  offset="1" style="stop-color:#4042E2"/>
			</linearGradient>
			<path class="st62" d="M1081.67,2184.9c-0.09-0.06-0.19-0.13-0.28-0.2c-22.2,1.14-55.45,2.13-89.8,0.55
				c-37.6-1.73-50.56-9.44-54.99-14.97c-0.15,1.45-0.3,2.9-0.42,4.43c-0.56,6.92,4.58,13,11.51,13.52
				c28.13,2.13,97.88,6.94,131.52,5.18C1083.64,2193.18,1085.29,2187.48,1081.67,2184.9z"/>
			
				<linearGradient id="SVGID_54_" gradientUnits="userSpaceOnUse" x1="10639.5645" y1="2155.8813" x2="10708.6348" y2="2155.8813" gradientTransform="matrix(1 0 0 1 -9962.5537 0)">
				<stop  offset="0" style="stop-color:#09005D"/>
				<stop  offset="1" style="stop-color:#1A0F91"/>
			</linearGradient>
			<path class="st63" d="M745.92,2176.06c-2.52-16.13-6.55-39.44-9.67-45.4c-4.89-9.35-21.63,0-21.63,0s-11.75,5.48-17.16,14.61
				c-3.45,5.82-12.98,22.38-19.44,33.63c-0.74,1.29-1.05,2.67-1.01,4l67.02,2.35C745.67,2182.62,746.44,2179.42,745.92,2176.06z"/>
			<linearGradient id="SVGID_55_" gradientUnits="userSpaceOnUse" x1="686.1702" y1="1928.4497" x2="717.2214" y2="2254.4888">
				<stop  offset="0" style="stop-color:#4F52FF"/>
				<stop  offset="1" style="stop-color:#4042E2"/>
			</linearGradient>
			<path class="st64" d="M677.01,2182.91c0.11,3.83,3.15,7.3,7.43,7.42l47.75,1.31c5.04,0.14,9.41-2.48,11.85-6.39L677.01,2182.91z"
				/>
			
				<linearGradient id="SVGID_56_" gradientUnits="userSpaceOnUse" x1="10668.7764" y1="2108.2642" x2="10713.5928" y2="2108.2642" gradientTransform="matrix(1 0 0 1 -9962.5537 0)">
				<stop  offset="0" style="stop-color:#FEBBBA"/>
				<stop  offset="1" style="stop-color:#FF928E"/>
			</linearGradient>
			<path class="st65" d="M751.04,2077.07c-0.58,1.93-9.24,43.92-13.03,62.34c-1.05,5.09-5.64,8.67-10.83,8.41
				c-2.84-0.14-6.14-0.4-9.6-0.84c-6.14-0.79-10.81-5.92-11.05-12.11c-0.61-16.14-0.92-47.13,5.01-59.14
				C719.72,2059.16,751.04,2077.07,751.04,2077.07z"/>
			
				<linearGradient id="SVGID_57_" gradientUnits="userSpaceOnUse" x1="10906.1973" y1="2105.3308" x2="10943.5498" y2="2105.3308" gradientTransform="matrix(1 0 0 1 -9962.5537 0)">
				<stop  offset="0" style="stop-color:#FEBBBA"/>
				<stop  offset="1" style="stop-color:#FF928E"/>
			</linearGradient>
			<path class="st66" d="M943.64,2089.09c3.71-0.12-1.48,19.18,4.14,38.14c1.27,4.28,4.47,7.64,8.93,7.69
				c2.89,0.04,6.32-0.02,9.8-0.3c5.23-0.42,9.44-4.48,9.92-9.7l4.57-49.19L943.64,2089.09z"/>
			<linearGradient id="SVGID_58_" gradientUnits="userSpaceOnUse" x1="1117.6434" y1="1192.1376" x2="837.263" y2="2093.9043">
				<stop  offset="0" style="stop-color:#4F52FF"/>
				<stop  offset="1" style="stop-color:#4042E2"/>
			</linearGradient>
			<path class="st67" d="M1047.54,1566.17c-1.66,8.07-60.17,349.38-63.72,526c-0.06,2.96-2.24,5.44-5.17,5.85
				c-7.43,1.04-21.9,2.37-35.92-0.23c-1.92-0.36-3.37-1.94-3.49-3.89c-2.05-32.91-18.49-311.19,1.65-442.18
				c0,0-166.38,350.17-191.6,446.73c-0.61,2.35-2.77,3.93-5.2,3.8c-7.13-0.38-21.94-1.66-33.71-5.99
				c-4.22-1.55-6.62-5.99-5.55-10.35c14.09-57.78,112.84-455.9,179.89-543.62L1047.54,1566.17z"/>
			
				<linearGradient id="SVGID_59_" gradientUnits="userSpaceOnUse" x1="10999.0811" y1="1531.0682" x2="10846.2021" y2="1728.7194" gradientTransform="matrix(1 0 0 1 -9962.5537 0)">
				<stop  offset="0" style="stop-color:#09005D"/>
				<stop  offset="1" style="stop-color:#1A0F91"/>
			</linearGradient>
			<path class="st68" d="M940.88,1653.9c-0.55,0-1.1-0.21-1.53-0.62c-0.86-0.84-0.88-2.23-0.03-3.09l22.28-22.78
				c0.84-0.86,2.23-0.88,3.09-0.03c0.86,0.84,0.88,2.23,0.03,3.09l-22.28,22.78C942.01,1653.68,941.45,1653.9,940.88,1653.9z"/>
			<linearGradient id="SVGID_60_" gradientUnits="userSpaceOnUse" x1="1328.0106" y1="1119.2834" x2="876.8727" y2="1422.287">
				<stop  offset="0" style="stop-color:#4F52FF"/>
				<stop  offset="1" style="stop-color:#4042E2"/>
			</linearGradient>
			<path class="st69" d="M1142.65,1138.85c-42.74-11.2-121.57-28.73-184.33-24.99c-14.41,0.86-25.96,12.26-26.78,26.67
				c-9.48,167.14-22.43,315.46-46.83,401.75c54.84,21.7,109.2,31.77,162.83,23.88c40.18-86.06,75.31-185.41,105.32-298.24
				c0,0,17.61-89.99,0.51-119.99C1150.7,1143.26,1147.2,1140.04,1142.65,1138.85z"/>
			<linearGradient id="SVGID_61_" gradientUnits="userSpaceOnUse" x1="999.258" y1="1158.0327" x2="1164.2263" y2="969.4974">
				<stop  offset="0" style="stop-color:#FEBBBA"/>
				<stop  offset="1" style="stop-color:#FF928E"/>
			</linearGradient>
			<path class="st70" d="M1039.85,1021.77c0,0-10.79,64.38-14.01,94.16c-0.52,4.84,2.01,9.41,6.34,11.64
				c11.79,6.07,36.97,15.85,64.41,6.88c4.52-1.48,7.48-5.85,7.38-10.6l-1.88-85.95L1039.85,1021.77z"/>
			<g>
				
					<linearGradient id="SVGID_62_" gradientUnits="userSpaceOnUse" x1="10982.4482" y1="1064.9984" x2="10863.4131" y2="1156.0782" gradientTransform="matrix(1 0 0 1 -9962.5537 0)">
					<stop  offset="0" style="stop-color:#FEBBBA"/>
					<stop  offset="1" style="stop-color:#FF928E"/>
				</linearGradient>
				<path class="st71" d="M1110.23,950.43c0,0,20.82,47.83,22.22,72.94c1.4,25.11,6.81,41.4-22.22,46.45
					c-29.03,5.06-53.48-9.41-66.73-34.41c0,0-20.76-38.53-16.1-54.32C1032.06,965.31,1110.23,950.43,1110.23,950.43z"/>
				
					<linearGradient id="SVGID_63_" gradientUnits="userSpaceOnUse" x1="10993.5254" y1="920.6372" x2="11101.3135" y2="1059.4138" gradientTransform="matrix(1 0 0 1 -9962.5537 0)">
					<stop  offset="0" style="stop-color:#09005D"/>
					<stop  offset="1" style="stop-color:#1A0F91"/>
				</linearGradient>
				<path class="st72" d="M1053.42,1017.43h3.67c0,0-15.12-31.01-1.83-36.46c13.29-5.45,65.91-16.18,77.27-34.85
					c10.95-18,1.18-41.26-13.42-47.76c-0.92-0.41-2.01,0.02-2.49,0.92l-1.21,2.29c-0.83,1.57-3.14,1.33-3.64-0.37l0,0
					c-0.47-1.62-2.65-1.97-3.53-0.54c-3.48,5.58-12.89,14.66-38.13,19.32c-35.82,6.61-59.5,21.11-60.08,45.86
					c-0.04,1.57-1.71,2.43-3.05,1.62c-2.64-1.61-6.88-2.37-12.53,2.39c-9.83,8.27-5.81,29.72,15.75,47.37
					c1.02,0.84,1.02,2.44-0.09,3.16c-3.91,2.54-9.73,8.6,5.36,16.67c15.44,8.26,24.58,7.36,28.03,6.47
					c0.93-0.24,1.55-1.08,1.49-2.04l-1.36-21.94c-0.07-1.13,0.83-2.09,1.97-2.09H1053.42z"/>
				
					<linearGradient id="SVGID_64_" gradientUnits="userSpaceOnUse" x1="11062.3877" y1="973.2386" x2="10943.3525" y2="1064.3185" gradientTransform="matrix(1 0 0 1 -9962.5537 0)">
					<stop  offset="0" style="stop-color:#FEBBBA"/>
					<stop  offset="1" style="stop-color:#FF928E"/>
				</linearGradient>
				<path class="st73" d="M1054.32,1022.02c0,0-7.94-30.55-21.64-21.99c-13.7,8.57,7.11,34.23,18.12,35.38L1054.32,1022.02z"/>
			</g>
			<g>
				<linearGradient id="SVGID_65_" gradientUnits="userSpaceOnUse" x1="507.9436" y1="1514.9385" x2="1479.5417" y2="1514.9385">
					<stop  offset="0" style="stop-color:#DAE3FE"/>
					<stop  offset="1" style="stop-color:#E9EFFD"/>
				</linearGradient>
				<path class="st74" d="M609.82,1519.13l-28.12,7.11c-48.26,12.2-80.71,48.46-72.48,81l9.78,38.68
					c8.22,32.54,54.01,49.03,102.27,36.83l28.12-7.11c1.86-0.47,3.71-0.98,5.55-1.53l824.6-246.73l-21.3-84.27l-842.8,174.74
					C613.56,1518.23,611.69,1518.66,609.82,1519.13z M621.93,1557.74c36.33-9.18,70.21,0.87,75.66,22.46
					c5.46,21.59-19.57,46.53-55.9,55.72c-36.33,9.18-70.21-0.87-75.66-22.46C560.57,1591.87,585.6,1566.92,621.93,1557.74z"/>
				<linearGradient id="SVGID_66_" gradientUnits="userSpaceOnUse" x1="1408.4263" y1="1348.521" x2="1812.397" y2="1348.521">
					<stop  offset="0" style="stop-color:#DAE3FE"/>
					<stop  offset="1" style="stop-color:#E9EFFD"/>
				</linearGradient>
				<path class="st75" d="M1732.41,1228.6l-163.17,41.24c-11.62,2.94-21.21,11.1-25.98,22.1l-24.41,56.37
					c-6.97,16.09-2.23,34.85,11.55,45.7l48.27,38c9.42,7.41,21.74,10.03,33.36,7.1l163.17-41.24c24.61-6.22,45.52,19.47,33.9,42.04
					c-27.8,54-78.81,96.7-143.73,113.12c-117.35,29.66-221.2-41.44-249.73-154.31c-28.53-112.87,29.06-224.78,146.41-254.44
					c64.92-16.41,130.1-3.07,180.22,31.23C1763.22,1189.84,1757.02,1222.38,1732.41,1228.6z"/>
				
					<linearGradient id="SVGID_67_" gradientUnits="userSpaceOnUse" x1="-1144.3145" y1="17917.9375" x2="-1007.9697" y2="16943.3262" gradientTransform="matrix(-0.2451 -0.9695 -0.9695 0.2451 -2938.6108 4675.627)">
					<stop  offset="0" style="stop-color:#09005D"/>
					<stop  offset="1" style="stop-color:#1A0F91"/>
				</linearGradient>
				<path class="st76" d="M1736.3,1243.98l-163.17,41.24c-11.62,2.94-21.22,11.1-25.98,22.1l-24.41,56.37
					c-6.97,16.09-2.23,34.85,11.55,45.7l48.27,38c9.42,7.41,21.74,10.03,33.36,7.1l163.17-41.25c24.61-6.22,45.52,19.47,33.9,42.04
					c-27.8,54-78.81,96.7-143.73,113.11c-117.35,29.66-221.2-41.43-249.73-154.31c-28.53-112.87,29.07-224.78,146.41-254.44
					c64.92-16.41,130.1-3.07,180.22,31.23C1767.1,1205.22,1760.91,1237.76,1736.3,1243.98z"/>
				
					<linearGradient id="SVGID_68_" gradientUnits="userSpaceOnUse" x1="-368.5881" y1="14228.2031" x2="-232.2439" y2="13253.5957" gradientTransform="matrix(-0.2451 -0.9695 -1.2017 0.3038 -2694.0115 4613.8496)">
					<stop  offset="0" style="stop-color:#09005D"/>
					<stop  offset="1" style="stop-color:#1A0F91"/>
				</linearGradient>
				<path class="st77" d="M612.92,1531.4l-28.12,7.11c-48.26,12.2-80.71,48.46-72.48,81l9.78,38.68
					c8.22,32.54,54.01,49.03,102.27,36.83l28.12-7.11c1.86-0.47,3.71-0.98,5.55-1.53l824.6-246.73l-21.3-84.27l-842.8,174.74
					C616.66,1530.5,614.79,1530.93,612.92,1531.4z M625.03,1570.01c36.33-9.18,70.21,0.87,75.66,22.46
					c5.46,21.59-19.57,46.53-55.9,55.72c-36.33,9.18-70.21-0.87-75.66-22.46C563.67,1604.13,588.7,1579.19,625.03,1570.01z"/>
			</g>
			<g>
				
					<linearGradient id="SVGID_69_" gradientUnits="userSpaceOnUse" x1="-1733.1737" y1="1390.0212" x2="-1566.0204" y2="1631.4645" gradientTransform="matrix(-1 0 0 1 -929.111 0)">
					<stop  offset="0" style="stop-color:#FEBBBA"/>
					<stop  offset="1" style="stop-color:#FF928E"/>
				</linearGradient>
				<path class="st78" d="M820.94,1361.45c-21.13,59.3-9.23,122.87-9.23,122.87l-27.86,7.43c0,0-35.99-42.81-27.76-137.8
					C781.81,1350.03,805.9,1356.06,820.94,1361.45z"/>
				<linearGradient id="SVGID_70_" gradientUnits="userSpaceOnUse" x1="1244.7321" y1="995.2911" x2="793.5935" y2="1298.295">
					<stop  offset="0" style="stop-color:#4F52FF"/>
					<stop  offset="1" style="stop-color:#4042E2"/>
				</linearGradient>
				<path class="st79" d="M756.1,1353.96c0.92-10.68,2.38-21.99,4.54-34c18.82-104.76,153.13-185.35,184.73-203
					c2.94-1.64,6.51,0.57,6.41,3.94l-4.49,142.41c-74.8,10.05-110.2,52.85-126.35,98.15C805.9,1356.06,781.81,1350.03,756.1,1353.96
					z"/>
			</g>
			
				<linearGradient id="SVGID_71_" gradientUnits="userSpaceOnUse" x1="-2263.0276" y1="1412.8496" x2="-2114.4478" y2="1806.5864" gradientTransform="matrix(-1 0 0 1 -929.111 0)">
				<stop  offset="0" style="stop-color:#FEBBBA"/>
				<stop  offset="1" style="stop-color:#FF928E"/>
			</linearGradient>
			<path class="st80" d="M1326.84,1493.86c5.22-1.44,9.46-5.16,11.67-10.1c4.28-9.58,9.09-24.94-1.19-29.61
				c-15.32-6.96-43.18,21.59-43.18,21.59l-13.61,22.06l-12.45,6.05C1279.48,1506.99,1301.47,1501.76,1326.84,1493.86z"/>
			
				<linearGradient id="SVGID_72_" gradientUnits="userSpaceOnUse" x1="-1797.1882" y1="1433.7318" x2="-1628.1033" y2="1677.9652" gradientTransform="matrix(-1 0 0 1 -929.111 0)">
				<stop  offset="0" style="stop-color:#FEBBBA"/>
				<stop  offset="1" style="stop-color:#FF928E"/>
			</linearGradient>
			<path class="st81" d="M809.85,1470.39h34.44c0,0-27.94,16.76-28.87,34.38c-0.93,17.62,11.09,54.13,16.72,64.06
				c6.15,10.87-77.99-16.18-48.29-98.44H809.85z"/>
		</g>
		<g>
			<linearGradient id="SVGID_73_" gradientUnits="userSpaceOnUse" x1="2100.9333" y1="3188.2373" x2="2245.7007" y2="2582.2332">
				<stop  offset="0" style="stop-color:#FF928E"/>
				<stop  offset="1" style="stop-color:#FE7062"/>
			</linearGradient>
			<path class="st82" d="M2510.94,3158.54v29.52c0,7.56-3.88,13.8-9.02,14.48l-460.59,41.74c-3.42,0.47-6.85,0.39-10.25-0.2
				c-0.89-0.16-1.77-0.35-2.66-0.57l-320.92-60.49c-3.41-0.88-5.92-5.35-5.92-10.53v-31.19l340.5-42.2l43.83-20.74l43.58,6.28
				l25.74-4.93l58.82,17.12L2510.94,3158.54z"/>
			<linearGradient id="SVGID_74_" gradientUnits="userSpaceOnUse" x1="2271.6099" y1="3132.7407" x2="2352.4109" y2="2503.1672">
				<stop  offset="0" style="stop-color:#FF928E"/>
				<stop  offset="1" style="stop-color:#FE7062"/>
			</linearGradient>
			<path class="st83" d="M2510.94,3158.54v29.52c0,7.56-3.88,13.8-9.02,14.48l-460.57,41.74c-3.42,0.47-7.68,0.36-10.23-0.21
				v-159.03l54.81-6.7l43.57,6.28l25.73-4.93l58.82,17.12L2510.94,3158.54z"/>
			<linearGradient id="SVGID_75_" gradientUnits="userSpaceOnUse" x1="2178.1328" y1="2630.7224" x2="2130.999" y2="2970.7588">
				<stop  offset="0" style="stop-color:#E1473D"/>
				<stop  offset="1" style="stop-color:#E9605A"/>
			</linearGradient>
			<path class="st84" d="M2155.23,3079.7l-453.64,60.22l327.21,61.63c4.03,1.03,8.12,1.27,12.17,0.71l469.98-43.71L2155.23,3079.7z"
				/>
			<g>
				<linearGradient id="SVGID_76_" gradientUnits="userSpaceOnUse" x1="3265.196" y1="155.3778" x2="3029.5273" y2="747.9151">
					<stop  offset="0" style="stop-color:#FF928E"/>
					<stop  offset="1" style="stop-color:#FE7062"/>
				</linearGradient>
				<path class="st85" d="M2321.52,3134.09c0,21.61-67.99,38.4-161.85,42.76c-23.69,1.09-49.02,1.39-75.3,0.79
					c-129.18-2.98-232.97-27.01-232.97-53.61c0-0.6,0.07-1.91,0.18-1.91l-0.18,0l0.54-1.28c0.12-0.44,0.29-0.83,0.48-1.24
					l29.79-77.88l35.98-93.98l50.38-131.71l38.56-100.82l47.97-125.36c6-15.7,17.12-25.45,29.14-25.45c1.64,0,3.23,0.17,4.81,0.53
					c10.15,2.21,19.21,11.35,24.41,24.96l48.37,126.24l38.63,102.15l50.97,134.35v0.03l36.6,96.53v0.03l0.58,0.06l30.48,78.45
					C2320.43,3129.8,2321.52,3131.94,2321.52,3134.09z"/>
				<path class="st43" d="M2288.64,3049.25c-29.41,9.83-76.43,16.91-132.71,19.54c-22.69,1.07-46.68,1.41-71.69,0.94
					c-86.79-1.65-162.04-12.82-202.09-28.01l36.01-93.99c42.14,9.48,100.87,15.87,166.15,16.85c21.11,0.32,41.68,0.05,61.26-0.74
					c41.22-1.63,77.56-5.59,106.2-11.21l36.29,96.53v0.03L2288.64,3049.25z"/>
				<path class="st43" d="M2200.92,2818.26c-22.45,2.43-47.13,4.07-73.31,4.82c-14.03,0.42-28.48,0.55-43.24,0.41
					c-42.24-0.41-81.76-3.11-115.8-7.46l38.56-100.82c24.13,1.9,50.13,2.99,77.24,3.15c9.58,0.06,19.02,0,28.28-0.2
					c17-0.32,33.47-1,49.19-2.05L2200.92,2818.26z"/>
			</g>
		</g>
	</g>
</g>
</svg>
