<?xml version="1.0" encoding="utf-8"?>
<!-- Generator: Adobe Illustrator 22.0.0, SVG Export Plug-In . SVG Version: 6.00 Build 0)  -->
<svg version="1.1" xmlns="http://www.w3.org/2000/svg" xmlns:xlink="http://www.w3.org/1999/xlink" x="0px" y="0px"
	 viewBox="0 0 153.5 77" style="enable-background:new 0 0 153.5 77;" xml:space="preserve">
<style type="text/css">
	.st0{fill:#0A195C;}
	.st1{fill:#FFFFFF;}
	.st2{fill:none;stroke:#FFFFFF;stroke-width:1.0163;stroke-linecap:round;stroke-linejoin:round;stroke-miterlimit:10;}
	.st3{fill:#F26F21;}
	.st4{display:none;}
	.st5{display:inline;fill:#012169;}
	.st6{display:inline;}
	.st7{fill:#C8102E;}
	.st8{display:inline;fill-rule:evenodd;clip-rule:evenodd;fill:#E21936;}
	.st9{display:inline;fill-rule:evenodd;clip-rule:evenodd;fill:#FFD200;}
	.st10{display:inline;fill:#0A1A5C;}
	.st11{display:inline;fill:#0A1A5C;stroke:#000000;stroke-width:2.020941e-02;stroke-miterlimit:10;}
	
		.st12{display:inline;fill:none;stroke:#0A1A5C;stroke-width:1.1266;stroke-linecap:round;stroke-linejoin:round;stroke-miterlimit:10;}
	.st13{fill:none;stroke:#F37021;stroke-width:4;stroke-miterlimit:10;}
	.st14{fill:none;stroke:#CCCCCC;stroke-miterlimit:10;}
	.st15{fill:none;stroke:#E6E6E6;stroke-width:1.2119;stroke-miterlimit:10;}
	.st16{fill:#999999;}
	.st17{fill:#CCCCCC;stroke:#CCCCCC;stroke-width:1.0208;stroke-miterlimit:10;}
	.st18{fill:#0A1A5C;}
	.st19{fill:#FFFFFF;stroke:#999999;stroke-width:0.5832;stroke-miterlimit:10;}
	.st20{fill:none;stroke:#FFFFFF;stroke-width:0.7732;stroke-linecap:round;stroke-linejoin:round;stroke-miterlimit:10;}
	.st21{fill-rule:evenodd;clip-rule:evenodd;fill:#FFFFFF;}
	.st22{fill:#9DA3BE;}
	.st23{fill:none;stroke:#CCCCCC;stroke-width:0.8657;stroke-miterlimit:10;}
	.st24{fill:#FFFFFF;stroke:#CCCCCC;stroke-width:0.9555;stroke-miterlimit:10;}
	.st25{fill:#CCCCCC;}
	.st26{fill:none;stroke:#CCCCCC;stroke-width:0.8423;stroke-miterlimit:10;}
	.st27{fill:#999999;stroke:#CCCCCC;stroke-width:0.5866;stroke-miterlimit:10;}
	.st28{fill:#CCCCCC;stroke:#CCCCCC;stroke-width:0.9555;stroke-miterlimit:10;}
	.st29{fill:#FFFFFF;stroke:#CCCCCC;stroke-width:1.0208;stroke-miterlimit:10;}
	.st30{fill:#00FF00;}
	.st31{fill-rule:evenodd;clip-rule:evenodd;}
	.st32{fill:#FFFFFF;stroke:#FFFFFF;stroke-width:0.7732;stroke-linecap:round;stroke-linejoin:round;stroke-miterlimit:10;}
	.st33{fill:#F37021;}
	.st34{fill:#FF0000;}
	.st35{fill:#FFFFFF;stroke:#FFFFFF;stroke-miterlimit:10;}
	.st36{fill:#FFFFFF;stroke:#FFFFFF;stroke-width:0.3262;stroke-miterlimit:10;}
	.st37{fill-rule:evenodd;clip-rule:evenodd;fill:#0A1A5C;}
	.st38{fill:#FFFFFE;}
	.st39{fill:#AAAAAA;}
	.st40{fill:#E2E2E2;}
	.st41{fill:#565656;}
	.st42{opacity:0.6;fill:#0A1A5C;}
	.st43{opacity:0.6;}
	.st44{fill:none;}
	.st45{fill:#DDDDDD;}
</style>
<g id="Layer_1">
</g>
<g id="SITE_INFO">
</g>
<g id="LOGO_CÔNG_TY">
	<g>
		<path class="st0" d="M136.4,24.4l-10.3,0c-4.2,0-6.3-1.5-6.3-4.6c0-3.1,2.1-4.6,6.3-4.6l25.2,0l0-11.4l-35.7,0
			c-9.9,0-14.9,5-14.9,14.9l0,2.9c0,9.9,5,14.9,14.9,14.9l10.3,0c4.2,0,6.3,1.5,6.3,4.6c0,3.1-2.1,4.6-6.3,4.6l-25.2,0l-26.3,0
			l0-9.5l22.6,0l0-11.4l-22.6,0l0-9.5l26.3,0l0-11.5l-34.5,0l-14.6,0l-15.6,0l0,0l-18.3,0c-9.9,0-14.9,5-14.9,14.9l0,2.9
			c0,9.9,5,14.9,14.9,14.9l10.3,0c4.2,0,6.3,1.5,6.3,4.6c0,3.1-2.1,4.6-6.3,4.6l-25.2,0l0,11.4l35.7,0c6.5,0,10.9-2.2,13.2-6.5
			l0,6.5l49.1,0l35.7,0c9.9,0,14.9-5,14.9-14.9l0-2.9C151.3,29.4,146.3,24.4,136.4,24.4z M51.6,50.5l0-20.9l-12.4,0L51.6,3.8l0,20.9
			l12.4,0L51.6,50.5z"/>
		<g>
			<path class="st3" d="M2.7,71.7l1.2-0.3c0.5,1.4,1.5,2.1,3,2.1c0.8,0,1.4-0.2,1.8-0.5c0.4-0.3,0.6-0.8,0.6-1.4
				c0-0.4-0.2-0.8-0.5-1.1c-0.3-0.3-0.7-0.5-1.1-0.6l-2.1-0.5c-0.5-0.1-1-0.3-1.3-0.5c-0.3-0.2-0.6-0.5-0.9-0.9
				c-0.2-0.4-0.4-0.9-0.4-1.4c0-0.9,0.3-1.6,1-2.1c0.7-0.5,1.5-0.8,2.5-0.8c1.9,0,3.1,0.9,3.7,2.6l-1.2,0.3c-0.1-0.6-0.5-1.1-1-1.4
				c-0.5-0.3-1-0.5-1.6-0.5c-0.6,0-1.1,0.1-1.5,0.4c-0.4,0.3-0.7,0.7-0.7,1.3c0,0.8,0.6,1.3,1.7,1.6l1.9,0.5
				c1.8,0.4,2.6,1.4,2.6,2.9c0,0.9-0.3,1.6-1,2.2c-0.7,0.6-1.6,0.9-2.8,0.9C4.8,74.6,3.4,73.6,2.7,71.7z"/>
			<path class="st3" d="M22.8,74.4l-1.2,0l0-4.8c0-0.5,0-0.9-0.1-1.1c-0.1-0.2-0.2-0.5-0.5-0.7c-0.3-0.2-0.6-0.3-0.9-0.3
				c-0.5,0-0.9,0.2-1.3,0.6c-0.4,0.4-0.6,1.1-0.6,1.9l0,4.3l-1.2,0l0-5c0-0.7-0.2-1.1-0.5-1.4c-0.3-0.3-0.7-0.4-1-0.4
				c-0.5,0-0.9,0.2-1.3,0.7c-0.4,0.4-0.6,1-0.6,1.6l0,4.6l-1.1,0l0-7.6l1,0l0,1.5c0.6-1.1,1.4-1.7,2.4-1.7c0.5,0,1,0.2,1.4,0.5
				c0.4,0.4,0.6,0.8,0.7,1.3c0.5-1.2,1.3-1.8,2.4-1.8c0.5,0,1,0.1,1.4,0.4c0.4,0.3,0.6,0.6,0.8,1c0.1,0.4,0.2,0.9,0.2,1.6L22.8,74.4
				z"/>
			<path class="st3" d="M31.1,74.4l-1.2,0c0-0.2-0.1-0.7-0.1-1.4c-0.5,1.1-1.4,1.6-2.7,1.6c-0.9,0-1.5-0.2-2-0.7
				c-0.5-0.5-0.7-1-0.7-1.6c0-0.8,0.3-1.4,1-1.9c0.7-0.5,1.8-0.7,3.3-0.7c0.2,0,0.5,0,1,0c0-0.6,0-1-0.1-1.3
				c-0.1-0.3-0.3-0.5-0.6-0.6c-0.3-0.2-0.7-0.2-1.2-0.2c-1.2,0-1.9,0.5-2.1,1.4l-1.1-0.2c0.3-1.4,1.4-2.1,3.4-2.1
				c1.1,0,1.8,0.2,2.2,0.7c0.4,0.5,0.7,1.3,0.7,2.4l0,3.2C31,73.5,31,74,31.1,74.4z M29.8,70.6c-0.5,0-0.9,0-1.1,0
				c-0.9,0-1.7,0.2-2.2,0.5c-0.5,0.3-0.8,0.8-0.8,1.4c0,0.4,0.1,0.7,0.4,1c0.3,0.3,0.7,0.4,1.2,0.4c0.7,0,1.3-0.3,1.8-0.8
				c0.5-0.5,0.7-1.1,0.7-1.8C29.8,70.9,29.8,70.8,29.8,70.6z"/>
			<path class="st3" d="M34.5,74.4l-1.2,0l0-7.6l1,0l0,1.8c0.4-0.8,0.7-1.4,1.1-1.6c0.4-0.2,0.8-0.4,1.1-0.4c0.1,0,0.3,0,0.5,0
				l0,1.1l-0.2,0c-0.7,0-1.2,0.2-1.6,0.7c-0.4,0.5-0.7,1.1-0.7,1.9L34.5,74.4z"/>
			<path class="st3" d="M42.4,73.6l0,0.9c-0.4,0.1-0.8,0.1-1.1,0.1c-1.5,0-2.2-0.8-2.2-2.3l0-4.6l-1.4,0l0-0.9l1.4,0l0.1-1.9
				l1.1-0.1l0,2l1.7,0l0,0.9l-1.7,0l0,4.8c0,0.8,0.4,1.2,1.2,1.2C41.8,73.7,42.1,73.7,42.4,73.6z"/>
			<path class="st3" d="M54.4,73.3l0,1.1l-6.7,0l0-10.3l6.5,0l0,1.1l-5.2,0l0,3.3l4.2,0l0,1.1l-4.2,0l0,3.7L54.4,73.3z"/>
			<path class="st3" d="M57.3,74.4l-1.2,0l0-10.3l1.2,0L57.3,74.4z"/>
			<path class="st3" d="M64.7,72.1l1.1,0.2c-0.2,0.7-0.6,1.2-1.2,1.6c-0.6,0.4-1.3,0.6-2.1,0.6c-1,0-1.9-0.4-2.5-1.1
				c-0.6-0.7-1-1.7-1-2.9c0-1.2,0.3-2.2,1-3c0.7-0.7,1.5-1.1,2.5-1.1c1,0,1.8,0.3,2.4,1c0.6,0.7,0.9,1.7,0.9,3.1l-5.6,0
				c0,1.2,0.2,1.9,0.7,2.3c0.5,0.4,1,0.6,1.5,0.6C63.6,73.6,64.3,73.1,64.7,72.1z M64.6,69.8c0-0.4-0.1-0.8-0.2-1.1
				c-0.1-0.3-0.4-0.6-0.7-0.9c-0.3-0.2-0.7-0.4-1.1-0.4c-0.6,0-1.1,0.2-1.5,0.6c-0.4,0.4-0.6,1-0.7,1.7L64.6,69.8z"/>
			<path class="st3" d="M72.3,71.7l1.1,0.2c-0.2,0.8-0.5,1.5-1,2c-0.5,0.5-1.2,0.7-1.9,0.7c-1.1,0-1.9-0.4-2.4-1.2
				c-0.6-0.8-0.8-1.7-0.8-2.8c0-1.2,0.3-2.1,0.9-2.9c0.6-0.8,1.4-1.2,2.4-1.2c0.8,0,1.5,0.2,2,0.7c0.5,0.5,0.8,1.1,0.9,1.9l-1.1,0.2
				c-0.2-1.3-0.8-1.9-1.8-1.9c-0.7,0-1.2,0.3-1.5,0.8c-0.4,0.6-0.5,1.3-0.5,2.2c0,1,0.2,1.7,0.5,2.3c0.4,0.5,0.8,0.8,1.5,0.8
				C71.4,73.6,72,73,72.3,71.7z"/>
			<path class="st3" d="M78.4,73.6l0,0.9c-0.4,0.1-0.8,0.1-1.1,0.1c-1.5,0-2.2-0.8-2.2-2.3l0-4.6l-1.4,0l0-0.9l1.4,0l0.1-1.9
				l1.1-0.1l0,2l1.7,0l0,0.9l-1.7,0l0,4.8c0,0.8,0.4,1.2,1.2,1.2C77.8,73.7,78.1,73.7,78.4,73.6z"/>
			<path class="st3" d="M80.9,74.4l-1.2,0l0-7.6l1,0l0,1.8c0.4-0.8,0.7-1.4,1.1-1.6c0.4-0.2,0.7-0.4,1.1-0.4c0.1,0,0.3,0,0.5,0
				l0,1.1l-0.2,0c-0.7,0-1.2,0.2-1.6,0.7c-0.4,0.5-0.7,1.1-0.7,1.9L80.9,74.4z"/>
			<path class="st3" d="M86.1,64.1l0,1.3l-1.3,0l0-1.3L86.1,64.1z M86,66.8l0,7.6l-1.2,0l0-7.6L86,66.8z"/>
			<path class="st3" d="M92.9,71.7l1.1,0.2c-0.2,0.8-0.5,1.5-1,2c-0.5,0.5-1.2,0.7-1.9,0.7c-1.1,0-1.9-0.4-2.4-1.2
				c-0.6-0.8-0.8-1.7-0.8-2.8c0-1.2,0.3-2.1,0.9-2.9s1.4-1.2,2.4-1.2c0.8,0,1.5,0.2,2,0.7c0.5,0.5,0.8,1.1,0.9,1.9l-1.1,0.2
				c-0.2-1.3-0.8-1.9-1.8-1.9c-0.7,0-1.2,0.3-1.5,0.8c-0.4,0.6-0.5,1.3-0.5,2.2c0,1,0.2,1.7,0.5,2.3c0.4,0.5,0.8,0.8,1.5,0.8
				C92,73.6,92.6,73,92.9,71.7z"/>
			<path class="st3" d="M98.5,71.7l1.2-0.3c0.5,1.4,1.5,2.1,3.1,2.1c0.8,0,1.4-0.2,1.8-0.5c0.4-0.3,0.6-0.8,0.6-1.4
				c0-0.4-0.2-0.8-0.5-1.1c-0.3-0.3-0.7-0.5-1.1-0.6l-2.1-0.5c-0.5-0.1-1-0.3-1.3-0.5c-0.3-0.2-0.6-0.5-0.9-0.9
				c-0.2-0.4-0.4-0.9-0.4-1.4c0-0.9,0.3-1.6,1-2.1c0.7-0.5,1.5-0.8,2.5-0.8c1.9,0,3.1,0.9,3.7,2.6l-1.2,0.3c-0.1-0.6-0.5-1.1-1-1.4
				c-0.5-0.3-1-0.5-1.6-0.5c-0.6,0-1.1,0.1-1.5,0.4c-0.4,0.3-0.7,0.7-0.7,1.3c0,0.8,0.6,1.3,1.7,1.6l1.9,0.5
				c1.8,0.4,2.6,1.4,2.6,2.9c0,0.9-0.3,1.6-1,2.2c-0.7,0.6-1.6,0.9-2.8,0.9C100.6,74.6,99.1,73.6,98.5,71.7z"/>
			<path class="st3" d="M111.1,74.6c-1,0-1.9-0.4-2.5-1.2c-0.6-0.8-0.9-1.7-0.9-2.9c0-1.2,0.3-2.2,1-2.9c0.7-0.7,1.5-1.1,2.5-1.1
				c1.1,0,1.9,0.4,2.5,1.1c0.6,0.8,0.9,1.7,0.9,2.9c0,1.2-0.3,2.2-1,2.9C112.9,74.3,112.1,74.6,111.1,74.6z M111.1,73.6
				c0.6,0,1.1-0.2,1.5-0.7c0.4-0.5,0.6-1.3,0.6-2.3c0-1.1-0.2-1.8-0.6-2.3c-0.4-0.5-0.9-0.7-1.5-0.7c-0.6,0-1.1,0.2-1.5,0.7
				c-0.4,0.5-0.6,1.2-0.6,2.3c0,1.1,0.2,1.9,0.6,2.4C110,73.4,110.5,73.6,111.1,73.6z"/>
			<path class="st3" d="M117.6,74.4l-1.2,0l0-10.3l1.2,0L117.6,74.4z"/>
			<path class="st3" d="M125.9,74.4l-1.1,0l0-1.5c-0.5,1.1-1.4,1.7-2.4,1.7c-0.8,0-1.4-0.3-1.8-0.8c-0.4-0.5-0.7-1.2-0.7-2.2l0-4.9
				l1.2,0l0,4.9c0,0.8,0.2,1.3,0.5,1.6c0.3,0.3,0.7,0.4,1,0.4c0.4,0,0.7-0.1,1-0.3c0.3-0.2,0.6-0.5,0.8-0.9c0.2-0.4,0.3-0.8,0.3-1.3
				l0-4.3l1.2,0L125.9,74.4z"/>
			<path class="st3" d="M131.8,73.6l0,0.9c-0.4,0.1-0.8,0.1-1.1,0.1c-1.5,0-2.2-0.8-2.2-2.3l0-4.6l-1.4,0l0-0.9l1.4,0l0.1-1.9
				l1.1-0.1l0,2l1.7,0l0,0.9l-1.7,0l0,4.8c0,0.8,0.4,1.2,1.2,1.2C131.1,73.7,131.4,73.7,131.8,73.6z"/>
			<path class="st3" d="M134.3,64.1l0,1.3l-1.3,0l0-1.3L134.3,64.1z M134.3,66.8l0,7.6l-1.2,0l0-7.6L134.3,66.8z"/>
			<path class="st3" d="M139.4,74.6c-1,0-1.9-0.4-2.5-1.2c-0.6-0.8-0.9-1.7-0.9-2.9c0-1.2,0.3-2.2,1-2.9c0.7-0.7,1.5-1.1,2.5-1.1
				c1.1,0,1.9,0.4,2.5,1.1c0.6,0.8,0.9,1.7,0.9,2.9c0,1.2-0.3,2.2-1,2.9C141.3,74.3,140.4,74.6,139.4,74.6z M139.5,73.7
				c0.6,0,1.1-0.2,1.5-0.7c0.4-0.5,0.6-1.3,0.6-2.3c0-1.1-0.2-1.8-0.6-2.3s-0.9-0.7-1.5-0.7c-0.6,0-1.1,0.2-1.5,0.7
				c-0.4,0.5-0.6,1.2-0.6,2.3c0,1.1,0.2,1.9,0.6,2.4C138.4,73.4,138.9,73.7,139.5,73.7z"/>
			<path class="st3" d="M150.7,74.4l-1.1,0l0-4.9c0-0.7-0.2-1.2-0.5-1.5c-0.3-0.3-0.7-0.4-1.1-0.4c-0.6,0-1.1,0.2-1.5,0.7
				c-0.4,0.5-0.6,1.1-0.6,1.9l0,4.2l-1.2,0l0-7.6l1.1,0l0,1.4c0.6-1.1,1.4-1.6,2.4-1.6c0.6,0,1.1,0.1,1.5,0.4c0.4,0.3,0.7,0.6,0.8,1
				c0.1,0.4,0.2,1,0.2,2L150.7,74.4z"/>
		</g>
	</g>
</g>
<g id="icon_remote">
</g>
</svg>
