<?xml version="1.0" encoding="utf-8"?>
<!-- Generator: Adobe Illustrator 22.0.0, SVG Export Plug-In . SVG Version: 6.00 Build 0)  -->
<svg version="1.1" xmlns="http://www.w3.org/2000/svg" xmlns:xlink="http://www.w3.org/1999/xlink" x="0px" y="0px"
	 viewBox="0 0 300.2 143.2" style="enable-background:new 0 0 300.2 143.2;" xml:space="preserve">
<style type="text/css">
	.st0{fill:#0A1A5C;}
	.st1{fill:#C1C1C1;}
	.st2{fill:#FF671F;}
	.st3{fill:#FFFFFF;}
	.st4{fill-rule:evenodd;clip-rule:evenodd;fill:#FFFFFF;}
	.st5{fill:#FFFFFF;stroke:#FFFFFF;stroke-width:1.849;stroke-miterlimit:10;}
	.st6{fill:#FFFFFF;stroke:#FFFFFF;stroke-width:0.6031;stroke-miterlimit:10;}
	.st7{fill:none;}
	.st8{fill:#FFFFFE;}
	.st9{fill:#CCCCCC;}
	.st10{fill:none;stroke:#B3B3B3;stroke-width:1.003;stroke-miterlimit:10;}
	.st11{fill:#FFFFFF;stroke:#CCCCCC;stroke-width:1.7931;stroke-miterlimit:10;}
	.st12{fill:none;stroke:#CCCCCC;stroke-width:0.8471;stroke-miterlimit:10;}
	.st13{fill:#999999;}
	.st14{fill:#CCCCCC;stroke:#CCCCCC;stroke-width:1.8957;stroke-miterlimit:10;}
	.st15{fill:none;stroke:#CCCCCC;stroke-miterlimit:10;}
	.st16{fill:#1B3281;}
	.st17{fill:#B5B6D1;}
	.st18{fill:#F9A46F;stroke:#FFFFFF;stroke-width:0.3025;stroke-miterlimit:10;}
	.st19{fill:#F68A46;stroke:#FFFFFF;stroke-width:0.3025;stroke-miterlimit:10;}
	.st20{fill:#FF671F;stroke:#FFFFFF;stroke-width:0.3025;stroke-miterlimit:10;}
	.st21{fill:#FEDEC7;stroke:#FFFFFF;stroke-width:0.3025;stroke-miterlimit:10;}
	.st22{fill:#FEDEC7;}
	.st23{fill:#F68A46;}
	.st24{fill:#F9A46F;}
	.st25{fill:#FF671F;stroke:#FF671F;stroke-width:0.7171;stroke-linecap:round;stroke-linejoin:round;stroke-miterlimit:10;}
	.st26{fill:#F9A46F;stroke:#F9A46F;stroke-width:0.1649;stroke-miterlimit:10;}
	.st27{fill:#FF671F;stroke:#FF671F;stroke-width:0.1649;stroke-miterlimit:10;}
	.st28{opacity:0.88;}
	.st29{fill:#FCC198;}
	.st30{fill:none;stroke:#0A1A5C;stroke-width:2;stroke-miterlimit:10;}
	.st31{opacity:0.2;}
	.st32{fill:#FFFFFF;stroke:#FFFFFF;stroke-width:0.8783;stroke-miterlimit:10;}
	.st33{fill:#FFFFFF;stroke:#FFFFFF;stroke-width:0.8713;stroke-miterlimit:10;}
	.st34{fill:none;stroke:#B3B3B3;stroke-width:1.1187;stroke-miterlimit:10;}
	.st35{fill:#FFFFFF;stroke:#CCCCCC;stroke-width:0.5946;stroke-miterlimit:10;}
	.st36{fill:#0A1A5C;stroke:#CCCCCC;stroke-width:0.5377;stroke-miterlimit:10;}
	.st37{fill:#FFFFFF;stroke:#CCCCCC;stroke-width:0.8286;stroke-miterlimit:10;}
	.st38{fill:#FFFFFF;stroke:#CCCCCC;stroke-width:0.9104;stroke-miterlimit:10;}
	.st39{fill:#FFFFFF;stroke:#CCCCCC;stroke-width:0.7829;stroke-miterlimit:10;}
	.st40{fill:#0A1A5C;stroke:#CCCCCC;stroke-width:0.8233;stroke-miterlimit:10;}
	.st41{fill:#0A1A5C;stroke:#CCCCCC;stroke-width:0.7117;stroke-miterlimit:10;}
	.st42{fill:#0A1A5C;stroke:#CCCCCC;stroke-width:0.7493;stroke-miterlimit:10;}
	.st43{fill:#FFFFFF;stroke:#0A1A5C;stroke-miterlimit:10;}
	.st44{fill:#0A1A5C;stroke:#0A1A5C;stroke-width:0.7524;stroke-miterlimit:10;}
	.st45{fill:#FFFFFF;stroke:#0A1A5C;stroke-width:0.7524;stroke-miterlimit:10;}
	.st46{fill:#F37021;}
	.st47{fill:none;stroke:#0A1A5C;stroke-miterlimit:10;}
	.st48{fill:#F26F21;}
	.st49{fill:#FFFFFF;stroke:#F37021;stroke-width:6.9715;stroke-miterlimit:10;}
	.st50{fill:none;stroke:#0A1A5C;stroke-width:2.5392;stroke-miterlimit:10;}
	.st51{fill:none;stroke:#000000;stroke-width:2.0231;stroke-miterlimit:10;}
	.st52{fill:none;stroke:#FF671F;stroke-width:2;stroke-miterlimit:10;}
	.st53{fill:#E6E6E6;}
	.st54{fill:#FFFFFF;stroke:#0A1A5C;stroke-width:3.4555;stroke-miterlimit:10;}
	.st55{fill:#9DA3BE;stroke:#000000;stroke-width:0.369;stroke-miterlimit:10;}
	.st56{fill:#9DA3BE;}
	.st57{fill:#FFFFFF;stroke:#000000;stroke-width:0.369;stroke-miterlimit:10;}
	.st58{fill:none;stroke:#000000;stroke-width:0.7381;stroke-miterlimit:10;}
	.st59{fill:#9DA3BE;stroke:#000000;stroke-width:0.4867;stroke-miterlimit:10;}
	.st60{fill:#999999;stroke:#000000;stroke-width:0.1845;stroke-miterlimit:10;}
	.st61{fill:#00FF00;}
	.st62{fill:#FFFFFF;stroke:#000000;stroke-width:1.7278;stroke-miterlimit:10;}
	.st63{fill:#9DA3BE;stroke:#000000;stroke-width:0.9851;stroke-miterlimit:10;}
	.st64{fill:none;stroke:#FFFFFF;stroke-width:2.0234;stroke-miterlimit:10;}
	.st65{fill:#9DA3BE;stroke:#000000;stroke-width:0.4824;stroke-miterlimit:10;}
	.st66{fill:#9DA3BE;stroke:#000000;stroke-width:0.5436;stroke-miterlimit:10;}
	.st67{fill:none;stroke:#000000;stroke-width:0.7739;stroke-miterlimit:10;}
	.st68{fill:#0A1A5C;stroke:#000000;stroke-width:0.7739;stroke-miterlimit:10;}
	.st69{fill:#0A1A5C;stroke:#000000;stroke-width:1.0553;stroke-miterlimit:10;}
	.st70{fill:#9DA3BE;stroke:#000000;stroke-width:0.7739;stroke-miterlimit:10;}
	.st71{fill:#0A1A5C;stroke:#000000;stroke-width:1.0167;stroke-miterlimit:10;}
	.st72{fill:#9DA3BE;stroke:#000000;stroke-width:0.8897;stroke-miterlimit:10;}
	.st73{fill:none;stroke:#000000;stroke-width:5.9724;stroke-linecap:round;stroke-miterlimit:10;}
	.st74{stroke:#000000;stroke-width:4.7578;stroke-linecap:round;stroke-miterlimit:10;}
	.st75{fill:none;stroke:#000000;stroke-width:6.3438;stroke-linecap:round;stroke-miterlimit:10;}
	.st76{fill:none;stroke:#000000;stroke-width:4.7578;stroke-linecap:round;stroke-miterlimit:10;}
	.st77{fill:none;stroke:#FFFFFF;stroke-width:1.5859;stroke-linecap:round;stroke-miterlimit:10;}
	.st78{fill:none;stroke:#FFFFFF;stroke-width:0.7652;stroke-linecap:round;stroke-miterlimit:10;}
	.st79{fill:none;stroke:#0A1A5C;stroke-width:3.1035;stroke-miterlimit:10;}
	.st80{opacity:0.6;fill:#0A1A5C;}
	.st81{fill:#9DA3BE;stroke:#000000;stroke-width:0.7896;stroke-miterlimit:10;}
	.st82{fill:none;stroke:#000000;stroke-width:1.5793;stroke-miterlimit:10;}
	.st83{fill:#0A1A5C;stroke:#000000;stroke-width:0.501;stroke-miterlimit:10;}
	.st84{opacity:0.8;fill:#0A1A5C;stroke:#000000;stroke-width:0.37;stroke-miterlimit:10;}
	.st85{opacity:0.8;fill:#0A1A5C;stroke:#000000;stroke-width:0.4273;stroke-miterlimit:10;}
	.st86{fill:#0A1A5C;stroke:#000000;stroke-width:0.37;stroke-miterlimit:10;}
	.st87{fill:#9DA3BE;stroke:#000000;stroke-width:0.1658;stroke-miterlimit:10;}
	.st88{fill:#9DA3BE;stroke:#000000;stroke-width:0.166;stroke-miterlimit:10;}
	.st89{fill:#9DA3BE;stroke:#000000;stroke-width:0.2147;stroke-miterlimit:10;}
	.st90{fill:#9DA3BE;stroke:#000000;stroke-width:0.1723;stroke-miterlimit:10;}
	.st91{fill:#0A1A5C;stroke:#000000;stroke-width:0.3577;stroke-miterlimit:10;}
	.st92{fill:none;stroke:#231F20;stroke-width:0.2424;stroke-miterlimit:10;}
	.st93{fill:#FFFFFF;stroke:#231F20;stroke-width:0.2424;stroke-miterlimit:10;}
	.st94{fill:#AAAAAA;stroke:#231F20;stroke-width:0.2424;stroke-miterlimit:10;}
	.st95{fill:#0A1A5C;stroke:#000000;stroke-width:0.3627;stroke-miterlimit:10;}
	.st96{fill:none;stroke:#FFFFFF;stroke-width:2.1764;stroke-miterlimit:10;}
	.st97{fill:#9DA3BE;stroke:#000000;stroke-width:0.3627;stroke-miterlimit:10;}
	.st98{fill:none;stroke:#FFFFFF;stroke-width:3.6274;stroke-linecap:round;stroke-miterlimit:10;}
	.st99{fill:none;stroke:#FFFFFF;stroke-width:3.6274;stroke-linecap:round;stroke-miterlimit:10;stroke-dasharray:10.6247,10.6247;}
	.st100{fill:#0A1A5C;stroke:#000000;stroke-width:0.7649;stroke-miterlimit:10;}
	.st101{fill:#CCCCCC;stroke:#000000;stroke-width:0.3928;stroke-miterlimit:10;}
	.st102{fill:#F9A46F;stroke:#F9A46F;stroke-width:0.5;stroke-miterlimit:10;}
	.st103{fill:#FF671F;stroke:#FF671F;stroke-width:0.5;stroke-miterlimit:10;}
	.st104{fill:#F9A46F;stroke:#FFFFFF;stroke-width:0.9258;stroke-miterlimit:10;}
	.st105{fill:#F68A46;stroke:#FFFFFF;stroke-width:0.9258;stroke-miterlimit:10;}
	.st106{fill:#FF671F;stroke:#FFFFFF;stroke-width:0.9258;stroke-miterlimit:10;}
	.st107{fill:#FEDEC7;stroke:#FFFFFF;stroke-width:0.9258;stroke-miterlimit:10;}
	.st108{fill:#FF671F;stroke:#FF671F;stroke-width:2.1738;stroke-linecap:round;stroke-linejoin:round;stroke-miterlimit:10;}
	.st109{fill:#0A1A5C;stroke:#FFFFFF;stroke-width:2.1738;stroke-linecap:round;stroke-linejoin:round;stroke-miterlimit:10;}
	.st110{fill:#FFFFFF;stroke:#FFFFFF;stroke-width:0.5;stroke-miterlimit:10;}
	.st111{fill:#FFFFFF;stroke:#FFFFFF;stroke-width:0.9258;stroke-miterlimit:10;}
	.st112{fill:#B3B3B3;}
	.st113{fill:#D8D8D8;}
	.st114{fill:#F9A46F;stroke:#F9A46F;stroke-width:0.5029;stroke-miterlimit:10;}
	.st115{fill:#FF671F;stroke:#FF671F;stroke-width:0.5029;stroke-miterlimit:10;}
	.st116{fill:#F9A46F;stroke:#FFFFFF;stroke-width:0.9311;stroke-miterlimit:10;}
	.st117{fill:#F68A46;stroke:#FFFFFF;stroke-width:0.9311;stroke-miterlimit:10;}
	.st118{fill:#FF671F;stroke:#FFFFFF;stroke-width:0.9311;stroke-miterlimit:10;}
	.st119{fill:#FEDEC7;stroke:#FFFFFF;stroke-width:0.9311;stroke-miterlimit:10;}
	.st120{fill:#FF671F;stroke:#FF671F;stroke-width:2.1864;stroke-linecap:round;stroke-linejoin:round;stroke-miterlimit:10;}
	.st121{fill:none;stroke:#000000;stroke-width:4.065;stroke-linecap:round;stroke-linejoin:round;stroke-miterlimit:10;}
	.st122{fill:none;stroke:#F68A46;stroke-width:1.8067;stroke-linecap:round;stroke-linejoin:round;stroke-miterlimit:10;}
	.st123{fill:#FFFFFF;stroke:#000000;stroke-width:0.8258;stroke-miterlimit:10;}
	.st124{fill:#575A8D;stroke:#000000;stroke-width:0.8318;stroke-miterlimit:10;}
	.st125{fill:#29ABE2;stroke:#FFFFFF;stroke-width:5.8147;stroke-miterlimit:10;}
	.st126{fill:#F9A46F;stroke:#FFFFFF;stroke-width:5.8147;stroke-miterlimit:10;}
	.st127{fill:#29ABE2;}
	.st128{opacity:0.4;fill:#0AA511;}
	.st129{fill:#EBF476;}
	.st130{fill:#AF0505;}
	.st131{fill:none;stroke:#000000;stroke-width:0.8308;stroke-miterlimit:10;}
	.st132{opacity:0.3;fill:#0AA511;stroke:#0AA511;stroke-width:2.4925;stroke-miterlimit:10;}
	.st133{opacity:0.3;fill:#FF671F;stroke:#FF671F;stroke-width:2.4925;stroke-miterlimit:10;}
	.st134{fill:#990202;}
	.st135{fill:#3A3A3A;}
</style>
<g id="cảnh_báo">
</g>
<g id="biểu_đồ">
</g>
<g id="Layer_7">
</g>
<g id="Layer_8">
	<g>
		<path class="st3" d="M270.1,41.7l-20.8,0c-8.5,0-12.8-3.1-12.8-9.3c0-6.2,4.3-9.3,12.8-9.3l50.9,0l0-23.1l-72.1,0
			c-20.1,0-30.1,10-30.1,30.1l0,6c0,20.1,10,30.1,30.1,30.1l20.8,0c8.5,0,12.8,3.1,12.8,9.3c0,6.2-4.3,9.3-12.8,9.3l-50.9,0l-53.2,0
			l0-19.3l45.6,0l0-23.1l-45.6,0l0-19.2l53.2,0L198,0l-69.7,0L98.7,0L67.2,0l-0.1,0.1l-37,0C10,0.1,0,10.1,0,30.2l0,6
			c0,20.1,10,30.1,30.1,30.1l20.8,0c8.5,0,12.8,3.1,12.8,9.3c0,6.2-4.3,9.3-12.8,9.3L0,84.8l0,23.1l72.1,0
			c13.2,0,22.1-4.4,26.6-13.1l0,13.1l99.3,0l72.1,0c20.1,0,30.1-10.1,30.1-30.2l0-5.9C300.2,51.8,290.2,41.7,270.1,41.7z M98.8,94.4
			l0-42.3l-25.1,0L98.8,0.1l0,42.3l25.1,0L98.8,94.4z"/>
		<g>
			<path class="st48" d="M0,137.2l2.4-0.5c0.9,2.8,3,4.3,6.2,4.3c1.7,0,2.9-0.3,3.7-1.1c0.8-0.7,1.3-1.6,1.3-2.8
				c0-0.9-0.3-1.6-1-2.1c-0.6-0.5-1.4-0.9-2.2-1.1l-4.2-1c-1.1-0.3-2-0.6-2.7-1c-0.7-0.4-1.3-1-1.8-1.8c-0.5-0.8-0.7-1.7-0.7-2.8
				c0-1.7,0.7-3.1,2-4.2c1.3-1,3-1.6,5.1-1.6c3.8,0,6.3,1.7,7.5,5.2l-2.4,0.7c-0.3-1.2-0.9-2.1-1.9-2.8c-1-0.6-2.1-0.9-3.3-0.9
				c-1.1,0-2.2,0.3-3.1,0.9c-0.9,0.6-1.3,1.5-1.3,2.6c0,1.5,1.1,2.6,3.4,3.1l3.9,0.9c3.6,0.9,5.4,2.8,5.4,5.8c0,1.8-0.7,3.3-2,4.5
				c-1.3,1.2-3.2,1.8-5.7,1.8C4.3,143.1,1.4,141.2,0,137.2z"/>
			<path class="st48" d="M40.6,142.7l-2.3,0l0-9.6c0-1-0.1-1.7-0.2-2.2c-0.1-0.5-0.5-0.9-1-1.4c-0.5-0.4-1.1-0.6-1.8-0.6
				c-0.9,0-1.8,0.4-2.7,1.3c-0.9,0.8-1.3,2.1-1.3,3.8l0,8.7l-2.3,0l0-10.2c0-1.4-0.3-2.3-1-2.9c-0.6-0.6-1.3-0.8-2-0.8
				c-1,0-1.9,0.4-2.7,1.3c-0.8,0.9-1.1,2-1.1,3.3l0,9.2l-2.3,0l0-15.4l2.1,0l0,3c1.2-2.3,2.7-3.4,4.8-3.4c1.1,0,2.1,0.4,2.8,1.1
				c0.8,0.7,1.3,1.6,1.5,2.6c1.1-2.5,2.7-3.7,4.9-3.7c1.1,0,2,0.3,2.8,0.9c0.8,0.6,1.3,1.3,1.5,2.1c0.2,0.8,0.4,1.9,0.4,3.3
				L40.6,142.7z"/>
			<path class="st48" d="M57.5,142.7l-2.4,0c-0.1-0.5-0.2-1.4-0.3-2.8c-1.1,2.1-2.9,3.2-5.4,3.2c-1.7,0-3.1-0.5-4-1.4
				s-1.4-2-1.4-3.3c0-1.6,0.7-2.8,2-3.8c1.3-1,3.6-1.5,6.8-1.5c0.4,0,1.1,0,2,0.1c0-1.2-0.1-2.1-0.3-2.7c-0.2-0.5-0.6-1-1.2-1.3
				c-0.6-0.3-1.4-0.5-2.4-0.5c-2.4,0-3.9,0.9-4.3,2.8l-2.2-0.4c0.5-2.8,2.8-4.3,6.8-4.3c2.1,0,3.6,0.5,4.5,1.4
				c0.9,0.9,1.3,2.6,1.3,4.9l0,6.6C57.2,140.8,57.3,141.8,57.5,142.7z M54.9,135c-1-0.1-1.7-0.1-2.2-0.1c-1.9,0-3.4,0.3-4.4,0.9
				c-1.1,0.6-1.6,1.5-1.6,2.7c0,0.8,0.3,1.4,0.8,1.9c0.6,0.5,1.4,0.8,2.5,0.8c1.4,0,2.6-0.5,3.6-1.6c0.9-1.1,1.4-2.3,1.4-3.7
				C54.9,135.7,54.9,135.4,54.9,135z"/>
			<path class="st48" d="M64.4,142.7l-2.4,0l0-15.4l2.1,0l0,3.6c0.7-1.7,1.5-2.8,2.2-3.3c0.7-0.5,1.5-0.8,2.3-0.8
				c0.2,0,0.6,0,0.9,0.1l0,2.3l-0.5,0c-1.3,0-2.4,0.5-3.3,1.5c-0.9,1-1.3,2.3-1.4,3.9L64.4,142.7z"/>
			<path class="st48" d="M80.4,141.1l0,1.9c-0.8,0.1-1.6,0.2-2.2,0.2c-3,0-4.5-1.6-4.5-4.7l0-9.3l-2.7,0l0-1.9l2.7,0l0.1-3.9
				l2.2-0.2l0,4.1l3.5,0l0,1.9l-3.5,0l0,9.7c0,1.6,0.8,2.4,2.5,2.4C79,141.3,79.7,141.2,80.4,141.1z"/>
			<path class="st48" d="M104.5,140.4l0,2.3l-13.5,0l0-20.9l13.2,0l0,2.3l-10.6,0l0,6.6l8.4,0l0,2.1l-8.4,0l0,7.5L104.5,140.4z"/>
			<path class="st48" d="M110.4,142.7l-2.4,0l0-20.9l2.4,0L110.4,142.7z"/>
			<path class="st48" d="M125.4,138.1l2.2,0.5c-0.4,1.3-1.2,2.4-2.4,3.3c-1.2,0.9-2.6,1.3-4.2,1.3c-2.1,0-3.8-0.7-5.1-2.2
				c-1.3-1.5-2-3.4-2-5.8c0-2.5,0.7-4.4,2-6c1.4-1.5,3.1-2.3,5.1-2.3c2,0,3.6,0.7,4.9,2.1c1.2,1.4,1.9,3.5,1.9,6.3l-11.2,0
				c0,2.3,0.5,3.9,1.5,4.7c1,0.8,2,1.2,3.1,1.2C123.2,141.2,124.6,140.1,125.4,138.1z M125.2,133.4c0-0.9-0.2-1.6-0.4-2.3
				c-0.3-0.7-0.7-1.2-1.3-1.7c-0.6-0.5-1.4-0.7-2.3-0.7c-1.2,0-2.2,0.4-3,1.3c-0.8,0.9-1.3,2-1.4,3.5L125.2,133.4z"/>
			<path class="st48" d="M140.6,137.3l2.2,0.4c-0.3,1.7-1,3-2,4c-1,1-2.4,1.4-3.9,1.4c-2.1,0-3.8-0.8-4.9-2.4
				c-1.1-1.6-1.7-3.5-1.7-5.8c0-2.3,0.6-4.3,1.8-5.9c1.2-1.6,2.8-2.3,4.8-2.3c1.7,0,3,0.5,4,1.5c1,1,1.6,2.3,1.9,3.9l-2.2,0.4
				c-0.4-2.5-1.6-3.8-3.7-3.8c-1.3,0-2.3,0.6-3.1,1.7c-0.7,1.1-1.1,2.6-1.1,4.4c0,2,0.4,3.5,1.1,4.6c0.7,1.1,1.7,1.6,3,1.6
				C138.8,141.2,140.1,139.9,140.6,137.3z"/>
			<path class="st48" d="M153.1,141.1l0,1.9c-0.8,0.1-1.6,0.2-2.2,0.2c-3,0-4.5-1.6-4.5-4.7l0-9.3l-2.7,0l0-1.9l2.7,0l0.1-3.9
				l2.2-0.2l0,4.1l3.5,0l0,1.9l-3.5,0l0,9.7c0,1.6,0.8,2.4,2.5,2.4C151.8,141.3,152.4,141.2,153.1,141.1z"/>
			<path class="st48" d="M158.1,142.7l-2.4,0l0-15.4l2.1,0l0,3.6c0.7-1.7,1.5-2.8,2.2-3.3c0.7-0.5,1.5-0.8,2.3-0.8
				c0.2,0,0.6,0,0.9,0.1l0,2.3l-0.5,0c-1.3,0-2.4,0.5-3.3,1.5c-0.9,1-1.3,2.3-1.4,3.9L158.1,142.7z"/>
			<path class="st48" d="M168.5,121.9l0,2.7l-2.6,0l0-2.7L168.5,121.9z M168.4,127.3l0,15.4l-2.4,0l0-15.4L168.4,127.3z"/>
			<path class="st48" d="M182.3,137.3l2.2,0.4c-0.3,1.7-1,3-2,4c-1.1,1-2.4,1.4-3.9,1.4c-2.1,0-3.8-0.8-4.9-2.4
				c-1.1-1.6-1.7-3.5-1.7-5.8c0-2.3,0.6-4.3,1.8-5.9s2.8-2.3,4.8-2.3c1.7,0,3,0.5,4,1.5c1,1,1.6,2.3,1.9,3.9l-2.2,0.4
				c-0.4-2.5-1.6-3.8-3.7-3.8c-1.3,0-2.3,0.6-3.1,1.7c-0.7,1.1-1.1,2.6-1.1,4.4c0,2,0.4,3.5,1.1,4.6c0.7,1.1,1.7,1.6,3,1.6
				C180.5,141.2,181.8,139.9,182.3,137.3z"/>
			<path class="st48" d="M193.5,137.2l2.4-0.5c1,2.8,3,4.3,6.2,4.3c1.7,0,2.9-0.3,3.7-1.1c0.8-0.7,1.3-1.6,1.3-2.8
				c0-0.9-0.3-1.6-1-2.1c-0.6-0.5-1.4-0.9-2.2-1.1l-4.2-1c-1.1-0.3-2-0.6-2.7-1c-0.7-0.4-1.3-1-1.8-1.8c-0.5-0.8-0.7-1.7-0.7-2.8
				c0-1.7,0.7-3.1,2-4.2c1.3-1,3-1.6,5.1-1.6c3.8,0,6.3,1.7,7.5,5.2l-2.4,0.7c-0.3-1.2-0.9-2.1-1.9-2.8c-1-0.6-2.1-0.9-3.3-0.9
				c-1.1,0-2.2,0.3-3,0.9c-0.9,0.6-1.3,1.5-1.3,2.6c0,1.5,1.1,2.6,3.4,3.1l3.9,0.9c3.6,0.9,5.4,2.8,5.4,5.8c0,1.8-0.7,3.3-2,4.5
				c-1.3,1.2-3.2,1.8-5.7,1.8C197.8,143.2,194.9,141.2,193.5,137.2z"/>
			<path class="st48" d="M219,143.2c-2.1,0-3.8-0.8-5-2.4c-1.2-1.6-1.8-3.5-1.8-5.8c0-2.5,0.7-4.4,2-5.9c1.3-1.5,3-2.2,5-2.2
				c2.1,0,3.8,0.8,5,2.3c1.2,1.5,1.8,3.5,1.8,5.8c0,2.4-0.7,4.4-2,5.9C222.8,142.4,221.1,143.2,219,143.2z M219.2,141.2
				c1.2,0,2.2-0.5,3.1-1.5c0.8-1,1.2-2.6,1.2-4.7c0-2.1-0.4-3.7-1.3-4.7c-0.9-1-1.9-1.4-3-1.4c-1.2,0-2.2,0.5-3,1.5
				c-0.8,1-1.2,2.5-1.2,4.6c0,2.2,0.4,3.8,1.2,4.8C216.9,140.7,217.9,141.2,219.2,141.2z"/>
			<path class="st48" d="M232.1,142.7l-2.4,0l0-20.9l2.4,0L232.1,142.7z"/>
			<path class="st48" d="M249.1,142.7l-2.2,0l0-3c-1.1,2.3-2.7,3.4-4.9,3.4c-1.6,0-2.8-0.5-3.7-1.6c-0.9-1-1.4-2.5-1.4-4.4l0-9.9
				l2.4,0l0,9.9c0,1.5,0.3,2.6,1,3.2c0.6,0.6,1.3,0.9,2.1,0.9c0.8,0,1.5-0.2,2.1-0.7c0.6-0.4,1.1-1.1,1.6-1.9
				c0.4-0.8,0.6-1.7,0.6-2.7l0-8.7l2.4,0L249.1,142.7z"/>
			<path class="st48" d="M260.9,141.1l0,1.9c-0.8,0.1-1.6,0.2-2.2,0.2c-3,0-4.5-1.6-4.5-4.7l0-9.3l-2.7,0l0-1.9l2.7,0l0.1-3.9
				l2.2-0.2l0,4.1l3.5,0l0,1.9l-3.5,0l0,9.7c0,1.6,0.8,2.4,2.5,2.4C259.6,141.3,260.2,141.2,260.9,141.1z"/>
			<path class="st48" d="M266,121.9l0,2.7l-2.6,0l0-2.7L266,121.9z M265.9,127.3l0,15.4l-2.4,0l0-15.4L265.9,127.3z"/>
			<path class="st48" d="M276.2,143.2c-2.1,0-3.8-0.8-5-2.4c-1.2-1.6-1.8-3.5-1.8-5.8c0-2.5,0.7-4.4,2-5.9c1.3-1.5,3-2.2,5-2.2
				c2.1,0,3.8,0.8,5,2.3c1.2,1.5,1.8,3.5,1.8,5.8c0,2.4-0.7,4.4-2,5.9C280,142.4,278.3,143.2,276.2,143.2z M276.4,141.2
				c1.2,0,2.2-0.5,3.1-1.5c0.8-1,1.2-2.6,1.2-4.7c0-2.1-0.4-3.7-1.3-4.7c-0.9-1-1.9-1.4-3-1.4c-1.2,0-2.2,0.5-3,1.5
				c-0.8,1-1.2,2.5-1.2,4.6c0,2.2,0.4,3.8,1.2,4.8C274.2,140.7,275.2,141.2,276.4,141.2z"/>
			<path class="st48" d="M299.1,142.7l-2.2,0l0-9.9c0-1.4-0.3-2.4-0.9-3c-0.6-0.6-1.4-0.9-2.3-0.9c-1.2,0-2.3,0.5-3.1,1.5
				c-0.8,1-1.2,2.3-1.2,3.9l0,8.5l-2.4,0l0-15.4l2.2,0l0,2.8c1.3-2.2,2.9-3.3,4.9-3.3c1.2,0,2.1,0.3,2.9,0.9c0.8,0.6,1.4,1.3,1.7,2
				c0.3,0.7,0.5,2.1,0.5,4L299.1,142.7z"/>
		</g>
	</g>
</g>
<g id="ảnh_gì_đó">
</g>
<g id="thiết_bị">
</g>
<g id="icon_v2.0">
</g>
<g id="tổng_quan">
</g>
</svg>
