<?xml version="1.0" encoding="utf-8"?>
<!-- Generator: Adobe Illustrator 23.0.0, SVG Export Plug-In . SVG Version: 6.00 Build 0)  -->
<svg version="1.1" xmlns="http://www.w3.org/2000/svg" xmlns:xlink="http://www.w3.org/1999/xlink" x="0px" y="0px"
	 viewBox="0 0 70 70" style="enable-background:new 0 0 70 70;" xml:space="preserve">
<style type="text/css">
	.st0{display:none;fill:#FFFFFF;}
	.st1{fill:#FFFFFF;}
	.st2{display:none;}
	.st3{display:inline;}
</style>
<g id="Layer_1">
</g>
<g id="Layer_2">
	<g>
		<g>
			<path d="M30.47,10.22c0-3.39,1.46-6.43,3.78-8.52c0.15-0.14,0.4-0.02,0.4,0.18l0,9.12c0,0.25,0.12,0.48,0.32,0.63l6.37,4.8
				c0.29,0.22,0.68,0.21,0.96-0.01l6.19-4.79c0.19-0.15,0.31-0.38,0.31-0.63l0-9.13c0-0.2,0.25-0.32,0.4-0.18
				c2.32,2.08,3.78,5.13,3.78,8.52c0,6.29-5.04,11.39-11.25,11.39C35.51,21.62,30.47,16.51,30.47,10.22z"/>
			<path d="M45.9,20.47h-8.35L35.73,62.3c-0.15,3.45,2.57,6.34,5.99,6.34h0c3.41,0,6.14-2.88,5.99-6.34L45.9,20.47z M44.41,64.24
				l-0.03,0.03c-0.74,0.63-1.69,0.98-2.66,0.98h0c-0.97,0-1.92-0.35-2.66-0.98l-0.03-0.03c-0.73-0.62-1.22-1.48-1.39-2.43
				l-0.02-0.09c-0.16-0.94,0.01-1.91,0.48-2.74l0.04-0.06c0.48-0.84,1.24-1.49,2.15-1.82l0.01,0c0.92-0.34,1.92-0.34,2.84,0l0.01,0
				c0.91,0.33,1.67,0.98,2.15,1.82l0.04,0.06c0.47,0.83,0.64,1.8,0.48,2.74l-0.02,0.09C45.63,62.76,45.14,63.62,44.41,64.24z"/>
		</g>
		<g>
			<path d="M17.03,64.72c0,2.42,2.19,4.32,4.7,3.84c1.85-0.36,3.13-2.08,3.13-3.97V60h-7.82V64.72z"/>
			<rect x="17.03" y="56" width="7.82" height="3"/>
			<path d="M24.84,39.91c0.01-0.01,0.02-0.02,0.02-0.03v0c0-1.62-1.3-2.93-2.91-2.97v-24.3c0-0.02-0.02-0.04-0.04-0.04h-0.02
				l1.8-2.16c0.24-0.29,0.34-0.68,0.27-1.05l-1.3-6.96c-0.11-0.6-0.64-1.04-1.25-1.04h-1.1c-0.61,0-1.14,0.44-1.25,1.04l-1.3,6.96
				c-0.07,0.37,0.03,0.76,0.27,1.05l1.8,2.16h-0.02c-0.02,0-0.04,0.02-0.04,0.04v24.32c-1.53,0.12-2.74,1.39-2.74,2.95
				c0,0.01,0.01,0.02,0.02,0.03c0.98,0.67,1.61,1.8,1.61,3.08s-0.64,2.4-1.61,3.08c-0.01,0.01-0.02,0.02-0.02,0.03V55h7.82v-8.9
				c0-0.01-0.01-0.02-0.02-0.03c-0.97-0.68-1.61-1.8-1.61-3.08S23.87,40.59,24.84,39.91z"/>
		</g>
	</g>
</g>
<g id="Layer_3">
</g>
<g id="Layer_4">
</g>
<g id="Layer_5">
</g>
<g id="Layer_6">
</g>
<g id="Layer_7">
</g>
<g id="Layer_8">
</g>
</svg>
