<?xml version="1.0" encoding="utf-8"?>
<!-- Generator: Adobe Illustrator 23.0.0, SVG Export Plug-In . SVG Version: 6.00 Build 0)  -->
<svg version="1.1" xmlns="http://www.w3.org/2000/svg" xmlns:xlink="http://www.w3.org/1999/xlink" x="0px" y="0px"
	 viewBox="0 0 70 70" style="enable-background:new 0 0 70 70;" xml:space="preserve">
<style type="text/css">
	.st0{display:none;fill:#FFFFFF;}
	.st1{fill:#FFFFFF;}
	.st2{display:none;}
	.st3{display:inline;}
</style>
<g id="Layer_1">
</g>
<g id="Layer_2">
</g>
<g id="Layer_3">
</g>
<g id="Layer_4">
</g>
<g id="Layer_5">
</g>
<g id="Layer_6">
</g>
<g id="Layer_7">
	<g>
		<path d="M66.34,3C66.7,3,67,3.3,67,3.66v62.67C67,66.7,66.7,67,66.34,67H3.66C3.3,67,3,66.7,3,66.34V3.66C3,3.3,3.3,3,3.66,3
			H66.34 M66.34,0H3.66C1.64,0,0,1.64,0,3.66v62.67C0,68.36,1.64,70,3.66,70h62.67c2.02,0,3.66-1.64,3.66-3.66V3.66
			C70,1.64,68.36,0,66.34,0L66.34,0z"/>
	</g>
	<g>
		<path d="M7.72,28.24h4.18v10.19h6.52v3.33H7.72V28.24z"/>
		<path d="M19.47,35.01c0-2.21,0.62-3.93,1.84-5.16c1.23-1.23,2.94-1.84,5.14-1.84c2.25,0,3.98,0.6,5.2,1.81
			c1.22,1.21,1.83,2.9,1.83,5.08c0,1.58-0.27,2.88-0.8,3.89c-0.53,1.01-1.3,1.8-2.31,2.36c-1.01,0.56-2.26,0.84-3.76,0.84
			c-1.53,0-2.79-0.24-3.79-0.73s-1.81-1.25-2.43-2.31C19.78,37.91,19.47,36.59,19.47,35.01z M23.65,35.03
			c0,1.37,0.25,2.35,0.76,2.94c0.51,0.6,1.2,0.89,2.07,0.89c0.9,0,1.59-0.29,2.08-0.88c0.49-0.58,0.74-1.63,0.74-3.15
			c0-1.27-0.26-2.2-0.77-2.79c-0.51-0.59-1.21-0.88-2.09-0.88c-0.84,0-1.52,0.3-2.03,0.89S23.65,33.65,23.65,35.03z"/>
		<path d="M43.4,39.53h-4.74L38,41.76h-4.27l5.08-13.52h4.56l5.08,13.52h-4.38L43.4,39.53z M42.53,36.6l-1.49-4.86l-1.48,4.86H42.53
			z"/>
		<path d="M49.84,28.24h6.21c1.22,0,2.21,0.17,2.97,0.5c0.75,0.33,1.38,0.81,1.87,1.43c0.49,0.62,0.85,1.34,1.07,2.17
			c0.22,0.82,0.33,1.7,0.33,2.62c0,1.45-0.16,2.57-0.49,3.36c-0.33,0.8-0.79,1.46-1.37,2s-1.21,0.9-1.88,1.07
			c-0.92,0.25-1.75,0.37-2.49,0.37h-6.21V28.24z M54.02,31.3v7.39h1.02c0.87,0,1.49-0.1,1.86-0.29c0.37-0.19,0.66-0.53,0.87-1.01
			c0.21-0.48,0.31-1.26,0.31-2.35c0-1.43-0.23-2.41-0.7-2.94c-0.47-0.53-1.24-0.79-2.32-0.79H54.02z"/>
	</g>
</g>
<g id="Layer_8">
</g>
</svg>
