<?xml version="1.0" encoding="utf-8"?>
<!-- Generator: Adobe Illustrator 23.0.0, SVG Export Plug-In . SVG Version: 6.00 Build 0)  -->
<svg version="1.1" xmlns="http://www.w3.org/2000/svg" xmlns:xlink="http://www.w3.org/1999/xlink" x="0px" y="0px"
	 viewBox="0 0 70 70" style="enable-background:new 0 0 70 70;" xml:space="preserve">
<style type="text/css">
	.st0{display:none;fill:#FFFFFF;}
	.st1{fill:#FFFFFF;}
	.st2{display:none;}
	.st3{display:inline;}
</style>
<g id="Layer_1">
</g>
<g id="Layer_2">
</g>
<g id="Layer_3">
</g>
<g id="Layer_4">
</g>
<g id="Layer_5">
</g>
<g id="Layer_6">
</g>
<g id="Layer_7">
</g>
<g id="Layer_8">
	<path d="M59.65,29.03c-0.01-0.01-0.02-0.02-0.03-0.03h-0.19h-4.05v-1.63h2.01L55.43,24l1.95-3.38h-4.76L54.57,24l-1.95,3.38h2.01
		V29H44.2c3.13-0.39,5.56-3.05,5.56-6.29c0-3.5-2.84-6.34-6.34-6.34c-0.03,0-0.05,0-0.07,0c-0.06,0-0.12,0.01-0.18,0.01
		c-1.23,0.05-2.38,0.45-3.33,1.1l-14.17,4.69c-1.37,0.23-2.41,1.4-2.41,2.83c0,1.17,0.7,2.18,1.71,2.63
		c0.09,0.04,0.19,0.07,0.29,0.1l1.31,0.11L40.62,29H16.88v-1.63h4.03l-4.03-4.03v-0.94l1.86,1.86c0.07,0.07,0.17,0.11,0.27,0.11
		s0.19-0.04,0.27-0.11c0.15-0.15,0.15-0.38,0-0.53l-2.39-2.39v-0.44l1.36,1.36c0.07,0.07,0.17,0.11,0.27,0.11s0.19-0.04,0.27-0.11
		c0.15-0.15,0.15-0.38,0-0.53l-1.89-1.89v-0.44l0.86,0.86c0.07,0.07,0.17,0.11,0.27,0.11s0.19-0.04,0.27-0.11
		c0.15-0.15,0.15-0.38,0-0.53l-1.39-1.39V15.5c0-0.21-0.17-0.38-0.38-0.38s-0.38,0.17-0.38,0.38v2.09l-0.36-0.36
		c-0.15-0.15-0.38-0.15-0.53,0c-0.15,0.15-0.15,0.38,0,0.53l0.89,0.89v0.44l-0.86-0.86c-0.15-0.15-0.38-0.15-0.53,0
		c-0.15,0.15-0.15,0.38,0,0.53l1.39,1.39v0.44l-1.36-1.36c-0.15-0.15-0.38-0.15-0.53,0c-0.15,0.15-0.15,0.38,0,0.53l1.89,1.89v0.94
		l-2.5-2.5v7.28h2.5V29h-5.55h-0.19c-0.01,0.01-0.02,0.02-0.03,0.03c-9.26,9.4-9.26,24.54,0,33.94c0.01,0.01,0.02,0.02,0.03,0.03
		h0.19h48.86h0.19c0.01-0.01,0.02-0.02,0.03-0.03C68.91,53.57,68.91,38.43,59.65,29.03z M53.92,21.38h2.17L55,23.25L53.92,21.38z
		 M53.92,26.63L55,24.75l1.08,1.88H53.92z M14.38,26.63v-4.72l1.75,1.75l0.75,0.75l2.22,2.22h-2.22h-0.75H14.38z M10.35,60.73
		c-7.25-8.46-7.25-21.01,0-29.47V60.73z M43.42,17.24c3.02,0,5.47,2.46,5.47,5.47c0,3.02-2.46,5.47-5.47,5.47
		c-3.02,0-5.47-2.46-5.47-5.47C37.94,19.7,40.4,17.24,43.42,17.24z M26.13,27.04c-1.11,0-2.02-0.9-2.02-2.02S25.01,23,26.13,23
		c1.11,0,2.02,0.9,2.02,2.02S27.24,27.04,26.13,27.04z M27.77,27.38c0.74-0.52,1.23-1.38,1.23-2.36c0-1.25-0.8-2.31-1.92-2.7
		l11.63-3.85c-1.02,1.12-1.65,2.61-1.65,4.25c0,2.52,1.48,4.69,3.61,5.71L27.77,27.38z M57.65,61h-45.3V31h45.3V61z M59.65,31.27
		c7.25,8.46,7.25,21.01,0,29.47V31.27z"/>
</g>
</svg>
