<?xml version="1.0" encoding="utf-8"?>
<!-- Generator: Adobe Illustrator 23.0.0, SVG Export Plug-In . SVG Version: 6.00 Build 0)  -->
<svg version="1.1" xmlns="http://www.w3.org/2000/svg" xmlns:xlink="http://www.w3.org/1999/xlink" x="0px" y="0px"
	 viewBox="0 0 70 70" style="enable-background:new 0 0 70 70;" xml:space="preserve">
<style type="text/css">
	.st0{display:none;fill:#FFFFFF;}
	.st1{fill:#FFFFFF;}
	.st2{display:none;}
	.st3{display:inline;}
</style>
<g id="Layer_1">
</g>
<g id="Layer_2">
</g>
<g id="Layer_3">
</g>
<g id="Layer_4">
	<g>
		<g>
			<path d="M35,2c18.2,0,33,14.8,33,33S53.2,68,35,68S2,53.2,2,35S16.8,2,35,2 M35,0C15.67,0,0,15.67,0,35s15.67,35,35,35
				s35-15.67,35-35S54.33,0,35,0L35,0z"/>
		</g>
		<g>
			<path d="M35,27.78c1.98,0,3.77,0.8,5.06,2.1c1.29,1.3,2.1,3.08,2.1,5.06c0,1.98-0.8,3.77-2.1,5.06c-1.3,1.3-3.08,2.1-5.06,2.1
				c-1.98,0-3.77-0.8-5.06-2.1c-1.3-1.3-2.1-3.08-2.1-5.06c0-1.98,0.8-3.77,2.1-5.06C31.23,28.58,33.02,27.78,35,27.78L35,27.78z
				 M38.23,31.7c-0.83-0.83-1.97-1.34-3.23-1.34c-1.26,0-2.4,0.51-3.23,1.34c-0.83,0.83-1.34,1.97-1.34,3.23
				c0,1.26,0.51,2.4,1.34,3.23c0.83,0.83,1.97,1.34,3.23,1.34c1.26,0,2.4-0.51,3.23-1.34c0.83-0.83,1.34-1.97,1.34-3.23
				C39.57,33.67,39.06,32.53,38.23,31.7z"/>
			<path d="M30.26,30.63c0.22,0.68,0.94,1.05,1.62,0.84c0.68-0.21,1.05-0.94,0.84-1.62c-0.01-0.04-4.28-13.28-1.69-15.27l-0.78-1.03
				l0.79,1.03c0.04-0.03,0.07-0.06,0.11-0.09c3.2-2.57,8.27-2.27,11.73-0.89c0.92,0.37,1.71,0.81,2.3,1.29
				c0.49,0.4,0.82,0.79,0.92,1.15c0.09,0.31-0.08,0.68-0.59,1.08l0,0l-0.01,0.01l0,0c-0.02,0.02-0.04,0.03-0.06,0.05
				c-0.81,0.63-8.55,6.68-9.87,11.86c-0.18,0.69,0.24,1.4,0.94,1.57c0.69,0.18,1.4-0.24,1.57-0.94c1.1-4.33,8.15-9.85,8.93-10.45
				c0.03-0.02,0.05-0.04,0.08-0.06l0,0c1.48-1.15,1.88-2.49,1.49-3.84c-0.26-0.89-0.88-1.72-1.77-2.44
				c-0.79-0.64-1.81-1.22-2.98-1.68c-4.14-1.65-10.29-1.94-14.3,1.27c-0.02,0.02-0.05,0.03-0.07,0.05l0,0
				C25.41,15.64,30.24,30.58,30.26,30.63z"/>
			<path d="M39.3,30.19c-0.68,0.21-1.05,0.94-0.84,1.62c0.21,0.68,0.94,1.05,1.62,0.84c0.04-0.01,13.28-4.28,15.27-1.69l1.03-0.78
				l-1.03,0.79c0.03,0.04,0.06,0.07,0.09,0.11c2.74,3.4,2.39,8.27,0.96,11.59c-0.39,0.91-0.85,1.68-1.35,2.27
				c-0.43,0.5-0.85,0.84-1.24,0.97c-0.32,0.1-0.67-0.02-1.01-0.45l0,0l-0.01-0.01l0,0c-0.02-0.02-0.03-0.04-0.05-0.06
				c-0.63-0.81-6.68-8.55-11.86-9.87c-0.69-0.18-1.4,0.24-1.57,0.94c-0.18,0.69,0.24,1.4,0.94,1.57c4.33,1.1,9.85,8.15,10.45,8.93
				c0.02,0.03,0.04,0.05,0.06,0.08l0,0c1.11,1.43,2.46,1.78,3.84,1.34c0.86-0.28,1.69-0.89,2.42-1.76c0.66-0.78,1.27-1.78,1.75-2.91
				c1.73-4.02,2.1-9.97-1.33-14.23c-0.02-0.02-0.03-0.04-0.05-0.07l0,0C54.29,25.35,39.35,30.18,39.3,30.19z"/>
			<path d="M39.74,39.24c-0.22-0.68-0.94-1.05-1.62-0.84c-0.68,0.22-1.05,0.94-0.84,1.62c0.01,0.04,4.28,13.28,1.69,15.27l0.78,1.03
				l-0.79-1.03c-0.04,0.03-0.07,0.06-0.11,0.09c-3.4,2.74-8.27,2.39-11.59,0.96c-0.91-0.39-1.68-0.85-2.27-1.35
				c-0.5-0.43-0.84-0.85-0.97-1.24c-0.1-0.32,0.02-0.67,0.45-1.01l0,0l0.01-0.01l0,0c0.02-0.02,0.04-0.03,0.06-0.05
				c0.81-0.63,8.55-6.68,9.87-11.86c0.18-0.69-0.24-1.4-0.94-1.57c-0.69-0.18-1.4,0.24-1.57,0.94c-1.1,4.33-8.15,9.85-8.93,10.45
				c-0.03,0.02-0.05,0.04-0.08,0.06l0,0c-1.43,1.11-1.78,2.46-1.34,3.84c0.28,0.86,0.89,1.69,1.76,2.42
				c0.78,0.66,1.78,1.27,2.91,1.75c4.02,1.73,9.97,2.1,14.23-1.33c0.02-0.02,0.04-0.03,0.07-0.05l0,0
				C44.59,54.22,39.76,39.28,39.74,39.24z"/>
			<path d="M30.7,39.67c0.68-0.21,1.05-0.94,0.84-1.62c-0.22-0.68-0.94-1.05-1.62-0.84c-0.04,0.01-13.28,4.28-15.27,1.69l-1.03,0.78
				l1.03-0.79c-0.03-0.04-0.06-0.07-0.09-0.11c-2.74-3.4-2.39-8.27-0.96-11.59c0.39-0.91,0.85-1.68,1.35-2.27
				c0.43-0.5,0.85-0.84,1.24-0.97c0.32-0.1,0.67,0.02,1.01,0.45l0,0l0.01,0.01l0,0c0.02,0.02,0.03,0.04,0.05,0.06
				c0.63,0.81,6.68,8.55,11.86,9.87c0.69,0.18,1.4-0.24,1.57-0.94c0.18-0.69-0.24-1.4-0.94-1.57c-4.33-1.1-9.85-8.15-10.45-8.93
				c-0.02-0.03-0.04-0.05-0.06-0.08l0,0c-1.11-1.43-2.46-1.78-3.84-1.34c-0.86,0.28-1.69,0.89-2.42,1.76
				c-0.66,0.78-1.27,1.78-1.75,2.91c-1.73,4.02-2.1,9.97,1.33,14.23c0.02,0.02,0.03,0.04,0.05,0.07l0,0
				C15.71,44.52,30.65,39.69,30.7,39.67z"/>
		</g>
	</g>
</g>
<g id="Layer_5">
</g>
<g id="Layer_6">
</g>
<g id="Layer_7">
</g>
<g id="Layer_8">
</g>
</svg>
