<?xml version="1.0" encoding="utf-8"?>
<!-- Generator: Adobe Illustrator 23.0.0, SVG Export Plug-In . SVG Version: 6.00 Build 0)  -->
<svg version="1.1" xmlns="http://www.w3.org/2000/svg" xmlns:xlink="http://www.w3.org/1999/xlink" x="0px" y="0px"
	 viewBox="0 0 70 70" style="enable-background:new 0 0 70 70;" xml:space="preserve">
<style type="text/css">
	.st0{display:none;fill:#FFFFFF;}
	.st1{fill:#FFFFFF;}
	.st2{display:none;}
	.st3{display:inline;}
</style>
<g id="Layer_1">
</g>
<g id="Layer_2">
</g>
<g id="Layer_3">
</g>
<g id="Layer_4">
</g>
<g id="Layer_5">
</g>
<g id="Layer_6">
	<path d="M35,0C15.67,0,0,15.67,0,35s15.67,35,35,35s35-15.67,35-35S54.33,0,35,0z M35,2c17.86,0,32.44,14.27,32.97,32H52.17
		c-1.31,0-2.49,0.79-3,2l0,0l-5.83,13.99c-0.19,0.45-0.82,0.45-1.01,0L36.5,36l-0.83-2l-7.99-19.18c-0.19-0.45-0.83-0.45-1.02,0
		L19.5,32c-0.5,1.21-1.69,2-3,2H2.03C2.56,16.27,17.14,2,35,2z M35,68C17.14,68,2.56,53.73,2.03,36h15.81c1.31,0,2.5-0.79,3-2l0,0
		l5.83-13.98c0.19-0.45,0.83-0.45,1.02,0L33.5,34l0.83,2l8,19.19c0.19,0.45,0.82,0.45,1.01,0L50.5,38c0.5-1.21,1.69-2,3-2h14.47
		C67.44,53.73,52.86,68,35,68z"/>
</g>
<g id="Layer_7">
</g>
<g id="Layer_8">
</g>
</svg>
