<?xml version="1.0" encoding="utf-8"?>
<!-- Generator: Adobe Illustrator 23.0.0, SVG Export Plug-In . SVG Version: 6.00 Build 0)  -->
<svg version="1.1" xmlns="http://www.w3.org/2000/svg" xmlns:xlink="http://www.w3.org/1999/xlink" x="0px" y="0px"
	 viewBox="0 0 70 70" style="enable-background:new 0 0 70 70;" xml:space="preserve">
<style type="text/css">
	.st0{display:none;fill:#FFFFFF;}
	.st1{fill:#FFFFFF;}
	.st2{display:none;}
	.st3{display:inline;}
</style>
<g id="Layer_1">
</g>
<g id="Layer_2">
</g>
<g id="Layer_3">
</g>
<g id="Layer_4">
</g>
<g id="Layer_5">
	<g>
		<g>
			<path d="M35,2c18.2,0,33,14.8,33,33S53.2,68,35,68S2,53.2,2,35S16.8,2,35,2 M35,0C15.67,0,0,15.67,0,35s15.67,35,35,35
				s35-15.67,35-35S54.33,0,35,0L35,0z"/>
		</g>
		<g>
			<path d="M20.1,21.76h10.76l4.15,16.12l4.12-16.12H49.9v26.49h-6.7v-20.2l-5.17,20.2h-6.07l-5.16-20.2v20.2h-6.7V21.76z"/>
		</g>
	</g>
</g>
<g id="Layer_6">
</g>
<g id="Layer_7">
</g>
<g id="Layer_8">
</g>
</svg>
