<?xml version="1.0" encoding="utf-8"?>
<!-- Generator: Adobe Illustrator 23.0.0, SVG Export Plug-In . SVG Version: 6.00 Build 0)  -->
<svg version="1.1" xmlns="http://www.w3.org/2000/svg" xmlns:xlink="http://www.w3.org/1999/xlink" x="0px" y="0px"
	 viewBox="0 0 70 70" style="enable-background:new 0 0 70 70;" xml:space="preserve">
<style type="text/css">
	.st0{display:none;fill:#FFFFFF;}
	.st1{fill:#FFFFFF;}
	.st2{display:none;}
	.st3{display:inline;}
</style>
<g id="Layer_1">
</g>
<g id="Layer_2">
</g>
<g id="Layer_3">
	<g class="st2">
		<path class="st3" d="M35,59.5c-2.76,0-5-1.57-5-3.5c0-10.5,0-42,0-42c0-1.93,2.24-3.5,5-3.5s5,1.57,5,3.5v42
			C40,57.93,37.76,59.5,35,59.5z"/>
	</g>
	<g>
		<path d="M66.34,3C66.7,3,67,3.3,67,3.66v62.67C67,66.7,66.7,67,66.34,67H3.66C3.3,67,3,66.7,3,66.34V3.66C3,3.3,3.3,3,3.66,3
			H66.34 M66.34,0H3.66C1.64,0,0,1.64,0,3.66v62.67C0,68.36,1.64,70,3.66,70h62.67c2.02,0,3.66-1.64,3.66-3.66V3.66
			C70,1.64,68.36,0,66.34,0L66.34,0z"/>
	</g>
	<path d="M46.39,37.77c-1.82-1.32-4.36-0.91-5.68,0.92L38,42.44V16c0-1.66-1.34-3-3-3s-3,1.34-3,3v26.44l-2.71-3.75
		c-1.32-1.82-3.86-2.23-5.68-0.92c-1.82,1.32-2.23,3.86-0.92,5.68l7.29,10.09L35,60.49l5.02-6.95l7.29-10.09
		C48.62,41.63,48.21,39.09,46.39,37.77z"/>
</g>
<g id="Layer_4">
</g>
<g id="Layer_5">
</g>
<g id="Layer_6">
</g>
<g id="Layer_7">
</g>
<g id="Layer_8">
</g>
</svg>
