<?xml version="1.0" encoding="utf-8"?>
<!-- Generator: Adobe Illustrator 23.0.0, SVG Export Plug-In . SVG Version: 6.00 Build 0)  -->
<svg version="1.1" id="Layer_1" xmlns="http://www.w3.org/2000/svg" xmlns:xlink="http://www.w3.org/1999/xlink" x="0px" y="0px"
	 viewBox="0 0 70 70" style="enable-background:new 0 0 70 70;" xml:space="preserve">
<style type="text/css">
	.st0{display:none;}
</style>
<g>
	<path d="M70,21v-3.5h-8.5v-5.8c0-1.3-1.1-2.4-2.4-2.4H53V0.5h-3.5v8.8h-4.6V0.5h-3.5v8.8h-4.6V0.5h-3.5v8.8h-4.6V0.5h-3.5v8.8h-4.6
		V0.5H17v8.8h-6.1c-1.3,0-2.4,1.1-2.4,2.4v4.8H0V20h8.5v4.6H0v3.5h8.5v4.6H0v3.5h8.5v4.6H0v3.5h8.5V49H0v3.5h8.5v5.8
		c0,1.3,1.1,2.4,2.4,2.4H16v8.8h3.5v-8.8h4.6v8.8h3.5v-8.8h4.6v8.8h3.5v-8.8h4.6v8.8h3.5v-8.8h4.6v8.8H52v-8.8h7.1
		c1.3,0,2.4-1.1,2.4-2.4v-4.8H70V50h-8.5v-4.6H70v-3.5h-8.5v-4.6H70v-3.5h-8.5v-4.6H70v-3.5h-8.5V21H70z M58.5,57.7h-47V12.3h47
		V57.7z"/>
	<polygon class="st0" points="23.1,45.6 20,45.6 20,42.5 18.4,42.5 18.4,50.4 20,50.4 20,46.9 23.1,46.9 23.1,50.4 24.7,50.4 
		24.7,42.5 23.1,42.5 	"/>
	<polygon class="st0" points="25.8,43.8 28.1,43.8 28.1,50.4 29.7,50.4 29.7,43.8 32,43.8 32,42.5 25.8,42.5 	"/>
	<path class="st0" d="M34.6,47.1H35c0.4,0,0.6,0,0.8,0.1s0.3,0.2,0.5,0.3s0.4,0.5,0.8,1.2l1.1,1.7h1.9l-1-1.5
		c-0.4-0.6-0.7-1-0.9-1.3c-0.2-0.2-0.5-0.5-0.9-0.7c0.7-0.1,1.2-0.3,1.6-0.7s0.5-0.9,0.5-1.5c0-0.5-0.1-0.9-0.3-1.2
		c-0.2-0.4-0.5-0.6-0.9-0.8c-0.4-0.1-1-0.2-1.8-0.2H33v7.9h1.6V47.1z M34.6,43.8h1.2c0.6,0,1,0,1.2,0c0.3,0,0.5,0.1,0.6,0.3
		s0.2,0.4,0.2,0.6c0,0.2-0.1,0.4-0.2,0.6s-0.3,0.3-0.4,0.3s-0.7,0.1-1.4,0.1h-1.2C34.6,45.7,34.6,43.8,34.6,43.8z"/>
	<path class="st0" d="M43.2,42.4c-0.8,0-1.4,0.3-1.8,0.8c-0.5,0.7-0.8,1.7-0.8,3.2s0.2,2.6,0.7,3.2c0.5,0.6,1.1,0.9,1.9,0.9
		c0.8,0,1.4-0.3,1.8-0.8c0.5-0.7,0.8-1.7,0.8-3.2s-0.3-2.6-0.8-3.2C44.6,42.7,44,42.4,43.2,42.4z M44,48.4c-0.1,0.3-0.2,0.5-0.3,0.6
		s-0.3,0.2-0.5,0.2s-0.3-0.1-0.5-0.2c-0.1-0.1-0.3-0.3-0.4-0.7c-0.1-0.3-0.1-1-0.1-1.9s0.1-1.6,0.2-2c0.1-0.3,0.2-0.5,0.3-0.6
		s0.3-0.2,0.5-0.2s0.3,0.1,0.5,0.2c0.1,0.1,0.3,0.3,0.4,0.7c0.1,0.3,0.1,1,0.1,1.9S44.1,48,44,48.4z"/>
	<path class="st0" d="M50.1,47.7c0.5-0.4,0.8-0.8,1-1c0.3-0.4,0.5-0.7,0.6-1s0.2-0.7,0.2-1c0-0.6-0.2-1.1-0.7-1.6
		c-0.4-0.4-1.1-0.6-1.8-0.6s-1.3,0.2-1.8,0.5c-0.5,0.4-0.8,1-0.8,1.8l1.5,0.2c0-0.4,0.1-0.8,0.3-0.9c0.2-0.2,0.4-0.3,0.8-0.3
		c0.3,0,0.6,0.1,0.8,0.3s0.3,0.4,0.3,0.8c0,0.3-0.1,0.6-0.3,0.9c-0.2,0.2-0.6,0.7-1.3,1.3c-0.8,0.8-1.4,1.4-1.7,1.9s-0.5,1-0.5,1.5
		H52v-1.4h-3c0.1-0.1,0.2-0.3,0.3-0.4C49.3,48.4,49.6,48.1,50.1,47.7z"/>
</g>
<g>
	<path d="M29.4,41.8h-3l-1.2-3.1h-5.4l-1.1,3.1h-2.9l5.3-13.6H24L29.4,41.8z M24.4,36.4l-1.9-5l-1.8,5H24.4z"/>
	<path d="M32.6,41.8V30.5h-4v-2.3h10.8v2.3h-4v11.3H32.6z"/>
	<path d="M41.1,41.8V28.2h4.1l2.5,9.3l2.4-9.3h4.1v13.6h-2.6V31.1l-2.7,10.7h-2.6l-2.7-10.7v10.7H41.1z"/>
</g>
</svg>
